ISO-10303-21;
HEADER;
/* Generated by software containing ST-Developer
 * from STEP Tools, Inc. (www.steptools.com) 
 */

FILE_DESCRIPTION(
/* description */ (''),
/* implementation_level */ '2;1');

FILE_NAME(
/* name */ 'finger-left.step',
/* time_stamp */ '2026-05-30T14:32:56+02:00',
/* author */ (''),
/* organization */ (''),
/* preprocessor_version */ 'ST-DEVELOPER v20.1',
/* originating_system */ 'Autodesk Translation Framework v15.8.0.0',
/* authorisation */ '');

FILE_SCHEMA (('AUTOMOTIVE_DESIGN { 1 0 10303 214 3 1 1 }'));
ENDSEC;

DATA;
#10=MECHANICAL_DESIGN_GEOMETRIC_PRESENTATION_REPRESENTATION('',(#13),#1576);
#11=SHAPE_REPRESENTATION_RELATIONSHIP('SRR','None',#1583,#12);
#12=ADVANCED_BREP_SHAPE_REPRESENTATION('',(#14),#1575);
#13=STYLED_ITEM('',(#1592),#14);
#14=MANIFOLD_SOLID_BREP('Body1',#793);
#15=FACE_BOUND('',#142,.T.);
#16=FACE_BOUND('',#143,.T.);
#17=FACE_BOUND('',#150,.T.);
#18=FACE_BOUND('',#154,.T.);
#19=B_SPLINE_SURFACE_WITH_KNOTS('',3,3,((#1366,#1367,#1368,#1369,#1370,
#1371,#1372,#1373,#1374,#1375,#1376,#1377,#1378,#1379,#1380,#1381,#1382),
(#1383,#1384,#1385,#1386,#1387,#1388,#1389,#1390,#1391,#1392,#1393,#1394,
#1395,#1396,#1397,#1398,#1399),(#1400,#1401,#1402,#1403,#1404,#1405,#1406,
#1407,#1408,#1409,#1410,#1411,#1412,#1413,#1414,#1415,#1416),(#1417,#1418,
#1419,#1420,#1421,#1422,#1423,#1424,#1425,#1426,#1427,#1428,#1429,#1430,
#1431,#1432,#1433),(#1434,#1435,#1436,#1437,#1438,#1439,#1440,#1441,#1442,
#1443,#1444,#1445,#1446,#1447,#1448,#1449,#1450)),.UNSPECIFIED.,.F.,.F.,
 .F.,(4,1,4),(4,1,1,1,1,1,1,1,1,1,1,1,1,1,4),(0.,0.571428571428571,1.),
(-3.14159268195026,-2.74960793156697,-2.35762318118367,-1.96563843080038,
-1.57365368041708,-1.05100734657269,-0.789684179650489,-0.00571467888389732,
0.386270071499399,0.484266259095222,0.778254821882694,1.17023957226599,
1.56222432264929,1.95420907303258,2.34619382341588),.UNSPECIFIED.);
#20=B_SPLINE_SURFACE_WITH_KNOTS('',3,3,((#1473,#1474,#1475,#1476,#1477,
#1478,#1479,#1480,#1481,#1482,#1483,#1484,#1485,#1486,#1487,#1488,#1489),
(#1490,#1491,#1492,#1493,#1494,#1495,#1496,#1497,#1498,#1499,#1500,#1501,
#1502,#1503,#1504,#1505,#1506),(#1507,#1508,#1509,#1510,#1511,#1512,#1513,
#1514,#1515,#1516,#1517,#1518,#1519,#1520,#1521,#1522,#1523),(#1524,#1525,
#1526,#1527,#1528,#1529,#1530,#1531,#1532,#1533,#1534,#1535,#1536,#1537,
#1538,#1539,#1540),(#1541,#1542,#1543,#1544,#1545,#1546,#1547,#1548,#1549,
#1550,#1551,#1552,#1553,#1554,#1555,#1556,#1557)),.UNSPECIFIED.,.F.,.T.,
 .F.,(4,1,4),(4,1,1,1,1,1,1,1,1,1,1,1,1,1,4),(0.,0.571428571428571,1.),
(-3.14159265358979,-2.69279370307697,-2.24399475256414,-1.79519580205131,
-1.34639685153848,-1.0471975511966,-0.448798950512828,0.149599650170943,
0.448798950512828,0.897597901025655,1.34639685153848,1.79519580205131,2.24399475256414,
2.69279370307697,3.14159265358979),.UNSPECIFIED.);
#21=TOROIDAL_SURFACE('',#844,9.99999999999999,1.);
#22=CIRCLE('',#833,1.00000000000001);
#23=CIRCLE('',#835,9.99999999999999);
#24=CIRCLE('',#840,11.);
#25=CIRCLE('',#841,11.0000000048521);
#26=CIRCLE('',#842,11.);
#27=CIRCLE('',#845,1.);
#28=CIRCLE('',#846,8.99999999999999);
#29=CIRCLE('',#848,9.00000000593027);
#30=CIRCLE('',#849,9.00000000593027);
#31=CIRCLE('',#863,1.00000000000002);
#32=CIRCLE('',#864,10.0000000053372);
#33=CIRCLE('',#866,10.0000000053372);
#34=CIRCLE('',#868,0.849999999999982);
#35=CIRCLE('',#869,0.849999999999982);
#36=CIRCLE('',#872,1.8);
#37=CIRCLE('',#873,1.8);
#38=CIRCLE('',#874,1.8);
#39=CIRCLE('',#876,1.79999999999999);
#40=CIRCLE('',#877,1.79999999999999);
#41=CIRCLE('',#878,1.);
#42=CIRCLE('',#880,1.79999999999999);
#43=CIRCLE('',#882,0.849999999999982);
#44=CIRCLE('',#885,0.849999999999982);
#45=B_SPLINE_CURVE_WITH_KNOTS('',3,(#1178,#1179,#1180,#1181,#1182,#1183,
#1184,#1185,#1186,#1187,#1188,#1189,#1190,#1191),.UNSPECIFIED.,.F.,.F.,
(4,2,2,2,2,2,4),(-0.36789349064153,-0.335764082685397,-0.29648832720624,
-0.234258651764293,-0.128624492282664,0.,0.00112794632899584),
 .UNSPECIFIED.);
#46=B_SPLINE_CURVE_WITH_KNOTS('',3,(#1220,#1221,#1222,#1223,#1224,#1225,
#1226,#1227,#1228,#1229,#1230,#1231,#1232,#1233,#1234),.UNSPECIFIED.,.F.,
 .F.,(4,2,2,3,2,2,4),(1.08101381280802,1.08838717260508,1.15891744000502,
1.22944770740497,1.29997797480492,1.37050824220487,1.37788160200193),
 .UNSPECIFIED.);
#47=B_SPLINE_CURVE_WITH_KNOTS('',3,(#1301,#1302,#1303,#1304,#1305,#1306,
#1307,#1308,#1309,#1310,#1311,#1312,#1313,#1314,#1315,#1316),
 .UNSPECIFIED.,.F.,.F.,(4,2,2,2,2,2,2,4),(-0.197942550760688,-0.197276649428988,
-0.14261603921436,-0.0916790459308525,-0.0520023370001978,-0.025659038533492,
-0.00595313602491978,-5.0493027811526E-6),.UNSPECIFIED.);
#48=B_SPLINE_CURVE_WITH_KNOTS('',3,(#1340,#1341,#1342,#1343,#1344,#1345,
#1346,#1347,#1348,#1349,#1350,#1351,#1352,#1353,#1354),.UNSPECIFIED.,.F.,
 .F.,(4,2,2,3,2,2,4),(1.08099497927626,1.088361161666,1.15889073062377,
1.22942029958154,1.29994986853932,1.37047943749709,1.37784561988682),
 .UNSPECIFIED.);
#49=PLANE('',#815);
#50=PLANE('',#816);
#51=PLANE('',#817);
#52=PLANE('',#818);
#53=PLANE('',#819);
#54=PLANE('',#834);
#55=PLANE('',#836);
#56=PLANE('',#837);
#57=PLANE('',#838);
#58=PLANE('',#843);
#59=PLANE('',#865);
#60=PLANE('',#867);
#61=PLANE('',#870);
#62=PLANE('',#875);
#63=PLANE('',#881);
#64=PLANE('',#886);
#65=FACE_OUTER_BOUND('',#108,.T.);
#66=FACE_OUTER_BOUND('',#109,.T.);
#67=FACE_OUTER_BOUND('',#110,.T.);
#68=FACE_OUTER_BOUND('',#111,.T.);
#69=FACE_OUTER_BOUND('',#112,.T.);
#70=FACE_OUTER_BOUND('',#113,.T.);
#71=FACE_OUTER_BOUND('',#114,.T.);
#72=FACE_OUTER_BOUND('',#115,.T.);
#73=FACE_OUTER_BOUND('',#116,.T.);
#74=FACE_OUTER_BOUND('',#117,.T.);
#75=FACE_OUTER_BOUND('',#118,.T.);
#76=FACE_OUTER_BOUND('',#119,.T.);
#77=FACE_OUTER_BOUND('',#120,.T.);
#78=FACE_OUTER_BOUND('',#121,.T.);
#79=FACE_OUTER_BOUND('',#122,.T.);
#80=FACE_OUTER_BOUND('',#123,.T.);
#81=FACE_OUTER_BOUND('',#124,.T.);
#82=FACE_OUTER_BOUND('',#125,.T.);
#83=FACE_OUTER_BOUND('',#126,.T.);
#84=FACE_OUTER_BOUND('',#127,.T.);
#85=FACE_OUTER_BOUND('',#128,.T.);
#86=FACE_OUTER_BOUND('',#129,.T.);
#87=FACE_OUTER_BOUND('',#130,.T.);
#88=FACE_OUTER_BOUND('',#131,.T.);
#89=FACE_OUTER_BOUND('',#132,.T.);
#90=FACE_OUTER_BOUND('',#133,.T.);
#91=FACE_OUTER_BOUND('',#134,.T.);
#92=FACE_OUTER_BOUND('',#135,.T.);
#93=FACE_OUTER_BOUND('',#136,.T.);
#94=FACE_OUTER_BOUND('',#137,.T.);
#95=FACE_OUTER_BOUND('',#138,.T.);
#96=FACE_OUTER_BOUND('',#139,.T.);
#97=FACE_OUTER_BOUND('',#140,.T.);
#98=FACE_OUTER_BOUND('',#141,.T.);
#99=FACE_OUTER_BOUND('',#144,.T.);
#100=FACE_OUTER_BOUND('',#145,.T.);
#101=FACE_OUTER_BOUND('',#146,.T.);
#102=FACE_OUTER_BOUND('',#147,.T.);
#103=FACE_OUTER_BOUND('',#148,.T.);
#104=FACE_OUTER_BOUND('',#149,.T.);
#105=FACE_OUTER_BOUND('',#151,.T.);
#106=FACE_OUTER_BOUND('',#152,.T.);
#107=FACE_OUTER_BOUND('',#153,.T.);
#108=EDGE_LOOP('',(#498,#499,#500,#501,#502));
#109=EDGE_LOOP('',(#503,#504,#505,#506,#507));
#110=EDGE_LOOP('',(#508,#509,#510,#511,#512,#513));
#111=EDGE_LOOP('',(#514,#515,#516,#517));
#112=EDGE_LOOP('',(#518,#519,#520,#521,#522));
#113=EDGE_LOOP('',(#523,#524,#525,#526));
#114=EDGE_LOOP('',(#527,#528,#529,#530));
#115=EDGE_LOOP('',(#531,#532,#533,#534,#535));
#116=EDGE_LOOP('',(#536,#537,#538,#539,#540,#541));
#117=EDGE_LOOP('',(#542,#543,#544,#545));
#118=EDGE_LOOP('',(#546,#547,#548,#549));
#119=EDGE_LOOP('',(#550,#551,#552,#553,#554,#555));
#120=EDGE_LOOP('',(#556,#557,#558,#559));
#121=EDGE_LOOP('',(#560,#561,#562,#563,#564,#565));
#122=EDGE_LOOP('',(#566,#567,#568,#569));
#123=EDGE_LOOP('',(#570,#571,#572,#573));
#124=EDGE_LOOP('',(#574,#575,#576,#577,#578,#579,#580,#581));
#125=EDGE_LOOP('',(#582,#583,#584,#585,#586,#587));
#126=EDGE_LOOP('',(#588,#589,#590,#591));
#127=EDGE_LOOP('',(#592,#593,#594,#595,#596,#597));
#128=EDGE_LOOP('',(#598,#599,#600,#601,#602,#603,#604));
#129=EDGE_LOOP('',(#605,#606,#607,#608,#609,#610,#611,#612));
#130=EDGE_LOOP('',(#613,#614,#615,#616,#617,#618,#619,#620));
#131=EDGE_LOOP('',(#621,#622,#623,#624,#625));
#132=EDGE_LOOP('',(#626,#627,#628,#629));
#133=EDGE_LOOP('',(#630,#631,#632,#633,#634,#635));
#134=EDGE_LOOP('',(#636,#637,#638,#639,#640));
#135=EDGE_LOOP('',(#641,#642,#643,#644));
#136=EDGE_LOOP('',(#645,#646,#647,#648));
#137=EDGE_LOOP('',(#649,#650,#651,#652,#653,#654));
#138=EDGE_LOOP('',(#655,#656,#657,#658,#659));
#139=EDGE_LOOP('',(#660,#661,#662,#663,#664));
#140=EDGE_LOOP('',(#665,#666,#667,#668,#669,#670,#671,#672));
#141=EDGE_LOOP('',(#673,#674,#675,#676,#677));
#142=EDGE_LOOP('',(#678));
#143=EDGE_LOOP('',(#679));
#144=EDGE_LOOP('',(#680,#681,#682,#683));
#145=EDGE_LOOP('',(#684,#685,#686,#687,#688,#689));
#146=EDGE_LOOP('',(#690,#691,#692,#693,#694,#695,#696,#697,#698,#699,#700,
#701));
#147=EDGE_LOOP('',(#702,#703,#704,#705,#706,#707));
#148=EDGE_LOOP('',(#708,#709,#710,#711,#712,#713));
#149=EDGE_LOOP('',(#714));
#150=EDGE_LOOP('',(#715));
#151=EDGE_LOOP('',(#716,#717,#718,#719));
#152=EDGE_LOOP('',(#720,#721,#722,#723));
#153=EDGE_LOOP('',(#724));
#154=EDGE_LOOP('',(#725));
#155=ELLIPSE('',#808,1.4142135623731,1.);
#156=ELLIPSE('',#809,1.4142135623731,1.);
#157=ELLIPSE('',#811,1.4142135623731,1.);
#158=ELLIPSE('',#812,1.4142135623731,1.);
#159=ELLIPSE('',#821,1.41421356237406,1.);
#160=ELLIPSE('',#823,1.41421356237308,1.);
#161=ELLIPSE('',#824,1.41421356237309,1.);
#162=ELLIPSE('',#826,1.41421356237313,1.);
#163=ELLIPSE('',#828,1.41421356237311,1.);
#164=ELLIPSE('',#830,1.41421356237308,1.);
#165=ELLIPSE('',#851,1.41421356237399,1.);
#166=ELLIPSE('',#853,1.41421356237308,1.);
#167=ELLIPSE('',#855,1.41421356237309,1.);
#168=ELLIPSE('',#856,1.41421356237308,1.);
#169=ELLIPSE('',#859,1.41421356237311,1.);
#170=ELLIPSE('',#861,1.41421356237308,1.);
#171=LINE('',#1124,#242);
#172=LINE('',#1128,#243);
#173=LINE('',#1130,#244);
#174=LINE('',#1135,#245);
#175=LINE('',#1139,#246);
#176=LINE('',#1141,#247);
#177=LINE('',#1146,#248);
#178=LINE('',#1147,#249);
#179=LINE('',#1148,#250);
#180=LINE('',#1149,#251);
#181=LINE('',#1151,#252);
#182=LINE('',#1152,#253);
#183=LINE('',#1155,#254);
#184=LINE('',#1157,#255);
#185=LINE('',#1158,#256);
#186=LINE('',#1161,#257);
#187=LINE('',#1162,#258);
#188=LINE('',#1166,#259);
#189=LINE('',#1167,#260);
#190=LINE('',#1169,#261);
#191=LINE('',#1173,#262);
#192=LINE('',#1177,#263);
#193=LINE('',#1195,#264);
#194=LINE('',#1199,#265);
#195=LINE('',#1203,#266);
#196=LINE('',#1205,#267);
#197=LINE('',#1207,#268);
#198=LINE('',#1209,#269);
#199=LINE('',#1213,#270);
#200=LINE('',#1215,#271);
#201=LINE('',#1236,#272);
#202=LINE('',#1239,#273);
#203=LINE('',#1240,#274);
#204=LINE('',#1242,#275);
#205=LINE('',#1243,#276);
#206=LINE('',#1246,#277);
#207=LINE('',#1249,#278);
#208=LINE('',#1254,#279);
#209=LINE('',#1256,#280);
#210=LINE('',#1258,#281);
#211=LINE('',#1260,#282);
#212=LINE('',#1261,#283);
#213=LINE('',#1264,#284);
#214=LINE('',#1265,#285);
#215=LINE('',#1268,#286);
#216=LINE('',#1270,#287);
#217=LINE('',#1272,#288);
#218=LINE('',#1273,#289);
#219=LINE('',#1277,#290);
#220=LINE('',#1279,#291);
#221=LINE('',#1284,#292);
#222=LINE('',#1285,#293);
#223=LINE('',#1295,#294);
#224=LINE('',#1299,#295);
#225=LINE('',#1319,#296);
#226=LINE('',#1323,#297);
#227=LINE('',#1327,#298);
#228=LINE('',#1330,#299);
#229=LINE('',#1333,#300);
#230=LINE('',#1335,#301);
#231=LINE('',#1355,#302);
#232=LINE('',#1357,#303);
#233=LINE('',#1360,#304);
#234=LINE('',#1363,#305);
#235=LINE('',#1365,#306);
#236=LINE('',#1455,#307);
#237=LINE('',#1461,#308);
#238=LINE('',#1466,#309);
#239=LINE('',#1561,#310);
#240=LINE('',#1567,#311);
#241=LINE('',#1570,#312);
#242=VECTOR('',#891,10.);
#243=VECTOR('',#894,10.);
#244=VECTOR('',#895,10.);
#245=VECTOR('',#900,10.);
#246=VECTOR('',#903,10.);
#247=VECTOR('',#904,10.);
#248=VECTOR('',#909,10.);
#249=VECTOR('',#910,10.);
#250=VECTOR('',#911,10.);
#251=VECTOR('',#912,10.);
#252=VECTOR('',#915,10.);
#253=VECTOR('',#916,10.);
#254=VECTOR('',#919,10.);
#255=VECTOR('',#920,10.);
#256=VECTOR('',#921,10.);
#257=VECTOR('',#924,10.);
#258=VECTOR('',#925,10.);
#259=VECTOR('',#930,10.);
#260=VECTOR('',#931,10.);
#261=VECTOR('',#934,10.);
#262=VECTOR('',#937,10.);
#263=VECTOR('',#940,10.);
#264=VECTOR('',#943,10.);
#265=VECTOR('',#946,10.);
#266=VECTOR('',#951,10.);
#267=VECTOR('',#952,10.);
#268=VECTOR('',#953,10.);
#269=VECTOR('',#954,10.);
#270=VECTOR('',#959,10.);
#271=VECTOR('',#960,10.);
#272=VECTOR('',#965,10.);
#273=VECTOR('',#968,10.);
#274=VECTOR('',#969,10.);
#275=VECTOR('',#972,10.);
#276=VECTOR('',#973,10.);
#277=VECTOR('',#976,10.);
#278=VECTOR('',#979,10.);
#279=VECTOR('',#986,10.);
#280=VECTOR('',#987,10.);
#281=VECTOR('',#988,10.);
#282=VECTOR('',#989,10.);
#283=VECTOR('',#990,10.);
#284=VECTOR('',#993,10.);
#285=VECTOR('',#994,10.);
#286=VECTOR('',#997,10.);
#287=VECTOR('',#998,10.);
#288=VECTOR('',#999,10.);
#289=VECTOR('',#1000,10.);
#290=VECTOR('',#1005,10.);
#291=VECTOR('',#1006,10.);
#292=VECTOR('',#1013,10.);
#293=VECTOR('',#1014,10.);
#294=VECTOR('',#1027,8.99999999999999);
#295=VECTOR('',#1030,10.);
#296=VECTOR('',#1035,10.);
#297=VECTOR('',#1040,10.);
#298=VECTOR('',#1043,10.);
#299=VECTOR('',#1048,10.);
#300=VECTOR('',#1051,10.);
#301=VECTOR('',#1052,10.);
#302=VECTOR('',#1057,10.);
#303=VECTOR('',#1058,10.);
#304=VECTOR('',#1061,10.);
#305=VECTOR('',#1064,10.);
#306=VECTOR('',#1067,10.);
#307=VECTOR('',#1076,10.);
#308=VECTOR('',#1083,10.);
#309=VECTOR('',#1088,1.8);
#310=VECTOR('',#1103,1.79999999999999);
#311=VECTOR('',#1112,0.849999999999982);
#312=VECTOR('',#1115,0.849999999999982);
#313=VERTEX_POINT('',#1122);
#314=VERTEX_POINT('',#1123);
#315=VERTEX_POINT('',#1125);
#316=VERTEX_POINT('',#1127);
#317=VERTEX_POINT('',#1129);
#318=VERTEX_POINT('',#1133);
#319=VERTEX_POINT('',#1134);
#320=VERTEX_POINT('',#1136);
#321=VERTEX_POINT('',#1138);
#322=VERTEX_POINT('',#1140);
#323=VERTEX_POINT('',#1144);
#324=VERTEX_POINT('',#1145);
#325=VERTEX_POINT('',#1154);
#326=VERTEX_POINT('',#1156);
#327=VERTEX_POINT('',#1160);
#328=VERTEX_POINT('',#1165);
#329=VERTEX_POINT('',#1171);
#330=VERTEX_POINT('',#1172);
#331=VERTEX_POINT('',#1174);
#332=VERTEX_POINT('',#1176);
#333=VERTEX_POINT('',#1193);
#334=VERTEX_POINT('',#1194);
#335=VERTEX_POINT('',#1196);
#336=VERTEX_POINT('',#1198);
#337=VERTEX_POINT('',#1202);
#338=VERTEX_POINT('',#1204);
#339=VERTEX_POINT('',#1206);
#340=VERTEX_POINT('',#1208);
#341=VERTEX_POINT('',#1212);
#342=VERTEX_POINT('',#1214);
#343=VERTEX_POINT('',#1218);
#344=VERTEX_POINT('',#1219);
#345=VERTEX_POINT('',#1235);
#346=VERTEX_POINT('',#1237);
#347=VERTEX_POINT('',#1245);
#348=VERTEX_POINT('',#1247);
#349=VERTEX_POINT('',#1253);
#350=VERTEX_POINT('',#1255);
#351=VERTEX_POINT('',#1257);
#352=VERTEX_POINT('',#1259);
#353=VERTEX_POINT('',#1263);
#354=VERTEX_POINT('',#1267);
#355=VERTEX_POINT('',#1269);
#356=VERTEX_POINT('',#1271);
#357=VERTEX_POINT('',#1275);
#358=VERTEX_POINT('',#1278);
#359=VERTEX_POINT('',#1283);
#360=VERTEX_POINT('',#1287);
#361=VERTEX_POINT('',#1291);
#362=VERTEX_POINT('',#1292);
#363=VERTEX_POINT('',#1297);
#364=VERTEX_POINT('',#1298);
#365=VERTEX_POINT('',#1318);
#366=VERTEX_POINT('',#1322);
#367=VERTEX_POINT('',#1324);
#368=VERTEX_POINT('',#1326);
#369=VERTEX_POINT('',#1332);
#370=VERTEX_POINT('',#1334);
#371=VERTEX_POINT('',#1338);
#372=VERTEX_POINT('',#1339);
#373=VERTEX_POINT('',#1356);
#374=VERTEX_POINT('',#1358);
#375=VERTEX_POINT('',#1362);
#376=VERTEX_POINT('',#1456);
#377=VERTEX_POINT('',#1458);
#378=VERTEX_POINT('',#1463);
#379=VERTEX_POINT('',#1465);
#380=VERTEX_POINT('',#1470);
#381=VERTEX_POINT('',#1560);
#382=VERTEX_POINT('',#1564);
#383=VERTEX_POINT('',#1569);
#384=EDGE_CURVE('',#313,#314,#171,.T.);
#385=EDGE_CURVE('',#314,#315,#155,.T.);
#386=EDGE_CURVE('',#316,#315,#172,.T.);
#387=EDGE_CURVE('',#316,#317,#173,.T.);
#388=EDGE_CURVE('',#317,#313,#156,.T.);
#389=EDGE_CURVE('',#318,#319,#174,.T.);
#390=EDGE_CURVE('',#319,#320,#157,.T.);
#391=EDGE_CURVE('',#320,#321,#175,.T.);
#392=EDGE_CURVE('',#322,#321,#176,.T.);
#393=EDGE_CURVE('',#322,#318,#158,.T.);
#394=EDGE_CURVE('',#323,#324,#177,.T.);
#395=EDGE_CURVE('',#324,#320,#178,.T.);
#396=EDGE_CURVE('',#319,#313,#179,.T.);
#397=EDGE_CURVE('',#317,#323,#180,.T.);
#398=EDGE_CURVE('',#314,#318,#181,.T.);
#399=EDGE_CURVE('',#322,#315,#182,.T.);
#400=EDGE_CURVE('',#325,#324,#183,.T.);
#401=EDGE_CURVE('',#326,#325,#184,.T.);
#402=EDGE_CURVE('',#321,#326,#185,.T.);
#403=EDGE_CURVE('',#323,#327,#186,.T.);
#404=EDGE_CURVE('',#325,#327,#187,.T.);
#405=EDGE_CURVE('',#328,#316,#188,.T.);
#406=EDGE_CURVE('',#327,#328,#189,.T.);
#407=EDGE_CURVE('',#328,#326,#190,.T.);
#408=EDGE_CURVE('',#329,#330,#191,.T.);
#409=EDGE_CURVE('',#330,#331,#159,.T.);
#410=EDGE_CURVE('',#331,#332,#192,.T.);
#411=EDGE_CURVE('',#329,#332,#45,.T.);
#412=EDGE_CURVE('',#333,#334,#193,.T.);
#413=EDGE_CURVE('',#334,#335,#160,.T.);
#414=EDGE_CURVE('',#335,#336,#194,.T.);
#415=EDGE_CURVE('',#336,#333,#161,.T.);
#416=EDGE_CURVE('',#337,#335,#195,.T.);
#417=EDGE_CURVE('',#338,#334,#196,.T.);
#418=EDGE_CURVE('',#338,#339,#197,.T.);
#419=EDGE_CURVE('',#340,#339,#198,.T.);
#420=EDGE_CURVE('',#340,#337,#162,.T.);
#421=EDGE_CURVE('',#341,#333,#199,.T.);
#422=EDGE_CURVE('',#336,#342,#200,.T.);
#423=EDGE_CURVE('',#342,#341,#163,.T.);
#424=EDGE_CURVE('',#343,#344,#46,.T.);
#425=EDGE_CURVE('',#344,#345,#201,.T.);
#426=EDGE_CURVE('',#345,#346,#164,.T.);
#427=EDGE_CURVE('',#346,#337,#202,.T.);
#428=EDGE_CURVE('',#340,#343,#203,.T.);
#429=EDGE_CURVE('',#330,#341,#204,.T.);
#430=EDGE_CURVE('',#342,#331,#205,.T.);
#431=EDGE_CURVE('',#345,#347,#206,.T.);
#432=EDGE_CURVE('',#347,#348,#22,.T.);
#433=EDGE_CURVE('',#348,#346,#207,.T.);
#434=EDGE_CURVE('',#332,#348,#23,.T.);
#435=EDGE_CURVE('',#341,#349,#208,.T.);
#436=EDGE_CURVE('',#349,#350,#209,.T.);
#437=EDGE_CURVE('',#351,#350,#210,.T.);
#438=EDGE_CURVE('',#352,#351,#211,.T.);
#439=EDGE_CURVE('',#333,#352,#212,.T.);
#440=EDGE_CURVE('',#330,#353,#213,.T.);
#441=EDGE_CURVE('',#349,#353,#214,.T.);
#442=EDGE_CURVE('',#329,#354,#215,.T.);
#443=EDGE_CURVE('',#354,#355,#216,.T.);
#444=EDGE_CURVE('',#356,#355,#217,.T.);
#445=EDGE_CURVE('',#353,#356,#218,.T.);
#446=EDGE_CURVE('',#347,#357,#24,.T.);
#447=EDGE_CURVE('',#347,#326,#219,.T.);
#448=EDGE_CURVE('',#325,#358,#220,.T.);
#449=EDGE_CURVE('',#354,#358,#25,.T.);
#450=EDGE_CURVE('',#357,#329,#26,.T.);
#451=EDGE_CURVE('',#359,#345,#221,.T.);
#452=EDGE_CURVE('',#358,#359,#222,.T.);
#453=EDGE_CURVE('',#357,#360,#27,.T.);
#454=EDGE_CURVE('',#360,#360,#28,.T.);
#455=EDGE_CURVE('',#361,#362,#29,.T.);
#456=EDGE_CURVE('',#362,#361,#30,.T.);
#457=EDGE_CURVE('',#362,#360,#223,.T.);
#458=EDGE_CURVE('',#363,#364,#224,.T.);
#459=EDGE_CURVE('',#364,#356,#165,.T.);
#460=EDGE_CURVE('',#363,#355,#47,.T.);
#461=EDGE_CURVE('',#364,#365,#225,.T.);
#462=EDGE_CURVE('',#365,#350,#166,.T.);
#463=EDGE_CURVE('',#366,#352,#226,.T.);
#464=EDGE_CURVE('',#351,#367,#167,.T.);
#465=EDGE_CURVE('',#367,#368,#227,.T.);
#466=EDGE_CURVE('',#368,#366,#168,.T.);
#467=EDGE_CURVE('',#365,#367,#228,.T.);
#468=EDGE_CURVE('',#369,#366,#229,.T.);
#469=EDGE_CURVE('',#368,#370,#230,.T.);
#470=EDGE_CURVE('',#370,#369,#169,.T.);
#471=EDGE_CURVE('',#371,#372,#48,.T.);
#472=EDGE_CURVE('',#372,#369,#231,.T.);
#473=EDGE_CURVE('',#370,#373,#232,.T.);
#474=EDGE_CURVE('',#373,#374,#170,.T.);
#475=EDGE_CURVE('',#374,#371,#233,.T.);
#476=EDGE_CURVE('',#373,#375,#234,.T.);
#477=EDGE_CURVE('',#375,#358,#31,.T.);
#478=EDGE_CURVE('',#374,#359,#235,.T.);
#479=EDGE_CURVE('',#363,#375,#32,.T.);
#480=EDGE_CURVE('',#375,#363,#33,.T.);
#481=EDGE_CURVE('',#366,#338,#236,.T.);
#482=EDGE_CURVE('',#376,#376,#34,.T.);
#483=EDGE_CURVE('',#377,#377,#35,.T.);
#484=EDGE_CURVE('',#339,#369,#237,.T.);
#485=EDGE_CURVE('',#378,#371,#36,.T.);
#486=EDGE_CURVE('',#378,#379,#238,.T.);
#487=EDGE_CURVE('',#379,#379,#37,.T.);
#488=EDGE_CURVE('',#372,#378,#38,.T.);
#489=EDGE_CURVE('',#344,#380,#39,.T.);
#490=EDGE_CURVE('',#380,#343,#40,.T.);
#491=EDGE_CURVE('',#361,#375,#41,.T.);
#492=EDGE_CURVE('',#380,#381,#239,.T.);
#493=EDGE_CURVE('',#381,#381,#42,.T.);
#494=EDGE_CURVE('',#382,#382,#43,.T.);
#495=EDGE_CURVE('',#376,#382,#240,.T.);
#496=EDGE_CURVE('',#377,#383,#241,.T.);
#497=EDGE_CURVE('',#383,#383,#44,.T.);
#498=ORIENTED_EDGE('',*,*,#384,.T.);
#499=ORIENTED_EDGE('',*,*,#385,.T.);
#500=ORIENTED_EDGE('',*,*,#386,.F.);
#501=ORIENTED_EDGE('',*,*,#387,.T.);
#502=ORIENTED_EDGE('',*,*,#388,.T.);
#503=ORIENTED_EDGE('',*,*,#389,.T.);
#504=ORIENTED_EDGE('',*,*,#390,.T.);
#505=ORIENTED_EDGE('',*,*,#391,.T.);
#506=ORIENTED_EDGE('',*,*,#392,.F.);
#507=ORIENTED_EDGE('',*,*,#393,.T.);
#508=ORIENTED_EDGE('',*,*,#394,.T.);
#509=ORIENTED_EDGE('',*,*,#395,.T.);
#510=ORIENTED_EDGE('',*,*,#390,.F.);
#511=ORIENTED_EDGE('',*,*,#396,.T.);
#512=ORIENTED_EDGE('',*,*,#388,.F.);
#513=ORIENTED_EDGE('',*,*,#397,.T.);
#514=ORIENTED_EDGE('',*,*,#398,.T.);
#515=ORIENTED_EDGE('',*,*,#393,.F.);
#516=ORIENTED_EDGE('',*,*,#399,.T.);
#517=ORIENTED_EDGE('',*,*,#385,.F.);
#518=ORIENTED_EDGE('',*,*,#391,.F.);
#519=ORIENTED_EDGE('',*,*,#395,.F.);
#520=ORIENTED_EDGE('',*,*,#400,.F.);
#521=ORIENTED_EDGE('',*,*,#401,.F.);
#522=ORIENTED_EDGE('',*,*,#402,.F.);
#523=ORIENTED_EDGE('',*,*,#394,.F.);
#524=ORIENTED_EDGE('',*,*,#403,.T.);
#525=ORIENTED_EDGE('',*,*,#404,.F.);
#526=ORIENTED_EDGE('',*,*,#400,.T.);
#527=ORIENTED_EDGE('',*,*,#389,.F.);
#528=ORIENTED_EDGE('',*,*,#398,.F.);
#529=ORIENTED_EDGE('',*,*,#384,.F.);
#530=ORIENTED_EDGE('',*,*,#396,.F.);
#531=ORIENTED_EDGE('',*,*,#387,.F.);
#532=ORIENTED_EDGE('',*,*,#405,.F.);
#533=ORIENTED_EDGE('',*,*,#406,.F.);
#534=ORIENTED_EDGE('',*,*,#403,.F.);
#535=ORIENTED_EDGE('',*,*,#397,.F.);
#536=ORIENTED_EDGE('',*,*,#399,.F.);
#537=ORIENTED_EDGE('',*,*,#392,.T.);
#538=ORIENTED_EDGE('',*,*,#402,.T.);
#539=ORIENTED_EDGE('',*,*,#407,.F.);
#540=ORIENTED_EDGE('',*,*,#405,.T.);
#541=ORIENTED_EDGE('',*,*,#386,.T.);
#542=ORIENTED_EDGE('',*,*,#408,.T.);
#543=ORIENTED_EDGE('',*,*,#409,.T.);
#544=ORIENTED_EDGE('',*,*,#410,.T.);
#545=ORIENTED_EDGE('',*,*,#411,.F.);
#546=ORIENTED_EDGE('',*,*,#412,.T.);
#547=ORIENTED_EDGE('',*,*,#413,.T.);
#548=ORIENTED_EDGE('',*,*,#414,.T.);
#549=ORIENTED_EDGE('',*,*,#415,.T.);
#550=ORIENTED_EDGE('',*,*,#416,.T.);
#551=ORIENTED_EDGE('',*,*,#413,.F.);
#552=ORIENTED_EDGE('',*,*,#417,.F.);
#553=ORIENTED_EDGE('',*,*,#418,.T.);
#554=ORIENTED_EDGE('',*,*,#419,.F.);
#555=ORIENTED_EDGE('',*,*,#420,.T.);
#556=ORIENTED_EDGE('',*,*,#421,.T.);
#557=ORIENTED_EDGE('',*,*,#415,.F.);
#558=ORIENTED_EDGE('',*,*,#422,.T.);
#559=ORIENTED_EDGE('',*,*,#423,.T.);
#560=ORIENTED_EDGE('',*,*,#424,.T.);
#561=ORIENTED_EDGE('',*,*,#425,.T.);
#562=ORIENTED_EDGE('',*,*,#426,.T.);
#563=ORIENTED_EDGE('',*,*,#427,.T.);
#564=ORIENTED_EDGE('',*,*,#420,.F.);
#565=ORIENTED_EDGE('',*,*,#428,.T.);
#566=ORIENTED_EDGE('',*,*,#429,.T.);
#567=ORIENTED_EDGE('',*,*,#423,.F.);
#568=ORIENTED_EDGE('',*,*,#430,.T.);
#569=ORIENTED_EDGE('',*,*,#409,.F.);
#570=ORIENTED_EDGE('',*,*,#431,.T.);
#571=ORIENTED_EDGE('',*,*,#432,.T.);
#572=ORIENTED_EDGE('',*,*,#433,.T.);
#573=ORIENTED_EDGE('',*,*,#426,.F.);
#574=ORIENTED_EDGE('',*,*,#410,.F.);
#575=ORIENTED_EDGE('',*,*,#430,.F.);
#576=ORIENTED_EDGE('',*,*,#422,.F.);
#577=ORIENTED_EDGE('',*,*,#414,.F.);
#578=ORIENTED_EDGE('',*,*,#416,.F.);
#579=ORIENTED_EDGE('',*,*,#427,.F.);
#580=ORIENTED_EDGE('',*,*,#433,.F.);
#581=ORIENTED_EDGE('',*,*,#434,.F.);
#582=ORIENTED_EDGE('',*,*,#421,.F.);
#583=ORIENTED_EDGE('',*,*,#435,.T.);
#584=ORIENTED_EDGE('',*,*,#436,.T.);
#585=ORIENTED_EDGE('',*,*,#437,.F.);
#586=ORIENTED_EDGE('',*,*,#438,.F.);
#587=ORIENTED_EDGE('',*,*,#439,.F.);
#588=ORIENTED_EDGE('',*,*,#429,.F.);
#589=ORIENTED_EDGE('',*,*,#440,.T.);
#590=ORIENTED_EDGE('',*,*,#441,.F.);
#591=ORIENTED_EDGE('',*,*,#435,.F.);
#592=ORIENTED_EDGE('',*,*,#408,.F.);
#593=ORIENTED_EDGE('',*,*,#442,.T.);
#594=ORIENTED_EDGE('',*,*,#443,.T.);
#595=ORIENTED_EDGE('',*,*,#444,.F.);
#596=ORIENTED_EDGE('',*,*,#445,.F.);
#597=ORIENTED_EDGE('',*,*,#440,.F.);
#598=ORIENTED_EDGE('',*,*,#446,.F.);
#599=ORIENTED_EDGE('',*,*,#447,.T.);
#600=ORIENTED_EDGE('',*,*,#401,.T.);
#601=ORIENTED_EDGE('',*,*,#448,.T.);
#602=ORIENTED_EDGE('',*,*,#449,.F.);
#603=ORIENTED_EDGE('',*,*,#442,.F.);
#604=ORIENTED_EDGE('',*,*,#450,.F.);
#605=ORIENTED_EDGE('',*,*,#407,.T.);
#606=ORIENTED_EDGE('',*,*,#447,.F.);
#607=ORIENTED_EDGE('',*,*,#431,.F.);
#608=ORIENTED_EDGE('',*,*,#451,.F.);
#609=ORIENTED_EDGE('',*,*,#452,.F.);
#610=ORIENTED_EDGE('',*,*,#448,.F.);
#611=ORIENTED_EDGE('',*,*,#404,.T.);
#612=ORIENTED_EDGE('',*,*,#406,.T.);
#613=ORIENTED_EDGE('',*,*,#434,.T.);
#614=ORIENTED_EDGE('',*,*,#432,.F.);
#615=ORIENTED_EDGE('',*,*,#446,.T.);
#616=ORIENTED_EDGE('',*,*,#453,.T.);
#617=ORIENTED_EDGE('',*,*,#454,.T.);
#618=ORIENTED_EDGE('',*,*,#453,.F.);
#619=ORIENTED_EDGE('',*,*,#450,.T.);
#620=ORIENTED_EDGE('',*,*,#411,.T.);
#621=ORIENTED_EDGE('',*,*,#455,.F.);
#622=ORIENTED_EDGE('',*,*,#456,.F.);
#623=ORIENTED_EDGE('',*,*,#457,.T.);
#624=ORIENTED_EDGE('',*,*,#454,.F.);
#625=ORIENTED_EDGE('',*,*,#457,.F.);
#626=ORIENTED_EDGE('',*,*,#458,.T.);
#627=ORIENTED_EDGE('',*,*,#459,.T.);
#628=ORIENTED_EDGE('',*,*,#444,.T.);
#629=ORIENTED_EDGE('',*,*,#460,.F.);
#630=ORIENTED_EDGE('',*,*,#461,.T.);
#631=ORIENTED_EDGE('',*,*,#462,.T.);
#632=ORIENTED_EDGE('',*,*,#436,.F.);
#633=ORIENTED_EDGE('',*,*,#441,.T.);
#634=ORIENTED_EDGE('',*,*,#445,.T.);
#635=ORIENTED_EDGE('',*,*,#459,.F.);
#636=ORIENTED_EDGE('',*,*,#463,.T.);
#637=ORIENTED_EDGE('',*,*,#438,.T.);
#638=ORIENTED_EDGE('',*,*,#464,.T.);
#639=ORIENTED_EDGE('',*,*,#465,.T.);
#640=ORIENTED_EDGE('',*,*,#466,.T.);
#641=ORIENTED_EDGE('',*,*,#467,.T.);
#642=ORIENTED_EDGE('',*,*,#464,.F.);
#643=ORIENTED_EDGE('',*,*,#437,.T.);
#644=ORIENTED_EDGE('',*,*,#462,.F.);
#645=ORIENTED_EDGE('',*,*,#468,.T.);
#646=ORIENTED_EDGE('',*,*,#466,.F.);
#647=ORIENTED_EDGE('',*,*,#469,.T.);
#648=ORIENTED_EDGE('',*,*,#470,.T.);
#649=ORIENTED_EDGE('',*,*,#471,.T.);
#650=ORIENTED_EDGE('',*,*,#472,.T.);
#651=ORIENTED_EDGE('',*,*,#470,.F.);
#652=ORIENTED_EDGE('',*,*,#473,.T.);
#653=ORIENTED_EDGE('',*,*,#474,.T.);
#654=ORIENTED_EDGE('',*,*,#475,.T.);
#655=ORIENTED_EDGE('',*,*,#476,.T.);
#656=ORIENTED_EDGE('',*,*,#477,.T.);
#657=ORIENTED_EDGE('',*,*,#452,.T.);
#658=ORIENTED_EDGE('',*,*,#478,.F.);
#659=ORIENTED_EDGE('',*,*,#474,.F.);
#660=ORIENTED_EDGE('',*,*,#449,.T.);
#661=ORIENTED_EDGE('',*,*,#477,.F.);
#662=ORIENTED_EDGE('',*,*,#479,.F.);
#663=ORIENTED_EDGE('',*,*,#460,.T.);
#664=ORIENTED_EDGE('',*,*,#443,.F.);
#665=ORIENTED_EDGE('',*,*,#476,.F.);
#666=ORIENTED_EDGE('',*,*,#473,.F.);
#667=ORIENTED_EDGE('',*,*,#469,.F.);
#668=ORIENTED_EDGE('',*,*,#465,.F.);
#669=ORIENTED_EDGE('',*,*,#467,.F.);
#670=ORIENTED_EDGE('',*,*,#461,.F.);
#671=ORIENTED_EDGE('',*,*,#458,.F.);
#672=ORIENTED_EDGE('',*,*,#480,.F.);
#673=ORIENTED_EDGE('',*,*,#412,.F.);
#674=ORIENTED_EDGE('',*,*,#439,.T.);
#675=ORIENTED_EDGE('',*,*,#463,.F.);
#676=ORIENTED_EDGE('',*,*,#481,.T.);
#677=ORIENTED_EDGE('',*,*,#417,.T.);
#678=ORIENTED_EDGE('',*,*,#482,.T.);
#679=ORIENTED_EDGE('',*,*,#483,.T.);
#680=ORIENTED_EDGE('',*,*,#418,.F.);
#681=ORIENTED_EDGE('',*,*,#481,.F.);
#682=ORIENTED_EDGE('',*,*,#468,.F.);
#683=ORIENTED_EDGE('',*,*,#484,.F.);
#684=ORIENTED_EDGE('',*,*,#471,.F.);
#685=ORIENTED_EDGE('',*,*,#485,.F.);
#686=ORIENTED_EDGE('',*,*,#486,.T.);
#687=ORIENTED_EDGE('',*,*,#487,.F.);
#688=ORIENTED_EDGE('',*,*,#486,.F.);
#689=ORIENTED_EDGE('',*,*,#488,.F.);
#690=ORIENTED_EDGE('',*,*,#428,.F.);
#691=ORIENTED_EDGE('',*,*,#419,.T.);
#692=ORIENTED_EDGE('',*,*,#484,.T.);
#693=ORIENTED_EDGE('',*,*,#472,.F.);
#694=ORIENTED_EDGE('',*,*,#488,.T.);
#695=ORIENTED_EDGE('',*,*,#485,.T.);
#696=ORIENTED_EDGE('',*,*,#475,.F.);
#697=ORIENTED_EDGE('',*,*,#478,.T.);
#698=ORIENTED_EDGE('',*,*,#451,.T.);
#699=ORIENTED_EDGE('',*,*,#425,.F.);
#700=ORIENTED_EDGE('',*,*,#489,.T.);
#701=ORIENTED_EDGE('',*,*,#490,.T.);
#702=ORIENTED_EDGE('',*,*,#491,.T.);
#703=ORIENTED_EDGE('',*,*,#480,.T.);
#704=ORIENTED_EDGE('',*,*,#479,.T.);
#705=ORIENTED_EDGE('',*,*,#491,.F.);
#706=ORIENTED_EDGE('',*,*,#455,.T.);
#707=ORIENTED_EDGE('',*,*,#456,.T.);
#708=ORIENTED_EDGE('',*,*,#424,.F.);
#709=ORIENTED_EDGE('',*,*,#490,.F.);
#710=ORIENTED_EDGE('',*,*,#492,.T.);
#711=ORIENTED_EDGE('',*,*,#493,.F.);
#712=ORIENTED_EDGE('',*,*,#492,.F.);
#713=ORIENTED_EDGE('',*,*,#489,.F.);
#714=ORIENTED_EDGE('',*,*,#487,.T.);
#715=ORIENTED_EDGE('',*,*,#494,.T.);
#716=ORIENTED_EDGE('',*,*,#482,.F.);
#717=ORIENTED_EDGE('',*,*,#495,.T.);
#718=ORIENTED_EDGE('',*,*,#494,.F.);
#719=ORIENTED_EDGE('',*,*,#495,.F.);
#720=ORIENTED_EDGE('',*,*,#483,.F.);
#721=ORIENTED_EDGE('',*,*,#496,.T.);
#722=ORIENTED_EDGE('',*,*,#497,.F.);
#723=ORIENTED_EDGE('',*,*,#496,.F.);
#724=ORIENTED_EDGE('',*,*,#493,.T.);
#725=ORIENTED_EDGE('',*,*,#497,.T.);
#726=CYLINDRICAL_SURFACE('',#807,1.);
#727=CYLINDRICAL_SURFACE('',#810,1.);
#728=CYLINDRICAL_SURFACE('',#813,1.);
#729=CYLINDRICAL_SURFACE('',#814,1.);
#730=CYLINDRICAL_SURFACE('',#820,1.);
#731=CYLINDRICAL_SURFACE('',#822,1.);
#732=CYLINDRICAL_SURFACE('',#825,1.);
#733=CYLINDRICAL_SURFACE('',#827,1.);
#734=CYLINDRICAL_SURFACE('',#829,1.);
#735=CYLINDRICAL_SURFACE('',#831,1.);
#736=CYLINDRICAL_SURFACE('',#832,1.);
#737=CYLINDRICAL_SURFACE('',#839,11.);
#738=CYLINDRICAL_SURFACE('',#847,8.99999999999999);
#739=CYLINDRICAL_SURFACE('',#850,1.);
#740=CYLINDRICAL_SURFACE('',#852,1.);
#741=CYLINDRICAL_SURFACE('',#854,1.);
#742=CYLINDRICAL_SURFACE('',#857,1.);
#743=CYLINDRICAL_SURFACE('',#858,1.);
#744=CYLINDRICAL_SURFACE('',#860,1.);
#745=CYLINDRICAL_SURFACE('',#862,1.);
#746=CYLINDRICAL_SURFACE('',#871,1.8);
#747=CYLINDRICAL_SURFACE('',#879,1.79999999999999);
#748=CYLINDRICAL_SURFACE('',#883,0.849999999999982);
#749=CYLINDRICAL_SURFACE('',#884,0.849999999999982);
#750=ADVANCED_FACE('',(#65),#726,.T.);
#751=ADVANCED_FACE('',(#66),#727,.T.);
#752=ADVANCED_FACE('',(#67),#728,.T.);
#753=ADVANCED_FACE('',(#68),#729,.T.);
#754=ADVANCED_FACE('',(#69),#49,.T.);
#755=ADVANCED_FACE('',(#70),#50,.T.);
#756=ADVANCED_FACE('',(#71),#51,.T.);
#757=ADVANCED_FACE('',(#72),#52,.T.);
#758=ADVANCED_FACE('',(#73),#53,.F.);
#759=ADVANCED_FACE('',(#74),#730,.T.);
#760=ADVANCED_FACE('',(#75),#731,.T.);
#761=ADVANCED_FACE('',(#76),#732,.T.);
#762=ADVANCED_FACE('',(#77),#733,.T.);
#763=ADVANCED_FACE('',(#78),#734,.T.);
#764=ADVANCED_FACE('',(#79),#735,.T.);
#765=ADVANCED_FACE('',(#80),#736,.T.);
#766=ADVANCED_FACE('',(#81),#54,.T.);
#767=ADVANCED_FACE('',(#82),#55,.T.);
#768=ADVANCED_FACE('',(#83),#56,.F.);
#769=ADVANCED_FACE('',(#84),#57,.T.);
#770=ADVANCED_FACE('',(#85),#737,.T.);
#771=ADVANCED_FACE('',(#86),#58,.T.);
#772=ADVANCED_FACE('',(#87),#21,.T.);
#773=ADVANCED_FACE('',(#88),#738,.F.);
#774=ADVANCED_FACE('',(#89),#739,.T.);
#775=ADVANCED_FACE('',(#90),#740,.T.);
#776=ADVANCED_FACE('',(#91),#741,.T.);
#777=ADVANCED_FACE('',(#92),#742,.T.);
#778=ADVANCED_FACE('',(#93),#743,.T.);
#779=ADVANCED_FACE('',(#94),#744,.T.);
#780=ADVANCED_FACE('',(#95),#745,.T.);
#781=ADVANCED_FACE('',(#96),#19,.F.);
#782=ADVANCED_FACE('',(#97),#59,.T.);
#783=ADVANCED_FACE('',(#98,#15,#16),#60,.F.);
#784=ADVANCED_FACE('',(#99),#61,.T.);
#785=ADVANCED_FACE('',(#100),#746,.F.);
#786=ADVANCED_FACE('',(#101),#62,.T.);
#787=ADVANCED_FACE('',(#102),#20,.F.);
#788=ADVANCED_FACE('',(#103),#747,.F.);
#789=ADVANCED_FACE('',(#104,#17),#63,.T.);
#790=ADVANCED_FACE('',(#105),#748,.F.);
#791=ADVANCED_FACE('',(#106),#749,.F.);
#792=ADVANCED_FACE('',(#107,#18),#64,.T.);
#793=CLOSED_SHELL('',(#750,#751,#752,#753,#754,#755,#756,#757,#758,#759,
#760,#761,#762,#763,#764,#765,#766,#767,#768,#769,#770,#771,#772,#773,#774,
#775,#776,#777,#778,#779,#780,#781,#782,#783,#784,#785,#786,#787,#788,#789,
#790,#791,#792));
#794=DERIVED_UNIT_ELEMENT(#796,1.);
#795=DERIVED_UNIT_ELEMENT(#1578,-3.);
#796=(
MASS_UNIT()
NAMED_UNIT(*)
SI_UNIT(.KILO.,.GRAM.)
);
#797=DERIVED_UNIT((#794,#795));
#798=MEASURE_REPRESENTATION_ITEM('density measure',
POSITIVE_RATIO_MEASURE(1120.),#797);
#799=PROPERTY_DEFINITION_REPRESENTATION(#804,#801);
#800=PROPERTY_DEFINITION_REPRESENTATION(#805,#802);
#801=REPRESENTATION('material name',(#803),#1575);
#802=REPRESENTATION('density',(#798),#1575);
#803=DESCRIPTIVE_REPRESENTATION_ITEM('Nylon 6','Nylon 6');
#804=PROPERTY_DEFINITION('material property','material name',#1585);
#805=PROPERTY_DEFINITION('material property','density of part',#1585);
#806=AXIS2_PLACEMENT_3D('',#1120,#887,#888);
#807=AXIS2_PLACEMENT_3D('',#1121,#889,#890);
#808=AXIS2_PLACEMENT_3D('',#1126,#892,#893);
#809=AXIS2_PLACEMENT_3D('',#1131,#896,#897);
#810=AXIS2_PLACEMENT_3D('',#1132,#898,#899);
#811=AXIS2_PLACEMENT_3D('',#1137,#901,#902);
#812=AXIS2_PLACEMENT_3D('',#1142,#905,#906);
#813=AXIS2_PLACEMENT_3D('',#1143,#907,#908);
#814=AXIS2_PLACEMENT_3D('',#1150,#913,#914);
#815=AXIS2_PLACEMENT_3D('',#1153,#917,#918);
#816=AXIS2_PLACEMENT_3D('',#1159,#922,#923);
#817=AXIS2_PLACEMENT_3D('',#1163,#926,#927);
#818=AXIS2_PLACEMENT_3D('',#1164,#928,#929);
#819=AXIS2_PLACEMENT_3D('',#1168,#932,#933);
#820=AXIS2_PLACEMENT_3D('',#1170,#935,#936);
#821=AXIS2_PLACEMENT_3D('',#1175,#938,#939);
#822=AXIS2_PLACEMENT_3D('',#1192,#941,#942);
#823=AXIS2_PLACEMENT_3D('',#1197,#944,#945);
#824=AXIS2_PLACEMENT_3D('',#1200,#947,#948);
#825=AXIS2_PLACEMENT_3D('',#1201,#949,#950);
#826=AXIS2_PLACEMENT_3D('',#1210,#955,#956);
#827=AXIS2_PLACEMENT_3D('',#1211,#957,#958);
#828=AXIS2_PLACEMENT_3D('',#1216,#961,#962);
#829=AXIS2_PLACEMENT_3D('',#1217,#963,#964);
#830=AXIS2_PLACEMENT_3D('',#1238,#966,#967);
#831=AXIS2_PLACEMENT_3D('',#1241,#970,#971);
#832=AXIS2_PLACEMENT_3D('',#1244,#974,#975);
#833=AXIS2_PLACEMENT_3D('',#1248,#977,#978);
#834=AXIS2_PLACEMENT_3D('',#1250,#980,#981);
#835=AXIS2_PLACEMENT_3D('',#1251,#982,#983);
#836=AXIS2_PLACEMENT_3D('',#1252,#984,#985);
#837=AXIS2_PLACEMENT_3D('',#1262,#991,#992);
#838=AXIS2_PLACEMENT_3D('',#1266,#995,#996);
#839=AXIS2_PLACEMENT_3D('',#1274,#1001,#1002);
#840=AXIS2_PLACEMENT_3D('',#1276,#1003,#1004);
#841=AXIS2_PLACEMENT_3D('',#1280,#1007,#1008);
#842=AXIS2_PLACEMENT_3D('',#1281,#1009,#1010);
#843=AXIS2_PLACEMENT_3D('',#1282,#1011,#1012);
#844=AXIS2_PLACEMENT_3D('',#1286,#1015,#1016);
#845=AXIS2_PLACEMENT_3D('',#1288,#1017,#1018);
#846=AXIS2_PLACEMENT_3D('',#1289,#1019,#1020);
#847=AXIS2_PLACEMENT_3D('',#1290,#1021,#1022);
#848=AXIS2_PLACEMENT_3D('',#1293,#1023,#1024);
#849=AXIS2_PLACEMENT_3D('',#1294,#1025,#1026);
#850=AXIS2_PLACEMENT_3D('',#1296,#1028,#1029);
#851=AXIS2_PLACEMENT_3D('',#1300,#1031,#1032);
#852=AXIS2_PLACEMENT_3D('',#1317,#1033,#1034);
#853=AXIS2_PLACEMENT_3D('',#1320,#1036,#1037);
#854=AXIS2_PLACEMENT_3D('',#1321,#1038,#1039);
#855=AXIS2_PLACEMENT_3D('',#1325,#1041,#1042);
#856=AXIS2_PLACEMENT_3D('',#1328,#1044,#1045);
#857=AXIS2_PLACEMENT_3D('',#1329,#1046,#1047);
#858=AXIS2_PLACEMENT_3D('',#1331,#1049,#1050);
#859=AXIS2_PLACEMENT_3D('',#1336,#1053,#1054);
#860=AXIS2_PLACEMENT_3D('',#1337,#1055,#1056);
#861=AXIS2_PLACEMENT_3D('',#1359,#1059,#1060);
#862=AXIS2_PLACEMENT_3D('',#1361,#1062,#1063);
#863=AXIS2_PLACEMENT_3D('',#1364,#1065,#1066);
#864=AXIS2_PLACEMENT_3D('',#1451,#1068,#1069);
#865=AXIS2_PLACEMENT_3D('',#1452,#1070,#1071);
#866=AXIS2_PLACEMENT_3D('',#1453,#1072,#1073);
#867=AXIS2_PLACEMENT_3D('',#1454,#1074,#1075);
#868=AXIS2_PLACEMENT_3D('',#1457,#1077,#1078);
#869=AXIS2_PLACEMENT_3D('',#1459,#1079,#1080);
#870=AXIS2_PLACEMENT_3D('',#1460,#1081,#1082);
#871=AXIS2_PLACEMENT_3D('',#1462,#1084,#1085);
#872=AXIS2_PLACEMENT_3D('',#1464,#1086,#1087);
#873=AXIS2_PLACEMENT_3D('',#1467,#1089,#1090);
#874=AXIS2_PLACEMENT_3D('',#1468,#1091,#1092);
#875=AXIS2_PLACEMENT_3D('',#1469,#1093,#1094);
#876=AXIS2_PLACEMENT_3D('',#1471,#1095,#1096);
#877=AXIS2_PLACEMENT_3D('',#1472,#1097,#1098);
#878=AXIS2_PLACEMENT_3D('',#1558,#1099,#1100);
#879=AXIS2_PLACEMENT_3D('',#1559,#1101,#1102);
#880=AXIS2_PLACEMENT_3D('',#1562,#1104,#1105);
#881=AXIS2_PLACEMENT_3D('',#1563,#1106,#1107);
#882=AXIS2_PLACEMENT_3D('',#1565,#1108,#1109);
#883=AXIS2_PLACEMENT_3D('',#1566,#1110,#1111);
#884=AXIS2_PLACEMENT_3D('',#1568,#1113,#1114);
#885=AXIS2_PLACEMENT_3D('',#1571,#1116,#1117);
#886=AXIS2_PLACEMENT_3D('',#1572,#1118,#1119);
#887=DIRECTION('axis',(0.,0.,1.));
#888=DIRECTION('refdir',(1.,0.,0.));
#889=DIRECTION('center_axis',(0.,0.,-1.));
#890=DIRECTION('ref_axis',(-0.707106781186554,-0.707106781186541,0.));
#891=DIRECTION('',(0.,0.,1.));
#892=DIRECTION('center_axis',(-0.707106781186548,0.,-0.707106781186548));
#893=DIRECTION('ref_axis',(-0.707106781186548,0.,0.707106781186548));
#894=DIRECTION('',(0.,-0.999999999866569,-1.63359375567583E-5));
#895=DIRECTION('',(0.,0.,-1.));
#896=DIRECTION('center_axis',(-0.707106781186548,0.,0.707106781186548));
#897=DIRECTION('ref_axis',(0.707106781186548,0.,0.707106781186548));
#898=DIRECTION('center_axis',(0.,0.,1.));
#899=DIRECTION('ref_axis',(0.707106781186551,-0.707106781186544,0.));
#900=DIRECTION('',(0.,0.,-1.));
#901=DIRECTION('center_axis',(0.707106781186548,0.,0.707106781186548));
#902=DIRECTION('ref_axis',(0.707106781186548,0.,-0.707106781186548));
#903=DIRECTION('',(0.,0.,1.));
#904=DIRECTION('',(0.,0.999999999866569,1.63359375567583E-5));
#905=DIRECTION('center_axis',(0.707106781186548,0.,-0.707106781186548));
#906=DIRECTION('ref_axis',(-0.707106781186548,0.,-0.707106781186548));
#907=DIRECTION('center_axis',(-1.,2.22044604925031E-15,5.82724482243481E-19));
#908=DIRECTION('ref_axis',(0.,-0.707101005536846,-0.707112556789074));
#909=DIRECTION('',(1.,-2.22044604925031E-15,-5.82724482243481E-19));
#910=DIRECTION('',(0.,-0.999999999866569,-1.63359375567583E-5));
#911=DIRECTION('',(-1.,2.22044604925031E-15,5.82724482243481E-19));
#912=DIRECTION('',(0.,0.999999999866569,1.63359375567583E-5));
#913=DIRECTION('center_axis',(1.,-2.22044604925031E-15,-5.82724482243481E-19));
#914=DIRECTION('ref_axis',(0.,-0.707112556789071,0.707101005536849));
#915=DIRECTION('',(1.,-2.22044604925031E-15,-5.82724482243481E-19));
#916=DIRECTION('',(-1.,2.22044604925031E-15,5.82724482243481E-19));
#917=DIRECTION('center_axis',(1.,0.,0.));
#918=DIRECTION('ref_axis',(0.,0.999999999866569,1.63359375567583E-5));
#919=DIRECTION('',(0.,-0.999999999866569,-1.63359375567583E-5));
#920=DIRECTION('',(0.,0.,-1.));
#921=DIRECTION('',(0.,0.999999999866569,1.63359375567583E-5));
#922=DIRECTION('center_axis',(-5.46451414157024E-19,1.63359375567583E-5,
-0.999999999866569));
#923=DIRECTION('ref_axis',(-1.,0.,5.46451414229938E-19));
#924=DIRECTION('',(0.,0.999999999866569,1.63359375567583E-5));
#925=DIRECTION('',(-1.,-4.36014860580057E-14,-1.65819739490551E-19));
#926=DIRECTION('center_axis',(-2.22044604925031E-15,-1.,0.));
#927=DIRECTION('ref_axis',(1.,-2.22044604925031E-15,-5.82724482243481E-19));
#928=DIRECTION('center_axis',(-1.,0.,0.));
#929=DIRECTION('ref_axis',(0.,-0.999999999866569,-1.63359375567583E-5));
#930=DIRECTION('',(0.,-0.999999999866569,-1.63359375567583E-5));
#931=DIRECTION('',(0.,0.,1.));
#932=DIRECTION('center_axis',(-5.46451414157024E-19,1.63359375567583E-5,
-0.999999999866569));
#933=DIRECTION('ref_axis',(-1.,0.,5.46451414229938E-19));
#934=DIRECTION('',(1.,4.36014860580057E-14,1.65819739490551E-19));
#935=DIRECTION('center_axis',(1.,-1.21469725024752E-12,-2.63436735493783E-26));
#936=DIRECTION('ref_axis',(8.54130297523977E-13,0.707106781186535,0.70710678118656));
#937=DIRECTION('',(-1.,1.21469725024752E-12,2.63436735493783E-26));
#938=DIRECTION('center_axis',(0.707106781186923,0.707106781186172,1.57009245868292E-14));
#939=DIRECTION('ref_axis',(-0.707106781186172,0.707106781186923,1.5700924586845E-14));
#940=DIRECTION('',(1.,-1.21469725024752E-12,-2.63436735493783E-26));
#941=DIRECTION('center_axis',(-3.41671135828391E-14,1.,2.1106207672752E-14));
#942=DIRECTION('ref_axis',(-0.707106781186548,-3.76822190084101E-14,0.707106781186548));
#943=DIRECTION('',(3.41671135828391E-14,-1.,-2.1106207672752E-14));
#944=DIRECTION('center_axis',(-0.707106781186566,0.707106781186529,1.57009245868371E-14));
#945=DIRECTION('ref_axis',(-0.707106781186529,-0.707106781186566,-1.41477605542319E-14));
#946=DIRECTION('',(-3.41671135828391E-14,1.,2.1106207672752E-14));
#947=DIRECTION('center_axis',(-0.707106781186519,-0.707106781186576,-1.57009245868382E-14));
#948=DIRECTION('ref_axis',(0.707106781186576,-0.707106781186519,-1.41477605542308E-14));
#949=DIRECTION('center_axis',(-1.,-3.34508755471431E-14,0.));
#950=DIRECTION('ref_axis',(0.,-0.707118332343915,0.70709522984048));
#951=DIRECTION('',(-1.,-3.34508755471431E-14,0.));
#952=DIRECTION('',(5.33348079266279E-17,-3.26718736962913E-5,0.999999999466274));
#953=DIRECTION('',(1.,3.34508755471431E-14,0.));
#954=DIRECTION('',(-4.5623925529077E-18,3.26718736962913E-5,-0.999999999466274));
#955=DIRECTION('center_axis',(-0.707106781186505,-0.70710678118659,-1.57009245868385E-14));
#956=DIRECTION('ref_axis',(0.70710678118659,-0.707106781186505,-1.57009245868376E-14));
#957=DIRECTION('center_axis',(-1.,-3.34508755471431E-14,0.));
#958=DIRECTION('ref_axis',(-5.0242958677881E-14,0.707106781186535,0.70710678118656));
#959=DIRECTION('',(-1.,-3.34508755471431E-14,0.));
#960=DIRECTION('',(1.,3.34508755471431E-14,0.));
#961=DIRECTION('center_axis',(-0.707106781186518,-0.707106781186577,-1.57009245868382E-14));
#962=DIRECTION('ref_axis',(0.707106781186577,-0.707106781186518,-1.57009245868379E-14));
#963=DIRECTION('center_axis',(3.33066907387549E-14,-1.,-2.1106207672752E-14));
#964=DIRECTION('ref_axis',(0.707106781186573,6.28036983473479E-15,0.707106781186523));
#965=DIRECTION('',(-3.33066907387549E-14,1.,2.1106207672752E-14));
#966=DIRECTION('center_axis',(-0.707106781186515,-0.707106781186581,-1.57009245868383E-14));
#967=DIRECTION('ref_axis',(-0.707106781186581,0.707106781186515,1.41477605542307E-14));
#968=DIRECTION('',(3.33066907387549E-14,-1.,-2.1106207672752E-14));
#969=DIRECTION('',(-3.33066907387549E-14,1.,2.1106207672752E-14));
#970=DIRECTION('center_axis',(3.33066907387549E-14,-1.,-2.1106207672752E-14));
#971=DIRECTION('ref_axis',(-0.707106781186548,-3.76822190084101E-14,0.707106781186548));
#972=DIRECTION('',(3.33066907387549E-14,-1.,-2.1106207672752E-14));
#973=DIRECTION('',(-3.33066907387549E-14,1.,2.1106207672752E-14));
#974=DIRECTION('center_axis',(1.,4.36014860580057E-14,2.14240893447485E-28));
#975=DIRECTION('ref_axis',(0.,-0.707106781186551,0.707106781186544));
#976=DIRECTION('',(1.,4.36014860580057E-14,2.14240893447485E-28));
#977=DIRECTION('center_axis',(-0.999999999999951,-3.55271367880029E-14,
3.11964427623915E-7));
#978=DIRECTION('ref_axis',(3.55271367880047E-14,-1.,0.));
#979=DIRECTION('',(-1.,-4.36014860580057E-14,-2.14240893447485E-28));
#980=DIRECTION('center_axis',(7.06021126133385E-28,-2.1106207672752E-14,
1.));
#981=DIRECTION('ref_axis',(-3.33066907387549E-14,1.,2.1106207672752E-14));
#982=DIRECTION('center_axis',(7.06021126133385E-28,-2.1106207672752E-14,
1.));
#983=DIRECTION('ref_axis',(-1.,2.34513418586154E-15,7.55518015280649E-28));
#984=DIRECTION('center_axis',(-3.34508755471431E-14,1.,5.00926942291534E-34));
#985=DIRECTION('ref_axis',(-3.47420056170328E-18,-1.1571412367306E-31,-1.));
#986=DIRECTION('',(-3.47420056170328E-18,-1.1571412367306E-31,-1.));
#987=DIRECTION('',(-3.47420056170328E-18,-1.1571412367306E-31,-1.));
#988=DIRECTION('',(1.,3.34508755471431E-14,0.));
#989=DIRECTION('',(-5.22185043349528E-17,-1.74625376282417E-30,-1.));
#990=DIRECTION('',(-5.22185043349528E-17,-1.74625376282417E-30,-1.));
#991=DIRECTION('center_axis',(1.,3.33066907387549E-14,-3.47420056170394E-18));
#992=DIRECTION('ref_axis',(-3.33066907387549E-14,1.,-4.16836818506382E-48));
#993=DIRECTION('',(0.,0.,-1.));
#994=DIRECTION('',(-3.33066906074696E-14,0.999999999466274,3.26718736941476E-5));
#995=DIRECTION('center_axis',(1.21469725024752E-12,1.,0.));
#996=DIRECTION('ref_axis',(1.,-1.21469725024752E-12,0.));
#997=DIRECTION('',(0.,0.,-1.));
#998=DIRECTION('',(0.,0.,-1.));
#999=DIRECTION('',(1.,-1.21469725024752E-12,-4.07793379393151E-17));
#1000=DIRECTION('',(0.,0.,-1.));
#1001=DIRECTION('center_axis',(0.,0.,-1.));
#1002=DIRECTION('ref_axis',(0.476731307084509,0.87904906623322,0.));
#1003=DIRECTION('center_axis',(7.06021126133385E-28,-2.1106207672752E-14,
1.));
#1004=DIRECTION('ref_axis',(0.476731307084508,0.87904906623322,1.85583871502682E-14));
#1005=DIRECTION('',(0.,0.,-1.));
#1006=DIRECTION('',(0.,0.,-1.));
#1007=DIRECTION('center_axis',(0.,2.9701703360867E-5,-0.999999999558904));
#1008=DIRECTION('ref_axis',(0.,0.999999999558904,2.9701703360867E-5));
#1009=DIRECTION('center_axis',(7.06021126133385E-28,-2.1106207672752E-14,
1.));
#1010=DIRECTION('ref_axis',(0.476731307084508,0.87904906623322,1.85583871502682E-14));
#1011=DIRECTION('center_axis',(4.36014860580057E-14,-1.,0.));
#1012=DIRECTION('ref_axis',(-1.,-4.36014860580057E-14,0.));
#1013=DIRECTION('',(3.47420056170394E-18,1.5148030735385E-31,1.));
#1014=DIRECTION('',(-1.,-4.36014860580057E-14,-3.31639464706393E-19));
#1015=DIRECTION('center_axis',(-7.06021126133385E-28,2.1106207672752E-14,
-1.));
#1016=DIRECTION('ref_axis',(-1.,0.,0.));
#1017=DIRECTION('center_axis',(0.,-1.,-2.1106207672752E-14));
#1018=DIRECTION('ref_axis',(1.,0.,0.));
#1019=DIRECTION('center_axis',(-7.06021126133385E-28,2.1106207672752E-14,
-1.));
#1020=DIRECTION('ref_axis',(-1.,2.34513418586154E-15,0.));
#1021=DIRECTION('center_axis',(0.,0.,-1.));
#1022=DIRECTION('ref_axis',(-1.,0.,0.));
#1023=DIRECTION('center_axis',(0.,-3.63020818775967E-5,0.999999999341079));
#1024=DIRECTION('ref_axis',(0.,0.999999999341079,3.63020818775967E-5));
#1025=DIRECTION('center_axis',(0.,-3.63020818775967E-5,0.999999999341079));
#1026=DIRECTION('ref_axis',(0.,0.999999999341079,3.63020818775967E-5));
#1027=DIRECTION('',(0.,0.,1.));
#1028=DIRECTION('center_axis',(-1.,1.21469725024752E-12,4.07793379393151E-17));
#1029=DIRECTION('ref_axis',(8.54116344847248E-13,0.707118332343902,-0.707095229840493));
#1030=DIRECTION('',(-1.,1.21469725024752E-12,4.07793379393151E-17));
#1031=DIRECTION('center_axis',(0.70710678118696,0.707106780808734,2.31025034440591E-5));
#1032=DIRECTION('ref_axis',(0.707106781186135,-0.707106780809559,-2.31025034440876E-5));
#1033=DIRECTION('center_axis',(3.33066906074696E-14,-0.999999999466274,
-3.26718736941476E-5));
#1034=DIRECTION('ref_axis',(-0.70710678118656,2.31025034252311E-5,-0.707106780809135));
#1035=DIRECTION('',(3.33066906074696E-14,-0.999999999466274,-3.26718736941476E-5));
#1036=DIRECTION('center_axis',(0.707106781186517,0.707106780809177,2.31025034440728E-5));
#1037=DIRECTION('ref_axis',(-0.707106781186578,0.707106780809116,2.31025034423315E-5));
#1038=DIRECTION('center_axis',(3.41671118585269E-14,-0.999999999466274,
-3.26718736941476E-5));
#1039=DIRECTION('ref_axis',(-0.707106781186534,2.31025034189499E-5,-0.70710678080916));
#1040=DIRECTION('',(-3.41671118585269E-14,0.999999999466274,3.26718736941476E-5));
#1041=DIRECTION('center_axis',(-0.707106781186519,-0.707106780809175,-2.31025034440727E-5));
#1042=DIRECTION('ref_axis',(-0.707106781186576,0.707106780809118,2.31025034423316E-5));
#1043=DIRECTION('',(3.41671118585269E-14,-0.999999999466274,-3.26718736941476E-5));
#1044=DIRECTION('center_axis',(-0.707106781186565,0.707106780809129,2.31025034440712E-5));
#1045=DIRECTION('ref_axis',(0.70710678118653,0.707106780809164,2.31025034423331E-5));
#1046=DIRECTION('center_axis',(-1.,-3.34508755471431E-14,0.));
#1047=DIRECTION('ref_axis',(-5.02421379321926E-14,0.70711833234393,-0.707095229840465));
#1048=DIRECTION('',(-1.,-3.34508755471431E-14,0.));
#1049=DIRECTION('center_axis',(1.,3.34508755471431E-14,0.));
#1050=DIRECTION('ref_axis',(0.,-0.707083678305693,-0.7071298833126));
#1051=DIRECTION('',(-1.,-3.34508755471431E-14,2.06188510874583E-34));
#1052=DIRECTION('',(1.,3.34508755471431E-14,1.92592994335932E-34));
#1053=DIRECTION('center_axis',(-0.707106781186517,-0.707106780809177,-2.31025034440728E-5));
#1054=DIRECTION('ref_axis',(-0.707106781186578,0.707106780809116,2.31025034440723E-5));
#1055=DIRECTION('center_axis',(-3.33066906074696E-14,0.999999999466274,
3.26718736941476E-5));
#1056=DIRECTION('ref_axis',(0.70710678118656,2.31025034629133E-5,-0.707106780809135));
#1057=DIRECTION('',(3.33066906074696E-14,-0.999999999466274,-3.26718736941476E-5));
#1058=DIRECTION('',(-3.33066906074696E-14,0.999999999466274,3.26718736941476E-5));
#1059=DIRECTION('center_axis',(-0.707106781186515,-0.707106780809179,-2.31025034440728E-5));
#1060=DIRECTION('ref_axis',(0.70710678118658,-0.707106780809114,-2.31025034423314E-5));
#1061=DIRECTION('',(3.33066906074696E-14,-0.999999999466274,-3.26718736941476E-5));
#1062=DIRECTION('center_axis',(1.,4.36014860580057E-14,3.31639464706393E-19));
#1063=DIRECTION('ref_axis',(5.02437794637937E-14,-0.707095229840483,-0.707118332343912));
#1064=DIRECTION('',(1.,4.36014860580057E-14,3.31639464706393E-19));
#1065=DIRECTION('center_axis',(-0.999999999999951,3.11963965771138E-7,1.01924472967798E-11));
#1066=DIRECTION('ref_axis',(0.,3.26718737087001E-5,-0.999999999466274));
#1067=DIRECTION('',(3.47420056170394E-18,1.5148030735385E-31,1.));
#1068=DIRECTION('center_axis',(-1.09290278083491E-18,3.26718736941476E-5,
-0.999999999466274));
#1069=DIRECTION('ref_axis',(0.,0.999999999466274,3.26718736941476E-5));
#1070=DIRECTION('center_axis',(-1.09290278083491E-18,3.26718736941476E-5,
-0.999999999466274));
#1071=DIRECTION('ref_axis',(3.33066906074696E-14,-0.999999999466274,-3.26718736941476E-5));
#1072=DIRECTION('center_axis',(-1.09290278083491E-18,3.26718736941476E-5,
-0.999999999466274));
#1073=DIRECTION('ref_axis',(0.,0.999999999466274,3.26718736941476E-5));
#1074=DIRECTION('center_axis',(1.,3.41671135828391E-14,-5.22185043349528E-17));
#1075=DIRECTION('ref_axis',(-5.22185043349528E-17,0.,-1.));
#1076=DIRECTION('',(5.33348079266279E-17,-3.26718736962913E-5,0.999999999466274));
#1077=DIRECTION('center_axis',(1.,3.41671135828391E-14,-5.22185043349528E-17));
#1078=DIRECTION('ref_axis',(-3.34508755471431E-14,1.,-1.21650124261227E-59));
#1079=DIRECTION('center_axis',(1.,3.41671135828391E-14,-5.22185043349528E-17));
#1080=DIRECTION('ref_axis',(-3.34508755471431E-14,1.,-1.21650124261227E-59));
#1081=DIRECTION('center_axis',(3.34508755292895E-14,-0.999999999466274,
-3.26718736962913E-5));
#1082=DIRECTION('ref_axis',(4.5623925529077E-18,-3.26718736962913E-5,0.999999999466274));
#1083=DIRECTION('',(-4.5623925529077E-18,3.26718736962913E-5,-0.999999999466274));
#1084=DIRECTION('center_axis',(1.,3.40468394218381E-14,0.));
#1085=DIRECTION('ref_axis',(-3.40468394218381E-14,1.,0.));
#1086=DIRECTION('center_axis',(-1.,-3.33066907387549E-14,3.47420056170329E-18));
#1087=DIRECTION('ref_axis',(-3.33066907387549E-14,1.,0.));
#1088=DIRECTION('',(-1.,-3.40468394218381E-14,0.));
#1089=DIRECTION('center_axis',(1.,3.33066907387549E-14,-3.47420056170328E-18));
#1090=DIRECTION('ref_axis',(-3.40468394218381E-14,1.,0.));
#1091=DIRECTION('center_axis',(-1.,-3.33066907387549E-14,3.47420056170329E-18));
#1092=DIRECTION('ref_axis',(-3.33066907387549E-14,1.,0.));
#1093=DIRECTION('center_axis',(1.,3.33066907387549E-14,-3.47420056170394E-18));
#1094=DIRECTION('ref_axis',(-3.33066907387549E-14,1.,-4.16836818506382E-48));
#1095=DIRECTION('center_axis',(-1.,-3.33066907387549E-14,3.47420056170329E-18));
#1096=DIRECTION('ref_axis',(-3.33066907387549E-14,1.,0.));
#1097=DIRECTION('center_axis',(-1.,-3.33066907387549E-14,3.47420056170329E-18));
#1098=DIRECTION('ref_axis',(-3.33066907387549E-14,1.,0.));
#1099=DIRECTION('center_axis',(-1.,0.,0.));
#1100=DIRECTION('ref_axis',(0.,1.,0.));
#1101=DIRECTION('center_axis',(1.,3.40468394218381E-14,0.));
#1102=DIRECTION('ref_axis',(-3.40468394218381E-14,1.,0.));
#1103=DIRECTION('',(-1.,-3.40468394218381E-14,0.));
#1104=DIRECTION('center_axis',(1.,3.33066907387549E-14,-3.47420056170328E-18));
#1105=DIRECTION('ref_axis',(-3.40468394218381E-14,1.,0.));
#1106=DIRECTION('center_axis',(1.,3.33066907387549E-14,-3.47420056170328E-18));
#1107=DIRECTION('ref_axis',(-3.33066907387549E-14,1.,-4.16844236403661E-48));
#1108=DIRECTION('center_axis',(-1.,-3.33066907387549E-14,3.47420056170329E-18));
#1109=DIRECTION('ref_axis',(-3.33066907387549E-14,1.,-1.21650124261227E-59));
#1110=DIRECTION('center_axis',(-1.,-3.34508755471431E-14,0.));
#1111=DIRECTION('ref_axis',(-3.34508755471431E-14,1.,-1.21650124261227E-59));
#1112=DIRECTION('',(1.,3.34508755471431E-14,0.));
#1113=DIRECTION('center_axis',(-1.,-3.34508755471431E-14,0.));
#1114=DIRECTION('ref_axis',(-3.34508755471431E-14,1.,-1.21650124261227E-59));
#1115=DIRECTION('',(1.,3.34508755471431E-14,0.));
#1116=DIRECTION('center_axis',(-1.,-3.33066907387549E-14,3.47420056170329E-18));
#1117=DIRECTION('ref_axis',(-3.33066907387549E-14,1.,-1.21650124261227E-59));
#1118=DIRECTION('center_axis',(1.,3.33066907387549E-14,-3.47420056170328E-18));
#1119=DIRECTION('ref_axis',(-3.33066907387549E-14,1.,-4.16844236403661E-48));
#1120=CARTESIAN_POINT('',(0.,0.,0.));
#1121=CARTESIAN_POINT('Origin',(181.2,24.4669791585758,169.049929766044));
#1122=CARTESIAN_POINT('',(181.2,23.4669791585758,168.049868506411));
#1123=CARTESIAN_POINT('',(181.2,23.4669791585758,170.049868506144));
#1124=CARTESIAN_POINT('',(181.2,23.4669791585758,169.049929766044));
#1125=CARTESIAN_POINT('',(180.200000000134,24.4669628226382,171.049868506011));
#1126=CARTESIAN_POINT('Origin',(181.2,24.4669791585758,170.049868506144));
#1127=CARTESIAN_POINT('',(180.2,24.4669791585758,171.049868506278));
#1128=CARTESIAN_POINT('',(180.2,25.8420298011897,171.049890969019));
#1129=CARTESIAN_POINT('',(180.2,24.4669791585758,167.049868506411));
#1130=CARTESIAN_POINT('',(180.2,24.4669791585758,169.049929766044));
#1131=CARTESIAN_POINT('Origin',(181.2,24.4669791585758,168.049868506411));
#1132=CARTESIAN_POINT('Origin',(185.2,24.4669791585758,169.04985217034));
#1133=CARTESIAN_POINT('',(185.2,23.4669791585758,170.049868506144));
#1134=CARTESIAN_POINT('',(185.2,23.4669791585758,168.049868506411));
#1135=CARTESIAN_POINT('',(185.2,23.4669791585758,169.04985217034));
#1136=CARTESIAN_POINT('',(186.2,24.4669791585758,167.049868506278));
#1137=CARTESIAN_POINT('Origin',(185.2,24.4669791585758,168.049868506411));
#1138=CARTESIAN_POINT('',(186.2,24.4669791585758,171.049868506278));
#1139=CARTESIAN_POINT('',(186.2,24.4669791585758,169.04985217034));
#1140=CARTESIAN_POINT('',(186.2,24.4669628226382,171.049868506011));
#1141=CARTESIAN_POINT('',(186.2,30.5920297999222,171.049968564723));
#1142=CARTESIAN_POINT('Origin',(185.2,24.4669791585758,170.049868506144));
#1143=CARTESIAN_POINT('Origin',(181.7,24.4669791585758,168.049868506411));
#1144=CARTESIAN_POINT('',(180.2,24.4669954945133,167.049868506545));
#1145=CARTESIAN_POINT('',(186.2,24.4669954945133,167.049868506545));
#1146=CARTESIAN_POINT('',(181.7,24.4669954945133,167.049868506545));
#1147=CARTESIAN_POINT('',(186.2,30.5920297999222,167.049968564723));
#1148=CARTESIAN_POINT('',(181.7,23.4669791585758,168.049868506411));
#1149=CARTESIAN_POINT('',(180.2,25.8420298011897,167.049890969019));
#1150=CARTESIAN_POINT('Origin',(181.7,24.4669791585758,170.049868506144));
#1151=CARTESIAN_POINT('',(181.7,23.4669791585758,170.049868506144));
#1152=CARTESIAN_POINT('',(181.7,24.4669628226382,171.049868506011));
#1153=CARTESIAN_POINT('Origin',(186.2,23.4669791585758,169.04985217034));
#1154=CARTESIAN_POINT('',(186.2,32.9669791585759,167.050007361747));
#1155=CARTESIAN_POINT('',(186.2,30.5920297999222,167.049968564723));
#1156=CARTESIAN_POINT('',(186.2,32.9669791585759,171.050007361747));
#1157=CARTESIAN_POINT('',(186.199999688036,32.9669791585759,175.249999999999));
#1158=CARTESIAN_POINT('',(186.2,30.5920297999222,171.049968564723));
#1159=CARTESIAN_POINT('Origin',(183.2,28.2169791585758,167.049929766044));
#1160=CARTESIAN_POINT('',(180.2,32.9669791585756,167.050007361747));
#1161=CARTESIAN_POINT('',(180.2,25.8420298011897,167.049890969019));
#1162=CARTESIAN_POINT('',(184.699999844018,32.9669791585758,167.050007361747));
#1163=CARTESIAN_POINT('Origin',(180.2,23.4669791585758,169.04985217034));
#1164=CARTESIAN_POINT('Origin',(180.2,32.9669791585756,169.050007361747));
#1165=CARTESIAN_POINT('',(180.2,32.9669791585756,171.050007361747));
#1166=CARTESIAN_POINT('',(180.2,25.8420298011897,171.049890969019));
#1167=CARTESIAN_POINT('',(180.2,32.9669791585756,172.150003680873));
#1168=CARTESIAN_POINT('Origin',(183.2,28.2169791585758,171.049929766044));
#1169=CARTESIAN_POINT('',(184.699999844018,32.9669791585758,171.050007361747));
#1170=CARTESIAN_POINT('Origin',(175.200000000005,36.9669791585076,174.249999999999));
#1171=CARTESIAN_POINT('',(176.980455542753,37.9669791585054,174.249999999999));
#1172=CARTESIAN_POINT('',(175.2,37.9669791585076,174.249999999999));
#1173=CARTESIAN_POINT('',(175.200000000007,37.9669791585076,174.249999999999));
#1174=CARTESIAN_POINT('',(176.200000000001,36.9669791585063,175.249999999999));
#1175=CARTESIAN_POINT('Origin',(176.200000000001,36.9669791585064,174.249999999999));
#1176=CARTESIAN_POINT('',(179.058571571529,36.9669791585029,175.249999999999));
#1177=CARTESIAN_POINT('',(175.200000000005,36.9669791585075,175.249999999999));
#1178=CARTESIAN_POINT('Ctrl Pts',(176.980455542753,37.9669791585054,174.249999999999));
#1179=CARTESIAN_POINT('Ctrl Pts',(176.980455542753,37.9669791585054,174.313585243966));
#1180=CARTESIAN_POINT('Ctrl Pts',(176.991625761682,37.9609124927258,174.375386214718));
#1181=CARTESIAN_POINT('Ctrl Pts',(177.037320778909,37.9362161815998,174.506898357603));
#1182=CARTESIAN_POINT('Ctrl Pts',(177.075533764294,37.9156213740888,174.572642464261));
#1183=CARTESIAN_POINT('Ctrl Pts',(177.19251333317,37.8531460060606,174.724131555296));
#1184=CARTESIAN_POINT('Ctrl Pts',(177.283613930298,37.8050079894487,174.801450134418));
#1185=CARTESIAN_POINT('Ctrl Pts',(177.538955011535,37.6725050850825,174.971557004162));
#1186=CARTESIAN_POINT('Ctrl Pts',(177.744893574607,37.5677665470789,175.061082381122));
#1187=CARTESIAN_POINT('Ctrl Pts',(178.29731973788,37.301107152169,175.207200329631));
#1188=CARTESIAN_POINT('Ctrl Pts',(178.65297405831,37.1376090962603,175.249263684176));
#1189=CARTESIAN_POINT('Ctrl Pts',(179.05163915482,36.9698924163096,175.24999681932));
#1190=CARTESIAN_POINT('Ctrl Pts',(179.055105187754,36.9684353309521,175.249999999998));
#1191=CARTESIAN_POINT('Ctrl Pts',(179.058571571529,36.9669791585029,175.249999999998));
#1192=CARTESIAN_POINT('Origin',(172.7,29.1002344993153,174.249999999999));
#1193=CARTESIAN_POINT('',(171.7,32.5000005215464,174.249999999999));
#1194=CARTESIAN_POINT('',(171.7,27.9670118309791,174.249999999999));
#1195=CARTESIAN_POINT('',(171.7,29.1002344993153,174.249999999999));
#1196=CARTESIAN_POINT('',(172.7,28.9670118309791,175.249999999999));
#1197=CARTESIAN_POINT('Origin',(172.7,28.9670118309791,174.249999999999));
#1198=CARTESIAN_POINT('',(172.7,31.5000005215464,175.249999999999));
#1199=CARTESIAN_POINT('',(172.7,29.1002344993153,175.249999999999));
#1200=CARTESIAN_POINT('Origin',(172.7,31.5000005215464,174.249999999999));
#1201=CARTESIAN_POINT('Origin',(175.200000000001,28.9670118309792,174.249999999999));
#1202=CARTESIAN_POINT('',(177.200000000001,28.9670118309793,175.249999999999));
#1203=CARTESIAN_POINT('',(175.200000000001,28.9670118309792,175.249999999999));
#1204=CARTESIAN_POINT('',(171.7,27.9670118315128,174.249967328125));
#1205=CARTESIAN_POINT('',(171.7,27.9672830118355,165.949851911054));
#1206=CARTESIAN_POINT('',(178.200000000001,27.967011831513,174.249967328125));
#1207=CARTESIAN_POINT('',(175.200000000001,27.9670118315129,174.249967328125));
#1208=CARTESIAN_POINT('',(178.200000000001,27.9670118304456,174.249999999999));
#1209=CARTESIAN_POINT('',(178.200000000001,27.9669791585719,175.249999999999));
#1210=CARTESIAN_POINT('Origin',(177.200000000001,28.9670118309793,174.249999999999));
#1211=CARTESIAN_POINT('Origin',(175.200000000001,31.5000005215465,174.249999999999));
#1212=CARTESIAN_POINT('',(175.200000000001,32.5000005215465,174.249999999999));
#1213=CARTESIAN_POINT('',(175.200000000001,32.5000005215465,174.249999999999));
#1214=CARTESIAN_POINT('',(176.200000000001,31.5000005215465,175.249999999999));
#1215=CARTESIAN_POINT('',(175.200000000001,31.5000005215465,175.249999999999));
#1216=CARTESIAN_POINT('Origin',(176.200000000001,31.5000005215465,174.249999999999));
#1217=CARTESIAN_POINT('Origin',(177.200000000001,29.6502344993155,174.249999999999));
#1218=CARTESIAN_POINT('',(178.200000000001,29.3253285703495,174.249999999999));
#1219=CARTESIAN_POINT('',(178.200000000001,32.0086101433497,174.249999999999));
#1220=CARTESIAN_POINT('Ctrl Pts',(178.200000000001,29.3253285703495,174.249999999999));
#1221=CARTESIAN_POINT('Ctrl Pts',(178.200000000001,29.3423327123287,174.269011208681));
#1222=CARTESIAN_POINT('Ctrl Pts',(178.199456897968,29.3594872912189,174.287373742985));
#1223=CARTESIAN_POINT('Ctrl Pts',(178.189214742093,29.5403971932165,174.473383857245));
#1224=CARTESIAN_POINT('Ctrl Pts',(178.137509908007,29.7432680313943,174.61371330051));
#1225=CARTESIAN_POINT('Ctrl Pts',(178.040543602175,30.1885066771057,174.801997196885));
#1226=CARTESIAN_POINT('Ctrl Pts',(178.000000000001,30.4318684655164,174.849999999999));
#1227=CARTESIAN_POINT('Ctrl Pts',(178.000000000001,30.6669693568496,174.849999999999));
#1228=CARTESIAN_POINT('Ctrl Pts',(178.000000000001,30.9020702481828,174.849999999999));
#1229=CARTESIAN_POINT('Ctrl Pts',(178.040543602175,31.1454320365935,174.801997196885));
#1230=CARTESIAN_POINT('Ctrl Pts',(178.137509908007,31.5906706823049,174.61371330051));
#1231=CARTESIAN_POINT('Ctrl Pts',(178.189214742093,31.7935415204828,174.473383857245));
#1232=CARTESIAN_POINT('Ctrl Pts',(178.199456897968,31.9744514224803,174.287373742985));
#1233=CARTESIAN_POINT('Ctrl Pts',(178.200000000001,31.9916060013706,174.269011208681));
#1234=CARTESIAN_POINT('Ctrl Pts',(178.200000000001,32.0086101433497,174.249999999999));
#1235=CARTESIAN_POINT('',(178.200000000001,32.9669791585756,174.249999999999));
#1236=CARTESIAN_POINT('',(178.200000000001,29.6502344993155,174.249999999999));
#1237=CARTESIAN_POINT('',(177.200000000001,33.9669791585755,175.249999999999));
#1238=CARTESIAN_POINT('Origin',(177.200000000001,33.9669791585755,174.249999999999));
#1239=CARTESIAN_POINT('',(177.200000000001,29.6502344993155,175.249999999999));
#1240=CARTESIAN_POINT('',(178.200000000001,29.6502344993155,174.249999999999));
#1241=CARTESIAN_POINT('Origin',(176.200000000001,29.6502344993154,174.249999999999));
#1242=CARTESIAN_POINT('',(175.200000000001,29.6502344993154,174.249999999999));
#1243=CARTESIAN_POINT('',(176.200000000001,29.6502344993154,175.249999999999));
#1244=CARTESIAN_POINT('Origin',(180.699999844018,33.9669791585757,174.249999999999));
#1245=CARTESIAN_POINT('',(186.199999688036,32.9669791585759,174.249999999999));
#1246=CARTESIAN_POINT('',(180.699999844018,32.9669791585757,174.249999999999));
#1247=CARTESIAN_POINT('',(186.200000000001,33.9669791585759,175.249999999999));
#1248=CARTESIAN_POINT('Origin',(186.199999688036,33.9669791585759,174.249999999999));
#1249=CARTESIAN_POINT('',(180.699999844018,33.9669791585756,175.249999999999));
#1250=CARTESIAN_POINT('Origin',(175.200000000001,27.9669791585718,175.249999999999));
#1251=CARTESIAN_POINT('Origin',(186.2,43.9669791585759,175.249999999999));
#1252=CARTESIAN_POINT('Origin',(175.200000000001,32.5000005215465,175.249999999999));
#1253=CARTESIAN_POINT('',(175.200000000001,32.5000005215465,163.850000000693));
#1254=CARTESIAN_POINT('',(175.200000000001,32.5000005215465,175.549999999999));
#1255=CARTESIAN_POINT('',(175.200000000534,32.5000005215465,163.849967328819));
#1256=CARTESIAN_POINT('',(175.200000000001,32.5000005215465,175.549999999999));
#1257=CARTESIAN_POINT('',(171.7,32.5000005215464,163.849967328819));
#1258=CARTESIAN_POINT('',(175.200000000001,32.5000005215465,163.849967328819));
#1259=CARTESIAN_POINT('',(171.7,32.5000005215464,163.850000000693));
#1260=CARTESIAN_POINT('',(171.7,32.5000005215464,172.149962977772));
#1261=CARTESIAN_POINT('',(171.7,32.5000005215464,172.149962977772));
#1262=CARTESIAN_POINT('Origin',(175.200000000001,31.3334898400591,169.049925955546));
#1263=CARTESIAN_POINT('',(175.2,37.9669791585076,163.850178617128));
#1264=CARTESIAN_POINT('',(175.2,37.9669791585076,175.249999999999));
#1265=CARTESIAN_POINT('',(175.200000000001,31.9168137911505,163.849980946889));
#1266=CARTESIAN_POINT('Origin',(175.2,37.9669791585076,175.249999999999));
#1267=CARTESIAN_POINT('',(176.980455542753,37.9669791585054,163.85019643815));
#1268=CARTESIAN_POINT('',(176.980455542753,37.9669791585054,175.249999999999));
#1269=CARTESIAN_POINT('',(176.980455544274,37.9669791585054,163.850145945254));
#1270=CARTESIAN_POINT('',(176.980455542753,37.9669791585054,175.249999999999));
#1271=CARTESIAN_POINT('',(175.2,37.9669791585076,163.850145945254));
#1272=CARTESIAN_POINT('',(175.200000000004,37.9669791585076,163.850145945254));
#1273=CARTESIAN_POINT('',(175.2,37.9669791585076,175.249999999999));
#1274=CARTESIAN_POINT('Origin',(186.2,43.9669791585759,175.249999999999));
#1275=CARTESIAN_POINT('',(197.2,43.9669791585759,174.249999999999));
#1276=CARTESIAN_POINT('Origin',(186.2,43.9669791585759,174.249999999999));
#1277=CARTESIAN_POINT('',(186.199999688036,32.9669791585759,175.249999999999));
#1278=CARTESIAN_POINT('',(186.199999688036,32.9669791585759,163.850047929633));
#1279=CARTESIAN_POINT('',(186.199999688036,32.9669791585759,175.249999999999));
#1280=CARTESIAN_POINT('Origin',(186.2,43.9669791585759,163.850374648371));
#1281=CARTESIAN_POINT('Origin',(186.2,43.9669791585759,174.249999999999));
#1282=CARTESIAN_POINT('Origin',(186.199999688036,32.9669791585759,175.249999999999));
#1283=CARTESIAN_POINT('',(178.200000000001,32.9669791585756,163.850047929633));
#1284=CARTESIAN_POINT('',(178.200000000001,32.9669791585756,172.149962977772));
#1285=CARTESIAN_POINT('',(180.699999844018,32.9669791585757,163.850047929633));
#1286=CARTESIAN_POINT('Origin',(186.2,43.9669791585759,174.249999999999));
#1287=CARTESIAN_POINT('',(195.2,43.9669791585759,174.249999999999));
#1288=CARTESIAN_POINT('Origin',(196.2,43.9669791585759,174.249999999999));
#1289=CARTESIAN_POINT('Origin',(186.2,43.9669791585759,174.249999999999));
#1290=CARTESIAN_POINT('Origin',(186.2,43.9669791585759,175.249999999999));
#1291=CARTESIAN_POINT('',(186.2,34.9669791585759,163.850047929633));
#1292=CARTESIAN_POINT('',(195.2,43.9669791585759,163.850374648371));
#1293=CARTESIAN_POINT('Origin',(186.2,43.9669791585759,163.850374648371));
#1294=CARTESIAN_POINT('Origin',(186.2,43.9669791585759,163.850374648371));
#1295=CARTESIAN_POINT('',(195.2,43.9669791585759,175.249999999999));
#1296=CARTESIAN_POINT('Origin',(175.200000000003,36.9669791585076,163.850145945254));
#1297=CARTESIAN_POINT('',(179.058571567717,36.9670118303766,162.850145945788));
#1298=CARTESIAN_POINT('',(176.2,36.96701183038,162.850145945788));
#1299=CARTESIAN_POINT('',(175.200000000003,36.9670118303813,162.850145945788));
#1300=CARTESIAN_POINT('Origin',(176.2,36.9669791585064,163.850145945254));
#1301=CARTESIAN_POINT('Ctrl Pts',(179.058571571527,36.9670118303785,162.850145945788));
#1302=CARTESIAN_POINT('Ctrl Pts',(179.055030411374,36.9684994151891,162.85014599439));
#1303=CARTESIAN_POINT('Ctrl Pts',(179.051489638327,36.9699879437278,162.850149362383));
#1304=CARTESIAN_POINT('Ctrl Pts',(178.757337930136,37.0937401573976,162.850706036128));
#1305=CARTESIAN_POINT('Ctrl Pts',(178.462420628333,37.2256018905685,162.873626038476));
#1306=CARTESIAN_POINT('Ctrl Pts',(177.922716104048,37.4801149945527,162.981541536735));
#1307=CARTESIAN_POINT('Ctrl Pts',(177.700968859886,37.5905606571406,163.057306060378));
#1308=CARTESIAN_POINT('Ctrl Pts',(177.379575908349,37.7546488907063,163.225515310466));
#1309=CARTESIAN_POINT('Ctrl Pts',(177.266673036763,37.8139659333864,163.309007685764));
#1310=CARTESIAN_POINT('Ctrl Pts',(177.123714461001,37.8898067946576,163.459130362646));
#1311=CARTESIAN_POINT('Ctrl Pts',(177.072922790177,37.9170549715381,163.528024141942));
#1312=CARTESIAN_POINT('Ctrl Pts',(177.009446812681,37.9512655464565,163.663691719324));
#1313=CARTESIAN_POINT('Ctrl Pts',(176.990843417558,37.9613512826094,163.725695873268));
#1314=CARTESIAN_POINT('Ctrl Pts',(176.981545148961,37.96638942918,163.810553311082));
#1315=CARTESIAN_POINT('Ctrl Pts',(176.980456738722,37.9669791585054,163.830319093212));
#1316=CARTESIAN_POINT('Ctrl Pts',(176.980455544274,37.9669791585054,163.850145945254));
#1317=CARTESIAN_POINT('Origin',(176.200000000001,31.9168137911505,163.849980946889));
#1318=CARTESIAN_POINT('',(176.200000000001,31.5000331934202,162.849967329353));
#1319=CARTESIAN_POINT('',(176.200000000001,31.9168464630242,162.849980947423));
#1320=CARTESIAN_POINT('Origin',(176.200000000001,31.5000005215465,163.849967328819));
#1321=CARTESIAN_POINT('Origin',(172.7,31.3668137917375,163.849962977359));
#1322=CARTESIAN_POINT('',(171.7,27.9673516227704,163.84985191056));
#1323=CARTESIAN_POINT('',(171.7,31.3668137917375,163.849962977359));
#1324=CARTESIAN_POINT('',(172.7,31.5000331934201,162.849967329353));
#1325=CARTESIAN_POINT('Origin',(172.7,31.5000005215464,163.849967328819));
#1326=CARTESIAN_POINT('',(172.7,28.9673842941104,162.849884582968));
#1327=CARTESIAN_POINT('',(172.7,31.3668464636112,162.849962977893));
#1328=CARTESIAN_POINT('Origin',(172.7,28.9673516222367,163.849884582434));
#1329=CARTESIAN_POINT('Origin',(175.200000000001,31.5000005215465,163.849967328819));
#1330=CARTESIAN_POINT('',(175.200000000001,31.5000331934202,162.849967329353));
#1331=CARTESIAN_POINT('Origin',(175.200000000001,28.9673516222367,163.849884582434));
#1332=CARTESIAN_POINT('',(178.200000000001,27.9673516227706,163.84985191056));
#1333=CARTESIAN_POINT('',(175.200000000001,27.9673516227705,163.84985191056));
#1334=CARTESIAN_POINT('',(177.200000000001,28.9673842941105,162.849884582968));
#1335=CARTESIAN_POINT('',(175.200000000001,28.9673842941104,162.849884582968));
#1336=CARTESIAN_POINT('Origin',(177.200000000001,28.9673516222368,163.849884582434));
#1337=CARTESIAN_POINT('Origin',(177.200000000001,31.9168137911506,163.849980946889));
#1338=CARTESIAN_POINT('',(178.200000000001,32.008595783667,163.849983945579));
#1339=CARTESIAN_POINT('',(178.200000000001,29.3254213464424,163.849896281243));
#1340=CARTESIAN_POINT('Ctrl Pts',(178.200000000001,32.008595783667,163.849983945579));
#1341=CARTESIAN_POINT('Ctrl Pts',(178.200000000001,31.9916084452154,163.830991981177));
#1342=CARTESIAN_POINT('Ctrl Pts',(178.199458030581,31.9744711049257,163.812647528459));
#1343=CARTESIAN_POINT('Ctrl Pts',(178.18922731645,31.7935846660435,163.626650615029));
#1344=CARTESIAN_POINT('Ctrl Pts',(178.137531968874,31.5907186348352,163.486315090428));
#1345=CARTESIAN_POINT('Ctrl Pts',(178.040581948698,31.1454865713515,163.298017754369));
#1346=CARTESIAN_POINT('Ctrl Pts',(178.00004491192,30.9021267292894,163.25000768207));
#1347=CARTESIAN_POINT('Ctrl Pts',(178.00004491192,30.6670281662223,163.25000000096));
#1348=CARTESIAN_POINT('Ctrl Pts',(178.00004491192,30.4319296031552,163.249992319849));
#1349=CARTESIAN_POINT('Ctrl Pts',(178.040581948698,30.1885666244546,163.297986490001));
#1350=CARTESIAN_POINT('Ctrl Pts',(178.137531968874,29.7433222578679,163.486254732527));
#1351=CARTESIAN_POINT('Ctrl Pts',(178.18922731645,29.5404470570436,163.626577000801));
#1352=CARTESIAN_POINT('Ctrl Pts',(178.199458030581,29.3595484648123,163.812562094037));
#1353=CARTESIAN_POINT('Ctrl Pts',(178.200000000001,29.3424099258639,163.830905426897));
#1354=CARTESIAN_POINT('Ctrl Pts',(178.200000000001,29.3254213464425,163.849896281243));
#1355=CARTESIAN_POINT('',(178.200000000001,31.9168137911506,163.849980946889));
#1356=CARTESIAN_POINT('',(177.200000000001,33.9670118304492,162.850047930167));
#1357=CARTESIAN_POINT('',(177.200000000001,31.9168464630243,162.849980947423));
#1358=CARTESIAN_POINT('',(178.200000000001,32.9669791585756,163.85001525776));
#1359=CARTESIAN_POINT('Origin',(177.200000000001,33.9669791585755,163.850047929633));
#1360=CARTESIAN_POINT('',(178.200000000001,31.9168137911506,163.849980946889));
#1361=CARTESIAN_POINT('Origin',(180.699999844018,33.9669791585757,163.850047929633));
#1362=CARTESIAN_POINT('',(186.2,33.9670118304496,162.850047930167));
#1363=CARTESIAN_POINT('',(180.699999844018,33.9670118304494,162.850047930167));
#1364=CARTESIAN_POINT('Origin',(186.2,33.9669791585759,163.850047929633));
#1365=CARTESIAN_POINT('',(178.200000000001,32.9669791585756,172.149962977772));
#1366=CARTESIAN_POINT('Ctrl Pts',(186.199999716395,33.9670118304496,162.850047930167));
#1367=CARTESIAN_POINT('Ctrl Pts',(187.506615551006,33.9670117933934,162.850047930166));
#1368=CARTESIAN_POINT('Ctrl Pts',(190.118802505327,34.4853778038517,162.850064866155));
#1369=CARTESIAN_POINT('Ctrl Pts',(193.446074912218,36.7040148356229,162.850137353184));
#1370=CARTESIAN_POINT('Ctrl Pts',(195.668219884832,40.0197261703432,162.850245683686));
#1371=CARTESIAN_POINT('Ctrl Pts',(196.554162610936,44.3792065496972,162.850388116078));
#1372=CARTESIAN_POINT('Ctrl Pts',(195.511546442385,48.2890512304515,162.85051585803));
#1373=CARTESIAN_POINT('Ctrl Pts',(192.324732899707,52.5029841706366,162.850653535114));
#1374=CARTESIAN_POINT('Ctrl Pts',(187.574458902859,54.4971673298122,162.850718688815));
#1375=CARTESIAN_POINT('Ctrl Pts',(183.313713592629,53.6539471598988,162.850691139232));
#1376=CARTESIAN_POINT('Ctrl Pts',(180.944104137435,52.555342949174,162.850655245774));
#1377=CARTESIAN_POINT('Ctrl Pts',(178.809342115103,50.9950515308289,162.85060426813));
#1378=CARTESIAN_POINT('Ctrl Pts',(176.752902747045,47.9676247179104,162.850505356423));
#1379=CARTESIAN_POINT('Ctrl Pts',(175.939900763986,44.0543815380074,162.850377503436));
#1380=CARTESIAN_POINT('Ctrl Pts',(176.685503331599,40.1290381405617,162.850249255113));
#1381=CARTESIAN_POINT('Ctrl Pts',(178.143940487292,37.9001221770147,162.850176432252));
#1382=CARTESIAN_POINT('Ctrl Pts',(179.058571571529,36.9670118303765,162.850145945788));
#1383=CARTESIAN_POINT('Ctrl Pts',(186.19999970791,33.6678063070534,162.850038154562));
#1384=CARTESIAN_POINT('Ctrl Pts',(187.545879612846,33.6678062688835,162.850038154561));
#1385=CARTESIAN_POINT('Ctrl Pts',(190.236204061558,34.2014502101283,162.850055543774));
#1386=CARTESIAN_POINT('Ctrl Pts',(193.663241198247,36.4864394700047,162.850130192386));
#1387=CARTESIAN_POINT('Ctrl Pts',(195.951890198659,39.9013591158746,162.850241764212));
#1388=CARTESIAN_POINT('Ctrl Pts',(196.864478503709,44.3914729912202,162.850388503613));
#1389=CARTESIAN_POINT('Ctrl Pts',(195.79057837843,48.4184085688061,162.850520092901));
#1390=CARTESIAN_POINT('Ctrl Pts',(192.508235558787,52.7587931933091,162.850661975478));
#1391=CARTESIAN_POINT('Ctrl Pts',(187.615700465883,54.8125902085092,162.850729067138));
#1392=CARTESIAN_POINT('Ctrl Pts',(183.22726092015,53.9441353917524,162.850700691763));
#1393=CARTESIAN_POINT('Ctrl Pts',(180.786517579373,52.8125387425394,162.850663695944));
#1394=CARTESIAN_POINT('Ctrl Pts',(178.587727265816,51.2054595816497,162.850611168772));
#1395=CARTESIAN_POINT('Ctrl Pts',(176.469878943157,48.0875298670417,162.850509315051));
#1396=CARTESIAN_POINT('Ctrl Pts',(175.632462121114,44.0569422897882,162.850377576472));
#1397=CARTESIAN_POINT('Ctrl Pts',(176.400577033256,40.0141785971637,162.850245497088));
#1398=CARTESIAN_POINT('Ctrl Pts',(177.902782086269,37.71872000966,162.850170529433));
#1399=CARTESIAN_POINT('Ctrl Pts',(178.844897421564,36.757569270929,162.850139102907));
#1400=CARTESIAN_POINT('Ctrl Pts',(186.199999693226,33.1500270609749,163.101361432467));
#1401=CARTESIAN_POINT('Ctrl Pts',(187.613323607876,33.1500270208924,163.101361432465));
#1402=CARTESIAN_POINT('Ctrl Pts',(190.438924889419,33.710797205391,163.10137918935));
#1403=CARTESIAN_POINT('Ctrl Pts',(194.03797555578,36.1107018329882,163.101455139646));
#1404=CARTESIAN_POINT('Ctrl Pts',(196.441653963516,39.6972999838363,163.101568643389));
#1405=CARTESIAN_POINT('Ctrl Pts',(197.399934644289,44.4128897365628,163.101717867125));
#1406=CARTESIAN_POINT('Ctrl Pts',(196.272154741699,48.6421239685734,163.10185170329));
#1407=CARTESIAN_POINT('Ctrl Pts',(192.825030309619,53.2002225213939,163.101995935094));
#1408=CARTESIAN_POINT('Ctrl Pts',(187.686716658149,55.3573267115439,163.10206420246));
#1409=CARTESIAN_POINT('Ctrl Pts',(183.077942877229,54.4452234173446,163.10203533773));
#1410=CARTESIAN_POINT('Ctrl Pts',(180.514803460957,53.2568996108087,163.101997736782));
#1411=CARTESIAN_POINT('Ctrl Pts',(178.205677789939,51.5691674585661,163.101944330423));
#1412=CARTESIAN_POINT('Ctrl Pts',(175.98120515302,48.2944004094433,163.101840691624));
#1413=CARTESIAN_POINT('Ctrl Pts',(175.10179808707,44.0615244687133,163.101706747006));
#1414=CARTESIAN_POINT('Ctrl Pts',(175.908258913113,39.8154874207847,163.101572373011));
#1415=CARTESIAN_POINT('Ctrl Pts',(177.485811956799,37.4044392688612,163.101496064832));
#1416=CARTESIAN_POINT('Ctrl Pts',(178.475137146713,36.395123495545,163.101464128812));
#1417=CARTESIAN_POINT('Ctrl Pts',(186.199999688035,32.9669791585759,163.625643786966));
#1418=CARTESIAN_POINT('Ctrl Pts',(187.637384267615,32.966979117811,163.625643786965));
#1419=CARTESIAN_POINT('Ctrl Pts',(190.510778925207,33.5370369349364,163.625660972153));
#1420=CARTESIAN_POINT('Ctrl Pts',(194.170912644139,35.9775206777167,163.625734495746));
#1421=CARTESIAN_POINT('Ctrl Pts',(196.615282611118,39.624806026366,163.625844373874));
#1422=CARTESIAN_POINT('Ctrl Pts',(197.589904770405,44.4203592975584,163.625988834891));
#1423=CARTESIAN_POINT('Ctrl Pts',(196.442969914772,48.7212558019861,163.626118398271));
#1424=CARTESIAN_POINT('Ctrl Pts',(192.937361612565,53.35681286535,163.626258030425));
#1425=CARTESIAN_POINT('Ctrl Pts',(187.711978171622,55.5503802670617,163.626324116376));
#1426=CARTESIAN_POINT('Ctrl Pts',(183.025026273186,54.622835224542,163.626296173459));
#1427=CARTESIAN_POINT('Ctrl Pts',(180.418308895379,53.4142946094028,163.626259771115));
#1428=CARTESIAN_POINT('Ctrl Pts',(178.069972934927,51.6979097816982,163.626208068543));
#1429=CARTESIAN_POINT('Ctrl Pts',(175.807964096002,48.367790103496,163.626107741508));
#1430=CARTESIAN_POINT('Ctrl Pts',(174.913604242446,44.0630599070975,163.625978070227));
#1431=CARTESIAN_POINT('Ctrl Pts',(175.733893590922,39.7451977523281,163.625847988933));
#1432=CARTESIAN_POINT('Ctrl Pts',(177.338256554131,37.2934810837904,163.625774121098));
#1433=CARTESIAN_POINT('Ctrl Pts',(178.344425063586,36.2669828976411,163.625743202872));
#1434=CARTESIAN_POINT('Ctrl Pts',(186.199999688035,32.9669791585759,163.850047929633));
#1435=CARTESIAN_POINT('Ctrl Pts',(187.637277106107,32.966979117814,163.850047929632));
#1436=CARTESIAN_POINT('Ctrl Pts',(190.51068275586,33.5371817293182,163.850064865621));
#1437=CARTESIAN_POINT('Ctrl Pts',(194.170682403439,35.9776824642665,163.85013735265));
#1438=CARTESIAN_POINT('Ctrl Pts',(196.615041873316,39.6249649324589,163.850245683152));
#1439=CARTESIAN_POINT('Ctrl Pts',(197.58957887203,44.4203933497483,163.850388115544));
#1440=CARTESIAN_POINT('Ctrl Pts',(196.442701086624,48.721222498578,163.850515857496));
#1441=CARTESIAN_POINT('Ctrl Pts',(192.937206189678,53.3565487327816,163.850653534581));
#1442=CARTESIAN_POINT('Ctrl Pts',(187.711904793145,55.5501502078748,163.850718688281));
#1443=CARTESIAN_POINT('Ctrl Pts',(183.025084951892,54.62260802097,163.850691138698));
#1444=CARTESIAN_POINT('Ctrl Pts',(180.418514551178,53.4141433891728,163.85065524524));
#1445=CARTESIAN_POINT('Ctrl Pts',(178.070276326613,51.6978228289932,163.850604267596));
#1446=CARTESIAN_POINT('Ctrl Pts',(175.80819302175,48.3676533347828,163.85050535589));
#1447=CARTESIAN_POINT('Ctrl Pts',(174.913890840385,44.0630858368895,163.850377502903));
#1448=CARTESIAN_POINT('Ctrl Pts',(175.734053664759,39.7452080996992,163.850249254579));
#1449=CARTESIAN_POINT('Ctrl Pts',(177.338334536021,37.2934005397975,163.850176431718));
#1450=CARTESIAN_POINT('Ctrl Pts',(178.344428728682,36.2669791584955,163.850145945254));
#1451=CARTESIAN_POINT('Origin',(186.2,43.9670118304496,162.850374648904));
#1452=CARTESIAN_POINT('Origin',(175.200000000001,32.5000005215465,162.850000000159));
#1453=CARTESIAN_POINT('Origin',(186.2,43.9670118304496,162.850374648904));
#1454=CARTESIAN_POINT('Origin',(171.7,30.233489840059,169.049925955546));
#1455=CARTESIAN_POINT('',(171.7,27.9672830118355,165.949851911054));
#1456=CARTESIAN_POINT('',(171.7,29.8169693568495,165.049999999999));
#1457=CARTESIAN_POINT('Origin',(171.7,30.6669693568494,165.049999999999));
#1458=CARTESIAN_POINT('',(171.7,29.8169693568495,173.049999999999));
#1459=CARTESIAN_POINT('Origin',(171.7,30.6669693568494,173.049999999999));
#1460=CARTESIAN_POINT('Origin',(175.200000000001,27.9673842946442,162.849851911094));
#1461=CARTESIAN_POINT('',(178.200000000001,27.9669791585719,175.249999999999));
#1462=CARTESIAN_POINT('Origin',(175.200000000001,30.6669693568496,165.049999999999));
#1463=CARTESIAN_POINT('',(178.200000000001,28.8669693568497,165.049999999999));
#1464=CARTESIAN_POINT('Origin',(178.200000000001,30.6669693568497,165.049999999999));
#1465=CARTESIAN_POINT('',(175.200000000001,28.8669693568496,165.049999999999));
#1466=CARTESIAN_POINT('',(175.200000000001,28.8669693568496,165.049999999999));
#1467=CARTESIAN_POINT('Origin',(175.200000000001,30.6669693568496,165.049999999999));
#1468=CARTESIAN_POINT('Origin',(178.200000000001,30.6669693568497,165.049999999999));
#1469=CARTESIAN_POINT('Origin',(178.200000000001,31.3334898400592,169.049925955546));
#1470=CARTESIAN_POINT('',(178.200000000001,28.8669693568497,173.049999999999));
#1471=CARTESIAN_POINT('Origin',(178.200000000001,30.6669693568497,173.049999999999));
#1472=CARTESIAN_POINT('Origin',(178.200000000001,30.6669693568497,173.049999999999));
#1473=CARTESIAN_POINT('Ctrl Pts',(186.2,33.9670118304496,162.850047930167));
#1474=CARTESIAN_POINT('Ctrl Pts',(184.704003498291,33.9670118304496,162.850047930167));
#1475=CARTESIAN_POINT('Ctrl Pts',(181.712929293712,34.6496675407747,162.850070233808));
#1476=CARTESIAN_POINT('Ctrl Pts',(178.115524611867,37.5189069307542,162.850163977235));
#1477=CARTESIAN_POINT('Ctrl Pts',(176.117367630553,41.6663781938834,162.850299482893));
#1478=CARTESIAN_POINT('Ctrl Pts',(176.119533970658,45.7562450341539,162.850433106506));
#1479=CARTESIAN_POINT('Ctrl Pts',(177.775118569463,49.9827130771434,162.850571193136));
#1480=CARTESIAN_POINT('Ctrl Pts',(181.590046151909,53.5396218976829,162.850687404011));
#1481=CARTESIAN_POINT('Ctrl Pts',(186.749520868366,54.3045660553625,162.85071239617));
#1482=CARTESIAN_POINT('Ctrl Pts',(191.086127408638,52.9637778897992,162.850668590109));
#1483=CARTESIAN_POINT('Ctrl Pts',(194.285048050935,50.4155196746259,162.850585333738));
#1484=CARTESIAN_POINT('Ctrl Pts',(196.281755425827,46.2672588985166,162.850449802286));
#1485=CARTESIAN_POINT('Ctrl Pts',(196.281915319361,41.6659935116489,162.850299470324));
#1486=CARTESIAN_POINT('Ctrl Pts',(194.286389246341,37.5184440175957,162.850163962111));
#1487=CARTESIAN_POINT('Ctrl Pts',(190.686856914637,34.6495648514188,162.850070230453));
#1488=CARTESIAN_POINT('Ctrl Pts',(187.69599650171,33.9670118304496,162.850047930167));
#1489=CARTESIAN_POINT('Ctrl Pts',(186.2,33.9670118304496,162.850047930167));
#1490=CARTESIAN_POINT('Ctrl Pts',(186.2,34.2662049074178,162.850057705366));
#1491=CARTESIAN_POINT('Ctrl Pts',(184.748956593661,34.2662049074178,162.850057705366));
#1492=CARTESIAN_POINT('Ctrl Pts',(181.847393936702,34.9286850493084,162.850079399002));
#1493=CARTESIAN_POINT('Ctrl Pts',(178.357889582201,37.712057094383,162.850170332444));
#1494=CARTESIAN_POINT('Ctrl Pts',(176.419517147908,41.7353520601541,162.850301763882));
#1495=CARTESIAN_POINT('Ctrl Pts',(176.42170115852,45.7026047469702,162.850431332873));
#1496=CARTESIAN_POINT('Ctrl Pts',(178.027521726946,49.8022664942966,162.850565207534));
#1497=CARTESIAN_POINT('Ctrl Pts',(181.728272070582,53.2525588473151,162.850677897411));
#1498=CARTESIAN_POINT('Ctrl Pts',(186.733195216843,53.9947206481256,162.850702166156));
#1499=CARTESIAN_POINT('Ctrl Pts',(190.939614222399,52.69409513811,162.85065968112));
#1500=CARTESIAN_POINT('Ctrl Pts',(194.042667195602,50.2222897077428,162.850578963432));
#1501=CARTESIAN_POINT('Ctrl Pts',(195.979478482987,46.1982609528269,162.850447513402));
#1502=CARTESIAN_POINT('Ctrl Pts',(195.979714024567,41.7348078502118,162.850301712266));
#1503=CARTESIAN_POINT('Ctrl Pts',(194.044001903114,37.711651966448,162.850170327897));
#1504=CARTESIAN_POINT('Ctrl Pts',(190.552379371042,34.9285445235806,162.850079386318));
#1505=CARTESIAN_POINT('Ctrl Pts',(187.65104340634,34.2662049074178,162.850057705366));
#1506=CARTESIAN_POINT('Ctrl Pts',(186.2,34.2662049074178,162.850057705366));
#1507=CARTESIAN_POINT('Ctrl Pts',(186.2,34.783947330201,163.101392491882));
#1508=CARTESIAN_POINT('Ctrl Pts',(184.82617289797,34.783947330201,163.101392491882));
#1509=CARTESIAN_POINT('Ctrl Pts',(182.079447841504,35.4107773523436,163.101413717551));
#1510=CARTESIAN_POINT('Ctrl Pts',(178.775872888544,38.0456246049118,163.101502985853));
#1511=CARTESIAN_POINT('Ctrl Pts',(176.940963019483,41.854290537746,163.101632025407));
#1512=CARTESIAN_POINT('Ctrl Pts',(176.942941060363,45.6100886248535,163.101759280926));
#1513=CARTESIAN_POINT('Ctrl Pts',(178.463330519586,49.4913468610371,163.101890791589));
#1514=CARTESIAN_POINT('Ctrl Pts',(181.966601069542,52.7577048397685,163.102001462755));
#1515=CARTESIAN_POINT('Ctrl Pts',(186.704598963303,53.4601286645931,163.102025255879));
#1516=CARTESIAN_POINT('Ctrl Pts',(190.687016544029,52.2288716158165,163.101983539459));
#1517=CARTESIAN_POINT('Ctrl Pts',(193.624632645347,49.8887550043665,163.101904248219));
#1518=CARTESIAN_POINT('Ctrl Pts',(195.458258520863,46.0793705818911,163.101775182993));
#1519=CARTESIAN_POINT('Ctrl Pts',(195.458395552389,41.8539770533298,163.101632022362));
#1520=CARTESIAN_POINT('Ctrl Pts',(193.625876498438,38.0451893265199,163.10150296916));
#1521=CARTESIAN_POINT('Ctrl Pts',(190.320360323611,35.4106925642605,163.101413716491));
#1522=CARTESIAN_POINT('Ctrl Pts',(187.57382710203,34.783947330201,163.101392491882));
#1523=CARTESIAN_POINT('Ctrl Pts',(186.2,34.783947330201,163.101392491882));
#1524=CARTESIAN_POINT('Ctrl Pts',(186.2,34.9669791585759,163.625653121788));
#1525=CARTESIAN_POINT('Ctrl Pts',(184.853723627625,34.9669791585759,163.625653121788));
#1526=CARTESIAN_POINT('Ctrl Pts',(182.161767623334,35.5815261765447,163.625675099069));
#1527=CARTESIAN_POINT('Ctrl Pts',(178.924269937997,38.1638308024141,163.625767504077));
#1528=CARTESIAN_POINT('Ctrl Pts',(177.125929613377,41.8965034522773,163.62590107669));
#1529=CARTESIAN_POINT('Ctrl Pts',(177.127932530919,45.5772296128005,163.626032799056));
#1530=CARTESIAN_POINT('Ctrl Pts',(178.617816259542,49.3808299150265,163.626168923858));
#1531=CARTESIAN_POINT('Ctrl Pts',(182.051229080111,52.5819241953906,163.626283480443));
#1532=CARTESIAN_POINT('Ctrl Pts',(186.694641248288,53.2704390012854,163.626308112251));
#1533=CARTESIAN_POINT('Ctrl Pts',(190.597312103576,52.0637596431839,163.626264930629));
#1534=CARTESIAN_POINT('Ctrl Pts',(193.476242424126,49.7704597871628,163.626182857247));
#1535=CARTESIAN_POINT('Ctrl Pts',(195.273183107303,46.0370993660826,163.626049258453));
#1536=CARTESIAN_POINT('Ctrl Pts',(195.27337913306,41.8960500062773,163.625901069637));
#1537=CARTESIAN_POINT('Ctrl Pts',(193.477474407714,38.1634417319007,163.625767487799));
#1538=CARTESIAN_POINT('Ctrl Pts',(190.238027866843,35.5814081082004,163.625675097038));
#1539=CARTESIAN_POINT('Ctrl Pts',(187.546276372375,34.9669791585759,163.625653121788));
#1540=CARTESIAN_POINT('Ctrl Pts',(186.2,34.9669791585759,163.625653121788));
#1541=CARTESIAN_POINT('Ctrl Pts',(186.2,34.9669791585759,163.850047929633));
#1542=CARTESIAN_POINT('Ctrl Pts',(184.853603148462,34.9669791585759,163.850047929633));
#1543=CARTESIAN_POINT('Ctrl Pts',(182.161636364341,35.5813692978685,163.850070233275));
#1544=CARTESIAN_POINT('Ctrl Pts',(178.92397215068,38.1636847488501,163.850163976702));
#1545=CARTESIAN_POINT('Ctrl Pts',(177.125630867497,41.8964088856663,163.850299482359));
#1546=CARTESIAN_POINT('Ctrl Pts',(177.127580573592,45.5772890419097,163.850433105972));
#1547=CARTESIAN_POINT('Ctrl Pts',(178.617606712517,49.3811102806004,163.850571192602));
#1548=CARTESIAN_POINT('Ctrl Pts',(182.051041536718,52.5823282190858,163.850687403478));
#1549=CARTESIAN_POINT('Ctrl Pts',(186.69456878153,53.2707779609975,163.850712395637));
#1550=CARTESIAN_POINT('Ctrl Pts',(190.597514667774,52.0640686119905,163.850668589575));
#1551=CARTESIAN_POINT('Ctrl Pts',(193.476543245841,49.7706362183346,163.850585333204));
#1552=CARTESIAN_POINT('Ctrl Pts',(195.273579883244,46.0372015198362,163.850449801752));
#1553=CARTESIAN_POINT('Ctrl Pts',(195.273723787424,41.8960626716553,163.850299469791));
#1554=CARTESIAN_POINT('Ctrl Pts',(193.477750321707,38.1632681270074,163.850163961577));
#1555=CARTESIAN_POINT('Ctrl Pts',(190.238171223173,35.5812768774482,163.850070229919));
#1556=CARTESIAN_POINT('Ctrl Pts',(187.546396851539,34.9669791585759,163.850047929633));
#1557=CARTESIAN_POINT('Ctrl Pts',(186.2,34.9669791585759,163.850047929633));
#1558=CARTESIAN_POINT('Origin',(186.2,33.9669791585759,163.850047929633));
#1559=CARTESIAN_POINT('Origin',(175.200000000001,30.6669693568496,173.049999999999));
#1560=CARTESIAN_POINT('',(175.200000000001,28.8669693568496,173.049999999999));
#1561=CARTESIAN_POINT('',(175.200000000001,28.8669693568496,173.049999999999));
#1562=CARTESIAN_POINT('Origin',(175.200000000001,30.6669693568496,173.049999999999));
#1563=CARTESIAN_POINT('Origin',(175.200000000001,30.2334898400591,169.049925955546));
#1564=CARTESIAN_POINT('',(175.200000000001,29.8169693568496,165.049999999999));
#1565=CARTESIAN_POINT('Origin',(175.200000000001,30.6669693568496,165.049999999999));
#1566=CARTESIAN_POINT('Origin',(175.200000000001,30.6669693568496,165.049999999999));
#1567=CARTESIAN_POINT('',(175.200000000001,29.8169693568496,165.049999999999));
#1568=CARTESIAN_POINT('Origin',(175.200000000001,30.6669693568496,173.049999999999));
#1569=CARTESIAN_POINT('',(175.200000000001,29.8169693568496,173.049999999999));
#1570=CARTESIAN_POINT('',(175.200000000001,29.8169693568496,173.049999999999));
#1571=CARTESIAN_POINT('Origin',(175.200000000001,30.6669693568496,173.049999999999));
#1572=CARTESIAN_POINT('Origin',(175.200000000001,30.2334898400591,169.049925955546));
#1573=UNCERTAINTY_MEASURE_WITH_UNIT(LENGTH_MEASURE(0.01),#1577,
'DISTANCE_ACCURACY_VALUE',
'Maximum model space distance between geometric entities at asserted c
onnectivities');
#1574=UNCERTAINTY_MEASURE_WITH_UNIT(LENGTH_MEASURE(0.01),#1577,
'DISTANCE_ACCURACY_VALUE',
'Maximum model space distance between geometric entities at asserted c
onnectivities');
#1575=(
GEOMETRIC_REPRESENTATION_CONTEXT(3)
GLOBAL_UNCERTAINTY_ASSIGNED_CONTEXT((#1573))
GLOBAL_UNIT_ASSIGNED_CONTEXT((#1577,#1579,#1580))
REPRESENTATION_CONTEXT('','3D')
);
#1576=(
GEOMETRIC_REPRESENTATION_CONTEXT(3)
GLOBAL_UNCERTAINTY_ASSIGNED_CONTEXT((#1574))
GLOBAL_UNIT_ASSIGNED_CONTEXT((#1577,#1579,#1580))
REPRESENTATION_CONTEXT('','3D')
);
#1577=(
LENGTH_UNIT()
NAMED_UNIT(*)
SI_UNIT(.MILLI.,.METRE.)
);
#1578=(
LENGTH_UNIT()
NAMED_UNIT(*)
SI_UNIT($,.METRE.)
);
#1579=(
NAMED_UNIT(*)
PLANE_ANGLE_UNIT()
SI_UNIT($,.RADIAN.)
);
#1580=(
NAMED_UNIT(*)
SI_UNIT($,.STERADIAN.)
SOLID_ANGLE_UNIT()
);
#1581=SHAPE_DEFINITION_REPRESENTATION(#1582,#1583);
#1582=PRODUCT_DEFINITION_SHAPE('',$,#1585);
#1583=SHAPE_REPRESENTATION('',(#806),#1575);
#1584=PRODUCT_DEFINITION_CONTEXT('part definition',#1589,'design');
#1585=PRODUCT_DEFINITION('finger-left','finger-left',#1586,#1584);
#1586=PRODUCT_DEFINITION_FORMATION('',$,#1591);
#1587=PRODUCT_RELATED_PRODUCT_CATEGORY('finger-left','finger-left',(#1591));
#1588=APPLICATION_PROTOCOL_DEFINITION('international standard',
'automotive_design',2009,#1589);
#1589=APPLICATION_CONTEXT(
'Core Data for Automotive Mechanical Design Process');
#1590=PRODUCT_CONTEXT('part definition',#1589,'mechanical');
#1591=PRODUCT('finger-left','finger-left',$,(#1590));
#1592=PRESENTATION_STYLE_ASSIGNMENT((#1593));
#1593=SURFACE_STYLE_USAGE(.BOTH.,#1594);
#1594=SURFACE_SIDE_STYLE('',(#1595));
#1595=SURFACE_STYLE_FILL_AREA(#1596);
#1596=FILL_AREA_STYLE('Nylon 6-6 (White)',(#1597));
#1597=FILL_AREA_STYLE_COLOUR('Nylon 6-6 (White)',#1598);
#1598=COLOUR_RGB('Nylon 6-6 (White)',0.972549019607843,0.968627450980392,
0.929411764705882);
ENDSEC;
END-ISO-10303-21;
