ISO-10303-21;
HEADER;
/* Generated by software containing ST-Developer
 * from STEP Tools, Inc. (www.steptools.com) 
 */

FILE_DESCRIPTION(
/* description */ (''),
/* implementation_level */ '2;1');

FILE_NAME(
/* name */ 'finger-right.step',
/* time_stamp */ '2026-05-30T14:33:00+02:00',
/* author */ (''),
/* organization */ (''),
/* preprocessor_version */ 'ST-DEVELOPER v20.1',
/* originating_system */ 'Autodesk Translation Framework v15.8.0.0',
/* authorisation */ '');

FILE_SCHEMA (('AUTOMOTIVE_DESIGN { 1 0 10303 214 3 1 1 }'));
ENDSEC;

DATA;
#10=MECHANICAL_DESIGN_GEOMETRIC_PRESENTATION_REPRESENTATION('',(#13),#1576);
#11=SHAPE_REPRESENTATION_RELATIONSHIP('SRR','None',#1583,#12);
#12=ADVANCED_BREP_SHAPE_REPRESENTATION('',(#14),#1575);
#13=STYLED_ITEM('',(#1592),#14);
#14=MANIFOLD_SOLID_BREP('Body1',#793);
#15=FACE_BOUND('',#142,.T.);
#16=FACE_BOUND('',#143,.T.);
#17=FACE_BOUND('',#150,.T.);
#18=FACE_BOUND('',#154,.T.);
#19=B_SPLINE_SURFACE_WITH_KNOTS('',3,3,((#1366,#1367,#1368,#1369,#1370,
#1371,#1372,#1373,#1374,#1375,#1376,#1377,#1378,#1379,#1380,#1381,#1382),
(#1383,#1384,#1385,#1386,#1387,#1388,#1389,#1390,#1391,#1392,#1393,#1394,
#1395,#1396,#1397,#1398,#1399),(#1400,#1401,#1402,#1403,#1404,#1405,#1406,
#1407,#1408,#1409,#1410,#1411,#1412,#1413,#1414,#1415,#1416),(#1417,#1418,
#1419,#1420,#1421,#1422,#1423,#1424,#1425,#1426,#1427,#1428,#1429,#1430,
#1431,#1432,#1433),(#1434,#1435,#1436,#1437,#1438,#1439,#1440,#1441,#1442,
#1443,#1444,#1445,#1446,#1447,#1448,#1449,#1450)),.UNSPECIFIED.,.F.,.F.,
 .F.,(4,1,4),(4,1,1,1,1,1,1,1,1,1,1,1,1,1,4),(0.,0.571428571428571,1.),
(-3.14159268195026,-2.74960793156697,-2.35762318118367,-1.96563843080038,
-1.57365368041708,-1.05100734657269,-0.789684179650489,-0.00571467888389732,
0.386270071499399,0.484266259095222,0.778254821882694,1.17023957226599,
1.56222432264929,1.95420907303258,2.34619382341588),.UNSPECIFIED.);
#20=B_SPLINE_SURFACE_WITH_KNOTS('',3,3,((#1473,#1474,#1475,#1476,#1477,
#1478,#1479,#1480,#1481,#1482,#1483,#1484,#1485,#1486,#1487,#1488,#1489),
(#1490,#1491,#1492,#1493,#1494,#1495,#1496,#1497,#1498,#1499,#1500,#1501,
#1502,#1503,#1504,#1505,#1506),(#1507,#1508,#1509,#1510,#1511,#1512,#1513,
#1514,#1515,#1516,#1517,#1518,#1519,#1520,#1521,#1522,#1523),(#1524,#1525,
#1526,#1527,#1528,#1529,#1530,#1531,#1532,#1533,#1534,#1535,#1536,#1537,
#1538,#1539,#1540),(#1541,#1542,#1543,#1544,#1545,#1546,#1547,#1548,#1549,
#1550,#1551,#1552,#1553,#1554,#1555,#1556,#1557)),.UNSPECIFIED.,.F.,.T.,
 .F.,(4,1,4),(4,1,1,1,1,1,1,1,1,1,1,1,1,1,4),(0.,0.571428571428571,1.),
(-3.14159265358979,-2.69279370307697,-2.24399475256414,-1.79519580205131,
-1.34639685153848,-1.0471975511966,-0.448798950512828,0.149599650170943,
0.448798950512828,0.897597901025655,1.34639685153848,1.79519580205131,2.24399475256414,
2.69279370307697,3.14159265358979),.UNSPECIFIED.);
#21=TOROIDAL_SURFACE('',#844,9.99999999999999,1.);
#22=CIRCLE('',#833,1.00000000000001);
#23=CIRCLE('',#835,9.99999999999999);
#24=CIRCLE('',#840,11.);
#25=CIRCLE('',#841,11.);
#26=CIRCLE('',#842,11.0000000048521);
#27=CIRCLE('',#845,1.);
#28=CIRCLE('',#846,8.99999999999999);
#29=CIRCLE('',#848,9.00000000593027);
#30=CIRCLE('',#849,9.00000000593027);
#31=CIRCLE('',#863,1.00000000000002);
#32=CIRCLE('',#864,10.0000000053372);
#33=CIRCLE('',#866,10.0000000053372);
#34=CIRCLE('',#868,0.849999999999982);
#35=CIRCLE('',#869,0.849999999999982);
#36=CIRCLE('',#872,1.8);
#37=CIRCLE('',#873,1.8);
#38=CIRCLE('',#874,1.8);
#39=CIRCLE('',#876,1.79999999999999);
#40=CIRCLE('',#877,1.79999999999999);
#41=CIRCLE('',#878,1.);
#42=CIRCLE('',#880,1.79999999999999);
#43=CIRCLE('',#882,0.849999999999982);
#44=CIRCLE('',#885,0.849999999999982);
#45=B_SPLINE_CURVE_WITH_KNOTS('',3,(#1175,#1176,#1177,#1178,#1179,#1180,
#1181,#1182,#1183,#1184,#1185,#1186,#1187,#1188),.UNSPECIFIED.,.F.,.F.,
(4,2,2,2,2,2,4),(-0.36789349064153,-0.335764082685397,-0.29648832720624,
-0.234258651764293,-0.128624492282664,0.,0.00112794632899584),
 .UNSPECIFIED.);
#46=B_SPLINE_CURVE_WITH_KNOTS('',3,(#1220,#1221,#1222,#1223,#1224,#1225,
#1226,#1227,#1228,#1229,#1230,#1231,#1232,#1233,#1234),.UNSPECIFIED.,.F.,
 .F.,(4,2,2,3,2,2,4),(1.08101381280802,1.08838717260508,1.15891744000502,
1.22944770740497,1.29997797480492,1.37050824220487,1.37788160200193),
 .UNSPECIFIED.);
#47=B_SPLINE_CURVE_WITH_KNOTS('',3,(#1300,#1301,#1302,#1303,#1304,#1305,
#1306,#1307,#1308,#1309,#1310,#1311,#1312,#1313,#1314,#1315),
 .UNSPECIFIED.,.F.,.F.,(4,2,2,2,2,2,2,4),(-0.197942550760688,-0.197276649428988,
-0.14261603921436,-0.0916790459308525,-0.0520023370001978,-0.025659038533492,
-0.00595313602491978,-5.0493027811526E-6),.UNSPECIFIED.);
#48=B_SPLINE_CURVE_WITH_KNOTS('',3,(#1340,#1341,#1342,#1343,#1344,#1345,
#1346,#1347,#1348,#1349,#1350,#1351,#1352,#1353,#1354),.UNSPECIFIED.,.F.,
 .F.,(4,2,2,3,2,2,4),(1.08099497927626,1.088361161666,1.15889073062377,
1.22942029958154,1.29994986853932,1.37047943749709,1.37784561988682),
 .UNSPECIFIED.);
#49=PLANE('',#815);
#50=PLANE('',#816);
#51=PLANE('',#817);
#52=PLANE('',#818);
#53=PLANE('',#819);
#54=PLANE('',#834);
#55=PLANE('',#836);
#56=PLANE('',#837);
#57=PLANE('',#838);
#58=PLANE('',#843);
#59=PLANE('',#865);
#60=PLANE('',#867);
#61=PLANE('',#870);
#62=PLANE('',#875);
#63=PLANE('',#881);
#64=PLANE('',#886);
#65=FACE_OUTER_BOUND('',#108,.T.);
#66=FACE_OUTER_BOUND('',#109,.T.);
#67=FACE_OUTER_BOUND('',#110,.T.);
#68=FACE_OUTER_BOUND('',#111,.T.);
#69=FACE_OUTER_BOUND('',#112,.T.);
#70=FACE_OUTER_BOUND('',#113,.T.);
#71=FACE_OUTER_BOUND('',#114,.T.);
#72=FACE_OUTER_BOUND('',#115,.T.);
#73=FACE_OUTER_BOUND('',#116,.T.);
#74=FACE_OUTER_BOUND('',#117,.T.);
#75=FACE_OUTER_BOUND('',#118,.T.);
#76=FACE_OUTER_BOUND('',#119,.T.);
#77=FACE_OUTER_BOUND('',#120,.T.);
#78=FACE_OUTER_BOUND('',#121,.T.);
#79=FACE_OUTER_BOUND('',#122,.T.);
#80=FACE_OUTER_BOUND('',#123,.T.);
#81=FACE_OUTER_BOUND('',#124,.T.);
#82=FACE_OUTER_BOUND('',#125,.T.);
#83=FACE_OUTER_BOUND('',#126,.T.);
#84=FACE_OUTER_BOUND('',#127,.T.);
#85=FACE_OUTER_BOUND('',#128,.T.);
#86=FACE_OUTER_BOUND('',#129,.T.);
#87=FACE_OUTER_BOUND('',#130,.T.);
#88=FACE_OUTER_BOUND('',#131,.T.);
#89=FACE_OUTER_BOUND('',#132,.T.);
#90=FACE_OUTER_BOUND('',#133,.T.);
#91=FACE_OUTER_BOUND('',#134,.T.);
#92=FACE_OUTER_BOUND('',#135,.T.);
#93=FACE_OUTER_BOUND('',#136,.T.);
#94=FACE_OUTER_BOUND('',#137,.T.);
#95=FACE_OUTER_BOUND('',#138,.T.);
#96=FACE_OUTER_BOUND('',#139,.T.);
#97=FACE_OUTER_BOUND('',#140,.T.);
#98=FACE_OUTER_BOUND('',#141,.T.);
#99=FACE_OUTER_BOUND('',#144,.T.);
#100=FACE_OUTER_BOUND('',#145,.T.);
#101=FACE_OUTER_BOUND('',#146,.T.);
#102=FACE_OUTER_BOUND('',#147,.T.);
#103=FACE_OUTER_BOUND('',#148,.T.);
#104=FACE_OUTER_BOUND('',#149,.T.);
#105=FACE_OUTER_BOUND('',#151,.T.);
#106=FACE_OUTER_BOUND('',#152,.T.);
#107=FACE_OUTER_BOUND('',#153,.T.);
#108=EDGE_LOOP('',(#498,#499,#500,#501,#502));
#109=EDGE_LOOP('',(#503,#504,#505,#506,#507));
#110=EDGE_LOOP('',(#508,#509,#510,#511,#512,#513));
#111=EDGE_LOOP('',(#514,#515,#516,#517));
#112=EDGE_LOOP('',(#518,#519,#520,#521,#522));
#113=EDGE_LOOP('',(#523,#524,#525,#526));
#114=EDGE_LOOP('',(#527,#528,#529,#530));
#115=EDGE_LOOP('',(#531,#532,#533,#534,#535));
#116=EDGE_LOOP('',(#536,#537,#538,#539,#540,#541));
#117=EDGE_LOOP('',(#542,#543,#544,#545));
#118=EDGE_LOOP('',(#546,#547,#548,#549));
#119=EDGE_LOOP('',(#550,#551,#552,#553,#554,#555));
#120=EDGE_LOOP('',(#556,#557,#558,#559));
#121=EDGE_LOOP('',(#560,#561,#562,#563,#564,#565));
#122=EDGE_LOOP('',(#566,#567,#568,#569));
#123=EDGE_LOOP('',(#570,#571,#572,#573));
#124=EDGE_LOOP('',(#574,#575,#576,#577,#578,#579,#580,#581));
#125=EDGE_LOOP('',(#582,#583,#584,#585,#586,#587));
#126=EDGE_LOOP('',(#588,#589,#590,#591));
#127=EDGE_LOOP('',(#592,#593,#594,#595,#596,#597));
#128=EDGE_LOOP('',(#598,#599,#600,#601,#602,#603,#604));
#129=EDGE_LOOP('',(#605,#606,#607,#608,#609,#610,#611,#612));
#130=EDGE_LOOP('',(#613,#614,#615,#616,#617,#618,#619,#620));
#131=EDGE_LOOP('',(#621,#622,#623,#624,#625));
#132=EDGE_LOOP('',(#626,#627,#628,#629));
#133=EDGE_LOOP('',(#630,#631,#632,#633,#634,#635));
#134=EDGE_LOOP('',(#636,#637,#638,#639,#640));
#135=EDGE_LOOP('',(#641,#642,#643,#644));
#136=EDGE_LOOP('',(#645,#646,#647,#648));
#137=EDGE_LOOP('',(#649,#650,#651,#652,#653,#654));
#138=EDGE_LOOP('',(#655,#656,#657,#658,#659));
#139=EDGE_LOOP('',(#660,#661,#662,#663,#664));
#140=EDGE_LOOP('',(#665,#666,#667,#668,#669,#670,#671,#672));
#141=EDGE_LOOP('',(#673,#674,#675,#676,#677));
#142=EDGE_LOOP('',(#678));
#143=EDGE_LOOP('',(#679));
#144=EDGE_LOOP('',(#680,#681,#682,#683));
#145=EDGE_LOOP('',(#684,#685,#686,#687,#688,#689));
#146=EDGE_LOOP('',(#690,#691,#692,#693,#694,#695,#696,#697,#698,#699,#700,
#701));
#147=EDGE_LOOP('',(#702,#703,#704,#705,#706,#707));
#148=EDGE_LOOP('',(#708,#709,#710,#711,#712,#713));
#149=EDGE_LOOP('',(#714));
#150=EDGE_LOOP('',(#715));
#151=EDGE_LOOP('',(#716,#717,#718,#719));
#152=EDGE_LOOP('',(#720,#721,#722,#723));
#153=EDGE_LOOP('',(#724));
#154=EDGE_LOOP('',(#725));
#155=ELLIPSE('',#808,1.4142135623731,1.);
#156=ELLIPSE('',#809,1.4142135623731,1.);
#157=ELLIPSE('',#811,1.4142135623731,1.);
#158=ELLIPSE('',#812,1.4142135623731,1.);
#159=ELLIPSE('',#821,1.41421356237406,1.);
#160=ELLIPSE('',#823,1.41421356237309,1.);
#161=ELLIPSE('',#824,1.41421356237308,1.);
#162=ELLIPSE('',#826,1.41421356237313,1.);
#163=ELLIPSE('',#828,1.41421356237311,1.);
#164=ELLIPSE('',#830,1.41421356237308,1.);
#165=ELLIPSE('',#851,1.41421356237399,1.);
#166=ELLIPSE('',#853,1.41421356237308,1.);
#167=ELLIPSE('',#855,1.41421356237308,1.);
#168=ELLIPSE('',#856,1.41421356237309,1.);
#169=ELLIPSE('',#859,1.41421356237311,1.);
#170=ELLIPSE('',#861,1.41421356237308,1.);
#171=LINE('',#1124,#242);
#172=LINE('',#1128,#243);
#173=LINE('',#1130,#244);
#174=LINE('',#1135,#245);
#175=LINE('',#1139,#246);
#176=LINE('',#1141,#247);
#177=LINE('',#1146,#248);
#178=LINE('',#1147,#249);
#179=LINE('',#1148,#250);
#180=LINE('',#1149,#251);
#181=LINE('',#1151,#252);
#182=LINE('',#1152,#253);
#183=LINE('',#1155,#254);
#184=LINE('',#1157,#255);
#185=LINE('',#1158,#256);
#186=LINE('',#1161,#257);
#187=LINE('',#1162,#258);
#188=LINE('',#1166,#259);
#189=LINE('',#1167,#260);
#190=LINE('',#1169,#261);
#191=LINE('',#1173,#262);
#192=LINE('',#1190,#263);
#193=LINE('',#1195,#264);
#194=LINE('',#1199,#265);
#195=LINE('',#1203,#266);
#196=LINE('',#1207,#267);
#197=LINE('',#1209,#268);
#198=LINE('',#1210,#269);
#199=LINE('',#1213,#270);
#200=LINE('',#1216,#271);
#201=LINE('',#1235,#272);
#202=LINE('',#1237,#273);
#203=LINE('',#1240,#274);
#204=LINE('',#1242,#275);
#205=LINE('',#1243,#276);
#206=LINE('',#1246,#277);
#207=LINE('',#1248,#278);
#208=LINE('',#1254,#279);
#209=LINE('',#1256,#280);
#210=LINE('',#1258,#281);
#211=LINE('',#1260,#282);
#212=LINE('',#1261,#283);
#213=LINE('',#1264,#284);
#214=LINE('',#1265,#285);
#215=LINE('',#1268,#286);
#216=LINE('',#1270,#287);
#217=LINE('',#1272,#288);
#218=LINE('',#1273,#289);
#219=LINE('',#1280,#290);
#220=LINE('',#1281,#291);
#221=LINE('',#1284,#292);
#222=LINE('',#1285,#293);
#223=LINE('',#1294,#294);
#224=LINE('',#1299,#295);
#225=LINE('',#1319,#296);
#226=LINE('',#1323,#297);
#227=LINE('',#1327,#298);
#228=LINE('',#1330,#299);
#229=LINE('',#1333,#300);
#230=LINE('',#1336,#301);
#231=LINE('',#1356,#302);
#232=LINE('',#1359,#303);
#233=LINE('',#1360,#304);
#234=LINE('',#1363,#305);
#235=LINE('',#1364,#306);
#236=LINE('',#1455,#307);
#237=LINE('',#1461,#308);
#238=LINE('',#1466,#309);
#239=LINE('',#1561,#310);
#240=LINE('',#1567,#311);
#241=LINE('',#1570,#312);
#242=VECTOR('',#891,10.);
#243=VECTOR('',#894,10.);
#244=VECTOR('',#895,10.);
#245=VECTOR('',#900,10.);
#246=VECTOR('',#903,10.);
#247=VECTOR('',#904,10.);
#248=VECTOR('',#909,10.);
#249=VECTOR('',#910,10.);
#250=VECTOR('',#911,10.);
#251=VECTOR('',#912,10.);
#252=VECTOR('',#915,10.);
#253=VECTOR('',#916,10.);
#254=VECTOR('',#919,10.);
#255=VECTOR('',#920,10.);
#256=VECTOR('',#921,10.);
#257=VECTOR('',#924,10.);
#258=VECTOR('',#925,10.);
#259=VECTOR('',#930,10.);
#260=VECTOR('',#931,10.);
#261=VECTOR('',#934,10.);
#262=VECTOR('',#937,10.);
#263=VECTOR('',#938,10.);
#264=VECTOR('',#943,10.);
#265=VECTOR('',#946,10.);
#266=VECTOR('',#951,10.);
#267=VECTOR('',#954,10.);
#268=VECTOR('',#955,10.);
#269=VECTOR('',#956,10.);
#270=VECTOR('',#959,10.);
#271=VECTOR('',#962,10.);
#272=VECTOR('',#965,10.);
#273=VECTOR('',#966,10.);
#274=VECTOR('',#969,10.);
#275=VECTOR('',#972,10.);
#276=VECTOR('',#973,10.);
#277=VECTOR('',#976,10.);
#278=VECTOR('',#977,10.);
#279=VECTOR('',#986,10.);
#280=VECTOR('',#987,10.);
#281=VECTOR('',#988,10.);
#282=VECTOR('',#989,10.);
#283=VECTOR('',#990,10.);
#284=VECTOR('',#993,10.);
#285=VECTOR('',#994,10.);
#286=VECTOR('',#997,10.);
#287=VECTOR('',#998,10.);
#288=VECTOR('',#999,10.);
#289=VECTOR('',#1000,10.);
#290=VECTOR('',#1009,10.);
#291=VECTOR('',#1010,10.);
#292=VECTOR('',#1013,10.);
#293=VECTOR('',#1014,10.);
#294=VECTOR('',#1025,8.99999999999999);
#295=VECTOR('',#1030,10.);
#296=VECTOR('',#1035,10.);
#297=VECTOR('',#1040,10.);
#298=VECTOR('',#1043,10.);
#299=VECTOR('',#1048,10.);
#300=VECTOR('',#1051,10.);
#301=VECTOR('',#1054,10.);
#302=VECTOR('',#1057,10.);
#303=VECTOR('',#1060,10.);
#304=VECTOR('',#1061,10.);
#305=VECTOR('',#1064,10.);
#306=VECTOR('',#1065,10.);
#307=VECTOR('',#1076,10.);
#308=VECTOR('',#1083,10.);
#309=VECTOR('',#1088,1.8);
#310=VECTOR('',#1103,1.79999999999999);
#311=VECTOR('',#1112,0.849999999999982);
#312=VECTOR('',#1115,0.849999999999982);
#313=VERTEX_POINT('',#1122);
#314=VERTEX_POINT('',#1123);
#315=VERTEX_POINT('',#1125);
#316=VERTEX_POINT('',#1127);
#317=VERTEX_POINT('',#1129);
#318=VERTEX_POINT('',#1133);
#319=VERTEX_POINT('',#1134);
#320=VERTEX_POINT('',#1136);
#321=VERTEX_POINT('',#1138);
#322=VERTEX_POINT('',#1140);
#323=VERTEX_POINT('',#1144);
#324=VERTEX_POINT('',#1145);
#325=VERTEX_POINT('',#1154);
#326=VERTEX_POINT('',#1156);
#327=VERTEX_POINT('',#1160);
#328=VERTEX_POINT('',#1165);
#329=VERTEX_POINT('',#1171);
#330=VERTEX_POINT('',#1172);
#331=VERTEX_POINT('',#1174);
#332=VERTEX_POINT('',#1189);
#333=VERTEX_POINT('',#1193);
#334=VERTEX_POINT('',#1194);
#335=VERTEX_POINT('',#1196);
#336=VERTEX_POINT('',#1198);
#337=VERTEX_POINT('',#1202);
#338=VERTEX_POINT('',#1204);
#339=VERTEX_POINT('',#1206);
#340=VERTEX_POINT('',#1208);
#341=VERTEX_POINT('',#1212);
#342=VERTEX_POINT('',#1214);
#343=VERTEX_POINT('',#1218);
#344=VERTEX_POINT('',#1219);
#345=VERTEX_POINT('',#1236);
#346=VERTEX_POINT('',#1238);
#347=VERTEX_POINT('',#1245);
#348=VERTEX_POINT('',#1247);
#349=VERTEX_POINT('',#1253);
#350=VERTEX_POINT('',#1255);
#351=VERTEX_POINT('',#1257);
#352=VERTEX_POINT('',#1259);
#353=VERTEX_POINT('',#1263);
#354=VERTEX_POINT('',#1267);
#355=VERTEX_POINT('',#1269);
#356=VERTEX_POINT('',#1271);
#357=VERTEX_POINT('',#1275);
#358=VERTEX_POINT('',#1278);
#359=VERTEX_POINT('',#1283);
#360=VERTEX_POINT('',#1287);
#361=VERTEX_POINT('',#1291);
#362=VERTEX_POINT('',#1292);
#363=VERTEX_POINT('',#1297);
#364=VERTEX_POINT('',#1298);
#365=VERTEX_POINT('',#1318);
#366=VERTEX_POINT('',#1322);
#367=VERTEX_POINT('',#1324);
#368=VERTEX_POINT('',#1326);
#369=VERTEX_POINT('',#1332);
#370=VERTEX_POINT('',#1334);
#371=VERTEX_POINT('',#1338);
#372=VERTEX_POINT('',#1339);
#373=VERTEX_POINT('',#1355);
#374=VERTEX_POINT('',#1357);
#375=VERTEX_POINT('',#1362);
#376=VERTEX_POINT('',#1456);
#377=VERTEX_POINT('',#1458);
#378=VERTEX_POINT('',#1463);
#379=VERTEX_POINT('',#1465);
#380=VERTEX_POINT('',#1470);
#381=VERTEX_POINT('',#1560);
#382=VERTEX_POINT('',#1564);
#383=VERTEX_POINT('',#1569);
#384=EDGE_CURVE('',#313,#314,#171,.T.);
#385=EDGE_CURVE('',#315,#313,#155,.T.);
#386=EDGE_CURVE('',#316,#315,#172,.T.);
#387=EDGE_CURVE('',#316,#317,#173,.T.);
#388=EDGE_CURVE('',#314,#317,#156,.T.);
#389=EDGE_CURVE('',#318,#319,#174,.T.);
#390=EDGE_CURVE('',#320,#318,#157,.T.);
#391=EDGE_CURVE('',#320,#321,#175,.T.);
#392=EDGE_CURVE('',#322,#321,#176,.T.);
#393=EDGE_CURVE('',#319,#322,#158,.T.);
#394=EDGE_CURVE('',#323,#324,#177,.T.);
#395=EDGE_CURVE('',#315,#323,#178,.T.);
#396=EDGE_CURVE('',#319,#313,#179,.T.);
#397=EDGE_CURVE('',#324,#322,#180,.T.);
#398=EDGE_CURVE('',#314,#318,#181,.T.);
#399=EDGE_CURVE('',#320,#317,#182,.T.);
#400=EDGE_CURVE('',#321,#325,#183,.T.);
#401=EDGE_CURVE('',#325,#326,#184,.T.);
#402=EDGE_CURVE('',#326,#324,#185,.T.);
#403=EDGE_CURVE('',#326,#327,#186,.T.);
#404=EDGE_CURVE('',#323,#327,#187,.T.);
#405=EDGE_CURVE('',#327,#328,#188,.T.);
#406=EDGE_CURVE('',#328,#316,#189,.T.);
#407=EDGE_CURVE('',#328,#325,#190,.T.);
#408=EDGE_CURVE('',#329,#330,#191,.T.);
#409=EDGE_CURVE('',#329,#331,#45,.T.);
#410=EDGE_CURVE('',#332,#331,#192,.T.);
#411=EDGE_CURVE('',#330,#332,#159,.T.);
#412=EDGE_CURVE('',#333,#334,#193,.T.);
#413=EDGE_CURVE('',#335,#333,#160,.T.);
#414=EDGE_CURVE('',#336,#335,#194,.T.);
#415=EDGE_CURVE('',#334,#336,#161,.T.);
#416=EDGE_CURVE('',#337,#336,#195,.T.);
#417=EDGE_CURVE('',#338,#337,#162,.T.);
#418=EDGE_CURVE('',#338,#339,#196,.T.);
#419=EDGE_CURVE('',#340,#339,#197,.T.);
#420=EDGE_CURVE('',#340,#334,#198,.T.);
#421=EDGE_CURVE('',#341,#333,#199,.T.);
#422=EDGE_CURVE('',#342,#341,#163,.T.);
#423=EDGE_CURVE('',#335,#342,#200,.T.);
#424=EDGE_CURVE('',#343,#344,#46,.T.);
#425=EDGE_CURVE('',#338,#343,#201,.T.);
#426=EDGE_CURVE('',#345,#337,#202,.T.);
#427=EDGE_CURVE('',#346,#345,#164,.T.);
#428=EDGE_CURVE('',#344,#346,#203,.T.);
#429=EDGE_CURVE('',#330,#341,#204,.T.);
#430=EDGE_CURVE('',#342,#332,#205,.T.);
#431=EDGE_CURVE('',#346,#347,#206,.T.);
#432=EDGE_CURVE('',#348,#345,#207,.T.);
#433=EDGE_CURVE('',#347,#348,#22,.T.);
#434=EDGE_CURVE('',#331,#348,#23,.T.);
#435=EDGE_CURVE('',#333,#349,#208,.T.);
#436=EDGE_CURVE('',#349,#350,#209,.T.);
#437=EDGE_CURVE('',#350,#351,#210,.T.);
#438=EDGE_CURVE('',#352,#351,#211,.T.);
#439=EDGE_CURVE('',#341,#352,#212,.T.);
#440=EDGE_CURVE('',#352,#353,#213,.T.);
#441=EDGE_CURVE('',#330,#353,#214,.T.);
#442=EDGE_CURVE('',#353,#354,#215,.T.);
#443=EDGE_CURVE('',#354,#355,#216,.T.);
#444=EDGE_CURVE('',#356,#355,#217,.T.);
#445=EDGE_CURVE('',#329,#356,#218,.T.);
#446=EDGE_CURVE('',#347,#357,#24,.T.);
#447=EDGE_CURVE('',#357,#329,#25,.T.);
#448=EDGE_CURVE('',#356,#358,#26,.T.);
#449=EDGE_CURVE('',#326,#358,#219,.T.);
#450=EDGE_CURVE('',#347,#325,#220,.T.);
#451=EDGE_CURVE('',#358,#359,#221,.T.);
#452=EDGE_CURVE('',#359,#346,#222,.T.);
#453=EDGE_CURVE('',#357,#360,#27,.T.);
#454=EDGE_CURVE('',#360,#360,#28,.T.);
#455=EDGE_CURVE('',#361,#362,#29,.T.);
#456=EDGE_CURVE('',#362,#360,#223,.T.);
#457=EDGE_CURVE('',#362,#361,#30,.T.);
#458=EDGE_CURVE('',#363,#364,#224,.T.);
#459=EDGE_CURVE('',#363,#355,#47,.T.);
#460=EDGE_CURVE('',#364,#354,#165,.T.);
#461=EDGE_CURVE('',#364,#365,#225,.T.);
#462=EDGE_CURVE('',#365,#351,#166,.T.);
#463=EDGE_CURVE('',#366,#349,#226,.T.);
#464=EDGE_CURVE('',#367,#366,#167,.T.);
#465=EDGE_CURVE('',#368,#367,#227,.T.);
#466=EDGE_CURVE('',#350,#368,#168,.T.);
#467=EDGE_CURVE('',#365,#368,#228,.T.);
#468=EDGE_CURVE('',#369,#366,#229,.T.);
#469=EDGE_CURVE('',#370,#369,#169,.T.);
#470=EDGE_CURVE('',#367,#370,#230,.T.);
#471=EDGE_CURVE('',#371,#372,#48,.T.);
#472=EDGE_CURVE('',#373,#371,#231,.T.);
#473=EDGE_CURVE('',#374,#373,#170,.T.);
#474=EDGE_CURVE('',#370,#374,#232,.T.);
#475=EDGE_CURVE('',#372,#369,#233,.T.);
#476=EDGE_CURVE('',#374,#375,#234,.T.);
#477=EDGE_CURVE('',#373,#359,#235,.T.);
#478=EDGE_CURVE('',#375,#358,#31,.T.);
#479=EDGE_CURVE('',#363,#375,#32,.T.);
#480=EDGE_CURVE('',#375,#363,#33,.T.);
#481=EDGE_CURVE('',#366,#340,#236,.T.);
#482=EDGE_CURVE('',#376,#376,#34,.T.);
#483=EDGE_CURVE('',#377,#377,#35,.T.);
#484=EDGE_CURVE('',#339,#369,#237,.T.);
#485=EDGE_CURVE('',#372,#378,#36,.T.);
#486=EDGE_CURVE('',#378,#379,#238,.T.);
#487=EDGE_CURVE('',#379,#379,#37,.T.);
#488=EDGE_CURVE('',#378,#371,#38,.T.);
#489=EDGE_CURVE('',#380,#343,#39,.T.);
#490=EDGE_CURVE('',#344,#380,#40,.T.);
#491=EDGE_CURVE('',#361,#375,#41,.T.);
#492=EDGE_CURVE('',#380,#381,#239,.T.);
#493=EDGE_CURVE('',#381,#381,#42,.T.);
#494=EDGE_CURVE('',#382,#382,#43,.T.);
#495=EDGE_CURVE('',#376,#382,#240,.T.);
#496=EDGE_CURVE('',#377,#383,#241,.T.);
#497=EDGE_CURVE('',#383,#383,#44,.T.);
#498=ORIENTED_EDGE('',*,*,#384,.F.);
#499=ORIENTED_EDGE('',*,*,#385,.F.);
#500=ORIENTED_EDGE('',*,*,#386,.F.);
#501=ORIENTED_EDGE('',*,*,#387,.T.);
#502=ORIENTED_EDGE('',*,*,#388,.F.);
#503=ORIENTED_EDGE('',*,*,#389,.F.);
#504=ORIENTED_EDGE('',*,*,#390,.F.);
#505=ORIENTED_EDGE('',*,*,#391,.T.);
#506=ORIENTED_EDGE('',*,*,#392,.F.);
#507=ORIENTED_EDGE('',*,*,#393,.F.);
#508=ORIENTED_EDGE('',*,*,#394,.F.);
#509=ORIENTED_EDGE('',*,*,#395,.F.);
#510=ORIENTED_EDGE('',*,*,#385,.T.);
#511=ORIENTED_EDGE('',*,*,#396,.F.);
#512=ORIENTED_EDGE('',*,*,#393,.T.);
#513=ORIENTED_EDGE('',*,*,#397,.F.);
#514=ORIENTED_EDGE('',*,*,#398,.F.);
#515=ORIENTED_EDGE('',*,*,#388,.T.);
#516=ORIENTED_EDGE('',*,*,#399,.F.);
#517=ORIENTED_EDGE('',*,*,#390,.T.);
#518=ORIENTED_EDGE('',*,*,#392,.T.);
#519=ORIENTED_EDGE('',*,*,#400,.T.);
#520=ORIENTED_EDGE('',*,*,#401,.T.);
#521=ORIENTED_EDGE('',*,*,#402,.T.);
#522=ORIENTED_EDGE('',*,*,#397,.T.);
#523=ORIENTED_EDGE('',*,*,#394,.T.);
#524=ORIENTED_EDGE('',*,*,#402,.F.);
#525=ORIENTED_EDGE('',*,*,#403,.T.);
#526=ORIENTED_EDGE('',*,*,#404,.F.);
#527=ORIENTED_EDGE('',*,*,#389,.T.);
#528=ORIENTED_EDGE('',*,*,#396,.T.);
#529=ORIENTED_EDGE('',*,*,#384,.T.);
#530=ORIENTED_EDGE('',*,*,#398,.T.);
#531=ORIENTED_EDGE('',*,*,#386,.T.);
#532=ORIENTED_EDGE('',*,*,#395,.T.);
#533=ORIENTED_EDGE('',*,*,#404,.T.);
#534=ORIENTED_EDGE('',*,*,#405,.T.);
#535=ORIENTED_EDGE('',*,*,#406,.T.);
#536=ORIENTED_EDGE('',*,*,#399,.T.);
#537=ORIENTED_EDGE('',*,*,#387,.F.);
#538=ORIENTED_EDGE('',*,*,#406,.F.);
#539=ORIENTED_EDGE('',*,*,#407,.T.);
#540=ORIENTED_EDGE('',*,*,#400,.F.);
#541=ORIENTED_EDGE('',*,*,#391,.F.);
#542=ORIENTED_EDGE('',*,*,#408,.F.);
#543=ORIENTED_EDGE('',*,*,#409,.T.);
#544=ORIENTED_EDGE('',*,*,#410,.F.);
#545=ORIENTED_EDGE('',*,*,#411,.F.);
#546=ORIENTED_EDGE('',*,*,#412,.F.);
#547=ORIENTED_EDGE('',*,*,#413,.F.);
#548=ORIENTED_EDGE('',*,*,#414,.F.);
#549=ORIENTED_EDGE('',*,*,#415,.F.);
#550=ORIENTED_EDGE('',*,*,#416,.F.);
#551=ORIENTED_EDGE('',*,*,#417,.F.);
#552=ORIENTED_EDGE('',*,*,#418,.T.);
#553=ORIENTED_EDGE('',*,*,#419,.F.);
#554=ORIENTED_EDGE('',*,*,#420,.T.);
#555=ORIENTED_EDGE('',*,*,#415,.T.);
#556=ORIENTED_EDGE('',*,*,#421,.F.);
#557=ORIENTED_EDGE('',*,*,#422,.F.);
#558=ORIENTED_EDGE('',*,*,#423,.F.);
#559=ORIENTED_EDGE('',*,*,#413,.T.);
#560=ORIENTED_EDGE('',*,*,#424,.F.);
#561=ORIENTED_EDGE('',*,*,#425,.F.);
#562=ORIENTED_EDGE('',*,*,#417,.T.);
#563=ORIENTED_EDGE('',*,*,#426,.F.);
#564=ORIENTED_EDGE('',*,*,#427,.F.);
#565=ORIENTED_EDGE('',*,*,#428,.F.);
#566=ORIENTED_EDGE('',*,*,#429,.F.);
#567=ORIENTED_EDGE('',*,*,#411,.T.);
#568=ORIENTED_EDGE('',*,*,#430,.F.);
#569=ORIENTED_EDGE('',*,*,#422,.T.);
#570=ORIENTED_EDGE('',*,*,#431,.F.);
#571=ORIENTED_EDGE('',*,*,#427,.T.);
#572=ORIENTED_EDGE('',*,*,#432,.F.);
#573=ORIENTED_EDGE('',*,*,#433,.F.);
#574=ORIENTED_EDGE('',*,*,#410,.T.);
#575=ORIENTED_EDGE('',*,*,#434,.T.);
#576=ORIENTED_EDGE('',*,*,#432,.T.);
#577=ORIENTED_EDGE('',*,*,#426,.T.);
#578=ORIENTED_EDGE('',*,*,#416,.T.);
#579=ORIENTED_EDGE('',*,*,#414,.T.);
#580=ORIENTED_EDGE('',*,*,#423,.T.);
#581=ORIENTED_EDGE('',*,*,#430,.T.);
#582=ORIENTED_EDGE('',*,*,#421,.T.);
#583=ORIENTED_EDGE('',*,*,#435,.T.);
#584=ORIENTED_EDGE('',*,*,#436,.T.);
#585=ORIENTED_EDGE('',*,*,#437,.T.);
#586=ORIENTED_EDGE('',*,*,#438,.F.);
#587=ORIENTED_EDGE('',*,*,#439,.F.);
#588=ORIENTED_EDGE('',*,*,#429,.T.);
#589=ORIENTED_EDGE('',*,*,#439,.T.);
#590=ORIENTED_EDGE('',*,*,#440,.T.);
#591=ORIENTED_EDGE('',*,*,#441,.F.);
#592=ORIENTED_EDGE('',*,*,#408,.T.);
#593=ORIENTED_EDGE('',*,*,#441,.T.);
#594=ORIENTED_EDGE('',*,*,#442,.T.);
#595=ORIENTED_EDGE('',*,*,#443,.T.);
#596=ORIENTED_EDGE('',*,*,#444,.F.);
#597=ORIENTED_EDGE('',*,*,#445,.F.);
#598=ORIENTED_EDGE('',*,*,#446,.T.);
#599=ORIENTED_EDGE('',*,*,#447,.T.);
#600=ORIENTED_EDGE('',*,*,#445,.T.);
#601=ORIENTED_EDGE('',*,*,#448,.T.);
#602=ORIENTED_EDGE('',*,*,#449,.F.);
#603=ORIENTED_EDGE('',*,*,#401,.F.);
#604=ORIENTED_EDGE('',*,*,#450,.F.);
#605=ORIENTED_EDGE('',*,*,#407,.F.);
#606=ORIENTED_EDGE('',*,*,#405,.F.);
#607=ORIENTED_EDGE('',*,*,#403,.F.);
#608=ORIENTED_EDGE('',*,*,#449,.T.);
#609=ORIENTED_EDGE('',*,*,#451,.T.);
#610=ORIENTED_EDGE('',*,*,#452,.T.);
#611=ORIENTED_EDGE('',*,*,#431,.T.);
#612=ORIENTED_EDGE('',*,*,#450,.T.);
#613=ORIENTED_EDGE('',*,*,#434,.F.);
#614=ORIENTED_EDGE('',*,*,#409,.F.);
#615=ORIENTED_EDGE('',*,*,#447,.F.);
#616=ORIENTED_EDGE('',*,*,#453,.T.);
#617=ORIENTED_EDGE('',*,*,#454,.F.);
#618=ORIENTED_EDGE('',*,*,#453,.F.);
#619=ORIENTED_EDGE('',*,*,#446,.F.);
#620=ORIENTED_EDGE('',*,*,#433,.T.);
#621=ORIENTED_EDGE('',*,*,#455,.T.);
#622=ORIENTED_EDGE('',*,*,#456,.T.);
#623=ORIENTED_EDGE('',*,*,#454,.T.);
#624=ORIENTED_EDGE('',*,*,#456,.F.);
#625=ORIENTED_EDGE('',*,*,#457,.T.);
#626=ORIENTED_EDGE('',*,*,#458,.F.);
#627=ORIENTED_EDGE('',*,*,#459,.T.);
#628=ORIENTED_EDGE('',*,*,#443,.F.);
#629=ORIENTED_EDGE('',*,*,#460,.F.);
#630=ORIENTED_EDGE('',*,*,#461,.F.);
#631=ORIENTED_EDGE('',*,*,#460,.T.);
#632=ORIENTED_EDGE('',*,*,#442,.F.);
#633=ORIENTED_EDGE('',*,*,#440,.F.);
#634=ORIENTED_EDGE('',*,*,#438,.T.);
#635=ORIENTED_EDGE('',*,*,#462,.F.);
#636=ORIENTED_EDGE('',*,*,#463,.F.);
#637=ORIENTED_EDGE('',*,*,#464,.F.);
#638=ORIENTED_EDGE('',*,*,#465,.F.);
#639=ORIENTED_EDGE('',*,*,#466,.F.);
#640=ORIENTED_EDGE('',*,*,#436,.F.);
#641=ORIENTED_EDGE('',*,*,#467,.F.);
#642=ORIENTED_EDGE('',*,*,#462,.T.);
#643=ORIENTED_EDGE('',*,*,#437,.F.);
#644=ORIENTED_EDGE('',*,*,#466,.T.);
#645=ORIENTED_EDGE('',*,*,#468,.F.);
#646=ORIENTED_EDGE('',*,*,#469,.F.);
#647=ORIENTED_EDGE('',*,*,#470,.F.);
#648=ORIENTED_EDGE('',*,*,#464,.T.);
#649=ORIENTED_EDGE('',*,*,#471,.F.);
#650=ORIENTED_EDGE('',*,*,#472,.F.);
#651=ORIENTED_EDGE('',*,*,#473,.F.);
#652=ORIENTED_EDGE('',*,*,#474,.F.);
#653=ORIENTED_EDGE('',*,*,#469,.T.);
#654=ORIENTED_EDGE('',*,*,#475,.F.);
#655=ORIENTED_EDGE('',*,*,#476,.F.);
#656=ORIENTED_EDGE('',*,*,#473,.T.);
#657=ORIENTED_EDGE('',*,*,#477,.T.);
#658=ORIENTED_EDGE('',*,*,#451,.F.);
#659=ORIENTED_EDGE('',*,*,#478,.F.);
#660=ORIENTED_EDGE('',*,*,#448,.F.);
#661=ORIENTED_EDGE('',*,*,#444,.T.);
#662=ORIENTED_EDGE('',*,*,#459,.F.);
#663=ORIENTED_EDGE('',*,*,#479,.T.);
#664=ORIENTED_EDGE('',*,*,#478,.T.);
#665=ORIENTED_EDGE('',*,*,#476,.T.);
#666=ORIENTED_EDGE('',*,*,#480,.T.);
#667=ORIENTED_EDGE('',*,*,#458,.T.);
#668=ORIENTED_EDGE('',*,*,#461,.T.);
#669=ORIENTED_EDGE('',*,*,#467,.T.);
#670=ORIENTED_EDGE('',*,*,#465,.T.);
#671=ORIENTED_EDGE('',*,*,#470,.T.);
#672=ORIENTED_EDGE('',*,*,#474,.T.);
#673=ORIENTED_EDGE('',*,*,#412,.T.);
#674=ORIENTED_EDGE('',*,*,#420,.F.);
#675=ORIENTED_EDGE('',*,*,#481,.F.);
#676=ORIENTED_EDGE('',*,*,#463,.T.);
#677=ORIENTED_EDGE('',*,*,#435,.F.);
#678=ORIENTED_EDGE('',*,*,#482,.F.);
#679=ORIENTED_EDGE('',*,*,#483,.F.);
#680=ORIENTED_EDGE('',*,*,#419,.T.);
#681=ORIENTED_EDGE('',*,*,#484,.T.);
#682=ORIENTED_EDGE('',*,*,#468,.T.);
#683=ORIENTED_EDGE('',*,*,#481,.T.);
#684=ORIENTED_EDGE('',*,*,#471,.T.);
#685=ORIENTED_EDGE('',*,*,#485,.T.);
#686=ORIENTED_EDGE('',*,*,#486,.T.);
#687=ORIENTED_EDGE('',*,*,#487,.T.);
#688=ORIENTED_EDGE('',*,*,#486,.F.);
#689=ORIENTED_EDGE('',*,*,#488,.T.);
#690=ORIENTED_EDGE('',*,*,#425,.T.);
#691=ORIENTED_EDGE('',*,*,#489,.F.);
#692=ORIENTED_EDGE('',*,*,#490,.F.);
#693=ORIENTED_EDGE('',*,*,#428,.T.);
#694=ORIENTED_EDGE('',*,*,#452,.F.);
#695=ORIENTED_EDGE('',*,*,#477,.F.);
#696=ORIENTED_EDGE('',*,*,#472,.T.);
#697=ORIENTED_EDGE('',*,*,#488,.F.);
#698=ORIENTED_EDGE('',*,*,#485,.F.);
#699=ORIENTED_EDGE('',*,*,#475,.T.);
#700=ORIENTED_EDGE('',*,*,#484,.F.);
#701=ORIENTED_EDGE('',*,*,#418,.F.);
#702=ORIENTED_EDGE('',*,*,#491,.F.);
#703=ORIENTED_EDGE('',*,*,#457,.F.);
#704=ORIENTED_EDGE('',*,*,#455,.F.);
#705=ORIENTED_EDGE('',*,*,#491,.T.);
#706=ORIENTED_EDGE('',*,*,#479,.F.);
#707=ORIENTED_EDGE('',*,*,#480,.F.);
#708=ORIENTED_EDGE('',*,*,#424,.T.);
#709=ORIENTED_EDGE('',*,*,#490,.T.);
#710=ORIENTED_EDGE('',*,*,#492,.T.);
#711=ORIENTED_EDGE('',*,*,#493,.T.);
#712=ORIENTED_EDGE('',*,*,#492,.F.);
#713=ORIENTED_EDGE('',*,*,#489,.T.);
#714=ORIENTED_EDGE('',*,*,#487,.F.);
#715=ORIENTED_EDGE('',*,*,#494,.F.);
#716=ORIENTED_EDGE('',*,*,#482,.T.);
#717=ORIENTED_EDGE('',*,*,#495,.T.);
#718=ORIENTED_EDGE('',*,*,#494,.T.);
#719=ORIENTED_EDGE('',*,*,#495,.F.);
#720=ORIENTED_EDGE('',*,*,#483,.T.);
#721=ORIENTED_EDGE('',*,*,#496,.T.);
#722=ORIENTED_EDGE('',*,*,#497,.T.);
#723=ORIENTED_EDGE('',*,*,#496,.F.);
#724=ORIENTED_EDGE('',*,*,#493,.F.);
#725=ORIENTED_EDGE('',*,*,#497,.F.);
#726=CYLINDRICAL_SURFACE('',#807,1.);
#727=CYLINDRICAL_SURFACE('',#810,1.);
#728=CYLINDRICAL_SURFACE('',#813,1.);
#729=CYLINDRICAL_SURFACE('',#814,1.);
#730=CYLINDRICAL_SURFACE('',#820,1.);
#731=CYLINDRICAL_SURFACE('',#822,1.);
#732=CYLINDRICAL_SURFACE('',#825,1.);
#733=CYLINDRICAL_SURFACE('',#827,1.);
#734=CYLINDRICAL_SURFACE('',#829,1.);
#735=CYLINDRICAL_SURFACE('',#831,1.);
#736=CYLINDRICAL_SURFACE('',#832,1.);
#737=CYLINDRICAL_SURFACE('',#839,11.);
#738=CYLINDRICAL_SURFACE('',#847,8.99999999999999);
#739=CYLINDRICAL_SURFACE('',#850,1.);
#740=CYLINDRICAL_SURFACE('',#852,1.);
#741=CYLINDRICAL_SURFACE('',#854,1.);
#742=CYLINDRICAL_SURFACE('',#857,1.);
#743=CYLINDRICAL_SURFACE('',#858,1.);
#744=CYLINDRICAL_SURFACE('',#860,1.);
#745=CYLINDRICAL_SURFACE('',#862,1.);
#746=CYLINDRICAL_SURFACE('',#871,1.8);
#747=CYLINDRICAL_SURFACE('',#879,1.79999999999999);
#748=CYLINDRICAL_SURFACE('',#883,0.849999999999982);
#749=CYLINDRICAL_SURFACE('',#884,0.849999999999982);
#750=ADVANCED_FACE('',(#65),#726,.T.);
#751=ADVANCED_FACE('',(#66),#727,.T.);
#752=ADVANCED_FACE('',(#67),#728,.T.);
#753=ADVANCED_FACE('',(#68),#729,.T.);
#754=ADVANCED_FACE('',(#69),#49,.F.);
#755=ADVANCED_FACE('',(#70),#50,.F.);
#756=ADVANCED_FACE('',(#71),#51,.F.);
#757=ADVANCED_FACE('',(#72),#52,.F.);
#758=ADVANCED_FACE('',(#73),#53,.T.);
#759=ADVANCED_FACE('',(#74),#730,.T.);
#760=ADVANCED_FACE('',(#75),#731,.T.);
#761=ADVANCED_FACE('',(#76),#732,.T.);
#762=ADVANCED_FACE('',(#77),#733,.T.);
#763=ADVANCED_FACE('',(#78),#734,.T.);
#764=ADVANCED_FACE('',(#79),#735,.T.);
#765=ADVANCED_FACE('',(#80),#736,.T.);
#766=ADVANCED_FACE('',(#81),#54,.F.);
#767=ADVANCED_FACE('',(#82),#55,.F.);
#768=ADVANCED_FACE('',(#83),#56,.T.);
#769=ADVANCED_FACE('',(#84),#57,.F.);
#770=ADVANCED_FACE('',(#85),#737,.T.);
#771=ADVANCED_FACE('',(#86),#58,.F.);
#772=ADVANCED_FACE('',(#87),#21,.T.);
#773=ADVANCED_FACE('',(#88),#738,.F.);
#774=ADVANCED_FACE('',(#89),#739,.T.);
#775=ADVANCED_FACE('',(#90),#740,.T.);
#776=ADVANCED_FACE('',(#91),#741,.T.);
#777=ADVANCED_FACE('',(#92),#742,.T.);
#778=ADVANCED_FACE('',(#93),#743,.T.);
#779=ADVANCED_FACE('',(#94),#744,.T.);
#780=ADVANCED_FACE('',(#95),#745,.T.);
#781=ADVANCED_FACE('',(#96),#19,.T.);
#782=ADVANCED_FACE('',(#97),#59,.F.);
#783=ADVANCED_FACE('',(#98,#15,#16),#60,.T.);
#784=ADVANCED_FACE('',(#99),#61,.F.);
#785=ADVANCED_FACE('',(#100),#746,.F.);
#786=ADVANCED_FACE('',(#101),#62,.F.);
#787=ADVANCED_FACE('',(#102),#20,.T.);
#788=ADVANCED_FACE('',(#103),#747,.F.);
#789=ADVANCED_FACE('',(#104,#17),#63,.F.);
#790=ADVANCED_FACE('',(#105),#748,.F.);
#791=ADVANCED_FACE('',(#106),#749,.F.);
#792=ADVANCED_FACE('',(#107,#18),#64,.F.);
#793=CLOSED_SHELL('',(#750,#751,#752,#753,#754,#755,#756,#757,#758,#759,
#760,#761,#762,#763,#764,#765,#766,#767,#768,#769,#770,#771,#772,#773,#774,
#775,#776,#777,#778,#779,#780,#781,#782,#783,#784,#785,#786,#787,#788,#789,
#790,#791,#792));
#794=DERIVED_UNIT_ELEMENT(#796,1.);
#795=DERIVED_UNIT_ELEMENT(#1578,-3.);
#796=(
MASS_UNIT()
NAMED_UNIT(*)
SI_UNIT(.KILO.,.GRAM.)
);
#797=DERIVED_UNIT((#794,#795));
#798=MEASURE_REPRESENTATION_ITEM('density measure',
POSITIVE_RATIO_MEASURE(1120.),#797);
#799=PROPERTY_DEFINITION_REPRESENTATION(#804,#801);
#800=PROPERTY_DEFINITION_REPRESENTATION(#805,#802);
#801=REPRESENTATION('material name',(#803),#1575);
#802=REPRESENTATION('density',(#798),#1575);
#803=DESCRIPTIVE_REPRESENTATION_ITEM('Nylon 6','Nylon 6');
#804=PROPERTY_DEFINITION('material property','material name',#1585);
#805=PROPERTY_DEFINITION('material property','density of part',#1585);
#806=AXIS2_PLACEMENT_3D('',#1120,#887,#888);
#807=AXIS2_PLACEMENT_3D('',#1121,#889,#890);
#808=AXIS2_PLACEMENT_3D('',#1126,#892,#893);
#809=AXIS2_PLACEMENT_3D('',#1131,#896,#897);
#810=AXIS2_PLACEMENT_3D('',#1132,#898,#899);
#811=AXIS2_PLACEMENT_3D('',#1137,#901,#902);
#812=AXIS2_PLACEMENT_3D('',#1142,#905,#906);
#813=AXIS2_PLACEMENT_3D('',#1143,#907,#908);
#814=AXIS2_PLACEMENT_3D('',#1150,#913,#914);
#815=AXIS2_PLACEMENT_3D('',#1153,#917,#918);
#816=AXIS2_PLACEMENT_3D('',#1159,#922,#923);
#817=AXIS2_PLACEMENT_3D('',#1163,#926,#927);
#818=AXIS2_PLACEMENT_3D('',#1164,#928,#929);
#819=AXIS2_PLACEMENT_3D('',#1168,#932,#933);
#820=AXIS2_PLACEMENT_3D('',#1170,#935,#936);
#821=AXIS2_PLACEMENT_3D('',#1191,#939,#940);
#822=AXIS2_PLACEMENT_3D('',#1192,#941,#942);
#823=AXIS2_PLACEMENT_3D('',#1197,#944,#945);
#824=AXIS2_PLACEMENT_3D('',#1200,#947,#948);
#825=AXIS2_PLACEMENT_3D('',#1201,#949,#950);
#826=AXIS2_PLACEMENT_3D('',#1205,#952,#953);
#827=AXIS2_PLACEMENT_3D('',#1211,#957,#958);
#828=AXIS2_PLACEMENT_3D('',#1215,#960,#961);
#829=AXIS2_PLACEMENT_3D('',#1217,#963,#964);
#830=AXIS2_PLACEMENT_3D('',#1239,#967,#968);
#831=AXIS2_PLACEMENT_3D('',#1241,#970,#971);
#832=AXIS2_PLACEMENT_3D('',#1244,#974,#975);
#833=AXIS2_PLACEMENT_3D('',#1249,#978,#979);
#834=AXIS2_PLACEMENT_3D('',#1250,#980,#981);
#835=AXIS2_PLACEMENT_3D('',#1251,#982,#983);
#836=AXIS2_PLACEMENT_3D('',#1252,#984,#985);
#837=AXIS2_PLACEMENT_3D('',#1262,#991,#992);
#838=AXIS2_PLACEMENT_3D('',#1266,#995,#996);
#839=AXIS2_PLACEMENT_3D('',#1274,#1001,#1002);
#840=AXIS2_PLACEMENT_3D('',#1276,#1003,#1004);
#841=AXIS2_PLACEMENT_3D('',#1277,#1005,#1006);
#842=AXIS2_PLACEMENT_3D('',#1279,#1007,#1008);
#843=AXIS2_PLACEMENT_3D('',#1282,#1011,#1012);
#844=AXIS2_PLACEMENT_3D('',#1286,#1015,#1016);
#845=AXIS2_PLACEMENT_3D('',#1288,#1017,#1018);
#846=AXIS2_PLACEMENT_3D('',#1289,#1019,#1020);
#847=AXIS2_PLACEMENT_3D('',#1290,#1021,#1022);
#848=AXIS2_PLACEMENT_3D('',#1293,#1023,#1024);
#849=AXIS2_PLACEMENT_3D('',#1295,#1026,#1027);
#850=AXIS2_PLACEMENT_3D('',#1296,#1028,#1029);
#851=AXIS2_PLACEMENT_3D('',#1316,#1031,#1032);
#852=AXIS2_PLACEMENT_3D('',#1317,#1033,#1034);
#853=AXIS2_PLACEMENT_3D('',#1320,#1036,#1037);
#854=AXIS2_PLACEMENT_3D('',#1321,#1038,#1039);
#855=AXIS2_PLACEMENT_3D('',#1325,#1041,#1042);
#856=AXIS2_PLACEMENT_3D('',#1328,#1044,#1045);
#857=AXIS2_PLACEMENT_3D('',#1329,#1046,#1047);
#858=AXIS2_PLACEMENT_3D('',#1331,#1049,#1050);
#859=AXIS2_PLACEMENT_3D('',#1335,#1052,#1053);
#860=AXIS2_PLACEMENT_3D('',#1337,#1055,#1056);
#861=AXIS2_PLACEMENT_3D('',#1358,#1058,#1059);
#862=AXIS2_PLACEMENT_3D('',#1361,#1062,#1063);
#863=AXIS2_PLACEMENT_3D('',#1365,#1066,#1067);
#864=AXIS2_PLACEMENT_3D('',#1451,#1068,#1069);
#865=AXIS2_PLACEMENT_3D('',#1452,#1070,#1071);
#866=AXIS2_PLACEMENT_3D('',#1453,#1072,#1073);
#867=AXIS2_PLACEMENT_3D('',#1454,#1074,#1075);
#868=AXIS2_PLACEMENT_3D('',#1457,#1077,#1078);
#869=AXIS2_PLACEMENT_3D('',#1459,#1079,#1080);
#870=AXIS2_PLACEMENT_3D('',#1460,#1081,#1082);
#871=AXIS2_PLACEMENT_3D('',#1462,#1084,#1085);
#872=AXIS2_PLACEMENT_3D('',#1464,#1086,#1087);
#873=AXIS2_PLACEMENT_3D('',#1467,#1089,#1090);
#874=AXIS2_PLACEMENT_3D('',#1468,#1091,#1092);
#875=AXIS2_PLACEMENT_3D('',#1469,#1093,#1094);
#876=AXIS2_PLACEMENT_3D('',#1471,#1095,#1096);
#877=AXIS2_PLACEMENT_3D('',#1472,#1097,#1098);
#878=AXIS2_PLACEMENT_3D('',#1558,#1099,#1100);
#879=AXIS2_PLACEMENT_3D('',#1559,#1101,#1102);
#880=AXIS2_PLACEMENT_3D('',#1562,#1104,#1105);
#881=AXIS2_PLACEMENT_3D('',#1563,#1106,#1107);
#882=AXIS2_PLACEMENT_3D('',#1565,#1108,#1109);
#883=AXIS2_PLACEMENT_3D('',#1566,#1110,#1111);
#884=AXIS2_PLACEMENT_3D('',#1568,#1113,#1114);
#885=AXIS2_PLACEMENT_3D('',#1571,#1116,#1117);
#886=AXIS2_PLACEMENT_3D('',#1572,#1118,#1119);
#887=DIRECTION('axis',(0.,0.,1.));
#888=DIRECTION('refdir',(1.,0.,0.));
#889=DIRECTION('center_axis',(-8.24833755562945E-28,-3.44240733093691E-14,
1.));
#890=DIRECTION('ref_axis',(-0.70710678118652,0.707106781186575,2.43414956731181E-14));
#891=DIRECTION('',(-8.24833755562945E-28,-3.44240733093691E-14,1.));
#892=DIRECTION('center_axis',(0.707106781186548,-9.54441530949605E-15,-0.707106781186548));
#893=DIRECTION('ref_axis',(0.707106781186548,-5.82274066557315E-14,0.707106781186548));
#894=DIRECTION('',(8.24833755562945E-28,3.44240733093691E-14,-1.));
#895=DIRECTION('',(4.79219148785855E-14,0.999999999866569,-1.63359375223342E-5));
#896=DIRECTION('center_axis',(0.707106781186548,-5.82274066557315E-14,0.707106781186548));
#897=DIRECTION('ref_axis',(-0.707106781186548,9.54441530949604E-15,0.707106781186548));
#898=DIRECTION('center_axis',(8.24833755562945E-28,3.44240733093691E-14,
-1.));
#899=DIRECTION('ref_axis',(0.707106781186585,0.70710678118651,2.4341495673117E-14));
#900=DIRECTION('',(8.24833755562945E-28,3.44240733093691E-14,-1.));
#901=DIRECTION('center_axis',(-0.707106781186548,9.54441530949605E-15,0.707106781186548));
#902=DIRECTION('ref_axis',(-0.707106781186548,5.82274066557315E-14,-0.707106781186548));
#903=DIRECTION('',(-4.79219148785855E-14,-0.999999999866569,1.63359375223342E-5));
#904=DIRECTION('',(-8.24833755562945E-28,-3.44240733093691E-14,1.));
#905=DIRECTION('center_axis',(-0.707106781186548,5.82274066557315E-14,-0.707106781186548));
#906=DIRECTION('ref_axis',(0.707106781186548,-9.54441530949604E-15,-0.707106781186548));
#907=DIRECTION('center_axis',(1.,-4.57014688357295E-14,-5.82724482991878E-19));
#908=DIRECTION('ref_axis',(3.38856342024209E-14,0.70710100553687,-0.70711255678905));
#909=DIRECTION('',(1.,-4.57014688357295E-14,-5.82724482991878E-19));
#910=DIRECTION('',(-4.79219148785855E-14,-0.999999999866569,1.63359375223342E-5));
#911=DIRECTION('',(-1.,4.57014688357295E-14,5.82724482991878E-19));
#912=DIRECTION('',(4.79219148785855E-14,0.999999999866569,-1.63359375223342E-5));
#913=DIRECTION('center_axis',(-1.,4.57014688357295E-14,5.82724482991878E-19));
#914=DIRECTION('ref_axis',(3.38861877605457E-14,0.707112556789046,0.707101005536873));
#915=DIRECTION('',(1.,-4.57014688357295E-14,-5.82724482991878E-19));
#916=DIRECTION('',(-1.,4.57014688357295E-14,5.82724482991878E-19));
#917=DIRECTION('center_axis',(-1.,4.79219148849798E-14,8.24833755562945E-28));
#918=DIRECTION('ref_axis',(-4.79219148785855E-14,-0.999999999866569,1.63359375223342E-5));
#919=DIRECTION('',(-4.79219148785855E-14,-0.999999999866569,1.63359375223342E-5));
#920=DIRECTION('',(8.24833755562945E-28,3.44240733093691E-14,-1.));
#921=DIRECTION('',(4.79219148785855E-14,0.999999999866569,-1.63359375223342E-5));
#922=DIRECTION('center_axis',(1.32930082249351E-18,1.63359375223342E-5,
0.999999999866569));
#923=DIRECTION('ref_axis',(-1.,4.79219148849798E-14,5.46451415054771E-19));
#924=DIRECTION('',(-1.,9.15234009429855E-14,-1.65819737164776E-19));
#925=DIRECTION('',(-4.79219148785855E-14,-0.999999999866569,1.63359375223342E-5));
#926=DIRECTION('center_axis',(-4.57014688357295E-14,-1.,-3.44240733093691E-14));
#927=DIRECTION('ref_axis',(1.,-4.57014688357295E-14,-5.82724482991878E-19));
#928=DIRECTION('center_axis',(1.,-4.79219148849798E-14,-8.24833755562945E-28));
#929=DIRECTION('ref_axis',(4.79219148785855E-14,0.999999999866569,-1.63359375223342E-5));
#930=DIRECTION('',(-8.24833755562945E-28,-3.44240733093691E-14,1.));
#931=DIRECTION('',(4.79219148785855E-14,0.999999999866569,-1.63359375223342E-5));
#932=DIRECTION('center_axis',(1.32930082249351E-18,1.63359375223342E-5,
0.999999999866569));
#933=DIRECTION('ref_axis',(-1.,4.79219148849798E-14,5.46451415054771E-19));
#934=DIRECTION('',(1.,-9.15234009429855E-14,1.65819737164776E-19));
#935=DIRECTION('center_axis',(-1.,-1.16677533536254E-12,-1.46463198862683E-26));
#936=DIRECTION('ref_axis',(8.20244386541363E-13,-0.707106781186559,0.707106781186536));
#937=DIRECTION('',(-1.,-1.16677533536254E-12,-1.46463198862683E-26));
#938=DIRECTION('',(1.,1.16677533536254E-12,1.46463198862683E-26));
#939=DIRECTION('center_axis',(-0.707106781186889,0.707106781186206,8.64057108627619E-15));
#940=DIRECTION('ref_axis',(-0.707106781186206,-0.707106781186889,-8.64057108628508E-15));
#941=DIRECTION('center_axis',(8.20890284678189E-14,1.,1.33178656366171E-14));
#942=DIRECTION('ref_axis',(-0.707106781186548,4.72266343179061E-14,0.707106781186548));
#943=DIRECTION('',(8.20890284678189E-14,1.,1.33178656366171E-14));
#944=DIRECTION('center_axis',(0.707106781186485,-0.70710678118661,-8.64057108628112E-15));
#945=DIRECTION('ref_axis',(0.70710678118661,0.707106781186485,1.01937351188853E-14));
#946=DIRECTION('',(-8.20890284678189E-14,-1.,-1.33178656366171E-14));
#947=DIRECTION('center_axis',(0.7071067811866,0.707106781186495,8.64057108627937E-15));
#948=DIRECTION('ref_axis',(-0.707106781186495,0.7071067811866,1.01937351188871E-14));
#949=DIRECTION('center_axis',(1.,-8.13727904321229E-14,-1.97634914766038E-27));
#950=DIRECTION('ref_axis',(3.38864645361934E-14,0.707118332343891,0.707095229840504));
#951=DIRECTION('',(-1.,8.13727904321229E-14,1.97634914766038E-27));
#952=DIRECTION('center_axis',(0.707106781186471,-0.707106781186624,-8.64057108628129E-15));
#953=DIRECTION('ref_axis',(0.707106781186624,0.707106781186471,8.64057108627804E-15));
#954=DIRECTION('',(-6.12809130248935E-18,-3.26718736618672E-5,-0.999999999466274));
#955=DIRECTION('',(1.,-8.13727904321229E-14,-1.97634914766038E-27));
#956=DIRECTION('',(5.49005066762095E-17,3.26718736618672E-5,0.999999999466274));
#957=DIRECTION('center_axis',(1.,-8.13727904321229E-14,-1.97634914766038E-27));
#958=DIRECTION('ref_axis',(-8.41288696604947E-14,-0.707106781186559,0.707106781186536));
#959=DIRECTION('',(-1.,8.13727904321229E-14,1.97634914766038E-27));
#960=DIRECTION('center_axis',(0.707106781186484,-0.707106781186611,-8.64057108628113E-15));
#961=DIRECTION('ref_axis',(0.707106781186611,0.707106781186484,8.64057108627819E-15));
#962=DIRECTION('',(1.,-8.13727904321229E-14,-1.97634914766038E-27));
#963=DIRECTION('center_axis',(-8.12286056237347E-14,-1.,-1.33178656366171E-14));
#964=DIRECTION('ref_axis',(0.707106781186573,-6.45077764904666E-14,0.707106781186523));
#965=DIRECTION('',(-8.12286056237347E-14,-1.,-1.33178656366171E-14));
#966=DIRECTION('',(8.12286056237347E-14,1.,1.33178656366171E-14));
#967=DIRECTION('center_axis',(0.707106781186481,-0.707106781186614,-8.64057108628117E-15));
#968=DIRECTION('ref_axis',(-0.707106781186614,-0.707106781186481,-1.01937351188853E-14));
#969=DIRECTION('',(-8.12286056237347E-14,-1.,-1.33178656366171E-14));
#970=DIRECTION('center_axis',(-8.12286056237347E-14,-1.,-1.33178656366171E-14));
#971=DIRECTION('ref_axis',(-0.707106781186548,4.72266343179061E-14,0.707106781186548));
#972=DIRECTION('',(8.12286056237347E-14,1.,1.33178656366171E-14));
#973=DIRECTION('',(-8.12286056237347E-14,-1.,-1.33178656366171E-14));
#974=DIRECTION('center_axis',(-1.,9.15234009429855E-14,2.11153361457368E-27));
#975=DIRECTION('ref_axis',(3.38859109826133E-14,0.707106781186526,0.707106781186569));
#976=DIRECTION('',(1.,-9.15234009429855E-14,-2.11153361457368E-27));
#977=DIRECTION('',(-1.,9.15234009429855E-14,2.11153361457368E-27));
#978=DIRECTION('center_axis',(0.999999999999951,-8.34490409338941E-14,-3.11964427623915E-7));
#979=DIRECTION('ref_axis',(8.34490516729845E-14,1.,3.44240733093691E-14));
#980=DIRECTION('center_axis',(-8.9263725820877E-28,1.33178656366171E-14,
-1.));
#981=DIRECTION('ref_axis',(-8.12286056237347E-14,-1.,-1.33178656366171E-14));
#982=DIRECTION('center_axis',(-8.9263725820877E-28,1.33178656366171E-14,
-1.));
#983=DIRECTION('ref_axis',(-1.,4.55767806991182E-14,1.49962269970919E-27));
#984=DIRECTION('center_axis',(8.13727904321229E-14,1.,3.44240733093691E-14));
#985=DIRECTION('ref_axis',(-3.47420056087845E-18,3.44240733093691E-14,-1.));
#986=DIRECTION('',(-5.2218504334128E-17,3.44240733093691E-14,-1.));
#987=DIRECTION('',(-5.2218504334128E-17,3.44240733093691E-14,-1.));
#988=DIRECTION('',(1.,-8.13727904321229E-14,-1.97634914766038E-27));
#989=DIRECTION('',(-3.47420056087845E-18,3.44240733093691E-14,-1.));
#990=DIRECTION('',(-3.47420056087845E-18,3.44240733093691E-14,-1.));
#991=DIRECTION('center_axis',(-1.,8.12286056237347E-14,3.47420056367532E-18));
#992=DIRECTION('ref_axis',(-8.12286056237347E-14,-1.,-3.44240733093691E-14));
#993=DIRECTION('',(-8.12286054668722E-14,-0.999999999466274,3.26718736597235E-5));
#994=DIRECTION('',(8.24833755562945E-28,3.44240733093691E-14,-1.));
#995=DIRECTION('center_axis',(-1.16677533536254E-12,1.,3.44240733093691E-14));
#996=DIRECTION('ref_axis',(1.,1.16677533536254E-12,4.09899934356466E-26));
#997=DIRECTION('',(8.24833755562945E-28,3.44240733093691E-14,-1.));
#998=DIRECTION('',(1.,1.16677533536254E-12,-4.07793378983251E-17));
#999=DIRECTION('',(8.24833755562945E-28,3.44240733093691E-14,-1.));
#1000=DIRECTION('',(8.24833755562945E-28,3.44240733093691E-14,-1.));
#1001=DIRECTION('center_axis',(-8.24833755562945E-28,-3.44240733093691E-14,
1.));
#1002=DIRECTION('ref_axis',(0.476731307084467,-0.879049066233243,-3.02604494985452E-14));
#1003=DIRECTION('center_axis',(-8.9263725820877E-28,1.33178656366171E-14,
-1.));
#1004=DIRECTION('ref_axis',(0.476731307084466,-0.879049066233243,-1.1702062348277E-14));
#1005=DIRECTION('center_axis',(-8.9263725820877E-28,1.33178656366171E-14,
-1.));
#1006=DIRECTION('ref_axis',(0.476731307084466,-0.879049066233243,-1.1702062348277E-14));
#1007=DIRECTION('center_axis',(1.42336249957355E-18,2.97017033264429E-5,
0.999999999558904));
#1008=DIRECTION('ref_axis',(-4.79219148638416E-14,-0.999999999558904,2.97017033264429E-5));
#1009=DIRECTION('',(8.24833755562945E-28,3.44240733093691E-14,-1.));
#1010=DIRECTION('',(8.24833755562945E-28,3.44240733093691E-14,-1.));
#1011=DIRECTION('center_axis',(-9.15234009429855E-14,-1.,-3.44240733093691E-14));
#1012=DIRECTION('ref_axis',(-1.,9.15234009429855E-14,2.32577450802117E-27));
#1013=DIRECTION('',(-1.,9.15234009429855E-14,-3.31639462380618E-19));
#1014=DIRECTION('',(3.4742005608791E-18,-3.44240733093691E-14,1.));
#1015=DIRECTION('center_axis',(-8.9263725820877E-28,1.33178656366171E-14,
-1.));
#1016=DIRECTION('ref_axis',(-1.,4.78001476784069E-14,0.));
#1017=DIRECTION('center_axis',(-4.76386606930068E-14,-1.,-1.33178656366171E-14));
#1018=DIRECTION('ref_axis',(1.,-4.76386606930068E-14,0.));
#1019=DIRECTION('center_axis',(8.9263725820877E-28,-1.33178656366171E-14,
1.));
#1020=DIRECTION('ref_axis',(-1.,4.55767806991182E-14,7.4410468442854E-28));
#1021=DIRECTION('center_axis',(-8.24833755562945E-28,-3.44240733093691E-14,
1.));
#1022=DIRECTION('ref_axis',(-1.,4.79219148849798E-14,8.24833755562945E-28));
#1023=DIRECTION('center_axis',(-1.73966527706092E-18,-3.63020818431726E-5,
-0.999999999341079));
#1024=DIRECTION('ref_axis',(-4.79219148534031E-14,-0.999999999341079,3.63020818431726E-5));
#1025=DIRECTION('',(-8.24833755562945E-28,-3.44240733093691E-14,1.));
#1026=DIRECTION('center_axis',(-1.73966527706092E-18,-3.63020818431726E-5,
-0.999999999341079));
#1027=DIRECTION('ref_axis',(-4.79219148534031E-14,-0.999999999341079,3.63020818431726E-5));
#1028=DIRECTION('center_axis',(1.,1.16677533536254E-12,-4.07793378983251E-17));
#1029=DIRECTION('ref_axis',(8.20229880311055E-13,-0.707118332343877,-0.707095229840517));
#1030=DIRECTION('',(-1.,-1.16677533536254E-12,4.07793378983251E-17));
#1031=DIRECTION('center_axis',(-0.707106781186926,0.707106780808768,-2.31025034197176E-5));
#1032=DIRECTION('ref_axis',(0.707106781186169,0.707106780809525,-2.31025034197461E-5));
#1033=DIRECTION('center_axis',(-8.12286054668722E-14,-0.999999999466274,
3.26718736597235E-5));
#1034=DIRECTION('ref_axis',(-0.70710678118656,-2.31025033670037E-5,-0.707106780809135));
#1035=DIRECTION('',(8.12286054668722E-14,0.999999999466274,-3.26718736597235E-5));
#1036=DIRECTION('center_axis',(-0.707106781186483,0.707106780809211,-2.31025034197313E-5));
#1037=DIRECTION('ref_axis',(-0.707106781186612,-0.707106780809082,2.310250341799E-5));
#1038=DIRECTION('center_axis',(-8.20890267179295E-14,-0.999999999466274,
3.26718736597235E-5));
#1039=DIRECTION('ref_axis',(-0.707106781186534,-2.31025033607225E-5,-0.70710678080916));
#1040=DIRECTION('',(-8.20890267179295E-14,-0.999999999466274,3.26718736597235E-5));
#1041=DIRECTION('center_axis',(0.707106781186599,0.707106780809095,-2.31025034197297E-5));
#1042=DIRECTION('ref_axis',(0.707106781186496,-0.707106780809198,2.31025034179916E-5));
#1043=DIRECTION('',(8.20890267179295E-14,0.999999999466274,-3.26718736597235E-5));
#1044=DIRECTION('center_axis',(0.707106781186485,-0.707106780809209,2.31025034197312E-5));
#1045=DIRECTION('ref_axis',(-0.70710678118661,-0.707106780809084,2.31025034179901E-5));
#1046=DIRECTION('center_axis',(1.,-8.13727904321229E-14,-1.97634914766038E-27));
#1047=DIRECTION('ref_axis',(-8.41286024683867E-14,-0.707118332343906,-0.707095229840489));
#1048=DIRECTION('',(-1.,8.13727904321229E-14,1.97634914766038E-27));
#1049=DIRECTION('center_axis',(-1.,8.13727904321229E-14,1.97634914766038E-27));
#1050=DIRECTION('ref_axis',(3.38848038483244E-14,0.707083678305717,-0.707129883312576));
#1051=DIRECTION('',(-1.,8.13727904321229E-14,1.97634935384889E-27));
#1052=DIRECTION('center_axis',(0.707106781186483,-0.707106780809211,2.31025034197313E-5));
#1053=DIRECTION('ref_axis',(-0.707106781186612,-0.707106780809082,2.31025034197308E-5));
#1054=DIRECTION('',(1.,-8.13727904321229E-14,-1.97634895506739E-27));
#1055=DIRECTION('center_axis',(8.12286054668722E-14,0.999999999466274,-3.26718736597235E-5));
#1056=DIRECTION('ref_axis',(0.70710678118656,-2.31025034724577E-5,-0.707106780809135));
#1057=DIRECTION('',(8.12286054668722E-14,0.999999999466274,-3.26718736597235E-5));
#1058=DIRECTION('center_axis',(0.707106781186481,-0.707106780809213,2.31025034197313E-5));
#1059=DIRECTION('ref_axis',(0.707106781186614,0.70710678080908,-2.31025034179899E-5));
#1060=DIRECTION('',(-8.12286054668722E-14,-0.999999999466274,3.26718736597235E-5));
#1061=DIRECTION('',(8.12286054668722E-14,0.999999999466274,-3.26718736597235E-5));
#1062=DIRECTION('center_axis',(-1.,9.15234009429855E-14,-3.31639462380618E-19));
#1063=DIRECTION('ref_axis',(8.41291368837851E-14,0.707095229840507,-0.707118332343888));
#1064=DIRECTION('',(1.,-9.15234009429855E-14,3.31639462380618E-19));
#1065=DIRECTION('',(3.4742005608791E-18,-3.44240733093691E-14,1.));
#1066=DIRECTION('center_axis',(0.999999999999951,3.11963917849223E-7,-1.01924472860408E-11));
#1067=DIRECTION('ref_axis',(-1.5656987501763E-18,-3.2671873674276E-5,-0.999999999466274));
#1068=DIRECTION('center_axis',(2.65860153031383E-18,3.26718736597235E-5,
0.999999999466274));
#1069=DIRECTION('ref_axis',(-4.79219148594026E-14,-0.999999999466274,3.26718736597235E-5));
#1070=DIRECTION('center_axis',(2.65860153031383E-18,3.26718736597235E-5,
0.999999999466274));
#1071=DIRECTION('ref_axis',(8.12286054668722E-14,0.999999999466274,-3.26718736597235E-5));
#1072=DIRECTION('center_axis',(2.65860153031383E-18,3.26718736597235E-5,
0.999999999466274));
#1073=DIRECTION('ref_axis',(-4.79219148594026E-14,-0.999999999466274,3.26718736597235E-5));
#1074=DIRECTION('center_axis',(-1.,8.20890284678189E-14,5.22185043369539E-17));
#1075=DIRECTION('ref_axis',(-5.2218504334128E-17,3.44240733093691E-14,-1.));
#1076=DIRECTION('',(5.49005066762095E-17,3.26718736618672E-5,0.999999999466274));
#1077=DIRECTION('center_axis',(-1.,8.20890284678189E-14,5.22185043369539E-17));
#1078=DIRECTION('ref_axis',(-8.13727904321229E-14,-1.,-3.44240733093691E-14));
#1079=DIRECTION('center_axis',(-1.,8.20890284678189E-14,5.22185043369539E-17));
#1080=DIRECTION('ref_axis',(-8.13727904321229E-14,-1.,-3.44240733093691E-14));
#1081=DIRECTION('center_axis',(-8.13727903886922E-14,-0.999999999466274,
3.26718736618672E-5));
#1082=DIRECTION('ref_axis',(6.12809130248935E-18,3.26718736618672E-5,0.999999999466274));
#1083=DIRECTION('',(-6.12809130248935E-18,-3.26718736618672E-5,-0.999999999466274));
#1084=DIRECTION('center_axis',(-1.,8.19687543068178E-14,1.99686465177262E-27));
#1085=DIRECTION('ref_axis',(-8.19687543068178E-14,-1.,-3.44240733093691E-14));
#1086=DIRECTION('center_axis',(1.,-8.12286056237347E-14,-3.47420056367467E-18));
#1087=DIRECTION('ref_axis',(-8.12286056237347E-14,-1.,-3.44240733093691E-14));
#1088=DIRECTION('',(-1.,8.19687543068178E-14,1.99686465177262E-27));
#1089=DIRECTION('center_axis',(-1.,8.12286056237347E-14,3.47420056367467E-18));
#1090=DIRECTION('ref_axis',(-8.19687543068178E-14,-1.,-3.44240733093691E-14));
#1091=DIRECTION('center_axis',(1.,-8.12286056237347E-14,-3.47420056367467E-18));
#1092=DIRECTION('ref_axis',(-8.12286056237347E-14,-1.,-3.44240733093691E-14));
#1093=DIRECTION('center_axis',(-1.,8.12286056237347E-14,3.47420056367532E-18));
#1094=DIRECTION('ref_axis',(-8.12286056237347E-14,-1.,-3.44240733093691E-14));
#1095=DIRECTION('center_axis',(1.,-8.12286056237347E-14,-3.47420056367467E-18));
#1096=DIRECTION('ref_axis',(-8.12286056237347E-14,-1.,-3.44240733093691E-14));
#1097=DIRECTION('center_axis',(1.,-8.12286056237347E-14,-3.47420056367467E-18));
#1098=DIRECTION('ref_axis',(-8.12286056237347E-14,-1.,-3.44240733093691E-14));
#1099=DIRECTION('center_axis',(1.,-4.79219148849798E-14,-8.24833755562945E-28));
#1100=DIRECTION('ref_axis',(-4.79219148849798E-14,-1.,-3.44240733093691E-14));
#1101=DIRECTION('center_axis',(-1.,8.19687543068178E-14,1.99686465177262E-27));
#1102=DIRECTION('ref_axis',(-8.19687543068178E-14,-1.,-3.44240733093691E-14));
#1103=DIRECTION('',(-1.,8.19687543068178E-14,1.99686465177262E-27));
#1104=DIRECTION('center_axis',(-1.,8.12286056237347E-14,3.47420056367467E-18));
#1105=DIRECTION('ref_axis',(-8.19687543068178E-14,-1.,-3.44240733093691E-14));
#1106=DIRECTION('center_axis',(-1.,8.12286056237347E-14,3.47420056367467E-18));
#1107=DIRECTION('ref_axis',(-8.12286056237347E-14,-1.,-3.44240733093691E-14));
#1108=DIRECTION('center_axis',(1.,-8.12286056237347E-14,-3.47420056367468E-18));
#1109=DIRECTION('ref_axis',(-8.12286056237347E-14,-1.,-3.44240733093691E-14));
#1110=DIRECTION('center_axis',(1.,-8.13727904321229E-14,-1.97634914766038E-27));
#1111=DIRECTION('ref_axis',(-8.13727904321229E-14,-1.,-3.44240733093691E-14));
#1112=DIRECTION('',(1.,-8.13727904321229E-14,-1.97634914766038E-27));
#1113=DIRECTION('center_axis',(1.,-8.13727904321229E-14,-1.97634914766038E-27));
#1114=DIRECTION('ref_axis',(-8.13727904321229E-14,-1.,-3.44240733093691E-14));
#1115=DIRECTION('',(1.,-8.13727904321229E-14,-1.97634914766038E-27));
#1116=DIRECTION('center_axis',(1.,-8.12286056237347E-14,-3.47420056367468E-18));
#1117=DIRECTION('ref_axis',(-8.12286056237347E-14,-1.,-3.44240733093691E-14));
#1118=DIRECTION('center_axis',(-1.,8.12286056237347E-14,3.47420056367467E-18));
#1119=DIRECTION('ref_axis',(-8.12286056237347E-14,-1.,-3.44240733093691E-14));
#1120=CARTESIAN_POINT('',(0.,0.,0.));
#1121=CARTESIAN_POINT('Origin',(181.199999999999,-24.4669791585785,169.049929766043));
#1122=CARTESIAN_POINT('',(181.199999999999,-23.4669791585785,168.04986850641));
#1123=CARTESIAN_POINT('',(181.199999999999,-23.4669791585785,170.049868506143));
#1124=CARTESIAN_POINT('',(181.199999999999,-23.4669791585785,169.049929766043));
#1125=CARTESIAN_POINT('',(180.199999999999,-24.4669791585784,167.04986850641));
#1126=CARTESIAN_POINT('Origin',(181.199999999999,-24.4669791585785,168.04986850641));
#1127=CARTESIAN_POINT('',(180.199999999999,-24.4669791585785,171.049868506277));
#1128=CARTESIAN_POINT('',(180.199999999999,-24.4669791585785,169.049929766043));
#1129=CARTESIAN_POINT('',(180.200000000132,-24.466962822641,171.04986850601));
#1130=CARTESIAN_POINT('',(180.199999999999,-25.8420298011925,171.049890969018));
#1131=CARTESIAN_POINT('Origin',(181.199999999999,-24.4669791585785,170.049868506143));
#1132=CARTESIAN_POINT('Origin',(185.199999999999,-24.4669791585787,169.049852170339));
#1133=CARTESIAN_POINT('',(185.199999999999,-23.4669791585787,170.049868506143));
#1134=CARTESIAN_POINT('',(185.199999999999,-23.4669791585787,168.04986850641));
#1135=CARTESIAN_POINT('',(185.199999999999,-23.4669791585787,169.049852170339));
#1136=CARTESIAN_POINT('',(186.199999999999,-24.4669628226412,171.04986850601));
#1137=CARTESIAN_POINT('Origin',(185.199999999999,-24.4669791585787,170.049868506143));
#1138=CARTESIAN_POINT('',(186.199999999999,-24.4669791585788,171.049868506277));
#1139=CARTESIAN_POINT('',(186.199999999999,-30.5920297999252,171.049968564721));
#1140=CARTESIAN_POINT('',(186.199999999999,-24.4669791585787,167.049868506277));
#1141=CARTESIAN_POINT('',(186.199999999999,-24.4669791585787,169.049852170339));
#1142=CARTESIAN_POINT('Origin',(185.199999999999,-24.4669791585787,168.04986850641));
#1143=CARTESIAN_POINT('Origin',(181.699999999999,-24.4669791585785,168.04986850641));
#1144=CARTESIAN_POINT('',(180.199999999999,-24.466995494516,167.049868506544));
#1145=CARTESIAN_POINT('',(186.199999999999,-24.4669954945162,167.049868506544));
#1146=CARTESIAN_POINT('',(181.699999999999,-24.466995494516,167.049868506544));
#1147=CARTESIAN_POINT('',(180.199999999999,-25.8420298011923,167.049890969018));
#1148=CARTESIAN_POINT('',(181.699999999999,-23.4669791585785,168.04986850641));
#1149=CARTESIAN_POINT('',(186.199999999999,-30.5920297999251,167.049968564721));
#1150=CARTESIAN_POINT('Origin',(181.699999999999,-24.4669791585786,170.049868506143));
#1151=CARTESIAN_POINT('',(181.699999999999,-23.4669791585786,170.049868506143));
#1152=CARTESIAN_POINT('',(181.699999999999,-24.466962822641,171.04986850601));
#1153=CARTESIAN_POINT('Origin',(186.199999999999,-23.4669791585787,169.049852170339));
#1154=CARTESIAN_POINT('',(186.199999999999,-32.966979158579,171.050007361746));
#1155=CARTESIAN_POINT('',(186.199999999999,-30.5920297999252,171.049968564721));
#1156=CARTESIAN_POINT('',(186.199999999999,-32.9669791585788,167.050007361746));
#1157=CARTESIAN_POINT('',(186.199999688035,-32.9669791585791,175.249999999997));
#1158=CARTESIAN_POINT('',(186.199999999999,-30.5920297999251,167.049968564721));
#1159=CARTESIAN_POINT('Origin',(183.199999999999,-28.2169791585786,167.049929766043));
#1160=CARTESIAN_POINT('',(180.199999999999,-32.9669791585782,167.050007361746));
#1161=CARTESIAN_POINT('',(184.699999844017,-32.9669791585787,167.050007361746));
#1162=CARTESIAN_POINT('',(180.199999999999,-25.8420298011923,167.049890969018));
#1163=CARTESIAN_POINT('Origin',(180.199999999999,-23.4669791585785,169.049852170339));
#1164=CARTESIAN_POINT('Origin',(180.199999999999,-32.9669791585783,169.050007361746));
#1165=CARTESIAN_POINT('',(180.199999999999,-32.9669791585783,171.050007361746));
#1166=CARTESIAN_POINT('',(180.199999999999,-32.9669791585784,172.150003680872));
#1167=CARTESIAN_POINT('',(180.199999999999,-25.8420298011925,171.049890969018));
#1168=CARTESIAN_POINT('Origin',(183.199999999999,-28.2169791585787,171.049929766043));
#1169=CARTESIAN_POINT('',(184.699999844017,-32.9669791585788,171.050007361746));
#1170=CARTESIAN_POINT('Origin',(175.200000000004,-36.9669791585102,174.249999999997));
#1171=CARTESIAN_POINT('',(176.980455542751,-37.9669791585081,174.249999999997));
#1172=CARTESIAN_POINT('',(175.199999999999,-37.9669791585102,174.249999999997));
#1173=CARTESIAN_POINT('',(175.200000000005,-37.9669791585102,174.249999999997));
#1174=CARTESIAN_POINT('',(179.058571571527,-36.9669791585057,175.249999999997));
#1175=CARTESIAN_POINT('Ctrl Pts',(176.980455542751,-37.9669791585081,174.249999999997));
#1176=CARTESIAN_POINT('Ctrl Pts',(176.980455542751,-37.9669791585081,174.313585243964));
#1177=CARTESIAN_POINT('Ctrl Pts',(176.99162576168,-37.9609124927285,174.375386214717));
#1178=CARTESIAN_POINT('Ctrl Pts',(177.037320778907,-37.9362161816025,174.506898357602));
#1179=CARTESIAN_POINT('Ctrl Pts',(177.075533764292,-37.9156213740915,174.57264246426));
#1180=CARTESIAN_POINT('Ctrl Pts',(177.192513333168,-37.8531460060634,174.724131555295));
#1181=CARTESIAN_POINT('Ctrl Pts',(177.283613930296,-37.8050079894515,174.801450134417));
#1182=CARTESIAN_POINT('Ctrl Pts',(177.538955011533,-37.6725050850852,174.971557004161));
#1183=CARTESIAN_POINT('Ctrl Pts',(177.744893574605,-37.5677665470817,175.06108238112));
#1184=CARTESIAN_POINT('Ctrl Pts',(178.297319737878,-37.3011071521718,175.20720032963));
#1185=CARTESIAN_POINT('Ctrl Pts',(178.652974058308,-37.1376090962632,175.249263684175));
#1186=CARTESIAN_POINT('Ctrl Pts',(179.051639154819,-36.9698924163125,175.249996819318));
#1187=CARTESIAN_POINT('Ctrl Pts',(179.055105187752,-36.9684353309549,175.249999999997));
#1188=CARTESIAN_POINT('Ctrl Pts',(179.058571571527,-36.9669791585057,175.249999999997));
#1189=CARTESIAN_POINT('',(176.199999999999,-36.966979158509,175.249999999997));
#1190=CARTESIAN_POINT('',(175.200000000004,-36.9669791585102,175.249999999997));
#1191=CARTESIAN_POINT('Origin',(176.199999999999,-36.966979158509,174.249999999997));
#1192=CARTESIAN_POINT('Origin',(172.699999999999,-29.1002344993178,174.249999999998));
#1193=CARTESIAN_POINT('',(171.699999999999,-32.5000005215488,174.249999999998));
#1194=CARTESIAN_POINT('',(171.699999999999,-27.9670118309816,174.249999999998));
#1195=CARTESIAN_POINT('',(171.699999999999,-29.1002344993178,174.249999999998));
#1196=CARTESIAN_POINT('',(172.699999999999,-31.5000005215489,175.249999999998));
#1197=CARTESIAN_POINT('Origin',(172.699999999999,-31.5000005215489,174.249999999998));
#1198=CARTESIAN_POINT('',(172.699999999999,-28.9670118309817,175.249999999998));
#1199=CARTESIAN_POINT('',(172.699999999999,-29.1002344993179,175.249999999998));
#1200=CARTESIAN_POINT('Origin',(172.699999999999,-28.9670118309817,174.249999999998));
#1201=CARTESIAN_POINT('Origin',(175.199999999999,-28.9670118309819,174.249999999998));
#1202=CARTESIAN_POINT('',(177.199999999999,-28.967011830982,175.249999999998));
#1203=CARTESIAN_POINT('',(175.199999999999,-28.9670118309819,175.249999999998));
#1204=CARTESIAN_POINT('',(178.199999999999,-27.9670118304484,174.249999999998));
#1205=CARTESIAN_POINT('Origin',(177.199999999999,-28.967011830982,174.249999999998));
#1206=CARTESIAN_POINT('',(178.199999999999,-27.9670118315158,174.249967328124));
#1207=CARTESIAN_POINT('',(178.199999999999,-27.9669791585747,175.249999999998));
#1208=CARTESIAN_POINT('',(171.699999999999,-27.9670118315153,174.249967328124));
#1209=CARTESIAN_POINT('',(175.199999999999,-27.9670118315156,174.249967328124));
#1210=CARTESIAN_POINT('',(171.699999999999,-27.9672830118377,165.949851911053));
#1211=CARTESIAN_POINT('Origin',(175.199999999999,-31.5000005215491,174.249999999998));
#1212=CARTESIAN_POINT('',(175.199999999999,-32.5000005215491,174.249999999998));
#1213=CARTESIAN_POINT('',(175.199999999999,-32.5000005215491,174.249999999998));
#1214=CARTESIAN_POINT('',(176.199999999999,-31.5000005215492,175.249999999998));
#1215=CARTESIAN_POINT('Origin',(176.199999999999,-31.5000005215492,174.249999999998));
#1216=CARTESIAN_POINT('',(175.199999999999,-31.5000005215491,175.249999999998));
#1217=CARTESIAN_POINT('Origin',(177.199999999999,-29.6502344993182,174.249999999998));
#1218=CARTESIAN_POINT('',(178.199999999999,-29.3253285703523,174.249999999998));
#1219=CARTESIAN_POINT('',(178.199999999999,-32.0086101433525,174.249999999998));
#1220=CARTESIAN_POINT('Ctrl Pts',(178.199999999999,-29.3253285703523,174.249999999998));
#1221=CARTESIAN_POINT('Ctrl Pts',(178.199999999999,-29.3423327123315,174.26901120868));
#1222=CARTESIAN_POINT('Ctrl Pts',(178.199456897967,-29.3594872912217,174.287373742984));
#1223=CARTESIAN_POINT('Ctrl Pts',(178.189214742091,-29.5403971932193,174.473383857244));
#1224=CARTESIAN_POINT('Ctrl Pts',(178.137509908006,-29.7432680313971,174.613713300509));
#1225=CARTESIAN_POINT('Ctrl Pts',(178.040543602174,-30.1885066771085,174.801997196884));
#1226=CARTESIAN_POINT('Ctrl Pts',(177.999999999999,-30.4318684655192,174.849999999998));
#1227=CARTESIAN_POINT('Ctrl Pts',(177.999999999999,-30.6669693568524,174.849999999998));
#1228=CARTESIAN_POINT('Ctrl Pts',(177.999999999999,-30.9020702481856,174.849999999998));
#1229=CARTESIAN_POINT('Ctrl Pts',(178.040543602174,-31.1454320365963,174.801997196884));
#1230=CARTESIAN_POINT('Ctrl Pts',(178.137509908006,-31.5906706823077,174.613713300509));
#1231=CARTESIAN_POINT('Ctrl Pts',(178.189214742091,-31.7935415204855,174.473383857244));
#1232=CARTESIAN_POINT('Ctrl Pts',(178.199456897967,-31.9744514224831,174.287373742984));
#1233=CARTESIAN_POINT('Ctrl Pts',(178.199999999999,-31.9916060013734,174.26901120868));
#1234=CARTESIAN_POINT('Ctrl Pts',(178.199999999999,-32.0086101433525,174.249999999998));
#1235=CARTESIAN_POINT('',(178.199999999999,-29.6502344993183,174.249999999998));
#1236=CARTESIAN_POINT('',(177.199999999999,-33.9669791585783,175.249999999998));
#1237=CARTESIAN_POINT('',(177.199999999999,-29.6502344993182,175.249999999998));
#1238=CARTESIAN_POINT('',(178.199999999999,-32.9669791585783,174.249999999998));
#1239=CARTESIAN_POINT('Origin',(177.199999999999,-33.9669791585782,174.249999999998));
#1240=CARTESIAN_POINT('',(178.199999999999,-29.6502344993183,174.249999999998));
#1241=CARTESIAN_POINT('Origin',(176.199999999999,-29.6502344993181,174.249999999998));
#1242=CARTESIAN_POINT('',(175.199999999999,-29.6502344993181,174.249999999998));
#1243=CARTESIAN_POINT('',(176.199999999999,-29.6502344993181,175.249999999998));
#1244=CARTESIAN_POINT('Origin',(180.699999844017,-33.9669791585786,174.249999999998));
#1245=CARTESIAN_POINT('',(186.199999688035,-32.9669791585791,174.249999999998));
#1246=CARTESIAN_POINT('',(180.699999844017,-32.9669791585786,174.249999999998));
#1247=CARTESIAN_POINT('',(186.199999999999,-33.9669791585791,175.249999999998));
#1248=CARTESIAN_POINT('',(180.699999844017,-33.9669791585786,175.249999999998));
#1249=CARTESIAN_POINT('Origin',(186.199999688035,-33.9669791585791,174.249999999998));
#1250=CARTESIAN_POINT('Origin',(175.199999999999,-27.9669791585744,175.249999999998));
#1251=CARTESIAN_POINT('Origin',(186.199999999998,-43.9669791585791,175.249999999997));
#1252=CARTESIAN_POINT('Origin',(175.199999999999,-32.5000005215492,175.249999999998));
#1253=CARTESIAN_POINT('',(171.699999999999,-32.5000005215485,163.850000000692));
#1254=CARTESIAN_POINT('',(171.699999999999,-32.5000005215488,172.149962977771));
#1255=CARTESIAN_POINT('',(171.699999999999,-32.5000005215485,163.849967328818));
#1256=CARTESIAN_POINT('',(171.699999999999,-32.5000005215488,172.149962977771));
#1257=CARTESIAN_POINT('',(175.200000000533,-32.5000005215488,163.849967328818));
#1258=CARTESIAN_POINT('',(175.199999999999,-32.5000005215488,163.849967328818));
#1259=CARTESIAN_POINT('',(175.199999999999,-32.5000005215488,163.850000000692));
#1260=CARTESIAN_POINT('',(175.199999999999,-32.5000005215492,175.549999999998));
#1261=CARTESIAN_POINT('',(175.199999999999,-32.5000005215492,175.549999999998));
#1262=CARTESIAN_POINT('Origin',(175.199999999999,-31.3334898400616,169.049925955545));
#1263=CARTESIAN_POINT('',(175.199999999999,-37.9669791585099,163.850178617127));
#1264=CARTESIAN_POINT('',(175.199999999999,-31.9168137911528,163.849980946888));
#1265=CARTESIAN_POINT('',(175.199999999999,-37.9669791585102,175.249999999997));
#1266=CARTESIAN_POINT('Origin',(175.199999999999,-37.9669791585102,175.249999999997));
#1267=CARTESIAN_POINT('',(175.199999999999,-37.9669791585099,163.850145945253));
#1268=CARTESIAN_POINT('',(175.199999999999,-37.9669791585102,175.249999999997));
#1269=CARTESIAN_POINT('',(176.980455544272,-37.9669791585078,163.850145945253));
#1270=CARTESIAN_POINT('',(175.200000000002,-37.9669791585099,163.850145945253));
#1271=CARTESIAN_POINT('',(176.980455542751,-37.9669791585078,163.850196438149));
#1272=CARTESIAN_POINT('',(176.980455542751,-37.9669791585082,175.249999999997));
#1273=CARTESIAN_POINT('',(176.980455542751,-37.9669791585082,175.249999999997));
#1274=CARTESIAN_POINT('Origin',(186.199999999998,-43.9669791585791,175.249999999997));
#1275=CARTESIAN_POINT('',(197.199999999998,-43.9669791585796,174.249999999997));
#1276=CARTESIAN_POINT('Origin',(186.199999999998,-43.9669791585791,174.249999999997));
#1277=CARTESIAN_POINT('Origin',(186.199999999998,-43.9669791585791,174.249999999997));
#1278=CARTESIAN_POINT('',(186.199999688035,-32.9669791585787,163.850047929632));
#1279=CARTESIAN_POINT('Origin',(186.199999999998,-43.9669791585787,163.850374648369));
#1280=CARTESIAN_POINT('',(186.199999688035,-32.9669791585791,175.249999999997));
#1281=CARTESIAN_POINT('',(186.199999688035,-32.9669791585791,175.249999999997));
#1282=CARTESIAN_POINT('Origin',(186.199999688035,-32.9669791585791,175.249999999997));
#1283=CARTESIAN_POINT('',(178.199999999999,-32.966979158578,163.850047929632));
#1284=CARTESIAN_POINT('',(180.699999844017,-32.9669791585782,163.850047929632));
#1285=CARTESIAN_POINT('',(178.199999999999,-32.9669791585783,172.149962977771));
#1286=CARTESIAN_POINT('Origin',(186.199999999998,-43.9669791585791,174.249999999997));
#1287=CARTESIAN_POINT('',(195.199999999998,-43.9669791585795,174.249999999997));
#1288=CARTESIAN_POINT('Origin',(196.199999999998,-43.9669791585795,174.249999999997));
#1289=CARTESIAN_POINT('Origin',(186.199999999998,-43.9669791585791,174.249999999997));
#1290=CARTESIAN_POINT('Origin',(186.199999999998,-43.9669791585791,175.249999999997));
#1291=CARTESIAN_POINT('',(186.199999999999,-34.9669791585787,163.850047929632));
#1292=CARTESIAN_POINT('',(195.199999999998,-43.9669791585791,163.850374648369));
#1293=CARTESIAN_POINT('Origin',(186.199999999998,-43.9669791585787,163.850374648369));
#1294=CARTESIAN_POINT('',(195.199999999998,-43.9669791585795,175.249999999997));
#1295=CARTESIAN_POINT('Origin',(186.199999999998,-43.9669791585787,163.850374648369));
#1296=CARTESIAN_POINT('Origin',(175.200000000001,-36.9669791585098,163.850145945253));
#1297=CARTESIAN_POINT('',(179.058571567716,-36.967011830379,162.850145945787));
#1298=CARTESIAN_POINT('',(176.199999999999,-36.9670118303823,162.850145945787));
#1299=CARTESIAN_POINT('',(175.200000000001,-36.9670118303835,162.850145945787));
#1300=CARTESIAN_POINT('Ctrl Pts',(179.058571571525,-36.967011830381,162.850145945787));
#1301=CARTESIAN_POINT('Ctrl Pts',(179.055030411373,-36.9684994151915,162.850145994389));
#1302=CARTESIAN_POINT('Ctrl Pts',(179.051489638325,-36.9699879437302,162.850149362382));
#1303=CARTESIAN_POINT('Ctrl Pts',(178.757337930134,-37.0937401574,162.850706036126));
#1304=CARTESIAN_POINT('Ctrl Pts',(178.462420628331,-37.2256018905709,162.873626038475));
#1305=CARTESIAN_POINT('Ctrl Pts',(177.922716104047,-37.4801149945551,162.981541536733));
#1306=CARTESIAN_POINT('Ctrl Pts',(177.700968859885,-37.590560657143,163.057306060376));
#1307=CARTESIAN_POINT('Ctrl Pts',(177.379575908347,-37.7546488907087,163.225515310465));
#1308=CARTESIAN_POINT('Ctrl Pts',(177.266673036762,-37.8139659333887,163.309007685762));
#1309=CARTESIAN_POINT('Ctrl Pts',(177.123714460999,-37.8898067946599,163.459130362645));
#1310=CARTESIAN_POINT('Ctrl Pts',(177.072922790175,-37.9170549715405,163.528024141941));
#1311=CARTESIAN_POINT('Ctrl Pts',(177.009446812679,-37.9512655464589,163.663691719323));
#1312=CARTESIAN_POINT('Ctrl Pts',(176.990843417556,-37.9613512826118,163.725695873267));
#1313=CARTESIAN_POINT('Ctrl Pts',(176.981545148959,-37.9663894291824,163.81055331108));
#1314=CARTESIAN_POINT('Ctrl Pts',(176.98045673872,-37.9669791585078,163.830319093211));
#1315=CARTESIAN_POINT('Ctrl Pts',(176.980455544272,-37.9669791585078,163.850145945253));
#1316=CARTESIAN_POINT('Origin',(176.199999999999,-36.9669791585087,163.850145945253));
#1317=CARTESIAN_POINT('Origin',(176.199999999999,-31.9168137911529,163.849980946888));
#1318=CARTESIAN_POINT('',(176.199999999999,-31.5000331934225,162.849967329352));
#1319=CARTESIAN_POINT('',(176.199999999999,-31.9168464630265,162.849980947422));
#1320=CARTESIAN_POINT('Origin',(176.199999999999,-31.5000005215488,163.849967328818));
#1321=CARTESIAN_POINT('Origin',(172.699999999999,-31.3668137917397,163.849962977358));
#1322=CARTESIAN_POINT('',(171.699999999999,-27.9673516227725,163.849851910559));
#1323=CARTESIAN_POINT('',(171.699999999999,-31.3668137917396,163.849962977358));
#1324=CARTESIAN_POINT('',(172.699999999999,-28.9673842941125,162.849884582967));
#1325=CARTESIAN_POINT('Origin',(172.699999999999,-28.9673516222388,163.849884582433));
#1326=CARTESIAN_POINT('',(172.699999999999,-31.5000331934222,162.849967329352));
#1327=CARTESIAN_POINT('',(172.699999999999,-31.3668464636133,162.849962977892));
#1328=CARTESIAN_POINT('Origin',(172.699999999999,-31.5000005215486,163.849967328818));
#1329=CARTESIAN_POINT('Origin',(175.199999999999,-31.5000005215488,163.849967328818));
#1330=CARTESIAN_POINT('',(175.199999999999,-31.5000331934224,162.849967329352));
#1331=CARTESIAN_POINT('Origin',(175.199999999999,-28.967351622239,163.849884582433));
#1332=CARTESIAN_POINT('',(178.199999999999,-27.967351622773,163.849851910559));
#1333=CARTESIAN_POINT('',(175.199999999999,-27.9673516227728,163.849851910559));
#1334=CARTESIAN_POINT('',(177.199999999999,-28.9673842941128,162.849884582967));
#1335=CARTESIAN_POINT('Origin',(177.199999999999,-28.9673516222392,163.849884582433));
#1336=CARTESIAN_POINT('',(175.199999999999,-28.9673842941127,162.849884582967));
#1337=CARTESIAN_POINT('Origin',(177.199999999999,-31.916813791153,163.849980946888));
#1338=CARTESIAN_POINT('',(178.199999999999,-32.0085957836694,163.849983945578));
#1339=CARTESIAN_POINT('',(178.199999999999,-29.3254213464448,163.849896281242));
#1340=CARTESIAN_POINT('Ctrl Pts',(178.199999999999,-32.0085957836694,163.849983945578));
#1341=CARTESIAN_POINT('Ctrl Pts',(178.199999999999,-31.9916084452178,163.830991981175));
#1342=CARTESIAN_POINT('Ctrl Pts',(178.19945803058,-31.9744711049281,163.812647528458));
#1343=CARTESIAN_POINT('Ctrl Pts',(178.189227316449,-31.7935846660459,163.626650615028));
#1344=CARTESIAN_POINT('Ctrl Pts',(178.137531968873,-31.5907186348376,163.486315090427));
#1345=CARTESIAN_POINT('Ctrl Pts',(178.040581948696,-31.1454865713539,163.298017754367));
#1346=CARTESIAN_POINT('Ctrl Pts',(178.000044911918,-30.9021267292918,163.250007682069));
#1347=CARTESIAN_POINT('Ctrl Pts',(178.000044911918,-30.6670281662247,163.250000000959));
#1348=CARTESIAN_POINT('Ctrl Pts',(178.000044911918,-30.4319296031576,163.249992319848));
#1349=CARTESIAN_POINT('Ctrl Pts',(178.040581948696,-30.188566624457,163.29798649));
#1350=CARTESIAN_POINT('Ctrl Pts',(178.137531968873,-29.7433222578703,163.486254732526));
#1351=CARTESIAN_POINT('Ctrl Pts',(178.189227316449,-29.540447057046,163.6265770008));
#1352=CARTESIAN_POINT('Ctrl Pts',(178.19945803058,-29.3595484648147,163.812562094036));
#1353=CARTESIAN_POINT('Ctrl Pts',(178.199999999999,-29.3424099258663,163.830905426896));
#1354=CARTESIAN_POINT('Ctrl Pts',(178.199999999999,-29.3254213464449,163.849896281242));
#1355=CARTESIAN_POINT('',(178.199999999999,-32.966979158578,163.850015257759));
#1356=CARTESIAN_POINT('',(178.199999999999,-31.916813791153,163.849980946888));
#1357=CARTESIAN_POINT('',(177.199999999999,-33.9670118304515,162.850047930166));
#1358=CARTESIAN_POINT('Origin',(177.199999999999,-33.9669791585779,163.850047929632));
#1359=CARTESIAN_POINT('',(177.199999999999,-31.9168464630266,162.849980947422));
#1360=CARTESIAN_POINT('',(178.199999999999,-31.916813791153,163.849980946888));
#1361=CARTESIAN_POINT('Origin',(180.699999844017,-33.9669791585782,163.850047929632));
#1362=CARTESIAN_POINT('',(186.199999999999,-33.9670118304524,162.850047930166));
#1363=CARTESIAN_POINT('',(180.699999844017,-33.9670118304519,162.850047930166));
#1364=CARTESIAN_POINT('',(178.199999999999,-32.9669791585783,172.149962977771));
#1365=CARTESIAN_POINT('Origin',(186.199999999999,-33.9669791585787,163.850047929632));
#1366=CARTESIAN_POINT('Ctrl Pts',(186.199999716394,-33.9670118304524,162.850047930166));
#1367=CARTESIAN_POINT('Ctrl Pts',(187.506615551005,-33.9670117933962,162.850047930165));
#1368=CARTESIAN_POINT('Ctrl Pts',(190.118802505326,-34.4853778038547,162.850064866154));
#1369=CARTESIAN_POINT('Ctrl Pts',(193.446074912216,-36.704014835626,162.850137353182));
#1370=CARTESIAN_POINT('Ctrl Pts',(195.66821988483,-40.0197261703464,162.850245683684));
#1371=CARTESIAN_POINT('Ctrl Pts',(196.554162610934,-44.3792065497005,162.850388116077));
#1372=CARTESIAN_POINT('Ctrl Pts',(195.511546442383,-48.2890512304547,162.850515858028));
#1373=CARTESIAN_POINT('Ctrl Pts',(192.324732899705,-52.5029841706396,162.850653535113));
#1374=CARTESIAN_POINT('Ctrl Pts',(187.574458902856,-54.497167329815,162.850718688813));
#1375=CARTESIAN_POINT('Ctrl Pts',(183.313713592627,-53.6539471599014,162.85069113923));
#1376=CARTESIAN_POINT('Ctrl Pts',(180.944104137432,-52.5553429491765,162.850655245772));
#1377=CARTESIAN_POINT('Ctrl Pts',(178.8093421151,-50.9950515308314,162.850604268128));
#1378=CARTESIAN_POINT('Ctrl Pts',(176.752902747043,-47.9676247179127,162.850505356422));
#1379=CARTESIAN_POINT('Ctrl Pts',(175.939900763984,-44.0543815380097,162.850377503435));
#1380=CARTESIAN_POINT('Ctrl Pts',(176.685503331597,-40.129038140564,162.850249255111));
#1381=CARTESIAN_POINT('Ctrl Pts',(178.14394048729,-37.9001221770171,162.85017643225));
#1382=CARTESIAN_POINT('Ctrl Pts',(179.058571571527,-36.967011830379,162.850145945787));
#1383=CARTESIAN_POINT('Ctrl Pts',(186.199999707908,-33.6678063070561,162.850038154561));
#1384=CARTESIAN_POINT('Ctrl Pts',(187.545879612845,-33.6678062688864,162.85003815456));
#1385=CARTESIAN_POINT('Ctrl Pts',(190.236204061557,-34.2014502101313,162.850055543773));
#1386=CARTESIAN_POINT('Ctrl Pts',(193.663241198246,-36.4864394700079,162.850130192385));
#1387=CARTESIAN_POINT('Ctrl Pts',(195.951890198657,-39.9013591158778,162.85024176421));
#1388=CARTESIAN_POINT('Ctrl Pts',(196.864478503707,-44.3914729912235,162.850388503612));
#1389=CARTESIAN_POINT('Ctrl Pts',(195.790578378428,-48.4184085688093,162.850520092899));
#1390=CARTESIAN_POINT('Ctrl Pts',(192.508235558785,-52.7587931933122,162.850661975476));
#1391=CARTESIAN_POINT('Ctrl Pts',(187.61570046588,-54.812590208512,162.850729067136));
#1392=CARTESIAN_POINT('Ctrl Pts',(183.227260920148,-53.944135391755,162.850700691761));
#1393=CARTESIAN_POINT('Ctrl Pts',(180.786517579371,-52.8125387425419,162.850663695942));
#1394=CARTESIAN_POINT('Ctrl Pts',(178.587727265813,-51.2054595816521,162.85061116877));
#1395=CARTESIAN_POINT('Ctrl Pts',(176.469878943155,-48.087529867044,162.85050931505));
#1396=CARTESIAN_POINT('Ctrl Pts',(175.632462121112,-44.0569422897904,162.850377576471));
#1397=CARTESIAN_POINT('Ctrl Pts',(176.400577033254,-40.014178597166,162.850245497086));
#1398=CARTESIAN_POINT('Ctrl Pts',(177.902782086267,-37.7187200096624,162.850170529432));
#1399=CARTESIAN_POINT('Ctrl Pts',(178.844897421563,-36.7575692709314,162.850139102906));
#1400=CARTESIAN_POINT('Ctrl Pts',(186.199999693224,-33.1500270609777,163.101361432466));
#1401=CARTESIAN_POINT('Ctrl Pts',(187.613323607875,-33.1500270208952,163.101361432464));
#1402=CARTESIAN_POINT('Ctrl Pts',(190.438924889417,-33.710797205394,163.101379189349));
#1403=CARTESIAN_POINT('Ctrl Pts',(194.037975555778,-36.1107018329914,163.101455139645));
#1404=CARTESIAN_POINT('Ctrl Pts',(196.441653963514,-39.6972999838395,163.101568643388));
#1405=CARTESIAN_POINT('Ctrl Pts',(197.399934644287,-44.4128897365661,163.101717867124));
#1406=CARTESIAN_POINT('Ctrl Pts',(196.272154741696,-48.6421239685766,163.101851703288));
#1407=CARTESIAN_POINT('Ctrl Pts',(192.825030309616,-53.200222521397,163.101995935093));
#1408=CARTESIAN_POINT('Ctrl Pts',(187.686716658146,-55.3573267115467,163.102064202458));
#1409=CARTESIAN_POINT('Ctrl Pts',(183.077942877226,-54.4452234173472,163.102035337729));
#1410=CARTESIAN_POINT('Ctrl Pts',(180.514803460954,-53.2568996108111,163.10199773678));
#1411=CARTESIAN_POINT('Ctrl Pts',(178.205677789936,-51.5691674585685,163.101944330421));
#1412=CARTESIAN_POINT('Ctrl Pts',(175.981205153017,-48.2944004094456,163.101840691622));
#1413=CARTESIAN_POINT('Ctrl Pts',(175.101798087068,-44.0615244687156,163.101706747005));
#1414=CARTESIAN_POINT('Ctrl Pts',(175.908258913111,-39.815487420787,163.10157237301));
#1415=CARTESIAN_POINT('Ctrl Pts',(177.485811956797,-37.4044392688636,163.101496064831));
#1416=CARTESIAN_POINT('Ctrl Pts',(178.475137146712,-36.3951234955474,163.101464128811));
#1417=CARTESIAN_POINT('Ctrl Pts',(186.199999688033,-32.9669791585787,163.625643786965));
#1418=CARTESIAN_POINT('Ctrl Pts',(187.637384267613,-32.9669791178138,163.625643786964));
#1419=CARTESIAN_POINT('Ctrl Pts',(190.510778925205,-33.5370369349394,163.625660972152));
#1420=CARTESIAN_POINT('Ctrl Pts',(194.170912644138,-35.9775206777199,163.625734495745));
#1421=CARTESIAN_POINT('Ctrl Pts',(196.615282611116,-39.6248060263693,163.625844373872));
#1422=CARTESIAN_POINT('Ctrl Pts',(197.589904770403,-44.4203592975618,163.62598883489));
#1423=CARTESIAN_POINT('Ctrl Pts',(196.44296991477,-48.7212558019894,163.626118398269));
#1424=CARTESIAN_POINT('Ctrl Pts',(192.937361612562,-53.3568128653531,163.626258030423));
#1425=CARTESIAN_POINT('Ctrl Pts',(187.711978171619,-55.5503802670646,163.626324116374));
#1426=CARTESIAN_POINT('Ctrl Pts',(183.025026273184,-54.6228352245446,163.626296173457));
#1427=CARTESIAN_POINT('Ctrl Pts',(180.418308895376,-53.4142946094053,163.626259771113));
#1428=CARTESIAN_POINT('Ctrl Pts',(178.069972934924,-51.6979097817006,163.626208068541));
#1429=CARTESIAN_POINT('Ctrl Pts',(175.807964096,-48.3677901034982,163.626107741506));
#1430=CARTESIAN_POINT('Ctrl Pts',(174.913604242444,-44.0630599070998,163.625978070226));
#1431=CARTESIAN_POINT('Ctrl Pts',(175.733893590921,-39.7451977523304,163.625847988932));
#1432=CARTESIAN_POINT('Ctrl Pts',(177.33825655413,-37.2934810837927,163.625774121097));
#1433=CARTESIAN_POINT('Ctrl Pts',(178.344425063584,-36.2669828976436,163.625743202871));
#1434=CARTESIAN_POINT('Ctrl Pts',(186.199999688033,-32.9669791585787,163.850047929632));
#1435=CARTESIAN_POINT('Ctrl Pts',(187.637277106106,-32.9669791178169,163.850047929631));
#1436=CARTESIAN_POINT('Ctrl Pts',(190.510682755858,-33.5371817293212,163.85006486562));
#1437=CARTESIAN_POINT('Ctrl Pts',(194.170682403438,-35.9776824642697,163.850137352649));
#1438=CARTESIAN_POINT('Ctrl Pts',(196.615041873314,-39.6249649324622,163.850245683151));
#1439=CARTESIAN_POINT('Ctrl Pts',(197.589578872028,-44.4203933497516,163.850388115543));
#1440=CARTESIAN_POINT('Ctrl Pts',(196.442701086621,-48.7212224985813,163.850515857494));
#1441=CARTESIAN_POINT('Ctrl Pts',(192.937206189676,-53.3565487327847,163.850653534579));
#1442=CARTESIAN_POINT('Ctrl Pts',(187.711904793142,-55.5501502078776,163.850718688279));
#1443=CARTESIAN_POINT('Ctrl Pts',(183.025084951889,-54.6226080209726,163.850691138696));
#1444=CARTESIAN_POINT('Ctrl Pts',(180.418514551176,-53.4141433891753,163.850655245238));
#1445=CARTESIAN_POINT('Ctrl Pts',(178.070276326611,-51.6978228289956,163.850604267594));
#1446=CARTESIAN_POINT('Ctrl Pts',(175.808193021748,-48.3676533347851,163.850505355888));
#1447=CARTESIAN_POINT('Ctrl Pts',(174.913890840383,-44.0630858368918,163.850377502901));
#1448=CARTESIAN_POINT('Ctrl Pts',(175.734053664757,-39.7452080997015,163.850249254577));
#1449=CARTESIAN_POINT('Ctrl Pts',(177.338334536019,-37.2934005397999,163.850176431717));
#1450=CARTESIAN_POINT('Ctrl Pts',(178.34442872868,-36.266979158498,163.850145945253));
#1451=CARTESIAN_POINT('Origin',(186.199999999998,-43.9670118304524,162.850374648903));
#1452=CARTESIAN_POINT('Origin',(175.199999999999,-32.5000005215487,162.850000000158));
#1453=CARTESIAN_POINT('Origin',(186.199999999998,-43.9670118304524,162.850374648903));
#1454=CARTESIAN_POINT('Origin',(171.699999999999,-30.2334898400613,169.049925955545));
#1455=CARTESIAN_POINT('',(171.699999999999,-27.9672830118377,165.949851911053));
#1456=CARTESIAN_POINT('',(171.699999999999,-29.8169693568516,165.049999999998));
#1457=CARTESIAN_POINT('Origin',(171.699999999999,-30.6669693568516,165.049999999998));
#1458=CARTESIAN_POINT('',(171.699999999999,-29.8169693568519,173.049999999998));
#1459=CARTESIAN_POINT('Origin',(171.699999999999,-30.6669693568519,173.049999999998));
#1460=CARTESIAN_POINT('Origin',(175.199999999999,-27.9673842946464,162.849851911093));
#1461=CARTESIAN_POINT('',(178.199999999999,-27.9669791585747,175.249999999998));
#1462=CARTESIAN_POINT('Origin',(175.199999999999,-30.6669693568519,165.049999999998));
#1463=CARTESIAN_POINT('',(178.199999999999,-28.8669693568521,165.049999999998));
#1464=CARTESIAN_POINT('Origin',(178.199999999999,-30.6669693568521,165.049999999998));
#1465=CARTESIAN_POINT('',(175.199999999999,-28.8669693568519,165.049999999998));
#1466=CARTESIAN_POINT('',(175.199999999999,-28.8669693568519,165.049999999998));
#1467=CARTESIAN_POINT('Origin',(175.199999999999,-30.6669693568519,165.049999999998));
#1468=CARTESIAN_POINT('Origin',(178.199999999999,-30.6669693568521,165.049999999998));
#1469=CARTESIAN_POINT('Origin',(178.199999999999,-31.3334898400618,169.049925955545));
#1470=CARTESIAN_POINT('',(178.199999999999,-28.8669693568524,173.049999999998));
#1471=CARTESIAN_POINT('Origin',(178.199999999999,-30.6669693568524,173.049999999998));
#1472=CARTESIAN_POINT('Origin',(178.199999999999,-30.6669693568524,173.049999999998));
#1473=CARTESIAN_POINT('Ctrl Pts',(186.199999999999,-33.9670118304524,162.850047930166));
#1474=CARTESIAN_POINT('Ctrl Pts',(184.704003498289,-33.9670118304523,162.850047930166));
#1475=CARTESIAN_POINT('Ctrl Pts',(181.71292929371,-34.6496675407773,162.850070233807));
#1476=CARTESIAN_POINT('Ctrl Pts',(178.115524611865,-37.5189069307566,162.850163977234));
#1477=CARTESIAN_POINT('Ctrl Pts',(176.117367630551,-41.6663781938857,162.850299482891));
#1478=CARTESIAN_POINT('Ctrl Pts',(176.119533970656,-45.7562450341561,162.850433106504));
#1479=CARTESIAN_POINT('Ctrl Pts',(177.77511856946,-49.9827130771458,162.850571193134));
#1480=CARTESIAN_POINT('Ctrl Pts',(181.590046151906,-53.5396218976854,162.85068740401));
#1481=CARTESIAN_POINT('Ctrl Pts',(186.749520868363,-54.3045660553653,162.850712396168));
#1482=CARTESIAN_POINT('Ctrl Pts',(191.086127408635,-52.9637778898021,162.850668590107));
#1483=CARTESIAN_POINT('Ctrl Pts',(194.285048050932,-50.4155196746291,162.850585333736));
#1484=CARTESIAN_POINT('Ctrl Pts',(196.281755425825,-46.2672588985198,162.850449802284));
#1485=CARTESIAN_POINT('Ctrl Pts',(196.281915319359,-41.6659935116521,162.850299470323));
#1486=CARTESIAN_POINT('Ctrl Pts',(194.286389246339,-37.5184440175988,162.85016396211));
#1487=CARTESIAN_POINT('Ctrl Pts',(190.686856914635,-34.6495648514218,162.850070230452));
#1488=CARTESIAN_POINT('Ctrl Pts',(187.695996501708,-33.9670118304525,162.850047930166));
#1489=CARTESIAN_POINT('Ctrl Pts',(186.199999999999,-33.9670118304524,162.850047930166));
#1490=CARTESIAN_POINT('Ctrl Pts',(186.199999999999,-34.2662049074205,162.850057705364));
#1491=CARTESIAN_POINT('Ctrl Pts',(184.748956593659,-34.2662049074205,162.850057705364));
#1492=CARTESIAN_POINT('Ctrl Pts',(181.8473939367,-34.9286850493109,162.850079399001));
#1493=CARTESIAN_POINT('Ctrl Pts',(178.357889582199,-37.7120570943854,162.850170332443));
#1494=CARTESIAN_POINT('Ctrl Pts',(176.419517147906,-41.7353520601564,162.85030176388));
#1495=CARTESIAN_POINT('Ctrl Pts',(176.421701158518,-45.7026047469725,162.850431332871));
#1496=CARTESIAN_POINT('Ctrl Pts',(178.027521726943,-49.802266494299,162.850565207532));
#1497=CARTESIAN_POINT('Ctrl Pts',(181.72827207058,-53.2525588473177,162.850677897409));
#1498=CARTESIAN_POINT('Ctrl Pts',(186.73319521684,-53.9947206481284,162.850702166154));
#1499=CARTESIAN_POINT('Ctrl Pts',(190.939614222397,-52.6940951381129,162.850659681118));
#1500=CARTESIAN_POINT('Ctrl Pts',(194.0426671956,-50.222289707746,162.85057896343));
#1501=CARTESIAN_POINT('Ctrl Pts',(195.979478482984,-46.1982609528301,162.850447513401));
#1502=CARTESIAN_POINT('Ctrl Pts',(195.979714024565,-41.734807850215,162.850301712264));
#1503=CARTESIAN_POINT('Ctrl Pts',(194.044001903112,-37.7116519664512,162.850170327896));
#1504=CARTESIAN_POINT('Ctrl Pts',(190.552379371041,-34.9285445235836,162.850079386317));
#1505=CARTESIAN_POINT('Ctrl Pts',(187.651043406338,-34.2662049074206,162.850057705364));
#1506=CARTESIAN_POINT('Ctrl Pts',(186.199999999999,-34.2662049074205,162.850057705364));
#1507=CARTESIAN_POINT('Ctrl Pts',(186.199999999998,-34.7839473302037,163.101392491881));
#1508=CARTESIAN_POINT('Ctrl Pts',(184.826172897968,-34.7839473302037,163.101392491881));
#1509=CARTESIAN_POINT('Ctrl Pts',(182.079447841502,-35.4107773523462,163.10141371755));
#1510=CARTESIAN_POINT('Ctrl Pts',(178.775872888542,-38.0456246049142,163.101502985851));
#1511=CARTESIAN_POINT('Ctrl Pts',(176.940963019481,-41.8542905377483,163.101632025406));
#1512=CARTESIAN_POINT('Ctrl Pts',(176.94294106036,-45.6100886248559,163.101759280924));
#1513=CARTESIAN_POINT('Ctrl Pts',(178.463330519583,-49.4913468610395,163.101890791587));
#1514=CARTESIAN_POINT('Ctrl Pts',(181.966601069539,-52.7577048397711,163.102001462753));
#1515=CARTESIAN_POINT('Ctrl Pts',(186.7045989633,-53.4601286645959,163.102025255877));
#1516=CARTESIAN_POINT('Ctrl Pts',(190.687016544027,-52.2288716158195,163.101983539457));
#1517=CARTESIAN_POINT('Ctrl Pts',(193.624632645344,-49.8887550043696,163.101904248218));
#1518=CARTESIAN_POINT('Ctrl Pts',(195.45825852086,-46.0793705818943,163.101775182992));
#1519=CARTESIAN_POINT('Ctrl Pts',(195.458395552387,-41.853977053333,163.101632022361));
#1520=CARTESIAN_POINT('Ctrl Pts',(193.625876498436,-38.0451893265231,163.101502969159));
#1521=CARTESIAN_POINT('Ctrl Pts',(190.320360323609,-35.4106925642635,163.101413716489));
#1522=CARTESIAN_POINT('Ctrl Pts',(187.573827102029,-34.7839473302038,163.101392491881));
#1523=CARTESIAN_POINT('Ctrl Pts',(186.199999999999,-34.7839473302037,163.101392491881));
#1524=CARTESIAN_POINT('Ctrl Pts',(186.199999999999,-34.9669791585787,163.625653121786));
#1525=CARTESIAN_POINT('Ctrl Pts',(184.853723627624,-34.9669791585787,163.625653121786));
#1526=CARTESIAN_POINT('Ctrl Pts',(182.161767623332,-35.5815261765473,163.625675099067));
#1527=CARTESIAN_POINT('Ctrl Pts',(178.924269937995,-38.1638308024165,163.625767504076));
#1528=CARTESIAN_POINT('Ctrl Pts',(177.125929613375,-41.8965034522796,163.625901076689));
#1529=CARTESIAN_POINT('Ctrl Pts',(177.127932530917,-45.5772296128028,163.626032799055));
#1530=CARTESIAN_POINT('Ctrl Pts',(178.617816259539,-49.380829915029,163.626168923857));
#1531=CARTESIAN_POINT('Ctrl Pts',(182.051229080108,-52.5819241953932,163.626283480442));
#1532=CARTESIAN_POINT('Ctrl Pts',(186.694641248285,-53.2704390012882,163.626308112249));
#1533=CARTESIAN_POINT('Ctrl Pts',(190.597312103574,-52.0637596431869,163.626264930627));
#1534=CARTESIAN_POINT('Ctrl Pts',(193.476242424124,-49.770459787166,163.626182857246));
#1535=CARTESIAN_POINT('Ctrl Pts',(195.273183107301,-46.0370993660858,163.626049258451));
#1536=CARTESIAN_POINT('Ctrl Pts',(195.273379133058,-41.8960500062805,163.625901069636));
#1537=CARTESIAN_POINT('Ctrl Pts',(193.477474407712,-38.1634417319038,163.625767487798));
#1538=CARTESIAN_POINT('Ctrl Pts',(190.238027866841,-35.5814081082034,163.625675097036));
#1539=CARTESIAN_POINT('Ctrl Pts',(187.546276372373,-34.9669791585788,163.625653121786));
#1540=CARTESIAN_POINT('Ctrl Pts',(186.199999999999,-34.9669791585787,163.625653121786));
#1541=CARTESIAN_POINT('Ctrl Pts',(186.199999999999,-34.9669791585787,163.850047929632));
#1542=CARTESIAN_POINT('Ctrl Pts',(184.85360314846,-34.9669791585787,163.850047929632));
#1543=CARTESIAN_POINT('Ctrl Pts',(182.161636364339,-35.5813692978711,163.850070233273));
#1544=CARTESIAN_POINT('Ctrl Pts',(178.923972150679,-38.1636847488525,163.8501639767));
#1545=CARTESIAN_POINT('Ctrl Pts',(177.125630867495,-41.8964088856687,163.850299482357));
#1546=CARTESIAN_POINT('Ctrl Pts',(177.12758057359,-45.5772890419121,163.85043310597));
#1547=CARTESIAN_POINT('Ctrl Pts',(178.617606712514,-49.3811102806028,163.8505711926));
#1548=CARTESIAN_POINT('Ctrl Pts',(182.051041536715,-52.5823282190885,163.850687403476));
#1549=CARTESIAN_POINT('Ctrl Pts',(186.694568781527,-53.2707779610003,163.850712395635));
#1550=CARTESIAN_POINT('Ctrl Pts',(190.597514667772,-52.0640686119935,163.850668589573));
#1551=CARTESIAN_POINT('Ctrl Pts',(193.476543245839,-49.7706362183377,163.850585333203));
#1552=CARTESIAN_POINT('Ctrl Pts',(195.273579883242,-46.0372015198394,163.850449801751));
#1553=CARTESIAN_POINT('Ctrl Pts',(195.273723787423,-41.8960626716585,163.850299469789));
#1554=CARTESIAN_POINT('Ctrl Pts',(193.477750321705,-38.1632681270105,163.850163961576));
#1555=CARTESIAN_POINT('Ctrl Pts',(190.238171223171,-35.5812768774512,163.850070229918));
#1556=CARTESIAN_POINT('Ctrl Pts',(187.546396851537,-34.9669791585788,163.850047929632));
#1557=CARTESIAN_POINT('Ctrl Pts',(186.199999999999,-34.9669791585787,163.850047929632));
#1558=CARTESIAN_POINT('Origin',(186.199999999999,-33.9669791585787,163.850047929632));
#1559=CARTESIAN_POINT('Origin',(175.199999999999,-30.6669693568521,173.049999999998));
#1560=CARTESIAN_POINT('',(175.199999999999,-28.8669693568522,173.049999999998));
#1561=CARTESIAN_POINT('',(175.199999999999,-28.8669693568522,173.049999999998));
#1562=CARTESIAN_POINT('Origin',(175.199999999999,-30.6669693568521,173.049999999998));
#1563=CARTESIAN_POINT('Origin',(175.199999999999,-30.2334898400616,169.049925955545));
#1564=CARTESIAN_POINT('',(175.199999999999,-29.8169693568519,165.049999999998));
#1565=CARTESIAN_POINT('Origin',(175.199999999999,-30.6669693568519,165.049999999998));
#1566=CARTESIAN_POINT('Origin',(175.199999999999,-30.6669693568519,165.049999999998));
#1567=CARTESIAN_POINT('',(175.199999999999,-29.8169693568519,165.049999999998));
#1568=CARTESIAN_POINT('Origin',(175.199999999999,-30.6669693568521,173.049999999998));
#1569=CARTESIAN_POINT('',(175.199999999999,-29.8169693568522,173.049999999998));
#1570=CARTESIAN_POINT('',(175.199999999999,-29.8169693568522,173.049999999998));
#1571=CARTESIAN_POINT('Origin',(175.199999999999,-30.6669693568521,173.049999999998));
#1572=CARTESIAN_POINT('Origin',(175.199999999999,-30.2334898400616,169.049925955545));
#1573=UNCERTAINTY_MEASURE_WITH_UNIT(LENGTH_MEASURE(0.01),#1577,
'DISTANCE_ACCURACY_VALUE',
'Maximum model space distance between geometric entities at asserted c
onnectivities');
#1574=UNCERTAINTY_MEASURE_WITH_UNIT(LENGTH_MEASURE(0.01),#1577,
'DISTANCE_ACCURACY_VALUE',
'Maximum model space distance between geometric entities at asserted c
onnectivities');
#1575=(
GEOMETRIC_REPRESENTATION_CONTEXT(3)
GLOBAL_UNCERTAINTY_ASSIGNED_CONTEXT((#1573))
GLOBAL_UNIT_ASSIGNED_CONTEXT((#1577,#1579,#1580))
REPRESENTATION_CONTEXT('','3D')
);
#1576=(
GEOMETRIC_REPRESENTATION_CONTEXT(3)
GLOBAL_UNCERTAINTY_ASSIGNED_CONTEXT((#1574))
GLOBAL_UNIT_ASSIGNED_CONTEXT((#1577,#1579,#1580))
REPRESENTATION_CONTEXT('','3D')
);
#1577=(
LENGTH_UNIT()
NAMED_UNIT(*)
SI_UNIT(.MILLI.,.METRE.)
);
#1578=(
LENGTH_UNIT()
NAMED_UNIT(*)
SI_UNIT($,.METRE.)
);
#1579=(
NAMED_UNIT(*)
PLANE_ANGLE_UNIT()
SI_UNIT($,.RADIAN.)
);
#1580=(
NAMED_UNIT(*)
SI_UNIT($,.STERADIAN.)
SOLID_ANGLE_UNIT()
);
#1581=SHAPE_DEFINITION_REPRESENTATION(#1582,#1583);
#1582=PRODUCT_DEFINITION_SHAPE('',$,#1585);
#1583=SHAPE_REPRESENTATION('',(#806),#1575);
#1584=PRODUCT_DEFINITION_CONTEXT('part definition',#1589,'design');
#1585=PRODUCT_DEFINITION('finger-right','finger-right',#1586,#1584);
#1586=PRODUCT_DEFINITION_FORMATION('',$,#1591);
#1587=PRODUCT_RELATED_PRODUCT_CATEGORY('finger-right','finger-right',(#1591));
#1588=APPLICATION_PROTOCOL_DEFINITION('international standard',
'automotive_design',2009,#1589);
#1589=APPLICATION_CONTEXT(
'Core Data for Automotive Mechanical Design Process');
#1590=PRODUCT_CONTEXT('part definition',#1589,'mechanical');
#1591=PRODUCT('finger-right','finger-right',$,(#1590));
#1592=PRESENTATION_STYLE_ASSIGNMENT((#1593));
#1593=SURFACE_STYLE_USAGE(.BOTH.,#1594);
#1594=SURFACE_SIDE_STYLE('',(#1595));
#1595=SURFACE_STYLE_FILL_AREA(#1596);
#1596=FILL_AREA_STYLE('Nylon 6-6 (White)',(#1597));
#1597=FILL_AREA_STYLE_COLOUR('Nylon 6-6 (White)',#1598);
#1598=COLOUR_RGB('Nylon 6-6 (White)',0.972549019607843,0.968627450980392,
0.929411764705882);
ENDSEC;
END-ISO-10303-21;
