ISO-10303-21;
HEADER;
/* Generated by software containing ST-Developer
 * from STEP Tools, Inc. (www.steptools.com) 
 */

FILE_DESCRIPTION(
/* description */ (''),
/* implementation_level */ '2;1');

FILE_NAME(
/* name */ 'J1-case.step',
/* time_stamp */ '2026-05-18T20:37:22+02:00',
/* author */ (''),
/* organization */ (''),
/* preprocessor_version */ 'ST-DEVELOPER v20.1',
/* originating_system */ 'Autodesk Translation Framework v15.8.0.0',
/* authorisation */ '');

FILE_SCHEMA (('AUTOMOTIVE_DESIGN { 1 0 10303 214 3 1 1 }'));
ENDSEC;

DATA;
#10=MECHANICAL_DESIGN_GEOMETRIC_PRESENTATION_REPRESENTATION('',(#13),#1754);
#11=SHAPE_REPRESENTATION_RELATIONSHIP('SRR','None',#1761,#12);
#12=ADVANCED_BREP_SHAPE_REPRESENTATION('',(#14),#1753);
#13=STYLED_ITEM('',(#1770),#14);
#14=MANIFOLD_SOLID_BREP('case',#1058);
#15=FACE_BOUND('',#134,.T.);
#16=FACE_BOUND('',#151,.T.);
#17=FACE_BOUND('',#158,.T.);
#18=FACE_BOUND('',#161,.T.);
#19=FACE_BOUND('',#165,.T.);
#20=FACE_BOUND('',#170,.T.);
#21=FACE_BOUND('',#171,.T.);
#22=FACE_BOUND('',#172,.T.);
#23=FACE_BOUND('',#173,.T.);
#24=FACE_BOUND('',#174,.T.);
#25=FACE_BOUND('',#180,.T.);
#26=FACE_BOUND('',#185,.T.);
#27=FACE_BOUND('',#188,.T.);
#28=FACE_BOUND('',#189,.T.);
#29=FACE_BOUND('',#191,.T.);
#30=FACE_BOUND('',#192,.T.);
#31=PLANE('',#1076);
#32=PLANE('',#1080);
#33=PLANE('',#1084);
#34=PLANE('',#1085);
#35=PLANE('',#1090);
#36=PLANE('',#1098);
#37=PLANE('',#1099);
#38=PLANE('',#1100);
#39=PLANE('',#1101);
#40=PLANE('',#1102);
#41=PLANE('',#1103);
#42=PLANE('',#1104);
#43=PLANE('',#1105);
#44=PLANE('',#1106);
#45=PLANE('',#1107);
#46=PLANE('',#1108);
#47=PLANE('',#1109);
#48=PLANE('',#1110);
#49=PLANE('',#1111);
#50=PLANE('',#1114);
#51=PLANE('',#1124);
#52=PLANE('',#1128);
#53=PLANE('',#1133);
#54=PLANE('',#1139);
#55=PLANE('',#1140);
#56=PLANE('',#1141);
#57=PLANE('',#1142);
#58=PLANE('',#1143);
#59=PLANE('',#1144);
#60=PLANE('',#1145);
#61=PLANE('',#1146);
#62=PLANE('',#1147);
#63=PLANE('',#1148);
#64=PLANE('',#1149);
#65=PLANE('',#1150);
#66=PLANE('',#1151);
#67=PLANE('',#1152);
#68=PLANE('',#1153);
#69=PLANE('',#1154);
#70=PLANE('',#1155);
#71=PLANE('',#1156);
#72=FACE_OUTER_BOUND('',#125,.T.);
#73=FACE_OUTER_BOUND('',#126,.T.);
#74=FACE_OUTER_BOUND('',#127,.T.);
#75=FACE_OUTER_BOUND('',#128,.T.);
#76=FACE_OUTER_BOUND('',#129,.T.);
#77=FACE_OUTER_BOUND('',#130,.T.);
#78=FACE_OUTER_BOUND('',#131,.T.);
#79=FACE_OUTER_BOUND('',#132,.T.);
#80=FACE_OUTER_BOUND('',#133,.T.);
#81=FACE_OUTER_BOUND('',#135,.T.);
#82=FACE_OUTER_BOUND('',#136,.T.);
#83=FACE_OUTER_BOUND('',#137,.T.);
#84=FACE_OUTER_BOUND('',#138,.T.);
#85=FACE_OUTER_BOUND('',#139,.T.);
#86=FACE_OUTER_BOUND('',#140,.T.);
#87=FACE_OUTER_BOUND('',#141,.T.);
#88=FACE_OUTER_BOUND('',#142,.T.);
#89=FACE_OUTER_BOUND('',#143,.T.);
#90=FACE_OUTER_BOUND('',#144,.T.);
#91=FACE_OUTER_BOUND('',#145,.T.);
#92=FACE_OUTER_BOUND('',#146,.T.);
#93=FACE_OUTER_BOUND('',#147,.T.);
#94=FACE_OUTER_BOUND('',#148,.T.);
#95=FACE_OUTER_BOUND('',#149,.T.);
#96=FACE_OUTER_BOUND('',#150,.T.);
#97=FACE_OUTER_BOUND('',#152,.T.);
#98=FACE_OUTER_BOUND('',#153,.T.);
#99=FACE_OUTER_BOUND('',#154,.T.);
#100=FACE_OUTER_BOUND('',#155,.T.);
#101=FACE_OUTER_BOUND('',#156,.T.);
#102=FACE_OUTER_BOUND('',#157,.T.);
#103=FACE_OUTER_BOUND('',#159,.T.);
#104=FACE_OUTER_BOUND('',#160,.T.);
#105=FACE_OUTER_BOUND('',#162,.T.);
#106=FACE_OUTER_BOUND('',#163,.T.);
#107=FACE_OUTER_BOUND('',#164,.T.);
#108=FACE_OUTER_BOUND('',#166,.T.);
#109=FACE_OUTER_BOUND('',#167,.T.);
#110=FACE_OUTER_BOUND('',#168,.T.);
#111=FACE_OUTER_BOUND('',#169,.T.);
#112=FACE_OUTER_BOUND('',#175,.T.);
#113=FACE_OUTER_BOUND('',#176,.T.);
#114=FACE_OUTER_BOUND('',#177,.T.);
#115=FACE_OUTER_BOUND('',#178,.T.);
#116=FACE_OUTER_BOUND('',#179,.T.);
#117=FACE_OUTER_BOUND('',#181,.T.);
#118=FACE_OUTER_BOUND('',#182,.T.);
#119=FACE_OUTER_BOUND('',#183,.T.);
#120=FACE_OUTER_BOUND('',#184,.T.);
#121=FACE_OUTER_BOUND('',#186,.T.);
#122=FACE_OUTER_BOUND('',#187,.T.);
#123=FACE_OUTER_BOUND('',#190,.T.);
#124=FACE_OUTER_BOUND('',#193,.T.);
#125=EDGE_LOOP('',(#699,#700,#701,#702,#703,#704,#705));
#126=EDGE_LOOP('',(#706,#707,#708,#709));
#127=EDGE_LOOP('',(#710,#711,#712,#713));
#128=EDGE_LOOP('',(#714));
#129=EDGE_LOOP('',(#715,#716,#717,#718));
#130=EDGE_LOOP('',(#719));
#131=EDGE_LOOP('',(#720,#721,#722,#723));
#132=EDGE_LOOP('',(#724,#725,#726,#727,#728,#729,#730));
#133=EDGE_LOOP('',(#731,#732,#733,#734));
#134=EDGE_LOOP('',(#735));
#135=EDGE_LOOP('',(#736,#737,#738,#739,#740,#741,#742));
#136=EDGE_LOOP('',(#743,#744,#745));
#137=EDGE_LOOP('',(#746,#747,#748,#749));
#138=EDGE_LOOP('',(#750,#751,#752,#753));
#139=EDGE_LOOP('',(#754,#755,#756));
#140=EDGE_LOOP('',(#757,#758,#759,#760,#761,#762,#763,#764));
#141=EDGE_LOOP('',(#765,#766,#767,#768,#769,#770,#771,#772));
#142=EDGE_LOOP('',(#773,#774,#775,#776,#777,#778,#779,#780,#781,#782,#783,
#784,#785,#786,#787,#788,#789,#790,#791,#792));
#143=EDGE_LOOP('',(#793,#794,#795,#796));
#144=EDGE_LOOP('',(#797,#798,#799,#800));
#145=EDGE_LOOP('',(#801,#802,#803,#804,#805,#806));
#146=EDGE_LOOP('',(#807,#808,#809,#810,#811,#812));
#147=EDGE_LOOP('',(#813,#814,#815,#816,#817,#818));
#148=EDGE_LOOP('',(#819,#820,#821,#822,#823,#824));
#149=EDGE_LOOP('',(#825,#826,#827,#828,#829,#830,#831,#832,#833,#834));
#150=EDGE_LOOP('',(#835,#836,#837,#838));
#151=EDGE_LOOP('',(#839));
#152=EDGE_LOOP('',(#840,#841,#842,#843,#844,#845,#846));
#153=EDGE_LOOP('',(#847,#848,#849,#850,#851,#852,#853,#854));
#154=EDGE_LOOP('',(#855,#856,#857,#858,#859,#860,#861,#862));
#155=EDGE_LOOP('',(#863,#864,#865,#866,#867,#868,#869));
#156=EDGE_LOOP('',(#870,#871,#872,#873));
#157=EDGE_LOOP('',(#874));
#158=EDGE_LOOP('',(#875));
#159=EDGE_LOOP('',(#876,#877,#878,#879));
#160=EDGE_LOOP('',(#880));
#161=EDGE_LOOP('',(#881));
#162=EDGE_LOOP('',(#882,#883,#884,#885));
#163=EDGE_LOOP('',(#886,#887,#888,#889));
#164=EDGE_LOOP('',(#890,#891,#892,#893,#894,#895,#896,#897,#898,#899,#900,
#901));
#165=EDGE_LOOP('',(#902,#903,#904));
#166=EDGE_LOOP('',(#905,#906,#907,#908));
#167=EDGE_LOOP('',(#909,#910,#911,#912));
#168=EDGE_LOOP('',(#913,#914,#915,#916));
#169=EDGE_LOOP('',(#917,#918,#919,#920));
#170=EDGE_LOOP('',(#921,#922,#923));
#171=EDGE_LOOP('',(#924));
#172=EDGE_LOOP('',(#925));
#173=EDGE_LOOP('',(#926));
#174=EDGE_LOOP('',(#927));
#175=EDGE_LOOP('',(#928,#929,#930,#931,#932,#933,#934));
#176=EDGE_LOOP('',(#935,#936,#937,#938));
#177=EDGE_LOOP('',(#939,#940,#941,#942));
#178=EDGE_LOOP('',(#943,#944,#945,#946));
#179=EDGE_LOOP('',(#947,#948,#949,#950));
#180=EDGE_LOOP('',(#951));
#181=EDGE_LOOP('',(#952,#953,#954,#955));
#182=EDGE_LOOP('',(#956,#957,#958,#959));
#183=EDGE_LOOP('',(#960,#961,#962,#963));
#184=EDGE_LOOP('',(#964,#965,#966,#967));
#185=EDGE_LOOP('',(#968));
#186=EDGE_LOOP('',(#969,#970,#971,#972));
#187=EDGE_LOOP('',(#973,#974,#975,#976,#977,#978));
#188=EDGE_LOOP('',(#979));
#189=EDGE_LOOP('',(#980));
#190=EDGE_LOOP('',(#981,#982,#983,#984,#985,#986));
#191=EDGE_LOOP('',(#987));
#192=EDGE_LOOP('',(#988));
#193=EDGE_LOOP('',(#989,#990,#991,#992));
#194=B_SPLINE_CURVE_WITH_KNOTS('',3,(#1451,#1452,#1453,#1454,#1455,#1456),
 .UNSPECIFIED.,.F.,.F.,(4,2,4),(0.465666909984436,0.504960655536454,0.572556134882365),
 .UNSPECIFIED.);
#195=B_SPLINE_CURVE_WITH_KNOTS('',3,(#1493,#1494,#1495,#1496,#1497,#1498),
 .UNSPECIFIED.,.F.,.F.,(4,2,4),(0.159449598949049,0.22704507829496,0.266338823846976),
 .UNSPECIFIED.);
#196=LINE('',#1447,#309);
#197=LINE('',#1458,#310);
#198=LINE('',#1462,#311);
#199=LINE('',#1463,#312);
#200=LINE('',#1468,#313);
#201=LINE('',#1475,#314);
#202=LINE('',#1481,#315);
#203=LINE('',#1486,#316);
#204=LINE('',#1490,#317);
#205=LINE('',#1492,#318);
#206=LINE('',#1509,#319);
#207=LINE('',#1515,#320);
#208=LINE('',#1517,#321);
#209=LINE('',#1518,#322);
#210=LINE('',#1522,#323);
#211=LINE('',#1524,#324);
#212=LINE('',#1526,#325);
#213=LINE('',#1527,#326);
#214=LINE('',#1530,#327);
#215=LINE('',#1532,#328);
#216=LINE('',#1533,#329);
#217=LINE('',#1536,#330);
#218=LINE('',#1537,#331);
#219=LINE('',#1540,#332);
#220=LINE('',#1542,#333);
#221=LINE('',#1544,#334);
#222=LINE('',#1546,#335);
#223=LINE('',#1548,#336);
#224=LINE('',#1549,#337);
#225=LINE('',#1552,#338);
#226=LINE('',#1554,#339);
#227=LINE('',#1556,#340);
#228=LINE('',#1558,#341);
#229=LINE('',#1560,#342);
#230=LINE('',#1561,#343);
#231=LINE('',#1563,#344);
#232=LINE('',#1565,#345);
#233=LINE('',#1567,#346);
#234=LINE('',#1569,#347);
#235=LINE('',#1571,#348);
#236=LINE('',#1573,#349);
#237=LINE('',#1575,#350);
#238=LINE('',#1577,#351);
#239=LINE('',#1579,#352);
#240=LINE('',#1581,#353);
#241=LINE('',#1583,#354);
#242=LINE('',#1585,#355);
#243=LINE('',#1587,#356);
#244=LINE('',#1588,#357);
#245=LINE('',#1591,#358);
#246=LINE('',#1592,#359);
#247=LINE('',#1595,#360);
#248=LINE('',#1596,#361);
#249=LINE('',#1599,#362);
#250=LINE('',#1601,#363);
#251=LINE('',#1603,#364);
#252=LINE('',#1604,#365);
#253=LINE('',#1607,#366);
#254=LINE('',#1609,#367);
#255=LINE('',#1611,#368);
#256=LINE('',#1612,#369);
#257=LINE('',#1615,#370);
#258=LINE('',#1617,#371);
#259=LINE('',#1618,#372);
#260=LINE('',#1621,#373);
#261=LINE('',#1623,#374);
#262=LINE('',#1624,#375);
#263=LINE('',#1629,#376);
#264=LINE('',#1631,#377);
#265=LINE('',#1633,#378);
#266=LINE('',#1635,#379);
#267=LINE('',#1642,#380);
#268=LINE('',#1646,#381);
#269=LINE('',#1649,#382);
#270=LINE('',#1654,#383);
#271=LINE('',#1656,#384);
#272=LINE('',#1659,#385);
#273=LINE('',#1661,#386);
#274=LINE('',#1662,#387);
#275=LINE('',#1667,#388);
#276=LINE('',#1676,#389);
#277=LINE('',#1683,#390);
#278=LINE('',#1687,#391);
#279=LINE('',#1692,#392);
#280=LINE('',#1693,#393);
#281=LINE('',#1694,#394);
#282=LINE('',#1696,#395);
#283=LINE('',#1698,#396);
#284=LINE('',#1700,#397);
#285=LINE('',#1702,#398);
#286=LINE('',#1704,#399);
#287=LINE('',#1706,#400);
#288=LINE('',#1707,#401);
#289=LINE('',#1710,#402);
#290=LINE('',#1712,#403);
#291=LINE('',#1713,#404);
#292=LINE('',#1716,#405);
#293=LINE('',#1718,#406);
#294=LINE('',#1719,#407);
#295=LINE('',#1722,#408);
#296=LINE('',#1723,#409);
#297=LINE('',#1725,#410);
#298=LINE('',#1727,#411);
#299=LINE('',#1728,#412);
#300=LINE('',#1730,#413);
#301=LINE('',#1731,#414);
#302=LINE('',#1735,#415);
#303=LINE('',#1737,#416);
#304=LINE('',#1739,#417);
#305=LINE('',#1741,#418);
#306=LINE('',#1743,#419);
#307=LINE('',#1745,#420);
#308=LINE('',#1749,#421);
#309=VECTOR('',#1163,2.05);
#310=VECTOR('',#1166,10.);
#311=VECTOR('',#1171,10.);
#312=VECTOR('',#1172,10.);
#313=VECTOR('',#1177,2.05);
#314=VECTOR('',#1186,2.05);
#315=VECTOR('',#1193,10.);
#316=VECTOR('',#1198,10.);
#317=VECTOR('',#1203,2.05);
#318=VECTOR('',#1204,10.);
#319=VECTOR('',#1217,1.8);
#320=VECTOR('',#1224,10.);
#321=VECTOR('',#1225,10.);
#322=VECTOR('',#1226,10.);
#323=VECTOR('',#1229,10.);
#324=VECTOR('',#1230,10.);
#325=VECTOR('',#1231,10.);
#326=VECTOR('',#1232,10.);
#327=VECTOR('',#1235,10.);
#328=VECTOR('',#1236,10.);
#329=VECTOR('',#1237,10.);
#330=VECTOR('',#1240,10.);
#331=VECTOR('',#1241,10.);
#332=VECTOR('',#1244,10.);
#333=VECTOR('',#1245,10.);
#334=VECTOR('',#1246,10.);
#335=VECTOR('',#1247,10.);
#336=VECTOR('',#1248,10.);
#337=VECTOR('',#1249,10.);
#338=VECTOR('',#1252,10.);
#339=VECTOR('',#1253,10.);
#340=VECTOR('',#1254,10.);
#341=VECTOR('',#1255,10.);
#342=VECTOR('',#1256,10.);
#343=VECTOR('',#1257,10.);
#344=VECTOR('',#1260,10.);
#345=VECTOR('',#1261,10.);
#346=VECTOR('',#1262,10.);
#347=VECTOR('',#1263,10.);
#348=VECTOR('',#1264,10.);
#349=VECTOR('',#1265,10.);
#350=VECTOR('',#1266,10.);
#351=VECTOR('',#1267,10.);
#352=VECTOR('',#1268,10.);
#353=VECTOR('',#1269,10.);
#354=VECTOR('',#1270,10.);
#355=VECTOR('',#1271,10.);
#356=VECTOR('',#1272,10.);
#357=VECTOR('',#1273,10.);
#358=VECTOR('',#1276,10.);
#359=VECTOR('',#1277,10.);
#360=VECTOR('',#1280,10.);
#361=VECTOR('',#1281,10.);
#362=VECTOR('',#1284,10.);
#363=VECTOR('',#1285,10.);
#364=VECTOR('',#1286,10.);
#365=VECTOR('',#1287,10.);
#366=VECTOR('',#1290,10.);
#367=VECTOR('',#1291,10.);
#368=VECTOR('',#1292,10.);
#369=VECTOR('',#1293,10.);
#370=VECTOR('',#1296,10.);
#371=VECTOR('',#1297,10.);
#372=VECTOR('',#1298,10.);
#373=VECTOR('',#1301,10.);
#374=VECTOR('',#1302,10.);
#375=VECTOR('',#1303,10.);
#376=VECTOR('',#1308,10.);
#377=VECTOR('',#1309,10.);
#378=VECTOR('',#1310,10.);
#379=VECTOR('',#1313,10.);
#380=VECTOR('',#1322,1.8);
#381=VECTOR('',#1327,1.3);
#382=VECTOR('',#1330,10.);
#383=VECTOR('',#1335,10.);
#384=VECTOR('',#1338,1.3);
#385=VECTOR('',#1341,10.);
#386=VECTOR('',#1342,10.);
#387=VECTOR('',#1343,10.);
#388=VECTOR('',#1348,1.8);
#389=VECTOR('',#1359,1.8);
#390=VECTOR('',#1368,1.3);
#391=VECTOR('',#1373,1.3);
#392=VECTOR('',#1378,10.);
#393=VECTOR('',#1379,10.);
#394=VECTOR('',#1380,10.);
#395=VECTOR('',#1381,10.);
#396=VECTOR('',#1382,10.);
#397=VECTOR('',#1383,10.);
#398=VECTOR('',#1384,10.);
#399=VECTOR('',#1385,10.);
#400=VECTOR('',#1386,10.);
#401=VECTOR('',#1387,10.);
#402=VECTOR('',#1388,10.);
#403=VECTOR('',#1389,10.);
#404=VECTOR('',#1390,10.);
#405=VECTOR('',#1393,10.);
#406=VECTOR('',#1394,10.);
#407=VECTOR('',#1395,10.);
#408=VECTOR('',#1398,10.);
#409=VECTOR('',#1399,10.);
#410=VECTOR('',#1402,10.);
#411=VECTOR('',#1405,10.);
#412=VECTOR('',#1406,10.);
#413=VECTOR('',#1409,10.);
#414=VECTOR('',#1410,10.);
#415=VECTOR('',#1417,10.);
#416=VECTOR('',#1420,10.);
#417=VECTOR('',#1423,10.);
#418=VECTOR('',#1426,10.);
#419=VECTOR('',#1429,10.);
#420=VECTOR('',#1432,10.);
#421=VECTOR('',#1439,10.);
#422=CIRCLE('',#1073,2.05);
#423=CIRCLE('',#1074,2.05);
#424=CIRCLE('',#1075,2.05);
#425=CIRCLE('',#1078,2.05);
#426=CIRCLE('',#1079,2.05);
#427=CIRCLE('',#1082,2.05);
#428=CIRCLE('',#1083,2.05);
#429=CIRCLE('',#1086,2.05);
#430=CIRCLE('',#1087,2.05);
#431=CIRCLE('',#1089,2.05);
#432=CIRCLE('',#1091,1.8);
#433=CIRCLE('',#1092,1.8);
#434=CIRCLE('',#1093,1.3);
#435=CIRCLE('',#1095,1.8);
#436=CIRCLE('',#1096,1.8);
#437=CIRCLE('',#1097,1.8);
#438=CIRCLE('',#1112,1.3);
#439=CIRCLE('',#1113,1.3);
#440=CIRCLE('',#1115,1.3);
#441=CIRCLE('',#1117,1.8);
#442=CIRCLE('',#1119,1.3);
#443=CIRCLE('',#1120,1.3);
#444=CIRCLE('',#1122,1.3);
#445=CIRCLE('',#1123,1.3);
#446=CIRCLE('',#1126,1.8);
#447=CIRCLE('',#1127,1.8);
#448=CIRCLE('',#1129,1.3);
#449=CIRCLE('',#1131,1.8);
#450=CIRCLE('',#1132,1.8);
#451=CIRCLE('',#1134,1.3);
#452=CIRCLE('',#1136,1.3);
#453=CIRCLE('',#1138,1.3);
#454=VERTEX_POINT('',#1444);
#455=VERTEX_POINT('',#1446);
#456=VERTEX_POINT('',#1448);
#457=VERTEX_POINT('',#1450);
#458=VERTEX_POINT('',#1457);
#459=VERTEX_POINT('',#1461);
#460=VERTEX_POINT('',#1465);
#461=VERTEX_POINT('',#1467);
#462=VERTEX_POINT('',#1472);
#463=VERTEX_POINT('',#1474);
#464=VERTEX_POINT('',#1479);
#465=VERTEX_POINT('',#1480);
#466=VERTEX_POINT('',#1482);
#467=VERTEX_POINT('',#1484);
#468=VERTEX_POINT('',#1488);
#469=VERTEX_POINT('',#1491);
#470=VERTEX_POINT('',#1500);
#471=VERTEX_POINT('',#1503);
#472=VERTEX_POINT('',#1506);
#473=VERTEX_POINT('',#1508);
#474=VERTEX_POINT('',#1513);
#475=VERTEX_POINT('',#1514);
#476=VERTEX_POINT('',#1516);
#477=VERTEX_POINT('',#1520);
#478=VERTEX_POINT('',#1521);
#479=VERTEX_POINT('',#1523);
#480=VERTEX_POINT('',#1525);
#481=VERTEX_POINT('',#1529);
#482=VERTEX_POINT('',#1531);
#483=VERTEX_POINT('',#1535);
#484=VERTEX_POINT('',#1539);
#485=VERTEX_POINT('',#1541);
#486=VERTEX_POINT('',#1543);
#487=VERTEX_POINT('',#1545);
#488=VERTEX_POINT('',#1547);
#489=VERTEX_POINT('',#1551);
#490=VERTEX_POINT('',#1553);
#491=VERTEX_POINT('',#1555);
#492=VERTEX_POINT('',#1557);
#493=VERTEX_POINT('',#1559);
#494=VERTEX_POINT('',#1564);
#495=VERTEX_POINT('',#1566);
#496=VERTEX_POINT('',#1568);
#497=VERTEX_POINT('',#1570);
#498=VERTEX_POINT('',#1572);
#499=VERTEX_POINT('',#1574);
#500=VERTEX_POINT('',#1576);
#501=VERTEX_POINT('',#1578);
#502=VERTEX_POINT('',#1580);
#503=VERTEX_POINT('',#1582);
#504=VERTEX_POINT('',#1584);
#505=VERTEX_POINT('',#1586);
#506=VERTEX_POINT('',#1590);
#507=VERTEX_POINT('',#1594);
#508=VERTEX_POINT('',#1598);
#509=VERTEX_POINT('',#1600);
#510=VERTEX_POINT('',#1602);
#511=VERTEX_POINT('',#1606);
#512=VERTEX_POINT('',#1608);
#513=VERTEX_POINT('',#1610);
#514=VERTEX_POINT('',#1614);
#515=VERTEX_POINT('',#1616);
#516=VERTEX_POINT('',#1620);
#517=VERTEX_POINT('',#1622);
#518=VERTEX_POINT('',#1626);
#519=VERTEX_POINT('',#1628);
#520=VERTEX_POINT('',#1630);
#521=VERTEX_POINT('',#1632);
#522=VERTEX_POINT('',#1637);
#523=VERTEX_POINT('',#1640);
#524=VERTEX_POINT('',#1644);
#525=VERTEX_POINT('',#1647);
#526=VERTEX_POINT('',#1651);
#527=VERTEX_POINT('',#1653);
#528=VERTEX_POINT('',#1658);
#529=VERTEX_POINT('',#1660);
#530=VERTEX_POINT('',#1664);
#531=VERTEX_POINT('',#1666);
#532=VERTEX_POINT('',#1670);
#533=VERTEX_POINT('',#1673);
#534=VERTEX_POINT('',#1675);
#535=VERTEX_POINT('',#1679);
#536=VERTEX_POINT('',#1682);
#537=VERTEX_POINT('',#1686);
#538=VERTEX_POINT('',#1690);
#539=VERTEX_POINT('',#1691);
#540=VERTEX_POINT('',#1695);
#541=VERTEX_POINT('',#1697);
#542=VERTEX_POINT('',#1699);
#543=VERTEX_POINT('',#1701);
#544=VERTEX_POINT('',#1703);
#545=VERTEX_POINT('',#1705);
#546=VERTEX_POINT('',#1708);
#547=VERTEX_POINT('',#1709);
#548=VERTEX_POINT('',#1711);
#549=VERTEX_POINT('',#1715);
#550=VERTEX_POINT('',#1717);
#551=VERTEX_POINT('',#1721);
#552=EDGE_CURVE('',#454,#454,#422,.T.);
#553=EDGE_CURVE('',#454,#455,#196,.T.);
#554=EDGE_CURVE('',#455,#456,#423,.T.);
#555=EDGE_CURVE('',#457,#456,#194,.T.);
#556=EDGE_CURVE('',#458,#457,#197,.T.);
#557=EDGE_CURVE('',#458,#455,#424,.T.);
#558=EDGE_CURVE('',#459,#458,#198,.T.);
#559=EDGE_CURVE('',#456,#459,#199,.T.);
#560=EDGE_CURVE('',#460,#460,#425,.T.);
#561=EDGE_CURVE('',#460,#461,#200,.T.);
#562=EDGE_CURVE('',#461,#461,#426,.T.);
#563=EDGE_CURVE('',#462,#462,#427,.T.);
#564=EDGE_CURVE('',#462,#463,#201,.T.);
#565=EDGE_CURVE('',#463,#463,#428,.T.);
#566=EDGE_CURVE('',#464,#465,#202,.T.);
#567=EDGE_CURVE('',#466,#464,#429,.T.);
#568=EDGE_CURVE('',#467,#466,#430,.T.);
#569=EDGE_CURVE('',#465,#467,#203,.T.);
#570=EDGE_CURVE('',#468,#468,#431,.T.);
#571=EDGE_CURVE('',#468,#466,#204,.T.);
#572=EDGE_CURVE('',#469,#464,#205,.T.);
#573=EDGE_CURVE('',#467,#469,#195,.T.);
#574=EDGE_CURVE('',#470,#457,#432,.T.);
#575=EDGE_CURVE('',#459,#470,#433,.T.);
#576=EDGE_CURVE('',#471,#471,#434,.T.);
#577=EDGE_CURVE('',#472,#472,#435,.T.);
#578=EDGE_CURVE('',#472,#473,#206,.T.);
#579=EDGE_CURVE('',#473,#465,#436,.T.);
#580=EDGE_CURVE('',#469,#473,#437,.T.);
#581=EDGE_CURVE('',#474,#475,#207,.T.);
#582=EDGE_CURVE('',#476,#474,#208,.T.);
#583=EDGE_CURVE('',#475,#476,#209,.T.);
#584=EDGE_CURVE('',#477,#478,#210,.T.);
#585=EDGE_CURVE('',#477,#479,#211,.T.);
#586=EDGE_CURVE('',#480,#479,#212,.T.);
#587=EDGE_CURVE('',#478,#480,#213,.T.);
#588=EDGE_CURVE('',#481,#474,#214,.T.);
#589=EDGE_CURVE('',#482,#481,#215,.T.);
#590=EDGE_CURVE('',#476,#482,#216,.T.);
#591=EDGE_CURVE('',#483,#477,#217,.T.);
#592=EDGE_CURVE('',#479,#483,#218,.T.);
#593=EDGE_CURVE('',#484,#475,#219,.T.);
#594=EDGE_CURVE('',#484,#485,#220,.T.);
#595=EDGE_CURVE('',#485,#486,#221,.T.);
#596=EDGE_CURVE('',#486,#487,#222,.T.);
#597=EDGE_CURVE('',#488,#487,#223,.T.);
#598=EDGE_CURVE('',#481,#488,#224,.T.);
#599=EDGE_CURVE('',#478,#489,#225,.T.);
#600=EDGE_CURVE('',#490,#489,#226,.T.);
#601=EDGE_CURVE('',#490,#491,#227,.T.);
#602=EDGE_CURVE('',#491,#492,#228,.T.);
#603=EDGE_CURVE('',#492,#493,#229,.T.);
#604=EDGE_CURVE('',#483,#493,#230,.T.);
#605=EDGE_CURVE('',#482,#480,#231,.T.);
#606=EDGE_CURVE('',#493,#494,#232,.T.);
#607=EDGE_CURVE('',#494,#495,#233,.T.);
#608=EDGE_CURVE('',#495,#496,#234,.T.);
#609=EDGE_CURVE('',#496,#497,#235,.T.);
#610=EDGE_CURVE('',#497,#498,#236,.T.);
#611=EDGE_CURVE('',#498,#499,#237,.T.);
#612=EDGE_CURVE('',#499,#500,#238,.T.);
#613=EDGE_CURVE('',#500,#501,#239,.T.);
#614=EDGE_CURVE('',#501,#502,#240,.T.);
#615=EDGE_CURVE('',#502,#503,#241,.T.);
#616=EDGE_CURVE('',#503,#504,#242,.T.);
#617=EDGE_CURVE('',#504,#505,#243,.T.);
#618=EDGE_CURVE('',#505,#484,#244,.T.);
#619=EDGE_CURVE('',#494,#506,#245,.T.);
#620=EDGE_CURVE('',#506,#492,#246,.T.);
#621=EDGE_CURVE('',#507,#505,#247,.T.);
#622=EDGE_CURVE('',#485,#507,#248,.T.);
#623=EDGE_CURVE('',#506,#508,#249,.T.);
#624=EDGE_CURVE('',#509,#491,#250,.T.);
#625=EDGE_CURVE('',#510,#509,#251,.T.);
#626=EDGE_CURVE('',#508,#510,#252,.T.);
#627=EDGE_CURVE('',#511,#507,#253,.T.);
#628=EDGE_CURVE('',#512,#511,#254,.T.);
#629=EDGE_CURVE('',#513,#512,#255,.T.);
#630=EDGE_CURVE('',#486,#513,#256,.T.);
#631=EDGE_CURVE('',#514,#504,#257,.T.);
#632=EDGE_CURVE('',#514,#515,#258,.T.);
#633=EDGE_CURVE('',#515,#511,#259,.T.);
#634=EDGE_CURVE('',#516,#508,#260,.T.);
#635=EDGE_CURVE('',#516,#517,#261,.T.);
#636=EDGE_CURVE('',#517,#495,#262,.T.);
#637=EDGE_CURVE('',#515,#518,#438,.T.);
#638=EDGE_CURVE('',#519,#518,#263,.T.);
#639=EDGE_CURVE('',#520,#519,#264,.T.);
#640=EDGE_CURVE('',#520,#521,#265,.T.);
#641=EDGE_CURVE('',#521,#516,#439,.T.);
#642=EDGE_CURVE('',#512,#510,#266,.T.);
#643=EDGE_CURVE('',#522,#522,#440,.T.);
#644=EDGE_CURVE('',#523,#523,#441,.T.);
#645=EDGE_CURVE('',#523,#470,#267,.T.);
#646=EDGE_CURVE('',#524,#514,#442,.T.);
#647=EDGE_CURVE('',#524,#522,#268,.T.);
#648=EDGE_CURVE('',#525,#524,#443,.T.);
#649=EDGE_CURVE('',#518,#525,#269,.T.);
#650=EDGE_CURVE('',#517,#526,#444,.T.);
#651=EDGE_CURVE('',#527,#521,#270,.T.);
#652=EDGE_CURVE('',#526,#527,#445,.T.);
#653=EDGE_CURVE('',#526,#471,#271,.T.);
#654=EDGE_CURVE('',#528,#503,#272,.T.);
#655=EDGE_CURVE('',#529,#528,#273,.T.);
#656=EDGE_CURVE('',#529,#525,#274,.T.);
#657=EDGE_CURVE('',#530,#530,#446,.T.);
#658=EDGE_CURVE('',#530,#531,#275,.T.);
#659=EDGE_CURVE('',#531,#531,#447,.T.);
#660=EDGE_CURVE('',#532,#532,#448,.T.);
#661=EDGE_CURVE('',#533,#533,#449,.T.);
#662=EDGE_CURVE('',#533,#534,#276,.T.);
#663=EDGE_CURVE('',#534,#534,#450,.T.);
#664=EDGE_CURVE('',#535,#535,#451,.T.);
#665=EDGE_CURVE('',#535,#536,#277,.T.);
#666=EDGE_CURVE('',#536,#536,#452,.T.);
#667=EDGE_CURVE('',#532,#537,#278,.T.);
#668=EDGE_CURVE('',#537,#537,#453,.T.);
#669=EDGE_CURVE('',#538,#539,#279,.T.);
#670=EDGE_CURVE('',#539,#520,#280,.T.);
#671=EDGE_CURVE('',#519,#529,#281,.T.);
#672=EDGE_CURVE('',#528,#540,#282,.T.);
#673=EDGE_CURVE('',#540,#541,#283,.T.);
#674=EDGE_CURVE('',#541,#542,#284,.T.);
#675=EDGE_CURVE('',#542,#543,#285,.T.);
#676=EDGE_CURVE('',#543,#544,#286,.T.);
#677=EDGE_CURVE('',#544,#545,#287,.T.);
#678=EDGE_CURVE('',#545,#538,#288,.T.);
#679=EDGE_CURVE('',#546,#547,#289,.T.);
#680=EDGE_CURVE('',#548,#546,#290,.T.);
#681=EDGE_CURVE('',#547,#548,#291,.T.);
#682=EDGE_CURVE('',#546,#549,#292,.T.);
#683=EDGE_CURVE('',#550,#549,#293,.T.);
#684=EDGE_CURVE('',#548,#550,#294,.T.);
#685=EDGE_CURVE('',#551,#550,#295,.T.);
#686=EDGE_CURVE('',#547,#551,#296,.T.);
#687=EDGE_CURVE('',#549,#551,#297,.T.);
#688=EDGE_CURVE('',#489,#488,#298,.T.);
#689=EDGE_CURVE('',#487,#490,#299,.T.);
#690=EDGE_CURVE('',#539,#527,#300,.T.);
#691=EDGE_CURVE('',#538,#496,#301,.T.);
#692=EDGE_CURVE('',#540,#502,#302,.T.);
#693=EDGE_CURVE('',#541,#501,#303,.T.);
#694=EDGE_CURVE('',#542,#500,#304,.T.);
#695=EDGE_CURVE('',#543,#499,#305,.T.);
#696=EDGE_CURVE('',#544,#498,#306,.T.);
#697=EDGE_CURVE('',#545,#497,#307,.T.);
#698=EDGE_CURVE('',#509,#513,#308,.T.);
#699=ORIENTED_EDGE('',*,*,#552,.F.);
#700=ORIENTED_EDGE('',*,*,#553,.T.);
#701=ORIENTED_EDGE('',*,*,#554,.T.);
#702=ORIENTED_EDGE('',*,*,#555,.F.);
#703=ORIENTED_EDGE('',*,*,#556,.F.);
#704=ORIENTED_EDGE('',*,*,#557,.T.);
#705=ORIENTED_EDGE('',*,*,#553,.F.);
#706=ORIENTED_EDGE('',*,*,#558,.F.);
#707=ORIENTED_EDGE('',*,*,#559,.F.);
#708=ORIENTED_EDGE('',*,*,#554,.F.);
#709=ORIENTED_EDGE('',*,*,#557,.F.);
#710=ORIENTED_EDGE('',*,*,#560,.F.);
#711=ORIENTED_EDGE('',*,*,#561,.T.);
#712=ORIENTED_EDGE('',*,*,#562,.T.);
#713=ORIENTED_EDGE('',*,*,#561,.F.);
#714=ORIENTED_EDGE('',*,*,#562,.F.);
#715=ORIENTED_EDGE('',*,*,#563,.F.);
#716=ORIENTED_EDGE('',*,*,#564,.T.);
#717=ORIENTED_EDGE('',*,*,#565,.T.);
#718=ORIENTED_EDGE('',*,*,#564,.F.);
#719=ORIENTED_EDGE('',*,*,#565,.F.);
#720=ORIENTED_EDGE('',*,*,#566,.F.);
#721=ORIENTED_EDGE('',*,*,#567,.F.);
#722=ORIENTED_EDGE('',*,*,#568,.F.);
#723=ORIENTED_EDGE('',*,*,#569,.F.);
#724=ORIENTED_EDGE('',*,*,#570,.F.);
#725=ORIENTED_EDGE('',*,*,#571,.T.);
#726=ORIENTED_EDGE('',*,*,#567,.T.);
#727=ORIENTED_EDGE('',*,*,#572,.F.);
#728=ORIENTED_EDGE('',*,*,#573,.F.);
#729=ORIENTED_EDGE('',*,*,#568,.T.);
#730=ORIENTED_EDGE('',*,*,#571,.F.);
#731=ORIENTED_EDGE('',*,*,#558,.T.);
#732=ORIENTED_EDGE('',*,*,#556,.T.);
#733=ORIENTED_EDGE('',*,*,#574,.F.);
#734=ORIENTED_EDGE('',*,*,#575,.F.);
#735=ORIENTED_EDGE('',*,*,#576,.F.);
#736=ORIENTED_EDGE('',*,*,#577,.F.);
#737=ORIENTED_EDGE('',*,*,#578,.T.);
#738=ORIENTED_EDGE('',*,*,#579,.T.);
#739=ORIENTED_EDGE('',*,*,#569,.T.);
#740=ORIENTED_EDGE('',*,*,#573,.T.);
#741=ORIENTED_EDGE('',*,*,#580,.T.);
#742=ORIENTED_EDGE('',*,*,#578,.F.);
#743=ORIENTED_EDGE('',*,*,#581,.F.);
#744=ORIENTED_EDGE('',*,*,#582,.F.);
#745=ORIENTED_EDGE('',*,*,#583,.F.);
#746=ORIENTED_EDGE('',*,*,#584,.F.);
#747=ORIENTED_EDGE('',*,*,#585,.T.);
#748=ORIENTED_EDGE('',*,*,#586,.F.);
#749=ORIENTED_EDGE('',*,*,#587,.F.);
#750=ORIENTED_EDGE('',*,*,#588,.F.);
#751=ORIENTED_EDGE('',*,*,#589,.F.);
#752=ORIENTED_EDGE('',*,*,#590,.F.);
#753=ORIENTED_EDGE('',*,*,#582,.T.);
#754=ORIENTED_EDGE('',*,*,#591,.F.);
#755=ORIENTED_EDGE('',*,*,#592,.F.);
#756=ORIENTED_EDGE('',*,*,#585,.F.);
#757=ORIENTED_EDGE('',*,*,#588,.T.);
#758=ORIENTED_EDGE('',*,*,#581,.T.);
#759=ORIENTED_EDGE('',*,*,#593,.F.);
#760=ORIENTED_EDGE('',*,*,#594,.T.);
#761=ORIENTED_EDGE('',*,*,#595,.T.);
#762=ORIENTED_EDGE('',*,*,#596,.T.);
#763=ORIENTED_EDGE('',*,*,#597,.F.);
#764=ORIENTED_EDGE('',*,*,#598,.F.);
#765=ORIENTED_EDGE('',*,*,#591,.T.);
#766=ORIENTED_EDGE('',*,*,#584,.T.);
#767=ORIENTED_EDGE('',*,*,#599,.T.);
#768=ORIENTED_EDGE('',*,*,#600,.F.);
#769=ORIENTED_EDGE('',*,*,#601,.T.);
#770=ORIENTED_EDGE('',*,*,#602,.T.);
#771=ORIENTED_EDGE('',*,*,#603,.T.);
#772=ORIENTED_EDGE('',*,*,#604,.F.);
#773=ORIENTED_EDGE('',*,*,#583,.T.);
#774=ORIENTED_EDGE('',*,*,#590,.T.);
#775=ORIENTED_EDGE('',*,*,#605,.T.);
#776=ORIENTED_EDGE('',*,*,#586,.T.);
#777=ORIENTED_EDGE('',*,*,#592,.T.);
#778=ORIENTED_EDGE('',*,*,#604,.T.);
#779=ORIENTED_EDGE('',*,*,#606,.T.);
#780=ORIENTED_EDGE('',*,*,#607,.T.);
#781=ORIENTED_EDGE('',*,*,#608,.T.);
#782=ORIENTED_EDGE('',*,*,#609,.T.);
#783=ORIENTED_EDGE('',*,*,#610,.T.);
#784=ORIENTED_EDGE('',*,*,#611,.T.);
#785=ORIENTED_EDGE('',*,*,#612,.T.);
#786=ORIENTED_EDGE('',*,*,#613,.T.);
#787=ORIENTED_EDGE('',*,*,#614,.T.);
#788=ORIENTED_EDGE('',*,*,#615,.T.);
#789=ORIENTED_EDGE('',*,*,#616,.T.);
#790=ORIENTED_EDGE('',*,*,#617,.T.);
#791=ORIENTED_EDGE('',*,*,#618,.T.);
#792=ORIENTED_EDGE('',*,*,#593,.T.);
#793=ORIENTED_EDGE('',*,*,#619,.F.);
#794=ORIENTED_EDGE('',*,*,#606,.F.);
#795=ORIENTED_EDGE('',*,*,#603,.F.);
#796=ORIENTED_EDGE('',*,*,#620,.F.);
#797=ORIENTED_EDGE('',*,*,#621,.F.);
#798=ORIENTED_EDGE('',*,*,#622,.F.);
#799=ORIENTED_EDGE('',*,*,#594,.F.);
#800=ORIENTED_EDGE('',*,*,#618,.F.);
#801=ORIENTED_EDGE('',*,*,#623,.F.);
#802=ORIENTED_EDGE('',*,*,#620,.T.);
#803=ORIENTED_EDGE('',*,*,#602,.F.);
#804=ORIENTED_EDGE('',*,*,#624,.F.);
#805=ORIENTED_EDGE('',*,*,#625,.F.);
#806=ORIENTED_EDGE('',*,*,#626,.F.);
#807=ORIENTED_EDGE('',*,*,#627,.F.);
#808=ORIENTED_EDGE('',*,*,#628,.F.);
#809=ORIENTED_EDGE('',*,*,#629,.F.);
#810=ORIENTED_EDGE('',*,*,#630,.F.);
#811=ORIENTED_EDGE('',*,*,#595,.F.);
#812=ORIENTED_EDGE('',*,*,#622,.T.);
#813=ORIENTED_EDGE('',*,*,#627,.T.);
#814=ORIENTED_EDGE('',*,*,#621,.T.);
#815=ORIENTED_EDGE('',*,*,#617,.F.);
#816=ORIENTED_EDGE('',*,*,#631,.F.);
#817=ORIENTED_EDGE('',*,*,#632,.T.);
#818=ORIENTED_EDGE('',*,*,#633,.T.);
#819=ORIENTED_EDGE('',*,*,#619,.T.);
#820=ORIENTED_EDGE('',*,*,#623,.T.);
#821=ORIENTED_EDGE('',*,*,#634,.F.);
#822=ORIENTED_EDGE('',*,*,#635,.T.);
#823=ORIENTED_EDGE('',*,*,#636,.T.);
#824=ORIENTED_EDGE('',*,*,#607,.F.);
#825=ORIENTED_EDGE('',*,*,#628,.T.);
#826=ORIENTED_EDGE('',*,*,#633,.F.);
#827=ORIENTED_EDGE('',*,*,#637,.T.);
#828=ORIENTED_EDGE('',*,*,#638,.F.);
#829=ORIENTED_EDGE('',*,*,#639,.F.);
#830=ORIENTED_EDGE('',*,*,#640,.T.);
#831=ORIENTED_EDGE('',*,*,#641,.T.);
#832=ORIENTED_EDGE('',*,*,#634,.T.);
#833=ORIENTED_EDGE('',*,*,#626,.T.);
#834=ORIENTED_EDGE('',*,*,#642,.F.);
#835=ORIENTED_EDGE('',*,*,#566,.T.);
#836=ORIENTED_EDGE('',*,*,#579,.F.);
#837=ORIENTED_EDGE('',*,*,#580,.F.);
#838=ORIENTED_EDGE('',*,*,#572,.T.);
#839=ORIENTED_EDGE('',*,*,#643,.F.);
#840=ORIENTED_EDGE('',*,*,#644,.F.);
#841=ORIENTED_EDGE('',*,*,#645,.T.);
#842=ORIENTED_EDGE('',*,*,#574,.T.);
#843=ORIENTED_EDGE('',*,*,#555,.T.);
#844=ORIENTED_EDGE('',*,*,#559,.T.);
#845=ORIENTED_EDGE('',*,*,#575,.T.);
#846=ORIENTED_EDGE('',*,*,#645,.F.);
#847=ORIENTED_EDGE('',*,*,#637,.F.);
#848=ORIENTED_EDGE('',*,*,#632,.F.);
#849=ORIENTED_EDGE('',*,*,#646,.F.);
#850=ORIENTED_EDGE('',*,*,#647,.T.);
#851=ORIENTED_EDGE('',*,*,#643,.T.);
#852=ORIENTED_EDGE('',*,*,#647,.F.);
#853=ORIENTED_EDGE('',*,*,#648,.F.);
#854=ORIENTED_EDGE('',*,*,#649,.F.);
#855=ORIENTED_EDGE('',*,*,#650,.F.);
#856=ORIENTED_EDGE('',*,*,#635,.F.);
#857=ORIENTED_EDGE('',*,*,#641,.F.);
#858=ORIENTED_EDGE('',*,*,#651,.F.);
#859=ORIENTED_EDGE('',*,*,#652,.F.);
#860=ORIENTED_EDGE('',*,*,#653,.T.);
#861=ORIENTED_EDGE('',*,*,#576,.T.);
#862=ORIENTED_EDGE('',*,*,#653,.F.);
#863=ORIENTED_EDGE('',*,*,#648,.T.);
#864=ORIENTED_EDGE('',*,*,#646,.T.);
#865=ORIENTED_EDGE('',*,*,#631,.T.);
#866=ORIENTED_EDGE('',*,*,#616,.F.);
#867=ORIENTED_EDGE('',*,*,#654,.F.);
#868=ORIENTED_EDGE('',*,*,#655,.F.);
#869=ORIENTED_EDGE('',*,*,#656,.T.);
#870=ORIENTED_EDGE('',*,*,#657,.F.);
#871=ORIENTED_EDGE('',*,*,#658,.T.);
#872=ORIENTED_EDGE('',*,*,#659,.T.);
#873=ORIENTED_EDGE('',*,*,#658,.F.);
#874=ORIENTED_EDGE('',*,*,#659,.F.);
#875=ORIENTED_EDGE('',*,*,#660,.F.);
#876=ORIENTED_EDGE('',*,*,#661,.F.);
#877=ORIENTED_EDGE('',*,*,#662,.T.);
#878=ORIENTED_EDGE('',*,*,#663,.T.);
#879=ORIENTED_EDGE('',*,*,#662,.F.);
#880=ORIENTED_EDGE('',*,*,#663,.F.);
#881=ORIENTED_EDGE('',*,*,#664,.F.);
#882=ORIENTED_EDGE('',*,*,#664,.T.);
#883=ORIENTED_EDGE('',*,*,#665,.T.);
#884=ORIENTED_EDGE('',*,*,#666,.F.);
#885=ORIENTED_EDGE('',*,*,#665,.F.);
#886=ORIENTED_EDGE('',*,*,#660,.T.);
#887=ORIENTED_EDGE('',*,*,#667,.T.);
#888=ORIENTED_EDGE('',*,*,#668,.F.);
#889=ORIENTED_EDGE('',*,*,#667,.F.);
#890=ORIENTED_EDGE('',*,*,#669,.T.);
#891=ORIENTED_EDGE('',*,*,#670,.T.);
#892=ORIENTED_EDGE('',*,*,#639,.T.);
#893=ORIENTED_EDGE('',*,*,#671,.T.);
#894=ORIENTED_EDGE('',*,*,#655,.T.);
#895=ORIENTED_EDGE('',*,*,#672,.T.);
#896=ORIENTED_EDGE('',*,*,#673,.T.);
#897=ORIENTED_EDGE('',*,*,#674,.T.);
#898=ORIENTED_EDGE('',*,*,#675,.T.);
#899=ORIENTED_EDGE('',*,*,#676,.T.);
#900=ORIENTED_EDGE('',*,*,#677,.T.);
#901=ORIENTED_EDGE('',*,*,#678,.T.);
#902=ORIENTED_EDGE('',*,*,#679,.F.);
#903=ORIENTED_EDGE('',*,*,#680,.F.);
#904=ORIENTED_EDGE('',*,*,#681,.F.);
#905=ORIENTED_EDGE('',*,*,#680,.T.);
#906=ORIENTED_EDGE('',*,*,#682,.T.);
#907=ORIENTED_EDGE('',*,*,#683,.F.);
#908=ORIENTED_EDGE('',*,*,#684,.F.);
#909=ORIENTED_EDGE('',*,*,#681,.T.);
#910=ORIENTED_EDGE('',*,*,#684,.T.);
#911=ORIENTED_EDGE('',*,*,#685,.F.);
#912=ORIENTED_EDGE('',*,*,#686,.F.);
#913=ORIENTED_EDGE('',*,*,#679,.T.);
#914=ORIENTED_EDGE('',*,*,#686,.T.);
#915=ORIENTED_EDGE('',*,*,#687,.F.);
#916=ORIENTED_EDGE('',*,*,#682,.F.);
#917=ORIENTED_EDGE('',*,*,#600,.T.);
#918=ORIENTED_EDGE('',*,*,#688,.T.);
#919=ORIENTED_EDGE('',*,*,#597,.T.);
#920=ORIENTED_EDGE('',*,*,#689,.T.);
#921=ORIENTED_EDGE('',*,*,#687,.T.);
#922=ORIENTED_EDGE('',*,*,#685,.T.);
#923=ORIENTED_EDGE('',*,*,#683,.T.);
#924=ORIENTED_EDGE('',*,*,#570,.T.);
#925=ORIENTED_EDGE('',*,*,#563,.T.);
#926=ORIENTED_EDGE('',*,*,#560,.T.);
#927=ORIENTED_EDGE('',*,*,#552,.T.);
#928=ORIENTED_EDGE('',*,*,#650,.T.);
#929=ORIENTED_EDGE('',*,*,#652,.T.);
#930=ORIENTED_EDGE('',*,*,#690,.F.);
#931=ORIENTED_EDGE('',*,*,#669,.F.);
#932=ORIENTED_EDGE('',*,*,#691,.T.);
#933=ORIENTED_EDGE('',*,*,#608,.F.);
#934=ORIENTED_EDGE('',*,*,#636,.F.);
#935=ORIENTED_EDGE('',*,*,#651,.T.);
#936=ORIENTED_EDGE('',*,*,#640,.F.);
#937=ORIENTED_EDGE('',*,*,#670,.F.);
#938=ORIENTED_EDGE('',*,*,#690,.T.);
#939=ORIENTED_EDGE('',*,*,#649,.T.);
#940=ORIENTED_EDGE('',*,*,#656,.F.);
#941=ORIENTED_EDGE('',*,*,#671,.F.);
#942=ORIENTED_EDGE('',*,*,#638,.T.);
#943=ORIENTED_EDGE('',*,*,#672,.F.);
#944=ORIENTED_EDGE('',*,*,#654,.T.);
#945=ORIENTED_EDGE('',*,*,#615,.F.);
#946=ORIENTED_EDGE('',*,*,#692,.F.);
#947=ORIENTED_EDGE('',*,*,#673,.F.);
#948=ORIENTED_EDGE('',*,*,#692,.T.);
#949=ORIENTED_EDGE('',*,*,#614,.F.);
#950=ORIENTED_EDGE('',*,*,#693,.F.);
#951=ORIENTED_EDGE('',*,*,#668,.T.);
#952=ORIENTED_EDGE('',*,*,#674,.F.);
#953=ORIENTED_EDGE('',*,*,#693,.T.);
#954=ORIENTED_EDGE('',*,*,#613,.F.);
#955=ORIENTED_EDGE('',*,*,#694,.F.);
#956=ORIENTED_EDGE('',*,*,#675,.F.);
#957=ORIENTED_EDGE('',*,*,#694,.T.);
#958=ORIENTED_EDGE('',*,*,#612,.F.);
#959=ORIENTED_EDGE('',*,*,#695,.F.);
#960=ORIENTED_EDGE('',*,*,#676,.F.);
#961=ORIENTED_EDGE('',*,*,#695,.T.);
#962=ORIENTED_EDGE('',*,*,#611,.F.);
#963=ORIENTED_EDGE('',*,*,#696,.F.);
#964=ORIENTED_EDGE('',*,*,#677,.F.);
#965=ORIENTED_EDGE('',*,*,#696,.T.);
#966=ORIENTED_EDGE('',*,*,#610,.F.);
#967=ORIENTED_EDGE('',*,*,#697,.F.);
#968=ORIENTED_EDGE('',*,*,#666,.T.);
#969=ORIENTED_EDGE('',*,*,#678,.F.);
#970=ORIENTED_EDGE('',*,*,#697,.T.);
#971=ORIENTED_EDGE('',*,*,#609,.F.);
#972=ORIENTED_EDGE('',*,*,#691,.F.);
#973=ORIENTED_EDGE('',*,*,#589,.T.);
#974=ORIENTED_EDGE('',*,*,#598,.T.);
#975=ORIENTED_EDGE('',*,*,#688,.F.);
#976=ORIENTED_EDGE('',*,*,#599,.F.);
#977=ORIENTED_EDGE('',*,*,#587,.T.);
#978=ORIENTED_EDGE('',*,*,#605,.F.);
#979=ORIENTED_EDGE('',*,*,#657,.T.);
#980=ORIENTED_EDGE('',*,*,#661,.T.);
#981=ORIENTED_EDGE('',*,*,#630,.T.);
#982=ORIENTED_EDGE('',*,*,#698,.F.);
#983=ORIENTED_EDGE('',*,*,#624,.T.);
#984=ORIENTED_EDGE('',*,*,#601,.F.);
#985=ORIENTED_EDGE('',*,*,#689,.F.);
#986=ORIENTED_EDGE('',*,*,#596,.F.);
#987=ORIENTED_EDGE('',*,*,#577,.T.);
#988=ORIENTED_EDGE('',*,*,#644,.T.);
#989=ORIENTED_EDGE('',*,*,#629,.T.);
#990=ORIENTED_EDGE('',*,*,#642,.T.);
#991=ORIENTED_EDGE('',*,*,#625,.T.);
#992=ORIENTED_EDGE('',*,*,#698,.T.);
#993=CYLINDRICAL_SURFACE('',#1072,2.05);
#994=CYLINDRICAL_SURFACE('',#1077,2.05);
#995=CYLINDRICAL_SURFACE('',#1081,2.05);
#996=CYLINDRICAL_SURFACE('',#1088,2.05);
#997=CYLINDRICAL_SURFACE('',#1094,1.8);
#998=CYLINDRICAL_SURFACE('',#1116,1.8);
#999=CYLINDRICAL_SURFACE('',#1118,1.3);
#1000=CYLINDRICAL_SURFACE('',#1121,1.3);
#1001=CYLINDRICAL_SURFACE('',#1125,1.8);
#1002=CYLINDRICAL_SURFACE('',#1130,1.8);
#1003=CYLINDRICAL_SURFACE('',#1135,1.3);
#1004=CYLINDRICAL_SURFACE('',#1137,1.3);
#1005=ADVANCED_FACE('',(#72),#993,.F.);
#1006=ADVANCED_FACE('',(#73),#31,.T.);
#1007=ADVANCED_FACE('',(#74),#994,.F.);
#1008=ADVANCED_FACE('',(#75),#32,.T.);
#1009=ADVANCED_FACE('',(#76),#995,.F.);
#1010=ADVANCED_FACE('',(#77),#33,.T.);
#1011=ADVANCED_FACE('',(#78),#34,.T.);
#1012=ADVANCED_FACE('',(#79),#996,.F.);
#1013=ADVANCED_FACE('',(#80,#15),#35,.T.);
#1014=ADVANCED_FACE('',(#81),#997,.F.);
#1015=ADVANCED_FACE('',(#82),#36,.T.);
#1016=ADVANCED_FACE('',(#83),#37,.F.);
#1017=ADVANCED_FACE('',(#84),#38,.F.);
#1018=ADVANCED_FACE('',(#85),#39,.T.);
#1019=ADVANCED_FACE('',(#86),#40,.T.);
#1020=ADVANCED_FACE('',(#87),#41,.T.);
#1021=ADVANCED_FACE('',(#88),#42,.T.);
#1022=ADVANCED_FACE('',(#89),#43,.T.);
#1023=ADVANCED_FACE('',(#90),#44,.T.);
#1024=ADVANCED_FACE('',(#91),#45,.F.);
#1025=ADVANCED_FACE('',(#92),#46,.F.);
#1026=ADVANCED_FACE('',(#93),#47,.T.);
#1027=ADVANCED_FACE('',(#94),#48,.T.);
#1028=ADVANCED_FACE('',(#95),#49,.T.);
#1029=ADVANCED_FACE('',(#96,#16),#50,.T.);
#1030=ADVANCED_FACE('',(#97),#998,.F.);
#1031=ADVANCED_FACE('',(#98),#999,.F.);
#1032=ADVANCED_FACE('',(#99),#1000,.F.);
#1033=ADVANCED_FACE('',(#100),#51,.T.);
#1034=ADVANCED_FACE('',(#101),#1001,.F.);
#1035=ADVANCED_FACE('',(#102,#17),#52,.T.);
#1036=ADVANCED_FACE('',(#103),#1002,.F.);
#1037=ADVANCED_FACE('',(#104,#18),#53,.T.);
#1038=ADVANCED_FACE('',(#105),#1003,.F.);
#1039=ADVANCED_FACE('',(#106),#1004,.F.);
#1040=ADVANCED_FACE('',(#107,#19),#54,.F.);
#1041=ADVANCED_FACE('',(#108),#55,.T.);
#1042=ADVANCED_FACE('',(#109),#56,.T.);
#1043=ADVANCED_FACE('',(#110),#57,.T.);
#1044=ADVANCED_FACE('',(#111,#20,#21,#22,#23,#24),#58,.T.);
#1045=ADVANCED_FACE('',(#112),#59,.T.);
#1046=ADVANCED_FACE('',(#113),#60,.T.);
#1047=ADVANCED_FACE('',(#114),#61,.T.);
#1048=ADVANCED_FACE('',(#115),#62,.T.);
#1049=ADVANCED_FACE('',(#116,#25),#63,.T.);
#1050=ADVANCED_FACE('',(#117),#64,.T.);
#1051=ADVANCED_FACE('',(#118),#65,.T.);
#1052=ADVANCED_FACE('',(#119),#66,.T.);
#1053=ADVANCED_FACE('',(#120,#26),#67,.T.);
#1054=ADVANCED_FACE('',(#121),#68,.T.);
#1055=ADVANCED_FACE('',(#122,#27,#28),#69,.T.);
#1056=ADVANCED_FACE('',(#123,#29,#30),#70,.T.);
#1057=ADVANCED_FACE('',(#124),#71,.T.);
#1058=CLOSED_SHELL('',(#1005,#1006,#1007,#1008,#1009,#1010,#1011,#1012,
#1013,#1014,#1015,#1016,#1017,#1018,#1019,#1020,#1021,#1022,#1023,#1024,
#1025,#1026,#1027,#1028,#1029,#1030,#1031,#1032,#1033,#1034,#1035,#1036,
#1037,#1038,#1039,#1040,#1041,#1042,#1043,#1044,#1045,#1046,#1047,#1048,
#1049,#1050,#1051,#1052,#1053,#1054,#1055,#1056,#1057));
#1059=DERIVED_UNIT_ELEMENT(#1061,1.);
#1060=DERIVED_UNIT_ELEMENT(#1756,-3.);
#1061=(
MASS_UNIT()
NAMED_UNIT(*)
SI_UNIT(.KILO.,.GRAM.)
);
#1062=DERIVED_UNIT((#1059,#1060));
#1063=MEASURE_REPRESENTATION_ITEM('density measure',
POSITIVE_RATIO_MEASURE(1120.),#1062);
#1064=PROPERTY_DEFINITION_REPRESENTATION(#1069,#1066);
#1065=PROPERTY_DEFINITION_REPRESENTATION(#1070,#1067);
#1066=REPRESENTATION('material name',(#1068),#1753);
#1067=REPRESENTATION('density',(#1063),#1753);
#1068=DESCRIPTIVE_REPRESENTATION_ITEM('Nylon 6','Nylon 6');
#1069=PROPERTY_DEFINITION('material property','material name',#1763);
#1070=PROPERTY_DEFINITION('material property','density of part',#1763);
#1071=AXIS2_PLACEMENT_3D('',#1442,#1157,#1158);
#1072=AXIS2_PLACEMENT_3D('',#1443,#1159,#1160);
#1073=AXIS2_PLACEMENT_3D('',#1445,#1161,#1162);
#1074=AXIS2_PLACEMENT_3D('',#1449,#1164,#1165);
#1075=AXIS2_PLACEMENT_3D('',#1459,#1167,#1168);
#1076=AXIS2_PLACEMENT_3D('',#1460,#1169,#1170);
#1077=AXIS2_PLACEMENT_3D('',#1464,#1173,#1174);
#1078=AXIS2_PLACEMENT_3D('',#1466,#1175,#1176);
#1079=AXIS2_PLACEMENT_3D('',#1469,#1178,#1179);
#1080=AXIS2_PLACEMENT_3D('',#1470,#1180,#1181);
#1081=AXIS2_PLACEMENT_3D('',#1471,#1182,#1183);
#1082=AXIS2_PLACEMENT_3D('',#1473,#1184,#1185);
#1083=AXIS2_PLACEMENT_3D('',#1476,#1187,#1188);
#1084=AXIS2_PLACEMENT_3D('',#1477,#1189,#1190);
#1085=AXIS2_PLACEMENT_3D('',#1478,#1191,#1192);
#1086=AXIS2_PLACEMENT_3D('',#1483,#1194,#1195);
#1087=AXIS2_PLACEMENT_3D('',#1485,#1196,#1197);
#1088=AXIS2_PLACEMENT_3D('',#1487,#1199,#1200);
#1089=AXIS2_PLACEMENT_3D('',#1489,#1201,#1202);
#1090=AXIS2_PLACEMENT_3D('',#1499,#1205,#1206);
#1091=AXIS2_PLACEMENT_3D('',#1501,#1207,#1208);
#1092=AXIS2_PLACEMENT_3D('',#1502,#1209,#1210);
#1093=AXIS2_PLACEMENT_3D('',#1504,#1211,#1212);
#1094=AXIS2_PLACEMENT_3D('',#1505,#1213,#1214);
#1095=AXIS2_PLACEMENT_3D('',#1507,#1215,#1216);
#1096=AXIS2_PLACEMENT_3D('',#1510,#1218,#1219);
#1097=AXIS2_PLACEMENT_3D('',#1511,#1220,#1221);
#1098=AXIS2_PLACEMENT_3D('',#1512,#1222,#1223);
#1099=AXIS2_PLACEMENT_3D('',#1519,#1227,#1228);
#1100=AXIS2_PLACEMENT_3D('',#1528,#1233,#1234);
#1101=AXIS2_PLACEMENT_3D('',#1534,#1238,#1239);
#1102=AXIS2_PLACEMENT_3D('',#1538,#1242,#1243);
#1103=AXIS2_PLACEMENT_3D('',#1550,#1250,#1251);
#1104=AXIS2_PLACEMENT_3D('',#1562,#1258,#1259);
#1105=AXIS2_PLACEMENT_3D('',#1589,#1274,#1275);
#1106=AXIS2_PLACEMENT_3D('',#1593,#1278,#1279);
#1107=AXIS2_PLACEMENT_3D('',#1597,#1282,#1283);
#1108=AXIS2_PLACEMENT_3D('',#1605,#1288,#1289);
#1109=AXIS2_PLACEMENT_3D('',#1613,#1294,#1295);
#1110=AXIS2_PLACEMENT_3D('',#1619,#1299,#1300);
#1111=AXIS2_PLACEMENT_3D('',#1625,#1304,#1305);
#1112=AXIS2_PLACEMENT_3D('',#1627,#1306,#1307);
#1113=AXIS2_PLACEMENT_3D('',#1634,#1311,#1312);
#1114=AXIS2_PLACEMENT_3D('',#1636,#1314,#1315);
#1115=AXIS2_PLACEMENT_3D('',#1638,#1316,#1317);
#1116=AXIS2_PLACEMENT_3D('',#1639,#1318,#1319);
#1117=AXIS2_PLACEMENT_3D('',#1641,#1320,#1321);
#1118=AXIS2_PLACEMENT_3D('',#1643,#1323,#1324);
#1119=AXIS2_PLACEMENT_3D('',#1645,#1325,#1326);
#1120=AXIS2_PLACEMENT_3D('',#1648,#1328,#1329);
#1121=AXIS2_PLACEMENT_3D('',#1650,#1331,#1332);
#1122=AXIS2_PLACEMENT_3D('',#1652,#1333,#1334);
#1123=AXIS2_PLACEMENT_3D('',#1655,#1336,#1337);
#1124=AXIS2_PLACEMENT_3D('',#1657,#1339,#1340);
#1125=AXIS2_PLACEMENT_3D('',#1663,#1344,#1345);
#1126=AXIS2_PLACEMENT_3D('',#1665,#1346,#1347);
#1127=AXIS2_PLACEMENT_3D('',#1668,#1349,#1350);
#1128=AXIS2_PLACEMENT_3D('',#1669,#1351,#1352);
#1129=AXIS2_PLACEMENT_3D('',#1671,#1353,#1354);
#1130=AXIS2_PLACEMENT_3D('',#1672,#1355,#1356);
#1131=AXIS2_PLACEMENT_3D('',#1674,#1357,#1358);
#1132=AXIS2_PLACEMENT_3D('',#1677,#1360,#1361);
#1133=AXIS2_PLACEMENT_3D('',#1678,#1362,#1363);
#1134=AXIS2_PLACEMENT_3D('',#1680,#1364,#1365);
#1135=AXIS2_PLACEMENT_3D('',#1681,#1366,#1367);
#1136=AXIS2_PLACEMENT_3D('',#1684,#1369,#1370);
#1137=AXIS2_PLACEMENT_3D('',#1685,#1371,#1372);
#1138=AXIS2_PLACEMENT_3D('',#1688,#1374,#1375);
#1139=AXIS2_PLACEMENT_3D('',#1689,#1376,#1377);
#1140=AXIS2_PLACEMENT_3D('',#1714,#1391,#1392);
#1141=AXIS2_PLACEMENT_3D('',#1720,#1396,#1397);
#1142=AXIS2_PLACEMENT_3D('',#1724,#1400,#1401);
#1143=AXIS2_PLACEMENT_3D('',#1726,#1403,#1404);
#1144=AXIS2_PLACEMENT_3D('',#1729,#1407,#1408);
#1145=AXIS2_PLACEMENT_3D('',#1732,#1411,#1412);
#1146=AXIS2_PLACEMENT_3D('',#1733,#1413,#1414);
#1147=AXIS2_PLACEMENT_3D('',#1734,#1415,#1416);
#1148=AXIS2_PLACEMENT_3D('',#1736,#1418,#1419);
#1149=AXIS2_PLACEMENT_3D('',#1738,#1421,#1422);
#1150=AXIS2_PLACEMENT_3D('',#1740,#1424,#1425);
#1151=AXIS2_PLACEMENT_3D('',#1742,#1427,#1428);
#1152=AXIS2_PLACEMENT_3D('',#1744,#1430,#1431);
#1153=AXIS2_PLACEMENT_3D('',#1746,#1433,#1434);
#1154=AXIS2_PLACEMENT_3D('',#1747,#1435,#1436);
#1155=AXIS2_PLACEMENT_3D('',#1748,#1437,#1438);
#1156=AXIS2_PLACEMENT_3D('',#1750,#1440,#1441);
#1157=DIRECTION('axis',(0.,0.,1.));
#1158=DIRECTION('refdir',(1.,0.,0.));
#1159=DIRECTION('center_axis',(1.,-2.13064395545473E-49,-1.67651140177598E-32));
#1160=DIRECTION('ref_axis',(-1.84006992637353E-48,1.,-1.22464679914735E-16));
#1161=DIRECTION('center_axis',(1.,-2.13064395545473E-49,-1.67651140177598E-32));
#1162=DIRECTION('ref_axis',(-1.84006992637353E-48,1.,-1.22464679914735E-16));
#1163=DIRECTION('',(1.,-2.13064395545473E-49,-1.67651140177598E-32));
#1164=DIRECTION('center_axis',(1.,-2.13064395545473E-49,-1.67651140177598E-32));
#1165=DIRECTION('ref_axis',(-1.84006992637353E-48,1.,-1.22464679914735E-16));
#1166=DIRECTION('',(-1.,2.13064395545473E-49,1.67651140177598E-32));
#1167=DIRECTION('center_axis',(1.,-2.13064395545473E-49,-1.67651140177598E-32));
#1168=DIRECTION('ref_axis',(-1.84006992637353E-48,1.,-1.22464679914735E-16));
#1169=DIRECTION('center_axis',(-1.,2.13064395545473E-49,1.67651140177598E-32));
#1170=DIRECTION('ref_axis',(-1.84006992637353E-48,1.,-1.22464679914735E-16));
#1171=DIRECTION('',(1.84006992637353E-48,-1.,1.22464679914735E-16));
#1172=DIRECTION('',(-1.67651140177598E-32,-1.22464679914735E-16,-1.));
#1173=DIRECTION('center_axis',(1.,-2.13064395545473E-49,-1.67651140177598E-32));
#1174=DIRECTION('ref_axis',(-1.84006992637353E-48,1.,-1.22464679914735E-16));
#1175=DIRECTION('center_axis',(1.,-2.13064395545473E-49,-1.67651140177598E-32));
#1176=DIRECTION('ref_axis',(-1.84006992637353E-48,1.,-1.22464679914735E-16));
#1177=DIRECTION('',(1.,-2.13064395545473E-49,-1.67651140177598E-32));
#1178=DIRECTION('center_axis',(1.,-2.13064395545473E-49,-1.67651140177598E-32));
#1179=DIRECTION('ref_axis',(-1.84006992637353E-48,1.,-1.22464679914735E-16));
#1180=DIRECTION('center_axis',(-1.,2.13064395545473E-49,1.67651140177598E-32));
#1181=DIRECTION('ref_axis',(-1.84006992637353E-48,1.,-1.22464679914735E-16));
#1182=DIRECTION('center_axis',(1.,-2.13064395545473E-49,-1.67651140177598E-32));
#1183=DIRECTION('ref_axis',(-1.84006992637353E-48,1.,-1.22464679914735E-16));
#1184=DIRECTION('center_axis',(1.,-2.13064395545473E-49,-1.67651140177598E-32));
#1185=DIRECTION('ref_axis',(-1.84006992637353E-48,1.,-1.22464679914735E-16));
#1186=DIRECTION('',(1.,-2.13064395545473E-49,-1.67651140177598E-32));
#1187=DIRECTION('center_axis',(1.,-2.13064395545473E-49,-1.67651140177598E-32));
#1188=DIRECTION('ref_axis',(-1.84006992637353E-48,1.,-1.22464679914735E-16));
#1189=DIRECTION('center_axis',(-1.,2.13064395545473E-49,1.67651140177598E-32));
#1190=DIRECTION('ref_axis',(-1.84006992637353E-48,1.,-1.22464679914735E-16));
#1191=DIRECTION('center_axis',(-1.,2.13064395545473E-49,1.67651140177598E-32));
#1192=DIRECTION('ref_axis',(-1.84006992637353E-48,1.,-1.22464679914735E-16));
#1193=DIRECTION('',(1.84006992637353E-48,-1.,1.22464679914735E-16));
#1194=DIRECTION('center_axis',(1.,-2.13064395545473E-49,-1.67651140177598E-32));
#1195=DIRECTION('ref_axis',(-1.84006992637353E-48,1.,-1.22464679914735E-16));
#1196=DIRECTION('center_axis',(1.,-2.13064395545473E-49,-1.67651140177598E-32));
#1197=DIRECTION('ref_axis',(-1.84006992637353E-48,1.,-1.22464679914735E-16));
#1198=DIRECTION('',(1.67651140177598E-32,1.22464679914735E-16,1.));
#1199=DIRECTION('center_axis',(1.,-2.13064395545473E-49,-1.67651140177598E-32));
#1200=DIRECTION('ref_axis',(-1.84006992637353E-48,1.,-1.22464679914735E-16));
#1201=DIRECTION('center_axis',(1.,-2.13064395545473E-49,-1.67651140177598E-32));
#1202=DIRECTION('ref_axis',(-1.84006992637353E-48,1.,-1.22464679914735E-16));
#1203=DIRECTION('',(1.,-2.13064395545473E-49,-1.67651140177598E-32));
#1204=DIRECTION('',(1.,-2.13064395545473E-49,-1.67651140177598E-32));
#1205=DIRECTION('center_axis',(1.67651140177598E-32,1.22464679914735E-16,
1.));
#1206=DIRECTION('ref_axis',(-1.,2.13064395545473E-49,1.67651140177598E-32));
#1207=DIRECTION('center_axis',(-1.67651140177598E-32,-1.22464679914735E-16,
-1.));
#1208=DIRECTION('ref_axis',(1.,-2.13064395545473E-49,-1.67651140177598E-32));
#1209=DIRECTION('center_axis',(-1.67651140177598E-32,-1.22464679914735E-16,
-1.));
#1210=DIRECTION('ref_axis',(1.,-2.13064395545473E-49,-1.67651140177598E-32));
#1211=DIRECTION('center_axis',(1.67651140177598E-32,1.22464679914735E-16,
1.));
#1212=DIRECTION('ref_axis',(1.,-2.13064395545473E-49,-1.67651140177598E-32));
#1213=DIRECTION('center_axis',(-1.67651140177598E-32,-1.22464679914735E-16,
-1.));
#1214=DIRECTION('ref_axis',(1.,-2.13064395545473E-49,-1.67651140177598E-32));
#1215=DIRECTION('center_axis',(-1.67651140177598E-32,-1.22464679914735E-16,
-1.));
#1216=DIRECTION('ref_axis',(1.,-2.13064395545473E-49,-1.67651140177598E-32));
#1217=DIRECTION('',(-1.67651140177598E-32,-1.22464679914735E-16,-1.));
#1218=DIRECTION('center_axis',(-1.67651140177598E-32,-1.22464679914735E-16,
-1.));
#1219=DIRECTION('ref_axis',(1.,-2.13064395545473E-49,-1.67651140177598E-32));
#1220=DIRECTION('center_axis',(-1.67651140177598E-32,-1.22464679914735E-16,
-1.));
#1221=DIRECTION('ref_axis',(1.,-2.13064395545473E-49,-1.67651140177598E-32));
#1222=DIRECTION('center_axis',(-1.67651140177598E-32,-1.22464679914735E-16,
-1.));
#1223=DIRECTION('ref_axis',(1.,-2.13064395545473E-49,-1.67651140177598E-32));
#1224=DIRECTION('',(1.,-2.13064395545473E-49,-1.67651140177598E-32));
#1225=DIRECTION('',(-0.615661475325658,-0.788010753606722,9.65034847098166E-17));
#1226=DIRECTION('',(-1.84006992637353E-48,1.,-1.22464679914735E-16));
#1227=DIRECTION('center_axis',(-0.788010422015372,-0.615661899742996,7.53968374877239E-17));
#1228=DIRECTION('ref_axis',(0.615661899742996,-0.788010422015372,9.65034441015881E-17));
#1229=DIRECTION('',(-1.67651140177598E-32,-1.22464679914735E-16,-1.));
#1230=DIRECTION('',(0.615661899742996,-0.788010422015372,9.65034441015881E-17));
#1231=DIRECTION('',(1.67651140177598E-32,1.22464679914735E-16,1.));
#1232=DIRECTION('',(0.615661899742996,-0.788010422015372,9.65034441015881E-17));
#1233=DIRECTION('center_axis',(-0.788010753606722,0.615661475325658,-7.53967855115905E-17));
#1234=DIRECTION('ref_axis',(-0.615661475325658,-0.788010753606722,9.65034847098166E-17));
#1235=DIRECTION('',(1.67651140177598E-32,1.22464679914735E-16,1.));
#1236=DIRECTION('',(-0.615661475325658,-0.788010753606722,9.65034847098166E-17));
#1237=DIRECTION('',(-1.67651140177598E-32,-1.22464679914735E-16,-1.));
#1238=DIRECTION('center_axis',(-1.67651140177598E-32,-1.22464679914735E-16,
-1.));
#1239=DIRECTION('ref_axis',(1.,-2.13064395545473E-49,-1.67651140177598E-32));
#1240=DIRECTION('',(-1.,2.13064395545473E-49,1.67651140177598E-32));
#1241=DIRECTION('',(-1.84006992637353E-48,1.,-1.22464679914735E-16));
#1242=DIRECTION('center_axis',(1.84006992637353E-48,-1.,1.22464679914735E-16));
#1243=DIRECTION('ref_axis',(-1.67651140177598E-32,-1.22464679914735E-16,
-1.));
#1244=DIRECTION('',(-1.67651140177598E-32,-1.22464679914735E-16,-1.));
#1245=DIRECTION('',(-1.,2.13064395545473E-49,1.67651140177598E-32));
#1246=DIRECTION('',(1.67651140177598E-32,1.22464679914735E-16,1.));
#1247=DIRECTION('',(-1.,2.13064395545473E-49,1.67651140177598E-32));
#1248=DIRECTION('',(1.67651140177598E-32,1.22464679914735E-16,1.));
#1249=DIRECTION('',(-1.,2.13064395545473E-49,1.67651140177598E-32));
#1250=DIRECTION('center_axis',(-1.84006992637353E-48,1.,-1.22464679914735E-16));
#1251=DIRECTION('ref_axis',(1.67651140177598E-32,1.22464679914735E-16,1.));
#1252=DIRECTION('',(-1.,2.13064395545473E-49,1.67651140177598E-32));
#1253=DIRECTION('',(-1.67651140177598E-32,-1.22464679914735E-16,-1.));
#1254=DIRECTION('',(1.,-2.13064395545473E-49,-1.67651140177598E-32));
#1255=DIRECTION('',(-1.67651140177598E-32,-1.22464679914735E-16,-1.));
#1256=DIRECTION('',(1.,-2.13064395545473E-49,-1.67651140177598E-32));
#1257=DIRECTION('',(1.67651140177598E-32,1.22464679914735E-16,1.));
#1258=DIRECTION('center_axis',(1.,-2.13064395545473E-49,-1.67651140177598E-32));
#1259=DIRECTION('ref_axis',(1.67651140177598E-32,1.22464679914735E-16,1.));
#1260=DIRECTION('',(-1.84006992637353E-48,1.,-1.22464679914735E-16));
#1261=DIRECTION('',(1.84006992637353E-48,-1.,1.22464679914735E-16));
#1262=DIRECTION('',(-1.67651140177598E-32,-1.22464679914735E-16,-1.));
#1263=DIRECTION('',(-1.84006992637353E-48,1.,-1.22464679914735E-16));
#1264=DIRECTION('',(-1.67651140177598E-32,-1.22464679914735E-16,-1.));
#1265=DIRECTION('',(8.79820659664753E-48,-1.,5.37501324634421E-16));
#1266=DIRECTION('',(-1.67651140177598E-32,8.86828978835406E-16,-1.));
#1267=DIRECTION('',(1.84006992637353E-48,-1.,1.22464679914735E-16));
#1268=DIRECTION('',(1.67651140177598E-32,1.22464679914735E-16,1.));
#1269=DIRECTION('',(1.84006992637353E-48,-1.,1.22464679914735E-16));
#1270=DIRECTION('',(1.67651140177598E-32,1.22464679914735E-16,1.));
#1271=DIRECTION('',(-1.84006992637353E-48,1.,-1.22464679914735E-16));
#1272=DIRECTION('',(1.67651140177598E-32,1.22464679914735E-16,1.));
#1273=DIRECTION('',(1.84006992637353E-48,-1.,1.22464679914735E-16));
#1274=DIRECTION('center_axis',(1.67651140177598E-32,1.22464679914735E-16,
1.));
#1275=DIRECTION('ref_axis',(1.,-2.13064395545473E-49,-1.67651140177598E-32));
#1276=DIRECTION('',(-1.,2.13064395545473E-49,1.67651140177598E-32));
#1277=DIRECTION('',(-0.615661899742996,0.788010422015372,-9.6503444101588E-17));
#1278=DIRECTION('center_axis',(1.67651140177598E-32,1.22464679914735E-16,
1.));
#1279=DIRECTION('ref_axis',(1.,-2.13064395545473E-49,-1.67651140177598E-32));
#1280=DIRECTION('',(1.,-2.13064395545473E-49,-1.67651140177598E-32));
#1281=DIRECTION('',(0.615661475325658,0.788010753606722,-9.65034847098166E-17));
#1282=DIRECTION('center_axis',(-0.788010422015372,-0.615661899742996,7.53968374877239E-17));
#1283=DIRECTION('ref_axis',(0.615661899742996,-0.788010422015372,9.65034441015881E-17));
#1284=DIRECTION('',(1.67651140177598E-32,1.22464679914735E-16,1.));
#1285=DIRECTION('',(-0.615661899742996,0.788010422015372,-9.65034441015881E-17));
#1286=DIRECTION('',(1.67651140177598E-32,1.22464679914735E-16,1.));
#1287=DIRECTION('',(0.615661899742996,-0.788010422015372,9.6503444101588E-17));
#1288=DIRECTION('center_axis',(-0.788010753606722,0.615661475325658,-7.53967855115905E-17));
#1289=DIRECTION('ref_axis',(-0.615661475325658,-0.788010753606722,9.65034847098166E-17));
#1290=DIRECTION('',(-1.67651140177598E-32,-1.22464679914735E-16,-1.));
#1291=DIRECTION('',(-0.615661475325658,-0.788010753606722,9.65034847098166E-17));
#1292=DIRECTION('',(-1.67651140177598E-32,-1.22464679914735E-16,-1.));
#1293=DIRECTION('',(0.615661475325658,0.788010753606722,-9.65034847098166E-17));
#1294=DIRECTION('center_axis',(-1.84006992637353E-48,1.,-1.22464679914735E-16));
#1295=DIRECTION('ref_axis',(1.67651140177598E-32,1.22464679914735E-16,1.));
#1296=DIRECTION('',(1.,-2.13064395545473E-49,-1.67651140177598E-32));
#1297=DIRECTION('',(1.67651140177598E-32,1.22464679914735E-16,1.));
#1298=DIRECTION('',(1.,-2.13064395545473E-49,-1.67651140177598E-32));
#1299=DIRECTION('center_axis',(1.84006992637353E-48,-1.,1.22464679914735E-16));
#1300=DIRECTION('ref_axis',(-1.67651140177598E-32,-1.22464679914735E-16,
-1.));
#1301=DIRECTION('',(1.,-2.13064395545473E-49,-1.67651140177598E-32));
#1302=DIRECTION('',(-1.67651140177598E-32,-1.22464679914735E-16,-1.));
#1303=DIRECTION('',(1.,-2.13064395545473E-49,-1.67651140177598E-32));
#1304=DIRECTION('center_axis',(-1.67651140177598E-32,-1.22464679914735E-16,
-1.));
#1305=DIRECTION('ref_axis',(-1.84006992637353E-48,1.,-1.22464679914735E-16));
#1306=DIRECTION('center_axis',(1.67651140177598E-32,1.22464679914735E-16,
1.));
#1307=DIRECTION('ref_axis',(1.,-2.13064395545473E-49,-1.67651140177598E-32));
#1308=DIRECTION('',(1.,-2.13064395545473E-49,-1.67651140177598E-32));
#1309=DIRECTION('',(1.84006992637353E-48,-1.,1.22464679914735E-16));
#1310=DIRECTION('',(1.,-2.13064395545473E-49,-1.67651140177598E-32));
#1311=DIRECTION('center_axis',(1.67651140177598E-32,1.22464679914735E-16,
1.));
#1312=DIRECTION('ref_axis',(1.,-2.13064395545473E-49,-1.67651140177598E-32));
#1313=DIRECTION('',(-1.84006992637353E-48,1.,-1.22464679914735E-16));
#1314=DIRECTION('center_axis',(1.67651140177598E-32,1.22464679914735E-16,
1.));
#1315=DIRECTION('ref_axis',(-1.,2.13064395545473E-49,1.67651140177598E-32));
#1316=DIRECTION('center_axis',(1.67651140177598E-32,1.22464679914735E-16,
1.));
#1317=DIRECTION('ref_axis',(1.,-2.13064395545473E-49,-1.67651140177598E-32));
#1318=DIRECTION('center_axis',(-1.67651140177598E-32,-1.22464679914735E-16,
-1.));
#1319=DIRECTION('ref_axis',(1.,-2.13064395545473E-49,-1.67651140177598E-32));
#1320=DIRECTION('center_axis',(-1.67651140177598E-32,-1.22464679914735E-16,
-1.));
#1321=DIRECTION('ref_axis',(1.,-2.13064395545473E-49,-1.67651140177598E-32));
#1322=DIRECTION('',(-1.67651140177598E-32,-1.22464679914735E-16,-1.));
#1323=DIRECTION('center_axis',(1.67651140177598E-32,1.22464679914735E-16,
1.));
#1324=DIRECTION('ref_axis',(1.,-2.13064395545473E-49,-1.67651140177598E-32));
#1325=DIRECTION('center_axis',(1.67651140177598E-32,1.22464679914735E-16,
1.));
#1326=DIRECTION('ref_axis',(1.,-2.13064395545473E-49,-1.67651140177598E-32));
#1327=DIRECTION('',(1.67651140177598E-32,1.22464679914735E-16,1.));
#1328=DIRECTION('center_axis',(1.67651140177598E-32,1.22464679914735E-16,
1.));
#1329=DIRECTION('ref_axis',(1.,-2.13064395545473E-49,-1.67651140177598E-32));
#1330=DIRECTION('',(-1.67651140177598E-32,-1.22464679914735E-16,-1.));
#1331=DIRECTION('center_axis',(1.67651140177598E-32,1.22464679914735E-16,
1.));
#1332=DIRECTION('ref_axis',(1.,-2.13064395545473E-49,-1.67651140177598E-32));
#1333=DIRECTION('center_axis',(1.67651140177598E-32,1.22464679914735E-16,
1.));
#1334=DIRECTION('ref_axis',(1.,-2.13064395545473E-49,-1.67651140177598E-32));
#1335=DIRECTION('',(1.67651140177598E-32,1.22464679914735E-16,1.));
#1336=DIRECTION('center_axis',(1.67651140177598E-32,1.22464679914735E-16,
1.));
#1337=DIRECTION('ref_axis',(1.,-2.13064395545473E-49,-1.67651140177598E-32));
#1338=DIRECTION('',(1.67651140177598E-32,1.22464679914735E-16,1.));
#1339=DIRECTION('center_axis',(-1.67651140177598E-32,-1.22464679914735E-16,
-1.));
#1340=DIRECTION('ref_axis',(-1.84006992637353E-48,1.,-1.22464679914735E-16));
#1341=DIRECTION('',(1.,-2.13064395545473E-49,-1.67651140177598E-32));
#1342=DIRECTION('',(1.84006992637353E-48,-1.,1.22464679914735E-16));
#1343=DIRECTION('',(1.,-2.13064395545473E-49,-1.67651140177598E-32));
#1344=DIRECTION('center_axis',(1.67651140177598E-32,1.22464679914735E-16,
1.));
#1345=DIRECTION('ref_axis',(-1.,2.13064395545473E-49,1.67651140177598E-32));
#1346=DIRECTION('center_axis',(1.67651140177598E-32,1.22464679914735E-16,
1.));
#1347=DIRECTION('ref_axis',(-1.,2.13064395545473E-49,1.67651140177598E-32));
#1348=DIRECTION('',(1.67651140177598E-32,1.22464679914735E-16,1.));
#1349=DIRECTION('center_axis',(1.67651140177598E-32,1.22464679914735E-16,
1.));
#1350=DIRECTION('ref_axis',(-1.,2.13064395545473E-49,1.67651140177598E-32));
#1351=DIRECTION('center_axis',(-1.67651140177598E-32,-1.22464679914735E-16,
-1.));
#1352=DIRECTION('ref_axis',(1.,-2.13064395545473E-49,-1.67651140177598E-32));
#1353=DIRECTION('center_axis',(-1.67651140177598E-32,-1.22464679914735E-16,
-1.));
#1354=DIRECTION('ref_axis',(-1.,2.13064395545473E-49,1.67651140177598E-32));
#1355=DIRECTION('center_axis',(1.67651140177598E-32,1.22464679914735E-16,
1.));
#1356=DIRECTION('ref_axis',(-1.,2.13064395545473E-49,1.67651140177598E-32));
#1357=DIRECTION('center_axis',(1.67651140177598E-32,1.22464679914735E-16,
1.));
#1358=DIRECTION('ref_axis',(-1.,2.13064395545473E-49,1.67651140177598E-32));
#1359=DIRECTION('',(1.67651140177598E-32,1.22464679914735E-16,1.));
#1360=DIRECTION('center_axis',(1.67651140177598E-32,1.22464679914735E-16,
1.));
#1361=DIRECTION('ref_axis',(-1.,2.13064395545473E-49,1.67651140177598E-32));
#1362=DIRECTION('center_axis',(-1.67651140177598E-32,-1.22464679914735E-16,
-1.));
#1363=DIRECTION('ref_axis',(1.,-2.13064395545473E-49,-1.67651140177598E-32));
#1364=DIRECTION('center_axis',(-1.67651140177598E-32,-1.22464679914735E-16,
-1.));
#1365=DIRECTION('ref_axis',(-1.,2.13064395545473E-49,1.67651140177598E-32));
#1366=DIRECTION('center_axis',(1.67651140177598E-32,1.22464679914735E-16,
1.));
#1367=DIRECTION('ref_axis',(-1.,2.13064395545473E-49,1.67651140177598E-32));
#1368=DIRECTION('',(1.67651140177598E-32,1.22464679914735E-16,1.));
#1369=DIRECTION('center_axis',(-1.67651140177598E-32,-5.37501324634421E-16,
-1.));
#1370=DIRECTION('ref_axis',(-1.,2.13064395545473E-49,1.67651140177598E-32));
#1371=DIRECTION('center_axis',(1.67651140177598E-32,1.22464679914735E-16,
1.));
#1372=DIRECTION('ref_axis',(-1.,2.13064395545473E-49,1.67651140177598E-32));
#1373=DIRECTION('',(1.67651140177598E-32,1.22464679914735E-16,1.));
#1374=DIRECTION('center_axis',(-1.67651140177598E-32,-1.22464679914735E-16,
-1.));
#1375=DIRECTION('ref_axis',(-1.,2.13064395545473E-49,1.67651140177598E-32));
#1376=DIRECTION('center_axis',(-1.,2.13064395545473E-49,1.67651140177598E-32));
#1377=DIRECTION('ref_axis',(-1.84006992637353E-48,1.,-1.22464679914735E-16));
#1378=DIRECTION('',(1.84006992637353E-48,-1.,1.22464679914735E-16));
#1379=DIRECTION('',(1.67651140177598E-32,1.22464679914735E-16,1.));
#1380=DIRECTION('',(-1.67651140177598E-32,-1.22464679914735E-16,-1.));
#1381=DIRECTION('',(-1.67651140177598E-32,-1.22464679914735E-16,-1.));
#1382=DIRECTION('',(-1.84006992637353E-48,1.,-1.22464679914735E-16));
#1383=DIRECTION('',(-1.67651140177598E-32,-1.22464679914735E-16,-1.));
#1384=DIRECTION('',(-1.84006992637353E-48,1.,-1.22464679914735E-16));
#1385=DIRECTION('',(1.67651140177598E-32,-8.86828978835406E-16,1.));
#1386=DIRECTION('',(-8.79820659664753E-48,1.,-5.37501324634421E-16));
#1387=DIRECTION('',(1.67651140177598E-32,1.22464679914735E-16,1.));
#1388=DIRECTION('',(1.84006992637353E-48,-1.,1.22464679914735E-16));
#1389=DIRECTION('',(1.67651140177598E-32,1.22464679914735E-16,1.));
#1390=DIRECTION('',(-1.676509119173E-32,0.0016501627697697,-0.99999863848049));
#1391=DIRECTION('center_axis',(1.84006992637353E-48,-1.,1.22464679914735E-16));
#1392=DIRECTION('ref_axis',(1.67651140177598E-32,1.22464679914735E-16,1.));
#1393=DIRECTION('',(-1.,2.13064395545473E-49,1.67651140177598E-32));
#1394=DIRECTION('',(1.67651140177598E-32,1.22464679914735E-16,1.));
#1395=DIRECTION('',(-1.,2.13064395545473E-49,1.67651140177598E-32));
#1396=DIRECTION('center_axis',(2.76651669830516E-35,0.99999863848049,0.0016501627697697));
#1397=DIRECTION('ref_axis',(-1.676509119173E-32,0.0016501627697697,-0.99999863848049));
#1398=DIRECTION('',(-1.676509119173E-32,0.0016501627697697,-0.99999863848049));
#1399=DIRECTION('',(-1.,2.13064395545473E-49,1.67651140177598E-32));
#1400=DIRECTION('center_axis',(-1.67651140177598E-32,-1.22464679914735E-16,
-1.));
#1401=DIRECTION('ref_axis',(1.84006992637353E-48,-1.,1.22464679914735E-16));
#1402=DIRECTION('',(1.84006992637353E-48,-1.,1.22464679914735E-16));
#1403=DIRECTION('center_axis',(-1.,2.13064395545473E-49,1.67651140177598E-32));
#1404=DIRECTION('ref_axis',(-1.67651140177598E-32,-1.22464679914735E-16,
-1.));
#1405=DIRECTION('',(1.84006992637353E-48,-1.,1.22464679914735E-16));
#1406=DIRECTION('',(-1.84006992637353E-48,1.,-1.22464679914735E-16));
#1407=DIRECTION('center_axis',(-1.67651140177598E-32,-1.22464679914735E-16,
-1.));
#1408=DIRECTION('ref_axis',(-1.84006992637353E-48,1.,-1.22464679914735E-16));
#1409=DIRECTION('',(1.,-2.13064395545473E-49,-1.67651140177598E-32));
#1410=DIRECTION('',(1.,-2.13064395545473E-49,-1.67651140177598E-32));
#1411=DIRECTION('center_axis',(1.84006992637353E-48,-1.,1.22464679914735E-16));
#1412=DIRECTION('ref_axis',(-1.67651140177598E-32,-1.22464679914735E-16,
-1.));
#1413=DIRECTION('center_axis',(-1.84006992637353E-48,1.,-1.22464679914735E-16));
#1414=DIRECTION('ref_axis',(1.67651140177598E-32,1.22464679914735E-16,1.));
#1415=DIRECTION('center_axis',(-1.84006992637353E-48,1.,-1.22464679914735E-16));
#1416=DIRECTION('ref_axis',(1.67651140177598E-32,1.22464679914735E-16,1.));
#1417=DIRECTION('',(1.,-2.13064395545473E-49,-1.67651140177598E-32));
#1418=DIRECTION('center_axis',(1.67651140177598E-32,1.22464679914735E-16,
1.));
#1419=DIRECTION('ref_axis',(1.84006992637353E-48,-1.,1.22464679914735E-16));
#1420=DIRECTION('',(1.,-2.13064395545473E-49,-1.67651140177598E-32));
#1421=DIRECTION('center_axis',(-1.84006992637353E-48,1.,-1.22464679914735E-16));
#1422=DIRECTION('ref_axis',(1.67651140177598E-32,1.22464679914735E-16,1.));
#1423=DIRECTION('',(1.,-2.13064395545473E-49,-1.67651140177598E-32));
#1424=DIRECTION('center_axis',(1.67651140177598E-32,1.22464679914735E-16,
1.));
#1425=DIRECTION('ref_axis',(1.84006992637353E-48,-1.,1.22464679914735E-16));
#1426=DIRECTION('',(1.,-2.13064395545473E-49,-1.67651140177598E-32));
#1427=DIRECTION('center_axis',(-1.50808533399746E-47,-1.,-8.86828978835406E-16));
#1428=DIRECTION('ref_axis',(-1.67651140177598E-32,8.86828978835406E-16,
-1.));
#1429=DIRECTION('',(1.,-2.13064395545473E-49,-1.67651140177598E-32));
#1430=DIRECTION('center_axis',(1.67651140177598E-32,5.37501324634421E-16,
1.));
#1431=DIRECTION('ref_axis',(8.79820659664753E-48,-1.,5.37501324634421E-16));
#1432=DIRECTION('',(1.,-2.13064395545473E-49,-1.67651140177598E-32));
#1433=DIRECTION('center_axis',(1.84006992637353E-48,-1.,1.22464679914735E-16));
#1434=DIRECTION('ref_axis',(-1.67651140177598E-32,-1.22464679914735E-16,
-1.));
#1435=DIRECTION('center_axis',(-1.67651140177598E-32,-1.22464679914735E-16,
-1.));
#1436=DIRECTION('ref_axis',(-1.84006992637353E-48,1.,-1.22464679914735E-16));
#1437=DIRECTION('center_axis',(1.67651140177598E-32,1.22464679914735E-16,
1.));
#1438=DIRECTION('ref_axis',(1.84006992637353E-48,-1.,1.22464679914735E-16));
#1439=DIRECTION('',(1.84006992637353E-48,-1.,1.22464679914735E-16));
#1440=DIRECTION('center_axis',(1.,-2.13064395545473E-49,-1.67651140177598E-32));
#1441=DIRECTION('ref_axis',(1.67651140177598E-32,1.22464679914735E-16,1.));
#1442=CARTESIAN_POINT('',(0.,0.,0.));
#1443=CARTESIAN_POINT('Origin',(-27.7,12.45,19.7));
#1444=CARTESIAN_POINT('',(-27.7,10.4,19.7));
#1445=CARTESIAN_POINT('Origin',(-27.7,12.45,19.7));
#1446=CARTESIAN_POINT('',(-21.7,10.4,19.7));
#1447=CARTESIAN_POINT('',(-27.7,10.4,19.7));
#1448=CARTESIAN_POINT('',(-21.7,11.3813708498985,21.4494375494865));
#1449=CARTESIAN_POINT('Origin',(-21.7,12.45,19.7));
#1450=CARTESIAN_POINT('',(-22.0525790350213,10.6604469831827,20.7));
#1451=CARTESIAN_POINT('Ctrl Pts',(-22.0525790350213,10.6604469831827,20.7));
#1452=CARTESIAN_POINT('Ctrl Pts',(-22.0369560258605,10.7271561062633,20.8193795124583));
#1453=CARTESIAN_POINT('Ctrl Pts',(-22.0146798367306,10.8046342134156,20.929413282698));
#1454=CARTESIAN_POINT('Ctrl Pts',(-21.9299601240113,11.0285581933586,21.1932853546649));
#1455=CARTESIAN_POINT('Ctrl Pts',(-21.8297085083356,11.2208647597105,21.3513937600446));
#1456=CARTESIAN_POINT('Ctrl Pts',(-21.7,11.3813708498985,21.4494375494865));
#1457=CARTESIAN_POINT('',(-21.7,10.6604469831827,20.7));
#1458=CARTESIAN_POINT('',(-27.7,10.6604469831827,20.7));
#1459=CARTESIAN_POINT('Origin',(-21.7,12.45,19.7));
#1460=CARTESIAN_POINT('Origin',(-21.7,12.45,19.7));
#1461=CARTESIAN_POINT('',(-21.7,11.3813708498985,20.7));
#1462=CARTESIAN_POINT('',(-21.7,6.22499999999998,20.7));
#1463=CARTESIAN_POINT('',(-21.7,11.3813708498985,23.7));
#1464=CARTESIAN_POINT('Origin',(-27.7,-12.45,-18.8));
#1465=CARTESIAN_POINT('',(-27.7,-14.5,-18.8));
#1466=CARTESIAN_POINT('Origin',(-27.7,-12.45,-18.8));
#1467=CARTESIAN_POINT('',(-21.7,-14.5,-18.8));
#1468=CARTESIAN_POINT('',(-27.7,-14.5,-18.8));
#1469=CARTESIAN_POINT('Origin',(-21.7,-12.45,-18.8));
#1470=CARTESIAN_POINT('Origin',(-21.7,-12.45,-18.8));
#1471=CARTESIAN_POINT('Origin',(-27.7,12.45,-18.8));
#1472=CARTESIAN_POINT('',(-27.7,10.4,-18.8));
#1473=CARTESIAN_POINT('Origin',(-27.7,12.45,-18.8));
#1474=CARTESIAN_POINT('',(-21.7,10.4,-18.8));
#1475=CARTESIAN_POINT('',(-27.7,10.4,-18.8));
#1476=CARTESIAN_POINT('Origin',(-21.7,12.45,-18.8));
#1477=CARTESIAN_POINT('Origin',(-21.7,12.45,-18.8));
#1478=CARTESIAN_POINT('Origin',(-21.7,-12.45,19.7));
#1479=CARTESIAN_POINT('',(-21.7,-10.6604469831827,20.7));
#1480=CARTESIAN_POINT('',(-21.7,-11.3813708498985,20.7));
#1481=CARTESIAN_POINT('',(-21.7,-6.22500000000001,20.7));
#1482=CARTESIAN_POINT('',(-21.7,-14.5,19.7));
#1483=CARTESIAN_POINT('Origin',(-21.7,-12.45,19.7));
#1484=CARTESIAN_POINT('',(-21.7,-11.3813708498985,21.4494375494865));
#1485=CARTESIAN_POINT('Origin',(-21.7,-12.45,19.7));
#1486=CARTESIAN_POINT('',(-21.7,-11.3813708498985,23.7));
#1487=CARTESIAN_POINT('Origin',(-27.7,-12.45,19.7));
#1488=CARTESIAN_POINT('',(-27.7,-14.5,19.7));
#1489=CARTESIAN_POINT('Origin',(-27.7,-12.45,19.7));
#1490=CARTESIAN_POINT('',(-27.7,-14.5,19.7));
#1491=CARTESIAN_POINT('',(-22.0525790350213,-10.6604469831827,20.7));
#1492=CARTESIAN_POINT('',(-27.7,-10.6604469831827,20.7));
#1493=CARTESIAN_POINT('Ctrl Pts',(-21.7,-11.3813708498985,21.4494375494865));
#1494=CARTESIAN_POINT('Ctrl Pts',(-21.8297085083356,-11.2208647597106,21.3513937600446));
#1495=CARTESIAN_POINT('Ctrl Pts',(-21.9299601240112,-11.0285581933587,21.1932853546649));
#1496=CARTESIAN_POINT('Ctrl Pts',(-22.0146798367306,-10.8046342134156,20.929413282698));
#1497=CARTESIAN_POINT('Ctrl Pts',(-22.0369560258605,-10.7271561062634,20.8193795124583));
#1498=CARTESIAN_POINT('Ctrl Pts',(-22.0525790350213,-10.6604469831827,20.7));
#1499=CARTESIAN_POINT('Origin',(-20.3,-1.31183216824404E-14,20.7));
#1500=CARTESIAN_POINT('',(-22.1,10.25,20.7));
#1501=CARTESIAN_POINT('Origin',(-20.3,10.25,20.7));
#1502=CARTESIAN_POINT('Origin',(-20.3,10.25,20.7));
#1503=CARTESIAN_POINT('',(-21.6,10.25,20.7));
#1504=CARTESIAN_POINT('Origin',(-20.3,10.25,20.7));
#1505=CARTESIAN_POINT('Origin',(-20.3,-10.25,23.7));
#1506=CARTESIAN_POINT('',(-22.1,-10.25,23.7));
#1507=CARTESIAN_POINT('Origin',(-20.3,-10.25,23.7));
#1508=CARTESIAN_POINT('',(-22.1,-10.25,20.7));
#1509=CARTESIAN_POINT('',(-22.1,-10.25,23.7));
#1510=CARTESIAN_POINT('Origin',(-20.3,-10.25,20.7));
#1511=CARTESIAN_POINT('Origin',(-20.3,-10.25,20.7));
#1512=CARTESIAN_POINT('Origin',(-9.5732691916191,-1.99311932284933E-14,
-16.8));
#1513=CARTESIAN_POINT('',(-14.3113489218339,-16.45,-16.8));
#1514=CARTESIAN_POINT('',(-2.7,-16.45,-16.8));
#1515=CARTESIAN_POINT('',(-16.1366345958095,-16.45,-16.8));
#1516=CARTESIAN_POINT('',(-2.7,-1.58815110902464,-16.8));
#1517=CARTESIAN_POINT('',(-14.7044976680476,-16.9532074479234,-16.8));
#1518=CARTESIAN_POINT('',(-2.7,-1.99311932284933E-14,-16.8));
#1519=CARTESIAN_POINT('Origin',(-24.874262154656,29.9698716141238,-22.8));
#1520=CARTESIAN_POINT('',(-14.3113690637946,16.45,-16.8));
#1521=CARTESIAN_POINT('',(-14.3113690637946,16.45,-22.8));
#1522=CARTESIAN_POINT('',(-14.3113690637946,16.45,-22.8));
#1523=CARTESIAN_POINT('',(-2.7,1.58814182758979,-16.8));
#1524=CARTESIAN_POINT('',(-2.99698025683959,1.96825880026601,-16.8));
#1525=CARTESIAN_POINT('',(-2.7,1.58814182758979,-22.8));
#1526=CARTESIAN_POINT('',(-2.7,1.58814182758979,-11.175));
#1527=CARTESIAN_POINT('',(-13.2019426688016,15.0300005456267,-22.8));
#1528=CARTESIAN_POINT('Origin',(-1.45920330278105,-3.75916642771286E-6,
-22.8));
#1529=CARTESIAN_POINT('',(-14.3113489218339,-16.45,-22.8));
#1530=CARTESIAN_POINT('',(-14.3113489218339,-16.45,0.449999999999997));
#1531=CARTESIAN_POINT('',(-2.7,-1.58815110902464,-22.8));
#1532=CARTESIAN_POINT('',(-9.47508928926046,-10.2598699521745,-22.8));
#1533=CARTESIAN_POINT('',(-2.7,-1.58815110902463,-11.175));
#1534=CARTESIAN_POINT('Origin',(-9.5732691916191,-1.99311932284933E-14,
-16.8));
#1535=CARTESIAN_POINT('',(-2.7,16.45,-16.8));
#1536=CARTESIAN_POINT('',(-16.1366345958095,16.45,-16.8));
#1537=CARTESIAN_POINT('',(-2.7,-1.99311932284933E-14,-16.8));
#1538=CARTESIAN_POINT('Origin',(-22.7,-16.45,23.7));
#1539=CARTESIAN_POINT('',(-2.7,-16.45,17.6));
#1540=CARTESIAN_POINT('',(-2.7,-16.45,23.7));
#1541=CARTESIAN_POINT('',(-14.3113489218339,-16.45,17.6));
#1542=CARTESIAN_POINT('',(-14.9053116451582,-16.45,17.6));
#1543=CARTESIAN_POINT('',(-14.3113489218339,-16.45,23.7));
#1544=CARTESIAN_POINT('',(-14.3113489218339,-16.45,21.15));
#1545=CARTESIAN_POINT('',(-27.7,-16.45,23.7));
#1546=CARTESIAN_POINT('',(-22.7,-16.45,23.7));
#1547=CARTESIAN_POINT('',(-27.7,-16.45,-22.8));
#1548=CARTESIAN_POINT('',(-27.7,-16.45,23.7));
#1549=CARTESIAN_POINT('',(-22.7,-16.45,-22.8));
#1550=CARTESIAN_POINT('Origin',(-22.7,16.45,-22.8));
#1551=CARTESIAN_POINT('',(-27.7,16.45,-22.8));
#1552=CARTESIAN_POINT('',(-22.7,16.45,-22.8));
#1553=CARTESIAN_POINT('',(-27.7,16.45,23.7));
#1554=CARTESIAN_POINT('',(-27.7,16.45,23.7));
#1555=CARTESIAN_POINT('',(-14.3113690637946,16.45,23.7));
#1556=CARTESIAN_POINT('',(-22.7,16.45,23.7));
#1557=CARTESIAN_POINT('',(-14.3113690637946,16.45,17.6));
#1558=CARTESIAN_POINT('',(-14.3113690637946,16.45,-2.10000000000001));
#1559=CARTESIAN_POINT('',(-2.7,16.45,17.6));
#1560=CARTESIAN_POINT('',(-14.9053116451582,16.45,17.6));
#1561=CARTESIAN_POINT('',(-2.7,16.45,23.7));
#1562=CARTESIAN_POINT('Origin',(-2.7,-1.78186774999641E-14,0.44999999999999));
#1563=CARTESIAN_POINT('',(-2.7,-11.0999999999609,-22.8));
#1564=CARTESIAN_POINT('',(-2.7,9.3,17.6));
#1565=CARTESIAN_POINT('',(-2.7,-1.57184082394264E-14,17.6));
#1566=CARTESIAN_POINT('',(-2.7,9.3,16.9));
#1567=CARTESIAN_POINT('',(-2.7,9.3,16.9));
#1568=CARTESIAN_POINT('',(-2.7,12.45,16.9));
#1569=CARTESIAN_POINT('',(-2.7,12.45,16.9));
#1570=CARTESIAN_POINT('',(-2.7,12.45,-15.1));
#1571=CARTESIAN_POINT('',(-2.7,12.45,16.9));
#1572=CARTESIAN_POINT('',(-2.7,7.09999999999999,-15.1));
#1573=CARTESIAN_POINT('',(-2.7,7.09999999999999,-15.1));
#1574=CARTESIAN_POINT('',(-2.7,7.09999999999999,-16.2));
#1575=CARTESIAN_POINT('',(-2.7,7.09999999999999,-16.2));
#1576=CARTESIAN_POINT('',(-2.7,-7.10000000000002,-16.2));
#1577=CARTESIAN_POINT('',(-2.7,-7.10000000000002,-16.2));
#1578=CARTESIAN_POINT('',(-2.7,-7.10000000000002,-15.1));
#1579=CARTESIAN_POINT('',(-2.7,-7.10000000000002,-15.1));
#1580=CARTESIAN_POINT('',(-2.7,-12.45,-15.1));
#1581=CARTESIAN_POINT('',(-2.7,-12.45,-15.1));
#1582=CARTESIAN_POINT('',(-2.7,-12.45,16.9));
#1583=CARTESIAN_POINT('',(-2.7,-12.45,16.9));
#1584=CARTESIAN_POINT('',(-2.7,-9.30000000000001,16.9));
#1585=CARTESIAN_POINT('',(-2.7,-9.30000000000001,16.9));
#1586=CARTESIAN_POINT('',(-2.7,-9.30000000000001,17.6));
#1587=CARTESIAN_POINT('',(-2.7,-9.30000000000001,18.7));
#1588=CARTESIAN_POINT('',(-2.7,-1.57184082394264E-14,17.6));
#1589=CARTESIAN_POINT('Origin',(-7.11062329031646,-1.57184082394264E-14,
17.6));
#1590=CARTESIAN_POINT('',(-8.72517063268231,9.3,17.6));
#1591=CARTESIAN_POINT('',(-14.9053116451582,9.3,17.6));
#1592=CARTESIAN_POINT('',(-24.8742621546559,29.9698716141238,17.6));
#1593=CARTESIAN_POINT('Origin',(-7.11062329031646,-1.57184082394264E-14,
17.6));
#1594=CARTESIAN_POINT('',(-8.72515669231084,-9.30000000000001,17.6));
#1595=CARTESIAN_POINT('',(-14.9053116451582,-9.30000000000001,17.6));
#1596=CARTESIAN_POINT('',(-24.8742460130708,-29.9698917436453,17.6));
#1597=CARTESIAN_POINT('Origin',(-24.8742621546559,29.9698716141238,18.6));
#1598=CARTESIAN_POINT('',(-8.72517063268231,9.3,18.7));
#1599=CARTESIAN_POINT('',(-8.72517063268231,9.3,18.65));
#1600=CARTESIAN_POINT('',(-2.7,1.58814182758979,23.7));
#1601=CARTESIAN_POINT('',(-21.1826271608117,25.2447995402464,23.7));
#1602=CARTESIAN_POINT('',(-2.7,1.58814182758979,18.7));
#1603=CARTESIAN_POINT('',(-2.7,1.58814182758979,9.525));
#1604=CARTESIAN_POINT('',(-14.9363467453326,17.249934065734,18.7));
#1605=CARTESIAN_POINT('Origin',(-1.45920330278105,-3.75916642486327E-6,
18.6));
#1606=CARTESIAN_POINT('',(-8.72515669231084,-9.30000000000001,18.7));
#1607=CARTESIAN_POINT('',(-8.72515669231084,-9.30000000000001,17.75));
#1608=CARTESIAN_POINT('',(-2.7,-1.58815110902463,18.7));
#1609=CARTESIAN_POINT('',(-7.74068567854211,-8.0399345637901,18.7));
#1610=CARTESIAN_POINT('',(-2.7,-1.58815110902463,23.7));
#1611=CARTESIAN_POINT('',(-2.7,-1.58815110902463,9.525));
#1612=CARTESIAN_POINT('',(-1.49440694064038,-0.0450623608672368,23.7));
#1613=CARTESIAN_POINT('Origin',(-22.7,-9.30000000000001,16.9));
#1614=CARTESIAN_POINT('',(-19.4125880325351,-9.30000000000001,16.9));
#1615=CARTESIAN_POINT('',(-22.7,-9.30000000000001,16.9));
#1616=CARTESIAN_POINT('',(-19.4125880325351,-9.30000000000001,18.7));
#1617=CARTESIAN_POINT('',(-19.4125880325351,-9.30000000000001,16.8));
#1618=CARTESIAN_POINT('',(-22.7,-9.30000000000001,18.7));
#1619=CARTESIAN_POINT('Origin',(-22.7,9.3,18.7));
#1620=CARTESIAN_POINT('',(-19.4125880325351,9.3,18.7));
#1621=CARTESIAN_POINT('',(-22.7,9.3,18.7));
#1622=CARTESIAN_POINT('',(-19.4125880325351,9.3,16.9));
#1623=CARTESIAN_POINT('',(-19.4125880325351,9.3,16.8));
#1624=CARTESIAN_POINT('',(-22.7,9.3,16.9));
#1625=CARTESIAN_POINT('Origin',(-22.7,-9.30000000000001,18.7));
#1626=CARTESIAN_POINT('',(-21.1874119674649,-9.30000000000001,18.7));
#1627=CARTESIAN_POINT('Origin',(-20.3,-10.25,18.7));
#1628=CARTESIAN_POINT('',(-22.7,-9.30000000000001,18.7));
#1629=CARTESIAN_POINT('',(-22.7,-9.30000000000001,18.7));
#1630=CARTESIAN_POINT('',(-22.7,9.3,18.7));
#1631=CARTESIAN_POINT('',(-22.7,9.3,18.7));
#1632=CARTESIAN_POINT('',(-21.1874119674649,9.3,18.7));
#1633=CARTESIAN_POINT('',(-22.7,9.3,18.7));
#1634=CARTESIAN_POINT('Origin',(-20.3,10.25,18.7));
#1635=CARTESIAN_POINT('',(-2.7,9.3,18.7));
#1636=CARTESIAN_POINT('Origin',(-20.3,-1.31183216824404E-14,20.7));
#1637=CARTESIAN_POINT('',(-21.6,-10.25,20.7));
#1638=CARTESIAN_POINT('Origin',(-20.3,-10.25,20.7));
#1639=CARTESIAN_POINT('Origin',(-20.3,10.25,23.7));
#1640=CARTESIAN_POINT('',(-22.1,10.25,23.7));
#1641=CARTESIAN_POINT('Origin',(-20.3,10.25,23.7));
#1642=CARTESIAN_POINT('',(-22.1,10.25,23.7));
#1643=CARTESIAN_POINT('Origin',(-20.3,-10.25,16.8));
#1644=CARTESIAN_POINT('',(-21.6,-10.25,16.9));
#1645=CARTESIAN_POINT('Origin',(-20.3,-10.25,16.9));
#1646=CARTESIAN_POINT('',(-21.6,-10.25,16.8));
#1647=CARTESIAN_POINT('',(-21.1874119674649,-9.30000000000001,16.9));
#1648=CARTESIAN_POINT('Origin',(-20.3,-10.25,16.9));
#1649=CARTESIAN_POINT('',(-21.1874119674649,-9.30000000000001,16.8));
#1650=CARTESIAN_POINT('Origin',(-20.3,10.25,16.8));
#1651=CARTESIAN_POINT('',(-21.6,10.25,16.9));
#1652=CARTESIAN_POINT('Origin',(-20.3,10.25,16.9));
#1653=CARTESIAN_POINT('',(-21.1874119674649,9.3,16.9));
#1654=CARTESIAN_POINT('',(-21.1874119674649,9.3,16.8));
#1655=CARTESIAN_POINT('Origin',(-20.3,10.25,16.9));
#1656=CARTESIAN_POINT('',(-21.6,10.25,16.8));
#1657=CARTESIAN_POINT('Origin',(-22.7,-12.45,16.9));
#1658=CARTESIAN_POINT('',(-22.7,-12.45,16.9));
#1659=CARTESIAN_POINT('',(-22.7,-12.45,16.9));
#1660=CARTESIAN_POINT('',(-22.7,-9.30000000000001,16.9));
#1661=CARTESIAN_POINT('',(-22.7,-9.30000000000001,16.9));
#1662=CARTESIAN_POINT('',(-22.7,-9.30000000000001,16.9));
#1663=CARTESIAN_POINT('Origin',(-16.5,-10.25,-22.8));
#1664=CARTESIAN_POINT('',(-14.7,-10.25,-22.8));
#1665=CARTESIAN_POINT('Origin',(-16.5,-10.25,-22.8));
#1666=CARTESIAN_POINT('',(-14.7,-10.25,-19.3));
#1667=CARTESIAN_POINT('',(-14.7,-10.25,-22.8));
#1668=CARTESIAN_POINT('Origin',(-16.5,-10.25,-19.3));
#1669=CARTESIAN_POINT('Origin',(-16.5,-1.80169088790298E-14,-19.3));
#1670=CARTESIAN_POINT('',(-15.2,-10.25,-19.3));
#1671=CARTESIAN_POINT('Origin',(-16.5,-10.25,-19.3));
#1672=CARTESIAN_POINT('Origin',(-16.5,10.25,-22.8));
#1673=CARTESIAN_POINT('',(-14.7,10.25,-22.8));
#1674=CARTESIAN_POINT('Origin',(-16.5,10.25,-22.8));
#1675=CARTESIAN_POINT('',(-14.7,10.25,-19.3));
#1676=CARTESIAN_POINT('',(-14.7,10.25,-22.8));
#1677=CARTESIAN_POINT('Origin',(-16.5,10.25,-19.3));
#1678=CARTESIAN_POINT('Origin',(-16.5,-1.80169088790298E-14,-19.3));
#1679=CARTESIAN_POINT('',(-15.2,10.25,-19.3));
#1680=CARTESIAN_POINT('Origin',(-16.5,10.25,-19.3));
#1681=CARTESIAN_POINT('Origin',(-16.5,10.25,-17.8));
#1682=CARTESIAN_POINT('',(-15.2,10.25,-15.1));
#1683=CARTESIAN_POINT('',(-15.2,10.25,-17.8));
#1684=CARTESIAN_POINT('Origin',(-16.5,10.25,-15.1));
#1685=CARTESIAN_POINT('Origin',(-16.5,-10.25,-17.8));
#1686=CARTESIAN_POINT('',(-15.2,-10.25,-15.1));
#1687=CARTESIAN_POINT('',(-15.2,-10.25,-17.8));
#1688=CARTESIAN_POINT('Origin',(-16.5,-10.25,-15.1));
#1689=CARTESIAN_POINT('Origin',(-22.7,-1.78186774999641E-14,0.44999999999999));
#1690=CARTESIAN_POINT('',(-22.7,12.45,16.9));
#1691=CARTESIAN_POINT('',(-22.7,9.3,16.9));
#1692=CARTESIAN_POINT('',(-22.7,12.45,16.9));
#1693=CARTESIAN_POINT('',(-22.7,9.3,16.9));
#1694=CARTESIAN_POINT('',(-22.7,-9.30000000000001,18.7));
#1695=CARTESIAN_POINT('',(-22.7,-12.45,-15.1));
#1696=CARTESIAN_POINT('',(-22.7,-12.45,16.9));
#1697=CARTESIAN_POINT('',(-22.7,-7.10000000000002,-15.1));
#1698=CARTESIAN_POINT('',(-22.7,-12.45,-15.1));
#1699=CARTESIAN_POINT('',(-22.7,-7.10000000000002,-16.2));
#1700=CARTESIAN_POINT('',(-22.7,-7.10000000000002,-15.1));
#1701=CARTESIAN_POINT('',(-22.7,7.09999999999999,-16.2));
#1702=CARTESIAN_POINT('',(-22.7,-7.10000000000002,-16.2));
#1703=CARTESIAN_POINT('',(-22.7,7.09999999999999,-15.1));
#1704=CARTESIAN_POINT('',(-22.7,7.09999999999999,-16.2));
#1705=CARTESIAN_POINT('',(-22.7,12.45,-15.1));
#1706=CARTESIAN_POINT('',(-22.7,7.09999999999999,-15.1));
#1707=CARTESIAN_POINT('',(-22.7,12.45,16.9));
#1708=CARTESIAN_POINT('',(-22.7,-12.35,-13.5));
#1709=CARTESIAN_POINT('',(-22.7,-12.3524752475248,-13.5));
#1710=CARTESIAN_POINT('',(-22.7,-12.4,-13.5));
#1711=CARTESIAN_POINT('',(-22.7,-12.35,-15.));
#1712=CARTESIAN_POINT('',(-22.7,-12.35,16.8));
#1713=CARTESIAN_POINT('',(-22.7,-12.4,15.3));
#1714=CARTESIAN_POINT('Origin',(-22.7,-12.35,-15.));
#1715=CARTESIAN_POINT('',(-27.7,-12.35,-13.5));
#1716=CARTESIAN_POINT('',(-22.7,-12.35,-13.5));
#1717=CARTESIAN_POINT('',(-27.7,-12.35,-15.));
#1718=CARTESIAN_POINT('',(-27.7,-12.35,16.8));
#1719=CARTESIAN_POINT('',(-22.7,-12.35,-15.));
#1720=CARTESIAN_POINT('Origin',(-22.7,-12.3524752475248,-13.5));
#1721=CARTESIAN_POINT('',(-27.7,-12.3524752475248,-13.5));
#1722=CARTESIAN_POINT('',(-27.7,-12.4,15.3));
#1723=CARTESIAN_POINT('',(-22.7,-12.3524752475248,-13.5));
#1724=CARTESIAN_POINT('Origin',(-22.7,-12.35,-13.5));
#1725=CARTESIAN_POINT('',(-27.7,-12.4,-13.5));
#1726=CARTESIAN_POINT('Origin',(-27.7,-1.78186774999641E-14,0.44999999999999));
#1727=CARTESIAN_POINT('',(-27.7,-11.0999999999609,-22.8));
#1728=CARTESIAN_POINT('',(-27.7,-16.45,23.7));
#1729=CARTESIAN_POINT('Origin',(-22.7,9.3,16.9));
#1730=CARTESIAN_POINT('',(-22.7,9.3,16.9));
#1731=CARTESIAN_POINT('',(-22.7,12.45,16.9));
#1732=CARTESIAN_POINT('Origin',(-22.7,9.3,18.7));
#1733=CARTESIAN_POINT('Origin',(-22.7,-9.30000000000001,16.9));
#1734=CARTESIAN_POINT('Origin',(-22.7,-12.45,-15.1));
#1735=CARTESIAN_POINT('',(-22.7,-12.45,-15.1));
#1736=CARTESIAN_POINT('Origin',(-22.7,-7.10000000000002,-15.1));
#1737=CARTESIAN_POINT('',(-22.7,-7.10000000000002,-15.1));
#1738=CARTESIAN_POINT('Origin',(-22.7,-7.10000000000002,-16.2));
#1739=CARTESIAN_POINT('',(-22.7,-7.10000000000002,-16.2));
#1740=CARTESIAN_POINT('Origin',(-22.7,7.09999999999999,-16.2));
#1741=CARTESIAN_POINT('',(-22.7,7.09999999999999,-16.2));
#1742=CARTESIAN_POINT('Origin',(-22.7,7.09999999999999,-15.1));
#1743=CARTESIAN_POINT('',(-22.7,7.09999999999999,-15.1));
#1744=CARTESIAN_POINT('Origin',(-22.7,12.45,-15.1));
#1745=CARTESIAN_POINT('',(-22.7,12.45,-15.1));
#1746=CARTESIAN_POINT('Origin',(-22.7,12.45,16.9));
#1747=CARTESIAN_POINT('Origin',(-22.7,-16.45,-22.8));
#1748=CARTESIAN_POINT('Origin',(-22.7,16.45,23.7));
#1749=CARTESIAN_POINT('',(-2.7,-16.45,23.7));
#1750=CARTESIAN_POINT('Origin',(-2.7,-1.78186774999641E-14,0.44999999999999));
#1751=UNCERTAINTY_MEASURE_WITH_UNIT(LENGTH_MEASURE(0.01),#1755,
'DISTANCE_ACCURACY_VALUE',
'Maximum model space distance between geometric entities at asserted c
onnectivities');
#1752=UNCERTAINTY_MEASURE_WITH_UNIT(LENGTH_MEASURE(0.01),#1755,
'DISTANCE_ACCURACY_VALUE',
'Maximum model space distance between geometric entities at asserted c
onnectivities');
#1753=(
GEOMETRIC_REPRESENTATION_CONTEXT(3)
GLOBAL_UNCERTAINTY_ASSIGNED_CONTEXT((#1751))
GLOBAL_UNIT_ASSIGNED_CONTEXT((#1755,#1757,#1758))
REPRESENTATION_CONTEXT('','3D')
);
#1754=(
GEOMETRIC_REPRESENTATION_CONTEXT(3)
GLOBAL_UNCERTAINTY_ASSIGNED_CONTEXT((#1752))
GLOBAL_UNIT_ASSIGNED_CONTEXT((#1755,#1757,#1758))
REPRESENTATION_CONTEXT('','3D')
);
#1755=(
LENGTH_UNIT()
NAMED_UNIT(*)
SI_UNIT(.MILLI.,.METRE.)
);
#1756=(
LENGTH_UNIT()
NAMED_UNIT(*)
SI_UNIT($,.METRE.)
);
#1757=(
NAMED_UNIT(*)
PLANE_ANGLE_UNIT()
SI_UNIT($,.RADIAN.)
);
#1758=(
NAMED_UNIT(*)
SI_UNIT($,.STERADIAN.)
SOLID_ANGLE_UNIT()
);
#1759=SHAPE_DEFINITION_REPRESENTATION(#1760,#1761);
#1760=PRODUCT_DEFINITION_SHAPE('',$,#1763);
#1761=SHAPE_REPRESENTATION('',(#1071),#1753);
#1762=PRODUCT_DEFINITION_CONTEXT('part definition',#1767,'design');
#1763=PRODUCT_DEFINITION('J1-case','J1-case',#1764,#1762);
#1764=PRODUCT_DEFINITION_FORMATION('',$,#1769);
#1765=PRODUCT_RELATED_PRODUCT_CATEGORY('J1-case','J1-case',(#1769));
#1766=APPLICATION_PROTOCOL_DEFINITION('international standard',
'automotive_design',2009,#1767);
#1767=APPLICATION_CONTEXT(
'Core Data for Automotive Mechanical Design Process');
#1768=PRODUCT_CONTEXT('part definition',#1767,'mechanical');
#1769=PRODUCT('J1-case','J1-case',$,(#1768));
#1770=PRESENTATION_STYLE_ASSIGNMENT((#1771));
#1771=SURFACE_STYLE_USAGE(.BOTH.,#1772);
#1772=SURFACE_SIDE_STYLE('',(#1773));
#1773=SURFACE_STYLE_FILL_AREA(#1774);
#1774=FILL_AREA_STYLE('Nylon 6-6 (White)',(#1775));
#1775=FILL_AREA_STYLE_COLOUR('Nylon 6-6 (White)',#1776);
#1776=COLOUR_RGB('Nylon 6-6 (White)',0.972549019607843,0.968627450980392,
0.929411764705882);
ENDSEC;
END-ISO-10303-21;
