ISO-10303-21;
HEADER;
/* Generated by software containing ST-Developer
 * from STEP Tools, Inc. (www.steptools.com) 
 */

FILE_DESCRIPTION(
/* description */ (''),
/* implementation_level */ '2;1');

FILE_NAME(
/* name */ 'J1-holder.step',
/* time_stamp */ '2026-05-18T20:37:39+02:00',
/* author */ (''),
/* organization */ (''),
/* preprocessor_version */ 'ST-DEVELOPER v20.1',
/* originating_system */ 'Autodesk Translation Framework v15.8.0.0',
/* authorisation */ '');

FILE_SCHEMA (('AUTOMOTIVE_DESIGN { 1 0 10303 214 3 1 1 }'));
ENDSEC;

DATA;
#10=MECHANICAL_DESIGN_GEOMETRIC_PRESENTATION_REPRESENTATION('',(#13),#1100);
#11=SHAPE_REPRESENTATION_RELATIONSHIP('SRR','None',#1107,#12);
#12=ADVANCED_BREP_SHAPE_REPRESENTATION('',(#14),#1099);
#13=STYLED_ITEM('',(#1116),#14);
#14=MANIFOLD_SOLID_BREP('J1-holder',#672);
#15=FACE_BOUND('',#96,.T.);
#16=FACE_BOUND('',#100,.T.);
#17=FACE_BOUND('',#105,.T.);
#18=FACE_BOUND('',#114,.T.);
#19=FACE_BOUND('',#116,.T.);
#20=FACE_BOUND('',#118,.T.);
#21=PLANE('',#692);
#22=PLANE('',#693);
#23=PLANE('',#694);
#24=PLANE('',#695);
#25=PLANE('',#696);
#26=PLANE('',#697);
#27=PLANE('',#701);
#28=PLANE('',#705);
#29=PLANE('',#709);
#30=PLANE('',#710);
#31=PLANE('',#711);
#32=PLANE('',#712);
#33=PLANE('',#716);
#34=PLANE('',#717);
#35=PLANE('',#718);
#36=PLANE('',#722);
#37=PLANE('',#723);
#38=PLANE('',#724);
#39=PLANE('',#725);
#40=PLANE('',#726);
#41=PLANE('',#727);
#42=PLANE('',#728);
#43=PLANE('',#729);
#44=PLANE('',#730);
#45=PLANE('',#731);
#46=PLANE('',#732);
#47=FACE_OUTER_BOUND('',#80,.T.);
#48=FACE_OUTER_BOUND('',#81,.T.);
#49=FACE_OUTER_BOUND('',#82,.T.);
#50=FACE_OUTER_BOUND('',#83,.T.);
#51=FACE_OUTER_BOUND('',#84,.T.);
#52=FACE_OUTER_BOUND('',#85,.T.);
#53=FACE_OUTER_BOUND('',#86,.T.);
#54=FACE_OUTER_BOUND('',#87,.T.);
#55=FACE_OUTER_BOUND('',#88,.T.);
#56=FACE_OUTER_BOUND('',#89,.T.);
#57=FACE_OUTER_BOUND('',#90,.T.);
#58=FACE_OUTER_BOUND('',#91,.T.);
#59=FACE_OUTER_BOUND('',#92,.T.);
#60=FACE_OUTER_BOUND('',#93,.T.);
#61=FACE_OUTER_BOUND('',#94,.T.);
#62=FACE_OUTER_BOUND('',#95,.T.);
#63=FACE_OUTER_BOUND('',#97,.T.);
#64=FACE_OUTER_BOUND('',#98,.T.);
#65=FACE_OUTER_BOUND('',#99,.T.);
#66=FACE_OUTER_BOUND('',#101,.T.);
#67=FACE_OUTER_BOUND('',#102,.T.);
#68=FACE_OUTER_BOUND('',#103,.T.);
#69=FACE_OUTER_BOUND('',#104,.T.);
#70=FACE_OUTER_BOUND('',#106,.T.);
#71=FACE_OUTER_BOUND('',#107,.T.);
#72=FACE_OUTER_BOUND('',#108,.T.);
#73=FACE_OUTER_BOUND('',#109,.T.);
#74=FACE_OUTER_BOUND('',#110,.T.);
#75=FACE_OUTER_BOUND('',#111,.T.);
#76=FACE_OUTER_BOUND('',#112,.T.);
#77=FACE_OUTER_BOUND('',#113,.T.);
#78=FACE_OUTER_BOUND('',#115,.T.);
#79=FACE_OUTER_BOUND('',#117,.T.);
#80=EDGE_LOOP('',(#446,#447,#448,#449));
#81=EDGE_LOOP('',(#450,#451,#452,#453));
#82=EDGE_LOOP('',(#454,#455,#456,#457));
#83=EDGE_LOOP('',(#458,#459,#460,#461));
#84=EDGE_LOOP('',(#462,#463,#464,#465));
#85=EDGE_LOOP('',(#466,#467,#468,#469));
#86=EDGE_LOOP('',(#470,#471,#472,#473));
#87=EDGE_LOOP('',(#474,#475,#476,#477));
#88=EDGE_LOOP('',(#478,#479,#480,#481));
#89=EDGE_LOOP('',(#482,#483,#484,#485));
#90=EDGE_LOOP('',(#486,#487,#488,#489));
#91=EDGE_LOOP('',(#490,#491,#492,#493));
#92=EDGE_LOOP('',(#494,#495,#496,#497));
#93=EDGE_LOOP('',(#498,#499,#500,#501));
#94=EDGE_LOOP('',(#502,#503,#504,#505));
#95=EDGE_LOOP('',(#506,#507,#508,#509));
#96=EDGE_LOOP('',(#510));
#97=EDGE_LOOP('',(#511,#512,#513,#514));
#98=EDGE_LOOP('',(#515,#516,#517,#518));
#99=EDGE_LOOP('',(#519,#520,#521,#522));
#100=EDGE_LOOP('',(#523));
#101=EDGE_LOOP('',(#524,#525,#526,#527));
#102=EDGE_LOOP('',(#528,#529,#530,#531));
#103=EDGE_LOOP('',(#532,#533,#534,#535));
#104=EDGE_LOOP('',(#536,#537,#538,#539,#540,#541,#542,#543));
#105=EDGE_LOOP('',(#544));
#106=EDGE_LOOP('',(#545,#546,#547,#548));
#107=EDGE_LOOP('',(#549,#550,#551,#552));
#108=EDGE_LOOP('',(#553,#554,#555,#556));
#109=EDGE_LOOP('',(#557,#558,#559,#560));
#110=EDGE_LOOP('',(#561,#562,#563,#564));
#111=EDGE_LOOP('',(#565,#566,#567,#568));
#112=EDGE_LOOP('',(#569,#570,#571,#572));
#113=EDGE_LOOP('',(#573,#574,#575,#576,#577,#578,#579,#580));
#114=EDGE_LOOP('',(#581));
#115=EDGE_LOOP('',(#582,#583,#584,#585,#586,#587,#588,#589,#590,#591));
#116=EDGE_LOOP('',(#592,#593,#594,#595,#596,#597,#598,#599,#600,#601,#602,
#603,#604,#605,#606));
#117=EDGE_LOOP('',(#607,#608,#609,#610,#611,#612,#613,#614,#615,#616));
#118=EDGE_LOOP('',(#617,#618,#619,#620,#621,#622,#623,#624,#625,#626,#627,
#628,#629,#630,#631));
#119=LINE('',#913,#198);
#120=LINE('',#919,#199);
#121=LINE('',#924,#200);
#122=LINE('',#926,#201);
#123=LINE('',#928,#202);
#124=LINE('',#929,#203);
#125=LINE('',#932,#204);
#126=LINE('',#934,#205);
#127=LINE('',#935,#206);
#128=LINE('',#938,#207);
#129=LINE('',#940,#208);
#130=LINE('',#941,#209);
#131=LINE('',#944,#210);
#132=LINE('',#946,#211);
#133=LINE('',#947,#212);
#134=LINE('',#950,#213);
#135=LINE('',#952,#214);
#136=LINE('',#953,#215);
#137=LINE('',#957,#216);
#138=LINE('',#959,#217);
#139=LINE('',#961,#218);
#140=LINE('',#962,#219);
#141=LINE('',#968,#220);
#142=LINE('',#971,#221);
#143=LINE('',#973,#222);
#144=LINE('',#974,#223);
#145=LINE('',#980,#224);
#146=LINE('',#983,#225);
#147=LINE('',#985,#226);
#148=LINE('',#986,#227);
#149=LINE('',#992,#228);
#150=LINE('',#995,#229);
#151=LINE('',#997,#230);
#152=LINE('',#998,#231);
#153=LINE('',#1001,#232);
#154=LINE('',#1003,#233);
#155=LINE('',#1004,#234);
#156=LINE('',#1007,#235);
#157=LINE('',#1009,#236);
#158=LINE('',#1010,#237);
#159=LINE('',#1013,#238);
#160=LINE('',#1015,#239);
#161=LINE('',#1016,#240);
#162=LINE('',#1022,#241);
#163=LINE('',#1025,#242);
#164=LINE('',#1027,#243);
#165=LINE('',#1028,#244);
#166=LINE('',#1031,#245);
#167=LINE('',#1033,#246);
#168=LINE('',#1034,#247);
#169=LINE('',#1037,#248);
#170=LINE('',#1039,#249);
#171=LINE('',#1040,#250);
#172=LINE('',#1046,#251);
#173=LINE('',#1048,#252);
#174=LINE('',#1049,#253);
#175=LINE('',#1052,#254);
#176=LINE('',#1054,#255);
#177=LINE('',#1055,#256);
#178=LINE('',#1058,#257);
#179=LINE('',#1060,#258);
#180=LINE('',#1061,#259);
#181=LINE('',#1064,#260);
#182=LINE('',#1066,#261);
#183=LINE('',#1067,#262);
#184=LINE('',#1070,#263);
#185=LINE('',#1072,#264);
#186=LINE('',#1073,#265);
#187=LINE('',#1076,#266);
#188=LINE('',#1078,#267);
#189=LINE('',#1079,#268);
#190=LINE('',#1082,#269);
#191=LINE('',#1084,#270);
#192=LINE('',#1085,#271);
#193=LINE('',#1088,#272);
#194=LINE('',#1090,#273);
#195=LINE('',#1091,#274);
#196=LINE('',#1093,#275);
#197=LINE('',#1094,#276);
#198=VECTOR('',#739,1.);
#199=VECTOR('',#746,1.);
#200=VECTOR('',#751,10.);
#201=VECTOR('',#752,10.);
#202=VECTOR('',#753,10.);
#203=VECTOR('',#754,10.);
#204=VECTOR('',#757,10.);
#205=VECTOR('',#758,10.);
#206=VECTOR('',#759,10.);
#207=VECTOR('',#762,10.);
#208=VECTOR('',#763,10.);
#209=VECTOR('',#764,10.);
#210=VECTOR('',#767,10.);
#211=VECTOR('',#768,10.);
#212=VECTOR('',#769,10.);
#213=VECTOR('',#772,10.);
#214=VECTOR('',#773,10.);
#215=VECTOR('',#774,10.);
#216=VECTOR('',#777,10.);
#217=VECTOR('',#778,10.);
#218=VECTOR('',#779,10.);
#219=VECTOR('',#780,10.);
#220=VECTOR('',#787,10.);
#221=VECTOR('',#790,10.);
#222=VECTOR('',#791,10.);
#223=VECTOR('',#792,10.);
#224=VECTOR('',#799,10.);
#225=VECTOR('',#802,10.);
#226=VECTOR('',#803,10.);
#227=VECTOR('',#804,10.);
#228=VECTOR('',#811,10.);
#229=VECTOR('',#814,10.);
#230=VECTOR('',#815,10.);
#231=VECTOR('',#816,10.);
#232=VECTOR('',#819,10.);
#233=VECTOR('',#820,10.);
#234=VECTOR('',#821,10.);
#235=VECTOR('',#824,10.);
#236=VECTOR('',#825,10.);
#237=VECTOR('',#826,10.);
#238=VECTOR('',#829,10.);
#239=VECTOR('',#830,10.);
#240=VECTOR('',#831,10.);
#241=VECTOR('',#838,10.);
#242=VECTOR('',#841,10.);
#243=VECTOR('',#842,10.);
#244=VECTOR('',#843,10.);
#245=VECTOR('',#846,10.);
#246=VECTOR('',#847,10.);
#247=VECTOR('',#848,10.);
#248=VECTOR('',#851,10.);
#249=VECTOR('',#852,10.);
#250=VECTOR('',#853,10.);
#251=VECTOR('',#862,10.);
#252=VECTOR('',#863,10.);
#253=VECTOR('',#864,10.);
#254=VECTOR('',#867,10.);
#255=VECTOR('',#868,10.);
#256=VECTOR('',#869,10.);
#257=VECTOR('',#872,10.);
#258=VECTOR('',#873,10.);
#259=VECTOR('',#874,10.);
#260=VECTOR('',#877,10.);
#261=VECTOR('',#878,10.);
#262=VECTOR('',#879,10.);
#263=VECTOR('',#882,10.);
#264=VECTOR('',#883,10.);
#265=VECTOR('',#884,10.);
#266=VECTOR('',#887,10.);
#267=VECTOR('',#888,10.);
#268=VECTOR('',#889,10.);
#269=VECTOR('',#892,10.);
#270=VECTOR('',#893,10.);
#271=VECTOR('',#894,10.);
#272=VECTOR('',#897,10.);
#273=VECTOR('',#898,10.);
#274=VECTOR('',#899,10.);
#275=VECTOR('',#902,10.);
#276=VECTOR('',#903,10.);
#277=CIRCLE('',#687,1.);
#278=CIRCLE('',#688,1.);
#279=CIRCLE('',#690,1.);
#280=CIRCLE('',#691,1.);
#281=CIRCLE('',#699,0.499999999999998);
#282=CIRCLE('',#700,0.499999999999998);
#283=CIRCLE('',#703,0.499999999999998);
#284=CIRCLE('',#704,0.499999999999998);
#285=CIRCLE('',#707,0.5);
#286=CIRCLE('',#708,0.5);
#287=CIRCLE('',#714,0.500000000000003);
#288=CIRCLE('',#715,0.500000000000003);
#289=CIRCLE('',#720,0.5);
#290=CIRCLE('',#721,0.5);
#291=VERTEX_POINT('',#910);
#292=VERTEX_POINT('',#912);
#293=VERTEX_POINT('',#916);
#294=VERTEX_POINT('',#918);
#295=VERTEX_POINT('',#922);
#296=VERTEX_POINT('',#923);
#297=VERTEX_POINT('',#925);
#298=VERTEX_POINT('',#927);
#299=VERTEX_POINT('',#931);
#300=VERTEX_POINT('',#933);
#301=VERTEX_POINT('',#937);
#302=VERTEX_POINT('',#939);
#303=VERTEX_POINT('',#943);
#304=VERTEX_POINT('',#945);
#305=VERTEX_POINT('',#949);
#306=VERTEX_POINT('',#951);
#307=VERTEX_POINT('',#955);
#308=VERTEX_POINT('',#956);
#309=VERTEX_POINT('',#958);
#310=VERTEX_POINT('',#960);
#311=VERTEX_POINT('',#964);
#312=VERTEX_POINT('',#966);
#313=VERTEX_POINT('',#970);
#314=VERTEX_POINT('',#972);
#315=VERTEX_POINT('',#976);
#316=VERTEX_POINT('',#978);
#317=VERTEX_POINT('',#982);
#318=VERTEX_POINT('',#984);
#319=VERTEX_POINT('',#988);
#320=VERTEX_POINT('',#990);
#321=VERTEX_POINT('',#994);
#322=VERTEX_POINT('',#996);
#323=VERTEX_POINT('',#1000);
#324=VERTEX_POINT('',#1002);
#325=VERTEX_POINT('',#1006);
#326=VERTEX_POINT('',#1008);
#327=VERTEX_POINT('',#1012);
#328=VERTEX_POINT('',#1014);
#329=VERTEX_POINT('',#1018);
#330=VERTEX_POINT('',#1020);
#331=VERTEX_POINT('',#1024);
#332=VERTEX_POINT('',#1026);
#333=VERTEX_POINT('',#1030);
#334=VERTEX_POINT('',#1032);
#335=VERTEX_POINT('',#1036);
#336=VERTEX_POINT('',#1038);
#337=VERTEX_POINT('',#1045);
#338=VERTEX_POINT('',#1047);
#339=VERTEX_POINT('',#1051);
#340=VERTEX_POINT('',#1053);
#341=VERTEX_POINT('',#1057);
#342=VERTEX_POINT('',#1059);
#343=VERTEX_POINT('',#1063);
#344=VERTEX_POINT('',#1065);
#345=VERTEX_POINT('',#1069);
#346=VERTEX_POINT('',#1071);
#347=VERTEX_POINT('',#1075);
#348=VERTEX_POINT('',#1077);
#349=VERTEX_POINT('',#1081);
#350=VERTEX_POINT('',#1083);
#351=VERTEX_POINT('',#1087);
#352=VERTEX_POINT('',#1089);
#353=EDGE_CURVE('',#291,#291,#277,.T.);
#354=EDGE_CURVE('',#291,#292,#119,.T.);
#355=EDGE_CURVE('',#292,#292,#278,.T.);
#356=EDGE_CURVE('',#293,#293,#279,.T.);
#357=EDGE_CURVE('',#293,#294,#120,.T.);
#358=EDGE_CURVE('',#294,#294,#280,.T.);
#359=EDGE_CURVE('',#295,#296,#121,.T.);
#360=EDGE_CURVE('',#295,#297,#122,.T.);
#361=EDGE_CURVE('',#298,#297,#123,.T.);
#362=EDGE_CURVE('',#296,#298,#124,.T.);
#363=EDGE_CURVE('',#299,#296,#125,.T.);
#364=EDGE_CURVE('',#300,#298,#126,.T.);
#365=EDGE_CURVE('',#299,#300,#127,.T.);
#366=EDGE_CURVE('',#301,#295,#128,.T.);
#367=EDGE_CURVE('',#302,#301,#129,.T.);
#368=EDGE_CURVE('',#297,#302,#130,.T.);
#369=EDGE_CURVE('',#300,#303,#131,.T.);
#370=EDGE_CURVE('',#304,#303,#132,.T.);
#371=EDGE_CURVE('',#299,#304,#133,.T.);
#372=EDGE_CURVE('',#305,#301,#134,.T.);
#373=EDGE_CURVE('',#305,#306,#135,.T.);
#374=EDGE_CURVE('',#306,#302,#136,.T.);
#375=EDGE_CURVE('',#307,#308,#137,.T.);
#376=EDGE_CURVE('',#307,#309,#138,.T.);
#377=EDGE_CURVE('',#310,#309,#139,.T.);
#378=EDGE_CURVE('',#308,#310,#140,.T.);
#379=EDGE_CURVE('',#308,#311,#281,.T.);
#380=EDGE_CURVE('',#312,#310,#282,.T.);
#381=EDGE_CURVE('',#311,#312,#141,.T.);
#382=EDGE_CURVE('',#311,#313,#142,.T.);
#383=EDGE_CURVE('',#314,#312,#143,.T.);
#384=EDGE_CURVE('',#313,#314,#144,.T.);
#385=EDGE_CURVE('',#313,#315,#283,.T.);
#386=EDGE_CURVE('',#316,#314,#284,.T.);
#387=EDGE_CURVE('',#315,#316,#145,.T.);
#388=EDGE_CURVE('',#315,#317,#146,.T.);
#389=EDGE_CURVE('',#318,#316,#147,.T.);
#390=EDGE_CURVE('',#317,#318,#148,.T.);
#391=EDGE_CURVE('',#317,#319,#285,.T.);
#392=EDGE_CURVE('',#320,#318,#286,.T.);
#393=EDGE_CURVE('',#319,#320,#149,.T.);
#394=EDGE_CURVE('',#319,#321,#150,.T.);
#395=EDGE_CURVE('',#322,#320,#151,.T.);
#396=EDGE_CURVE('',#321,#322,#152,.T.);
#397=EDGE_CURVE('',#321,#323,#153,.T.);
#398=EDGE_CURVE('',#324,#322,#154,.T.);
#399=EDGE_CURVE('',#323,#324,#155,.T.);
#400=EDGE_CURVE('',#323,#325,#156,.T.);
#401=EDGE_CURVE('',#326,#324,#157,.T.);
#402=EDGE_CURVE('',#325,#326,#158,.T.);
#403=EDGE_CURVE('',#325,#327,#159,.T.);
#404=EDGE_CURVE('',#328,#326,#160,.T.);
#405=EDGE_CURVE('',#327,#328,#161,.T.);
#406=EDGE_CURVE('',#327,#329,#287,.T.);
#407=EDGE_CURVE('',#330,#328,#288,.T.);
#408=EDGE_CURVE('',#329,#330,#162,.T.);
#409=EDGE_CURVE('',#329,#331,#163,.T.);
#410=EDGE_CURVE('',#332,#330,#164,.T.);
#411=EDGE_CURVE('',#331,#332,#165,.T.);
#412=EDGE_CURVE('',#331,#333,#166,.T.);
#413=EDGE_CURVE('',#334,#332,#167,.T.);
#414=EDGE_CURVE('',#333,#334,#168,.T.);
#415=EDGE_CURVE('',#333,#335,#169,.T.);
#416=EDGE_CURVE('',#336,#334,#170,.T.);
#417=EDGE_CURVE('',#335,#336,#171,.T.);
#418=EDGE_CURVE('',#335,#307,#289,.T.);
#419=EDGE_CURVE('',#309,#336,#290,.T.);
#420=EDGE_CURVE('',#337,#305,#172,.T.);
#421=EDGE_CURVE('',#338,#304,#173,.T.);
#422=EDGE_CURVE('',#337,#338,#174,.T.);
#423=EDGE_CURVE('',#339,#337,#175,.T.);
#424=EDGE_CURVE('',#340,#338,#176,.T.);
#425=EDGE_CURVE('',#339,#340,#177,.T.);
#426=EDGE_CURVE('',#341,#339,#178,.T.);
#427=EDGE_CURVE('',#342,#340,#179,.T.);
#428=EDGE_CURVE('',#341,#342,#180,.T.);
#429=EDGE_CURVE('',#343,#341,#181,.T.);
#430=EDGE_CURVE('',#344,#342,#182,.T.);
#431=EDGE_CURVE('',#343,#344,#183,.T.);
#432=EDGE_CURVE('',#345,#343,#184,.T.);
#433=EDGE_CURVE('',#346,#344,#185,.T.);
#434=EDGE_CURVE('',#345,#346,#186,.T.);
#435=EDGE_CURVE('',#347,#345,#187,.T.);
#436=EDGE_CURVE('',#348,#346,#188,.T.);
#437=EDGE_CURVE('',#347,#348,#189,.T.);
#438=EDGE_CURVE('',#349,#347,#190,.T.);
#439=EDGE_CURVE('',#350,#348,#191,.T.);
#440=EDGE_CURVE('',#349,#350,#192,.T.);
#441=EDGE_CURVE('',#351,#349,#193,.T.);
#442=EDGE_CURVE('',#352,#350,#194,.T.);
#443=EDGE_CURVE('',#351,#352,#195,.T.);
#444=EDGE_CURVE('',#306,#351,#196,.T.);
#445=EDGE_CURVE('',#303,#352,#197,.T.);
#446=ORIENTED_EDGE('',*,*,#353,.F.);
#447=ORIENTED_EDGE('',*,*,#354,.T.);
#448=ORIENTED_EDGE('',*,*,#355,.F.);
#449=ORIENTED_EDGE('',*,*,#354,.F.);
#450=ORIENTED_EDGE('',*,*,#356,.F.);
#451=ORIENTED_EDGE('',*,*,#357,.T.);
#452=ORIENTED_EDGE('',*,*,#358,.F.);
#453=ORIENTED_EDGE('',*,*,#357,.F.);
#454=ORIENTED_EDGE('',*,*,#359,.F.);
#455=ORIENTED_EDGE('',*,*,#360,.T.);
#456=ORIENTED_EDGE('',*,*,#361,.F.);
#457=ORIENTED_EDGE('',*,*,#362,.F.);
#458=ORIENTED_EDGE('',*,*,#363,.T.);
#459=ORIENTED_EDGE('',*,*,#362,.T.);
#460=ORIENTED_EDGE('',*,*,#364,.F.);
#461=ORIENTED_EDGE('',*,*,#365,.F.);
#462=ORIENTED_EDGE('',*,*,#366,.F.);
#463=ORIENTED_EDGE('',*,*,#367,.F.);
#464=ORIENTED_EDGE('',*,*,#368,.F.);
#465=ORIENTED_EDGE('',*,*,#360,.F.);
#466=ORIENTED_EDGE('',*,*,#365,.T.);
#467=ORIENTED_EDGE('',*,*,#369,.T.);
#468=ORIENTED_EDGE('',*,*,#370,.F.);
#469=ORIENTED_EDGE('',*,*,#371,.F.);
#470=ORIENTED_EDGE('',*,*,#367,.T.);
#471=ORIENTED_EDGE('',*,*,#372,.F.);
#472=ORIENTED_EDGE('',*,*,#373,.T.);
#473=ORIENTED_EDGE('',*,*,#374,.T.);
#474=ORIENTED_EDGE('',*,*,#375,.F.);
#475=ORIENTED_EDGE('',*,*,#376,.T.);
#476=ORIENTED_EDGE('',*,*,#377,.F.);
#477=ORIENTED_EDGE('',*,*,#378,.F.);
#478=ORIENTED_EDGE('',*,*,#379,.F.);
#479=ORIENTED_EDGE('',*,*,#378,.T.);
#480=ORIENTED_EDGE('',*,*,#380,.F.);
#481=ORIENTED_EDGE('',*,*,#381,.F.);
#482=ORIENTED_EDGE('',*,*,#382,.F.);
#483=ORIENTED_EDGE('',*,*,#381,.T.);
#484=ORIENTED_EDGE('',*,*,#383,.F.);
#485=ORIENTED_EDGE('',*,*,#384,.F.);
#486=ORIENTED_EDGE('',*,*,#385,.F.);
#487=ORIENTED_EDGE('',*,*,#384,.T.);
#488=ORIENTED_EDGE('',*,*,#386,.F.);
#489=ORIENTED_EDGE('',*,*,#387,.F.);
#490=ORIENTED_EDGE('',*,*,#388,.F.);
#491=ORIENTED_EDGE('',*,*,#387,.T.);
#492=ORIENTED_EDGE('',*,*,#389,.F.);
#493=ORIENTED_EDGE('',*,*,#390,.F.);
#494=ORIENTED_EDGE('',*,*,#391,.F.);
#495=ORIENTED_EDGE('',*,*,#390,.T.);
#496=ORIENTED_EDGE('',*,*,#392,.F.);
#497=ORIENTED_EDGE('',*,*,#393,.F.);
#498=ORIENTED_EDGE('',*,*,#394,.F.);
#499=ORIENTED_EDGE('',*,*,#393,.T.);
#500=ORIENTED_EDGE('',*,*,#395,.F.);
#501=ORIENTED_EDGE('',*,*,#396,.F.);
#502=ORIENTED_EDGE('',*,*,#397,.F.);
#503=ORIENTED_EDGE('',*,*,#396,.T.);
#504=ORIENTED_EDGE('',*,*,#398,.F.);
#505=ORIENTED_EDGE('',*,*,#399,.F.);
#506=ORIENTED_EDGE('',*,*,#400,.F.);
#507=ORIENTED_EDGE('',*,*,#399,.T.);
#508=ORIENTED_EDGE('',*,*,#401,.F.);
#509=ORIENTED_EDGE('',*,*,#402,.F.);
#510=ORIENTED_EDGE('',*,*,#358,.T.);
#511=ORIENTED_EDGE('',*,*,#403,.F.);
#512=ORIENTED_EDGE('',*,*,#402,.T.);
#513=ORIENTED_EDGE('',*,*,#404,.F.);
#514=ORIENTED_EDGE('',*,*,#405,.F.);
#515=ORIENTED_EDGE('',*,*,#406,.F.);
#516=ORIENTED_EDGE('',*,*,#405,.T.);
#517=ORIENTED_EDGE('',*,*,#407,.F.);
#518=ORIENTED_EDGE('',*,*,#408,.F.);
#519=ORIENTED_EDGE('',*,*,#409,.F.);
#520=ORIENTED_EDGE('',*,*,#408,.T.);
#521=ORIENTED_EDGE('',*,*,#410,.F.);
#522=ORIENTED_EDGE('',*,*,#411,.F.);
#523=ORIENTED_EDGE('',*,*,#355,.T.);
#524=ORIENTED_EDGE('',*,*,#412,.F.);
#525=ORIENTED_EDGE('',*,*,#411,.T.);
#526=ORIENTED_EDGE('',*,*,#413,.F.);
#527=ORIENTED_EDGE('',*,*,#414,.F.);
#528=ORIENTED_EDGE('',*,*,#415,.F.);
#529=ORIENTED_EDGE('',*,*,#414,.T.);
#530=ORIENTED_EDGE('',*,*,#416,.F.);
#531=ORIENTED_EDGE('',*,*,#417,.F.);
#532=ORIENTED_EDGE('',*,*,#418,.F.);
#533=ORIENTED_EDGE('',*,*,#417,.T.);
#534=ORIENTED_EDGE('',*,*,#419,.F.);
#535=ORIENTED_EDGE('',*,*,#376,.F.);
#536=ORIENTED_EDGE('',*,*,#420,.T.);
#537=ORIENTED_EDGE('',*,*,#372,.T.);
#538=ORIENTED_EDGE('',*,*,#366,.T.);
#539=ORIENTED_EDGE('',*,*,#359,.T.);
#540=ORIENTED_EDGE('',*,*,#363,.F.);
#541=ORIENTED_EDGE('',*,*,#371,.T.);
#542=ORIENTED_EDGE('',*,*,#421,.F.);
#543=ORIENTED_EDGE('',*,*,#422,.F.);
#544=ORIENTED_EDGE('',*,*,#356,.T.);
#545=ORIENTED_EDGE('',*,*,#423,.T.);
#546=ORIENTED_EDGE('',*,*,#422,.T.);
#547=ORIENTED_EDGE('',*,*,#424,.F.);
#548=ORIENTED_EDGE('',*,*,#425,.F.);
#549=ORIENTED_EDGE('',*,*,#426,.T.);
#550=ORIENTED_EDGE('',*,*,#425,.T.);
#551=ORIENTED_EDGE('',*,*,#427,.F.);
#552=ORIENTED_EDGE('',*,*,#428,.F.);
#553=ORIENTED_EDGE('',*,*,#429,.T.);
#554=ORIENTED_EDGE('',*,*,#428,.T.);
#555=ORIENTED_EDGE('',*,*,#430,.F.);
#556=ORIENTED_EDGE('',*,*,#431,.F.);
#557=ORIENTED_EDGE('',*,*,#432,.T.);
#558=ORIENTED_EDGE('',*,*,#431,.T.);
#559=ORIENTED_EDGE('',*,*,#433,.F.);
#560=ORIENTED_EDGE('',*,*,#434,.F.);
#561=ORIENTED_EDGE('',*,*,#435,.T.);
#562=ORIENTED_EDGE('',*,*,#434,.T.);
#563=ORIENTED_EDGE('',*,*,#436,.F.);
#564=ORIENTED_EDGE('',*,*,#437,.F.);
#565=ORIENTED_EDGE('',*,*,#438,.T.);
#566=ORIENTED_EDGE('',*,*,#437,.T.);
#567=ORIENTED_EDGE('',*,*,#439,.F.);
#568=ORIENTED_EDGE('',*,*,#440,.F.);
#569=ORIENTED_EDGE('',*,*,#441,.T.);
#570=ORIENTED_EDGE('',*,*,#440,.T.);
#571=ORIENTED_EDGE('',*,*,#442,.F.);
#572=ORIENTED_EDGE('',*,*,#443,.F.);
#573=ORIENTED_EDGE('',*,*,#444,.T.);
#574=ORIENTED_EDGE('',*,*,#443,.T.);
#575=ORIENTED_EDGE('',*,*,#445,.F.);
#576=ORIENTED_EDGE('',*,*,#369,.F.);
#577=ORIENTED_EDGE('',*,*,#364,.T.);
#578=ORIENTED_EDGE('',*,*,#361,.T.);
#579=ORIENTED_EDGE('',*,*,#368,.T.);
#580=ORIENTED_EDGE('',*,*,#374,.F.);
#581=ORIENTED_EDGE('',*,*,#353,.T.);
#582=ORIENTED_EDGE('',*,*,#373,.F.);
#583=ORIENTED_EDGE('',*,*,#420,.F.);
#584=ORIENTED_EDGE('',*,*,#423,.F.);
#585=ORIENTED_EDGE('',*,*,#426,.F.);
#586=ORIENTED_EDGE('',*,*,#429,.F.);
#587=ORIENTED_EDGE('',*,*,#432,.F.);
#588=ORIENTED_EDGE('',*,*,#435,.F.);
#589=ORIENTED_EDGE('',*,*,#438,.F.);
#590=ORIENTED_EDGE('',*,*,#441,.F.);
#591=ORIENTED_EDGE('',*,*,#444,.F.);
#592=ORIENTED_EDGE('',*,*,#418,.T.);
#593=ORIENTED_EDGE('',*,*,#375,.T.);
#594=ORIENTED_EDGE('',*,*,#379,.T.);
#595=ORIENTED_EDGE('',*,*,#382,.T.);
#596=ORIENTED_EDGE('',*,*,#385,.T.);
#597=ORIENTED_EDGE('',*,*,#388,.T.);
#598=ORIENTED_EDGE('',*,*,#391,.T.);
#599=ORIENTED_EDGE('',*,*,#394,.T.);
#600=ORIENTED_EDGE('',*,*,#397,.T.);
#601=ORIENTED_EDGE('',*,*,#400,.T.);
#602=ORIENTED_EDGE('',*,*,#403,.T.);
#603=ORIENTED_EDGE('',*,*,#406,.T.);
#604=ORIENTED_EDGE('',*,*,#409,.T.);
#605=ORIENTED_EDGE('',*,*,#412,.T.);
#606=ORIENTED_EDGE('',*,*,#415,.T.);
#607=ORIENTED_EDGE('',*,*,#370,.T.);
#608=ORIENTED_EDGE('',*,*,#445,.T.);
#609=ORIENTED_EDGE('',*,*,#442,.T.);
#610=ORIENTED_EDGE('',*,*,#439,.T.);
#611=ORIENTED_EDGE('',*,*,#436,.T.);
#612=ORIENTED_EDGE('',*,*,#433,.T.);
#613=ORIENTED_EDGE('',*,*,#430,.T.);
#614=ORIENTED_EDGE('',*,*,#427,.T.);
#615=ORIENTED_EDGE('',*,*,#424,.T.);
#616=ORIENTED_EDGE('',*,*,#421,.T.);
#617=ORIENTED_EDGE('',*,*,#419,.T.);
#618=ORIENTED_EDGE('',*,*,#416,.T.);
#619=ORIENTED_EDGE('',*,*,#413,.T.);
#620=ORIENTED_EDGE('',*,*,#410,.T.);
#621=ORIENTED_EDGE('',*,*,#407,.T.);
#622=ORIENTED_EDGE('',*,*,#404,.T.);
#623=ORIENTED_EDGE('',*,*,#401,.T.);
#624=ORIENTED_EDGE('',*,*,#398,.T.);
#625=ORIENTED_EDGE('',*,*,#395,.T.);
#626=ORIENTED_EDGE('',*,*,#392,.T.);
#627=ORIENTED_EDGE('',*,*,#389,.T.);
#628=ORIENTED_EDGE('',*,*,#386,.T.);
#629=ORIENTED_EDGE('',*,*,#383,.T.);
#630=ORIENTED_EDGE('',*,*,#380,.T.);
#631=ORIENTED_EDGE('',*,*,#377,.T.);
#632=CYLINDRICAL_SURFACE('',#686,1.);
#633=CYLINDRICAL_SURFACE('',#689,1.);
#634=CYLINDRICAL_SURFACE('',#698,0.499999999999998);
#635=CYLINDRICAL_SURFACE('',#702,0.499999999999998);
#636=CYLINDRICAL_SURFACE('',#706,0.5);
#637=CYLINDRICAL_SURFACE('',#713,0.500000000000003);
#638=CYLINDRICAL_SURFACE('',#719,0.5);
#639=ADVANCED_FACE('',(#47),#632,.F.);
#640=ADVANCED_FACE('',(#48),#633,.F.);
#641=ADVANCED_FACE('',(#49),#21,.T.);
#642=ADVANCED_FACE('',(#50),#22,.T.);
#643=ADVANCED_FACE('',(#51),#23,.T.);
#644=ADVANCED_FACE('',(#52),#24,.T.);
#645=ADVANCED_FACE('',(#53),#25,.T.);
#646=ADVANCED_FACE('',(#54),#26,.T.);
#647=ADVANCED_FACE('',(#55),#634,.F.);
#648=ADVANCED_FACE('',(#56),#27,.T.);
#649=ADVANCED_FACE('',(#57),#635,.F.);
#650=ADVANCED_FACE('',(#58),#28,.T.);
#651=ADVANCED_FACE('',(#59),#636,.F.);
#652=ADVANCED_FACE('',(#60),#29,.T.);
#653=ADVANCED_FACE('',(#61),#30,.T.);
#654=ADVANCED_FACE('',(#62,#15),#31,.T.);
#655=ADVANCED_FACE('',(#63),#32,.T.);
#656=ADVANCED_FACE('',(#64),#637,.F.);
#657=ADVANCED_FACE('',(#65,#16),#33,.T.);
#658=ADVANCED_FACE('',(#66),#34,.T.);
#659=ADVANCED_FACE('',(#67),#35,.T.);
#660=ADVANCED_FACE('',(#68),#638,.F.);
#661=ADVANCED_FACE('',(#69,#17),#36,.T.);
#662=ADVANCED_FACE('',(#70),#37,.T.);
#663=ADVANCED_FACE('',(#71),#38,.T.);
#664=ADVANCED_FACE('',(#72),#39,.T.);
#665=ADVANCED_FACE('',(#73),#40,.T.);
#666=ADVANCED_FACE('',(#74),#41,.T.);
#667=ADVANCED_FACE('',(#75),#42,.T.);
#668=ADVANCED_FACE('',(#76),#43,.T.);
#669=ADVANCED_FACE('',(#77,#18),#44,.T.);
#670=ADVANCED_FACE('',(#78,#19),#45,.T.);
#671=ADVANCED_FACE('',(#79,#20),#46,.F.);
#672=CLOSED_SHELL('',(#639,#640,#641,#642,#643,#644,#645,#646,#647,#648,
#649,#650,#651,#652,#653,#654,#655,#656,#657,#658,#659,#660,#661,#662,#663,
#664,#665,#666,#667,#668,#669,#670,#671));
#673=DERIVED_UNIT_ELEMENT(#675,1.);
#674=DERIVED_UNIT_ELEMENT(#1102,-3.);
#675=(
MASS_UNIT()
NAMED_UNIT(*)
SI_UNIT(.KILO.,.GRAM.)
);
#676=DERIVED_UNIT((#673,#674));
#677=MEASURE_REPRESENTATION_ITEM('density measure',
POSITIVE_RATIO_MEASURE(1120.),#676);
#678=PROPERTY_DEFINITION_REPRESENTATION(#683,#680);
#679=PROPERTY_DEFINITION_REPRESENTATION(#684,#681);
#680=REPRESENTATION('material name',(#682),#1099);
#681=REPRESENTATION('density',(#677),#1099);
#682=DESCRIPTIVE_REPRESENTATION_ITEM('Nylon 6','Nylon 6');
#683=PROPERTY_DEFINITION('material property','material name',#1109);
#684=PROPERTY_DEFINITION('material property','density of part',#1109);
#685=AXIS2_PLACEMENT_3D('',#908,#733,#734);
#686=AXIS2_PLACEMENT_3D('',#909,#735,#736);
#687=AXIS2_PLACEMENT_3D('',#911,#737,#738);
#688=AXIS2_PLACEMENT_3D('',#914,#740,#741);
#689=AXIS2_PLACEMENT_3D('',#915,#742,#743);
#690=AXIS2_PLACEMENT_3D('',#917,#744,#745);
#691=AXIS2_PLACEMENT_3D('',#920,#747,#748);
#692=AXIS2_PLACEMENT_3D('',#921,#749,#750);
#693=AXIS2_PLACEMENT_3D('',#930,#755,#756);
#694=AXIS2_PLACEMENT_3D('',#936,#760,#761);
#695=AXIS2_PLACEMENT_3D('',#942,#765,#766);
#696=AXIS2_PLACEMENT_3D('',#948,#770,#771);
#697=AXIS2_PLACEMENT_3D('',#954,#775,#776);
#698=AXIS2_PLACEMENT_3D('',#963,#781,#782);
#699=AXIS2_PLACEMENT_3D('',#965,#783,#784);
#700=AXIS2_PLACEMENT_3D('',#967,#785,#786);
#701=AXIS2_PLACEMENT_3D('',#969,#788,#789);
#702=AXIS2_PLACEMENT_3D('',#975,#793,#794);
#703=AXIS2_PLACEMENT_3D('',#977,#795,#796);
#704=AXIS2_PLACEMENT_3D('',#979,#797,#798);
#705=AXIS2_PLACEMENT_3D('',#981,#800,#801);
#706=AXIS2_PLACEMENT_3D('',#987,#805,#806);
#707=AXIS2_PLACEMENT_3D('',#989,#807,#808);
#708=AXIS2_PLACEMENT_3D('',#991,#809,#810);
#709=AXIS2_PLACEMENT_3D('',#993,#812,#813);
#710=AXIS2_PLACEMENT_3D('',#999,#817,#818);
#711=AXIS2_PLACEMENT_3D('',#1005,#822,#823);
#712=AXIS2_PLACEMENT_3D('',#1011,#827,#828);
#713=AXIS2_PLACEMENT_3D('',#1017,#832,#833);
#714=AXIS2_PLACEMENT_3D('',#1019,#834,#835);
#715=AXIS2_PLACEMENT_3D('',#1021,#836,#837);
#716=AXIS2_PLACEMENT_3D('',#1023,#839,#840);
#717=AXIS2_PLACEMENT_3D('',#1029,#844,#845);
#718=AXIS2_PLACEMENT_3D('',#1035,#849,#850);
#719=AXIS2_PLACEMENT_3D('',#1041,#854,#855);
#720=AXIS2_PLACEMENT_3D('',#1042,#856,#857);
#721=AXIS2_PLACEMENT_3D('',#1043,#858,#859);
#722=AXIS2_PLACEMENT_3D('',#1044,#860,#861);
#723=AXIS2_PLACEMENT_3D('',#1050,#865,#866);
#724=AXIS2_PLACEMENT_3D('',#1056,#870,#871);
#725=AXIS2_PLACEMENT_3D('',#1062,#875,#876);
#726=AXIS2_PLACEMENT_3D('',#1068,#880,#881);
#727=AXIS2_PLACEMENT_3D('',#1074,#885,#886);
#728=AXIS2_PLACEMENT_3D('',#1080,#890,#891);
#729=AXIS2_PLACEMENT_3D('',#1086,#895,#896);
#730=AXIS2_PLACEMENT_3D('',#1092,#900,#901);
#731=AXIS2_PLACEMENT_3D('',#1095,#904,#905);
#732=AXIS2_PLACEMENT_3D('',#1096,#906,#907);
#733=DIRECTION('axis',(0.,0.,1.));
#734=DIRECTION('refdir',(1.,0.,0.));
#735=DIRECTION('center_axis',(0.,-1.,0.));
#736=DIRECTION('ref_axis',(1.,0.,0.));
#737=DIRECTION('center_axis',(7.68401348264689E-33,-1.,-3.70074341541719E-15));
#738=DIRECTION('ref_axis',(1.,0.,0.));
#739=DIRECTION('',(0.,-1.,0.));
#740=DIRECTION('center_axis',(-5.72318680445925E-34,1.,3.70074341541719E-15));
#741=DIRECTION('ref_axis',(1.,0.,0.));
#742=DIRECTION('center_axis',(0.,1.,0.));
#743=DIRECTION('ref_axis',(1.,0.,0.));
#744=DIRECTION('center_axis',(-6.91450005296965E-33,1.,3.70074341541719E-15));
#745=DIRECTION('ref_axis',(1.,0.,0.));
#746=DIRECTION('',(0.,1.,0.));
#747=DIRECTION('center_axis',(0.,-1.,-3.70074341541719E-15));
#748=DIRECTION('ref_axis',(1.,0.,0.));
#749=DIRECTION('center_axis',(-1.,0.,0.));
#750=DIRECTION('ref_axis',(0.,0.,1.));
#751=DIRECTION('',(0.,0.,-1.));
#752=DIRECTION('',(0.,1.,0.));
#753=DIRECTION('',(0.,0.,1.));
#754=DIRECTION('',(0.,1.,0.));
#755=DIRECTION('center_axis',(0.499999999999998,0.,-0.86602540378444));
#756=DIRECTION('ref_axis',(-0.86602540378444,-6.88275388853748E-62,-0.499999999999998));
#757=DIRECTION('',(-0.86602540378444,-6.88275388853748E-62,-0.499999999999998));
#758=DIRECTION('',(-0.86602540378444,-6.88275388853748E-62,-0.499999999999998));
#759=DIRECTION('',(0.,1.,0.));
#760=DIRECTION('center_axis',(0.499999999999998,0.,0.86602540378444));
#761=DIRECTION('ref_axis',(0.86602540378444,6.88275388853748E-62,-0.499999999999998));
#762=DIRECTION('',(-0.86602540378444,-6.88275388853748E-62,0.499999999999998));
#763=DIRECTION('',(0.,-1.,0.));
#764=DIRECTION('',(0.86602540378444,6.88275388853748E-62,-0.499999999999998));
#765=DIRECTION('center_axis',(-1.,0.,0.));
#766=DIRECTION('ref_axis',(0.,1.,0.));
#767=DIRECTION('',(0.,3.70074341541719E-15,-1.));
#768=DIRECTION('',(0.,1.,0.));
#769=DIRECTION('',(0.,3.70074341541719E-15,-1.));
#770=DIRECTION('center_axis',(-1.,0.,0.));
#771=DIRECTION('ref_axis',(0.,1.,0.));
#772=DIRECTION('',(0.,3.70074341541719E-15,-1.));
#773=DIRECTION('',(0.,1.,0.));
#774=DIRECTION('',(0.,3.70074341541719E-15,-1.));
#775=DIRECTION('center_axis',(-0.707106781186549,-0.707106781186546,-2.61682076447295E-15));
#776=DIRECTION('ref_axis',(-0.707106781186546,0.707106781186549,0.));
#777=DIRECTION('',(0.707106781186546,-0.707106781186549,0.));
#778=DIRECTION('',(0.,3.70074341541719E-15,-1.));
#779=DIRECTION('',(-0.707106781186546,0.707106781186549,0.));
#780=DIRECTION('',(0.,3.70074341541719E-15,-1.));
#781=DIRECTION('center_axis',(0.,3.70074341541719E-15,-1.));
#782=DIRECTION('ref_axis',(0.923879532511286,0.382683432365091,1.41621319251436E-15));
#783=DIRECTION('center_axis',(0.,0.,-1.));
#784=DIRECTION('ref_axis',(-1.,0.,0.));
#785=DIRECTION('center_axis',(0.,0.,1.));
#786=DIRECTION('ref_axis',(-1.,0.,0.));
#787=DIRECTION('',(0.,3.70074341541719E-15,-1.));
#788=DIRECTION('center_axis',(-1.,0.,0.));
#789=DIRECTION('ref_axis',(0.,1.,0.));
#790=DIRECTION('',(0.,-1.,0.));
#791=DIRECTION('',(0.,1.,0.));
#792=DIRECTION('',(0.,3.70074341541719E-15,-1.));
#793=DIRECTION('center_axis',(0.,3.70074341541719E-15,-1.));
#794=DIRECTION('ref_axis',(0.923879532511289,-0.382683432365085,-1.41621319251434E-15));
#795=DIRECTION('center_axis',(0.,0.,-1.));
#796=DIRECTION('ref_axis',(-1.,0.,0.));
#797=DIRECTION('center_axis',(0.,0.,1.));
#798=DIRECTION('ref_axis',(-1.,0.,0.));
#799=DIRECTION('',(0.,3.70074341541719E-15,-1.));
#800=DIRECTION('center_axis',(-0.707106781186548,0.707106781186548,2.61682076447296E-15));
#801=DIRECTION('ref_axis',(0.707106781186548,0.707106781186548,-1.94752627795474E-18));
#802=DIRECTION('',(-0.707106781186547,-0.707106781186547,1.94752627795474E-18));
#803=DIRECTION('',(0.707106781186547,0.707106781186547,-1.94752627795474E-18));
#804=DIRECTION('',(0.,3.70074341541719E-15,-1.));
#805=DIRECTION('center_axis',(0.,3.70074341541719E-15,-1.));
#806=DIRECTION('ref_axis',(0.482251153242199,-0.876033004627434,-3.24197337356311E-15));
#807=DIRECTION('center_axis',(0.,0.,-1.));
#808=DIRECTION('ref_axis',(-1.,0.,0.));
#809=DIRECTION('center_axis',(0.,0.,1.));
#810=DIRECTION('ref_axis',(-1.,0.,0.));
#811=DIRECTION('',(0.,3.70074341541719E-15,-1.));
#812=DIRECTION('center_axis',(-0.21925132906105,0.975668414321671,3.61069845993145E-15));
#813=DIRECTION('ref_axis',(0.975668414321671,0.21925132906105,1.948057688691E-16));
#814=DIRECTION('',(-0.975668414321671,-0.21925132906105,-1.948057688691E-16));
#815=DIRECTION('',(0.975668414321671,0.21925132906105,1.948057688691E-16));
#816=DIRECTION('',(0.,3.70074341541719E-15,-1.));
#817=DIRECTION('center_axis',(-0.102130891239708,0.994770969145453,3.68139211391321E-15));
#818=DIRECTION('ref_axis',(0.994770969145452,0.102130891239708,-3.77713526003776E-16));
#819=DIRECTION('',(-0.994770969145452,-0.102130891239708,3.77713526003776E-16));
#820=DIRECTION('',(0.994770969145452,0.102130891239708,-3.77713526003776E-16));
#821=DIRECTION('',(0.,3.70074341541719E-15,-1.));
#822=DIRECTION('center_axis',(0.,1.,3.70074341541719E-15));
#823=DIRECTION('ref_axis',(1.,0.,0.));
#824=DIRECTION('',(-1.,0.,0.));
#825=DIRECTION('',(1.,0.,0.));
#826=DIRECTION('',(0.,3.70074341541719E-15,-1.));
#827=DIRECTION('center_axis',(1.,0.,0.));
#828=DIRECTION('ref_axis',(0.,-1.,0.));
#829=DIRECTION('',(0.,1.,0.));
#830=DIRECTION('',(0.,-1.,0.));
#831=DIRECTION('',(0.,3.70074341541719E-15,-1.));
#832=DIRECTION('center_axis',(0.,3.70074341541719E-15,-1.));
#833=DIRECTION('ref_axis',(-1.,0.,0.));
#834=DIRECTION('center_axis',(0.,0.,-1.));
#835=DIRECTION('ref_axis',(-1.,0.,0.));
#836=DIRECTION('center_axis',(0.,0.,1.));
#837=DIRECTION('ref_axis',(-1.,0.,0.));
#838=DIRECTION('',(0.,3.70074341541719E-15,-1.));
#839=DIRECTION('center_axis',(5.72318680445925E-34,-1.,-3.70074341541719E-15));
#840=DIRECTION('ref_axis',(-1.,0.,-1.54649651759607E-19));
#841=DIRECTION('',(1.,0.,1.54649651759607E-19));
#842=DIRECTION('',(-1.,0.,-1.54649651759607E-19));
#843=DIRECTION('',(0.,3.70074341541719E-15,-1.));
#844=DIRECTION('center_axis',(-0.102130891239708,-0.994770969145453,-3.68139211391321E-15));
#845=DIRECTION('ref_axis',(-0.994770969145452,0.102130891239708,3.77821384520958E-16));
#846=DIRECTION('',(0.994770969145452,-0.102130891239708,-3.77821384520958E-16));
#847=DIRECTION('',(-0.994770969145452,0.102130891239708,3.77821384520958E-16));
#848=DIRECTION('',(0.,3.70074341541719E-15,-1.));
#849=DIRECTION('center_axis',(-0.21925132906105,-0.975668414321671,-3.61069845993145E-15));
#850=DIRECTION('ref_axis',(-0.975668414321671,0.21925132906105,-1.94363810918685E-16));
#851=DIRECTION('',(0.975668414321671,-0.21925132906105,1.94363810918685E-16));
#852=DIRECTION('',(-0.975668414321671,0.21925132906105,-1.94363810918685E-16));
#853=DIRECTION('',(0.,3.70074341541719E-15,-1.));
#854=DIRECTION('center_axis',(0.,3.70074341541719E-15,-1.));
#855=DIRECTION('ref_axis',(0.482251153242195,0.876033004627436,3.24197337356312E-15));
#856=DIRECTION('center_axis',(0.,0.,-1.));
#857=DIRECTION('ref_axis',(-1.,0.,0.));
#858=DIRECTION('center_axis',(0.,0.,1.));
#859=DIRECTION('ref_axis',(-1.,0.,0.));
#860=DIRECTION('center_axis',(6.91450005296965E-33,-1.,-3.70074341541719E-15));
#861=DIRECTION('ref_axis',(-1.,0.,-1.86840839172044E-18));
#862=DIRECTION('',(-1.,0.,-1.86840839172044E-18));
#863=DIRECTION('',(-1.,0.,-1.86840839172044E-18));
#864=DIRECTION('',(0.,3.70074341541719E-15,-1.));
#865=DIRECTION('center_axis',(0.102130891239708,-0.994770969145453,-3.68139211391321E-15));
#866=DIRECTION('ref_axis',(-0.994770969145452,-0.102130891239708,3.77960223266039E-16));
#867=DIRECTION('',(-0.994770969145452,-0.102130891239708,3.77960223266039E-16));
#868=DIRECTION('',(-0.994770969145452,-0.102130891239708,3.77960223266039E-16));
#869=DIRECTION('',(0.,3.70074341541719E-15,-1.));
#870=DIRECTION('center_axis',(0.21925132906105,-0.975668414321671,-3.61069845993145E-15));
#871=DIRECTION('ref_axis',(-0.975668414321671,-0.21925132906105,-1.95661027482354E-16));
#872=DIRECTION('',(-0.975668414321671,-0.21925132906105,-1.95661027482354E-16));
#873=DIRECTION('',(-0.975668414321671,-0.21925132906105,-1.95661027482354E-16));
#874=DIRECTION('',(0.,3.70074341541719E-15,-1.));
#875=DIRECTION('center_axis',(0.707106781186547,-0.707106781186548,-2.61682076447296E-15));
#876=DIRECTION('ref_axis',(-0.707106781186548,-0.707106781186547,1.9981156970048E-17));
#877=DIRECTION('',(-0.707106781186548,-0.707106781186547,1.9981156970048E-17));
#878=DIRECTION('',(-0.707106781186548,-0.707106781186547,1.9981156970048E-17));
#879=DIRECTION('',(0.,3.70074341541719E-15,-1.));
#880=DIRECTION('center_axis',(1.,2.1708577694006E-16,8.03378759591653E-31));
#881=DIRECTION('ref_axis',(2.1708577694006E-16,-1.,0.));
#882=DIRECTION('',(2.1708577694006E-16,-1.,0.));
#883=DIRECTION('',(2.1708577694006E-16,-1.,0.));
#884=DIRECTION('',(0.,3.70074341541719E-15,-1.));
#885=DIRECTION('center_axis',(0.707106781186548,0.707106781186547,2.61682076447296E-15));
#886=DIRECTION('ref_axis',(0.707106781186547,-0.707106781186548,0.));
#887=DIRECTION('',(0.707106781186547,-0.707106781186548,0.));
#888=DIRECTION('',(0.707106781186547,-0.707106781186548,0.));
#889=DIRECTION('',(0.,3.70074341541719E-15,-1.));
#890=DIRECTION('center_axis',(0.21925132906105,0.975668414321671,3.61069845993145E-15));
#891=DIRECTION('ref_axis',(0.975668414321671,-0.21925132906105,1.89930293286497E-16));
#892=DIRECTION('',(0.975668414321671,-0.21925132906105,1.89930293286497E-16));
#893=DIRECTION('',(0.975668414321671,-0.21925132906105,1.89930293286497E-16));
#894=DIRECTION('',(0.,3.70074341541719E-15,-1.));
#895=DIRECTION('center_axis',(0.102130891239708,0.994770969145453,3.68139211391321E-15));
#896=DIRECTION('ref_axis',(0.994770969145452,-0.102130891239708,-3.7614069181877E-16));
#897=DIRECTION('',(0.994770969145452,-0.102130891239708,-3.7614069181877E-16));
#898=DIRECTION('',(0.994770969145452,-0.102130891239708,-3.7614069181877E-16));
#899=DIRECTION('',(0.,3.70074341541719E-15,-1.));
#900=DIRECTION('center_axis',(-7.68401348264689E-33,1.,3.70074341541719E-15));
#901=DIRECTION('ref_axis',(1.,0.,2.0763432154295E-18));
#902=DIRECTION('',(1.,0.,2.0763432154295E-18));
#903=DIRECTION('',(1.,0.,2.0763432154295E-18));
#904=DIRECTION('center_axis',(-2.0763432154295E-18,-3.70315164374496E-15,
1.));
#905=DIRECTION('ref_axis',(-1.,0.,-2.0763432154295E-18));
#906=DIRECTION('center_axis',(-2.0763432154295E-18,-3.70315164374496E-15,
1.));
#907=DIRECTION('ref_axis',(-1.,0.,-2.0763432154295E-18));
#908=CARTESIAN_POINT('',(0.,0.,0.));
#909=CARTESIAN_POINT('Origin',(-24.4928952097766,20.6000000000001,1.40000000000008));
#910=CARTESIAN_POINT('',(-25.4928952097766,20.6000000000001,1.40000000000008));
#911=CARTESIAN_POINT('Origin',(-24.4928952097766,20.6000000000001,1.40000000000008));
#912=CARTESIAN_POINT('',(-25.4928952097766,18.7500000000001,1.40000000000008));
#913=CARTESIAN_POINT('',(-25.4928952097766,20.6000000000001,1.40000000000008));
#914=CARTESIAN_POINT('Origin',(-24.4928952097766,18.7500000000001,1.40000000000008));
#915=CARTESIAN_POINT('Origin',(-24.4928952097766,-20.5999999999999,1.40000000000008));
#916=CARTESIAN_POINT('',(-25.4928952097766,-20.5999999999999,1.40000000000008));
#917=CARTESIAN_POINT('Origin',(-24.4928952097766,-20.5999999999999,1.40000000000008));
#918=CARTESIAN_POINT('',(-25.4928952097766,-18.7499999999999,1.40000000000008));
#919=CARTESIAN_POINT('',(-25.4928952097766,-20.5999999999999,1.40000000000008));
#920=CARTESIAN_POINT('Origin',(-24.4928952097766,-18.7499999999999,1.40000000000008));
#921=CARTESIAN_POINT('Origin',(-36.75,-20.5999999999999,-4.5969655114602));
#922=CARTESIAN_POINT('',(-36.75,-20.5999999999999,7.39696551146037));
#923=CARTESIAN_POINT('',(-36.75,-20.5999999999999,-4.5969655114602));
#924=CARTESIAN_POINT('',(-36.75,-20.5999999999999,7.39696551146037));
#925=CARTESIAN_POINT('',(-36.75,20.6000000000001,7.39696551146037));
#926=CARTESIAN_POINT('',(-36.75,-20.5999999999999,7.39696551146037));
#927=CARTESIAN_POINT('',(-36.75,20.6000000000001,-4.5969655114602));
#928=CARTESIAN_POINT('',(-36.75,20.6000000000001,7.39696551146037));
#929=CARTESIAN_POINT('',(-36.75,-20.5999999999999,-4.5969655114602));
#930=CARTESIAN_POINT('Origin',(-34.85,-20.5999999999999,-3.49999999999992));
#931=CARTESIAN_POINT('',(-34.85,-20.5999999999999,-3.49999999999992));
#932=CARTESIAN_POINT('',(-34.85,-20.5999999999999,-3.49999999999992));
#933=CARTESIAN_POINT('',(-34.85,20.6000000000001,-3.49999999999992));
#934=CARTESIAN_POINT('',(-34.85,20.6000000000001,-3.49999999999992));
#935=CARTESIAN_POINT('',(-34.85,-20.5999999999999,-3.49999999999992));
#936=CARTESIAN_POINT('Origin',(-36.75,-20.5999999999999,7.39696551146037));
#937=CARTESIAN_POINT('',(-34.85,-20.5999999999999,6.30000000000008));
#938=CARTESIAN_POINT('',(-34.85,-20.5999999999999,6.30000000000008));
#939=CARTESIAN_POINT('',(-34.85,20.6000000000001,6.30000000000008));
#940=CARTESIAN_POINT('',(-34.85,-20.5999999999999,6.30000000000008));
#941=CARTESIAN_POINT('',(-34.85,20.6000000000001,6.30000000000008));
#942=CARTESIAN_POINT('Origin',(-34.85,-20.5999999999999,8.90000000000001));
#943=CARTESIAN_POINT('',(-34.85,20.6000000000001,-6.09999999999999));
#944=CARTESIAN_POINT('',(-34.85,20.6000000000001,8.90000000000001));
#945=CARTESIAN_POINT('',(-34.85,-20.5999999999999,-6.09999999999999));
#946=CARTESIAN_POINT('',(-34.85,-20.5999999999999,-6.09999999999999));
#947=CARTESIAN_POINT('',(-34.85,-20.5999999999999,8.90000000000001));
#948=CARTESIAN_POINT('Origin',(-34.85,-20.5999999999999,8.90000000000001));
#949=CARTESIAN_POINT('',(-34.85,-20.5999999999999,8.90000000000001));
#950=CARTESIAN_POINT('',(-34.85,-20.5999999999999,8.90000000000001));
#951=CARTESIAN_POINT('',(-34.85,20.6000000000001,8.90000000000001));
#952=CARTESIAN_POINT('',(-34.85,-20.5999999999999,8.90000000000001));
#953=CARTESIAN_POINT('',(-34.85,20.6000000000001,8.90000000000001));
#954=CARTESIAN_POINT('Origin',(22.4964466094067,9.8156854249493,8.90000000000001));
#955=CARTESIAN_POINT('',(20.1288696766701,12.1832623576859,8.90000000000001));
#956=CARTESIAN_POINT('',(22.4964466094067,9.8156854249493,8.90000000000001));
#957=CARTESIAN_POINT('',(19.7753162860769,12.5368157482792,8.90000000000001));
#958=CARTESIAN_POINT('',(20.1288696766701,12.1832623576859,-6.09999999999999));
#959=CARTESIAN_POINT('',(20.1288696766701,12.1832623576859,8.90000000000001));
#960=CARTESIAN_POINT('',(22.4964466094067,9.81568542494935,-6.09999999999999));
#961=CARTESIAN_POINT('',(19.7753162860769,12.5368157482792,-6.09999999999999));
#962=CARTESIAN_POINT('',(22.4964466094067,9.8156854249493,8.90000000000001));
#963=CARTESIAN_POINT('Origin',(22.85,9.46213203435602,8.90000000000001));
#964=CARTESIAN_POINT('',(22.85,8.96213203435603,8.90000000000001));
#965=CARTESIAN_POINT('Origin',(22.85,9.46213203435602,8.90000000000001));
#966=CARTESIAN_POINT('',(22.85,8.96213203435608,-6.09999999999999));
#967=CARTESIAN_POINT('Origin',(22.85,9.46213203435608,-6.09999999999999));
#968=CARTESIAN_POINT('',(22.85,8.96213203435603,8.90000000000001));
#969=CARTESIAN_POINT('Origin',(22.85,-8.9621320343559,8.90000000000001));
#970=CARTESIAN_POINT('',(22.85,-8.9621320343559,8.90000000000001));
#971=CARTESIAN_POINT('',(22.85,9.46213203435602,8.90000000000001));
#972=CARTESIAN_POINT('',(22.85,-8.96213203435584,-6.09999999999999));
#973=CARTESIAN_POINT('',(22.85,9.46213203435608,-6.09999999999999));
#974=CARTESIAN_POINT('',(22.85,-8.9621320343559,8.90000000000001));
#975=CARTESIAN_POINT('Origin',(22.85,-9.4621320343559,8.90000000000001));
#976=CARTESIAN_POINT('',(22.4964466094067,-9.81568542494917,8.90000000000001));
#977=CARTESIAN_POINT('Origin',(22.85,-9.4621320343559,8.90000000000001));
#978=CARTESIAN_POINT('',(22.4964466094067,-9.81568542494912,-6.09999999999999));
#979=CARTESIAN_POINT('Origin',(22.85,-9.46213203435584,-6.09999999999999));
#980=CARTESIAN_POINT('',(22.4964466094067,-9.81568542494917,8.90000000000001));
#981=CARTESIAN_POINT('Origin',(20.1288696766701,-12.1832623576858,8.90000000000001));
#982=CARTESIAN_POINT('',(20.1288696766701,-12.1832623576858,8.90000000000001));
#983=CARTESIAN_POINT('',(22.85,-9.4621320343559,8.90000000000001));
#984=CARTESIAN_POINT('',(20.1288696766701,-12.1832623576857,-6.09999999999999));
#985=CARTESIAN_POINT('',(22.85,-9.46213203435585,-6.09999999999999));
#986=CARTESIAN_POINT('',(20.1288696766701,-12.1832623576858,8.90000000000001));
#987=CARTESIAN_POINT('Origin',(19.7753162860769,-12.536815748279,8.90000000000001));
#988=CARTESIAN_POINT('',(19.287482078916,-12.6464414128096,8.90000000000001));
#989=CARTESIAN_POINT('Origin',(19.7753162860769,-12.536815748279,8.90000000000001));
#990=CARTESIAN_POINT('',(19.287482078916,-12.6464414128095,-6.09999999999999));
#991=CARTESIAN_POINT('Origin',(19.7753162860769,-12.536815748279,-6.09999999999999));
#992=CARTESIAN_POINT('',(19.287482078916,-12.6464414128096,8.90000000000001));
#993=CARTESIAN_POINT('Origin',(-2.52581117609059,-17.54830506562,8.9));
#994=CARTESIAN_POINT('',(-2.5258111760906,-17.54830506562,8.9));
#995=CARTESIAN_POINT('',(19.7753162860769,-12.536815748279,8.90000000000001));
#996=CARTESIAN_POINT('',(-2.5258111760906,-17.54830506562,-6.1));
#997=CARTESIAN_POINT('',(19.7753162860769,-12.536815748279,-6.09999999999999));
#998=CARTESIAN_POINT('',(-2.5258111760906,-17.54830506562,8.9));
#999=CARTESIAN_POINT('Origin',(-14.2305091374993,-18.7499999999999,8.90000000000001));
#1000=CARTESIAN_POINT('',(-14.2305091374993,-18.7499999999999,8.90000000000001));
#1001=CARTESIAN_POINT('',(-2.5258111760906,-17.54830506562,8.9));
#1002=CARTESIAN_POINT('',(-14.2305091374993,-18.7499999999999,-6.09999999999999));
#1003=CARTESIAN_POINT('',(-2.5258111760906,-17.54830506562,-6.1));
#1004=CARTESIAN_POINT('',(-14.2305091374993,-18.7499999999999,8.90000000000001));
#1005=CARTESIAN_POINT('Origin',(-33.,-18.7499999999999,8.90000000000001));
#1006=CARTESIAN_POINT('',(-33.,-18.7499999999999,8.90000000000001));
#1007=CARTESIAN_POINT('',(-14.2305091374993,-18.7499999999999,8.90000000000001));
#1008=CARTESIAN_POINT('',(-33.,-18.7499999999999,-6.09999999999999));
#1009=CARTESIAN_POINT('',(-14.2305091374993,-18.7499999999999,-6.09999999999999));
#1010=CARTESIAN_POINT('',(-33.,-18.7499999999999,8.90000000000001));
#1011=CARTESIAN_POINT('Origin',(-33.,18.2500000000001,8.90000000000001));
#1012=CARTESIAN_POINT('',(-33.,18.2500000000001,8.90000000000001));
#1013=CARTESIAN_POINT('',(-33.,-18.7499999999999,8.90000000000001));
#1014=CARTESIAN_POINT('',(-33.,18.2500000000001,-6.09999999999999));
#1015=CARTESIAN_POINT('',(-33.,-18.7499999999999,-6.09999999999999));
#1016=CARTESIAN_POINT('',(-33.,18.2500000000001,8.90000000000001));
#1017=CARTESIAN_POINT('Origin',(-33.,18.7500000000001,8.90000000000001));
#1018=CARTESIAN_POINT('',(-32.5,18.7500000000001,8.90000000000001));
#1019=CARTESIAN_POINT('Origin',(-33.,18.7500000000001,8.90000000000001));
#1020=CARTESIAN_POINT('',(-32.5,18.7500000000001,-6.09999999999999));
#1021=CARTESIAN_POINT('Origin',(-33.,18.7500000000001,-6.09999999999999));
#1022=CARTESIAN_POINT('',(-32.5,18.7500000000001,8.90000000000001));
#1023=CARTESIAN_POINT('Origin',(-14.2305091374993,18.7500000000001,8.90000000000001));
#1024=CARTESIAN_POINT('',(-14.2305091374993,18.7500000000001,8.90000000000001));
#1025=CARTESIAN_POINT('',(-33.,18.7500000000001,8.90000000000001));
#1026=CARTESIAN_POINT('',(-14.2305091374993,18.7500000000001,-6.09999999999999));
#1027=CARTESIAN_POINT('',(-33.,18.7500000000001,-6.09999999999999));
#1028=CARTESIAN_POINT('',(-14.2305091374993,18.7500000000001,8.90000000000001));
#1029=CARTESIAN_POINT('Origin',(-2.52581117609059,17.5483050656202,8.9));
#1030=CARTESIAN_POINT('',(-2.52581117609059,17.5483050656202,8.9));
#1031=CARTESIAN_POINT('',(-14.2305091374993,18.7500000000001,8.90000000000001));
#1032=CARTESIAN_POINT('',(-2.52581117609059,17.5483050656202,-6.1));
#1033=CARTESIAN_POINT('',(-14.2305091374993,18.7500000000001,-6.09999999999999));
#1034=CARTESIAN_POINT('',(-2.52581117609059,17.5483050656202,8.9));
#1035=CARTESIAN_POINT('Origin',(19.287482078916,12.6464414128097,8.90000000000001));
#1036=CARTESIAN_POINT('',(19.287482078916,12.6464414128097,8.90000000000001));
#1037=CARTESIAN_POINT('',(-2.52581117609059,17.5483050656202,8.9));
#1038=CARTESIAN_POINT('',(19.287482078916,12.6464414128097,-6.09999999999999));
#1039=CARTESIAN_POINT('',(-2.52581117609059,17.5483050656202,-6.1));
#1040=CARTESIAN_POINT('',(19.287482078916,12.6464414128097,8.90000000000001));
#1041=CARTESIAN_POINT('Origin',(19.7753162860769,12.5368157482792,8.90000000000001));
#1042=CARTESIAN_POINT('Origin',(19.7753162860769,12.5368157482792,8.90000000000001));
#1043=CARTESIAN_POINT('Origin',(19.7753162860769,12.5368157482792,-6.09999999999999));
#1044=CARTESIAN_POINT('Origin',(-14.1357904195533,-20.5999999999999,8.90000000000001));
#1045=CARTESIAN_POINT('',(-14.1357904195533,-20.5999999999999,8.90000000000001));
#1046=CARTESIAN_POINT('',(-14.1357904195533,-20.5999999999999,8.90000000000001));
#1047=CARTESIAN_POINT('',(-14.1357904195533,-20.5999999999999,-6.09999999999999));
#1048=CARTESIAN_POINT('',(-14.1357904195533,-20.5999999999999,-6.09999999999999));
#1049=CARTESIAN_POINT('',(-14.1357904195533,-20.5999999999999,8.90000000000001));
#1050=CARTESIAN_POINT('Origin',(-2.22748234787463,-19.3774008749347,8.9));
#1051=CARTESIAN_POINT('',(-2.22748234787463,-19.3774008749347,8.9));
#1052=CARTESIAN_POINT('',(-2.22748234787463,-19.3774008749347,8.9));
#1053=CARTESIAN_POINT('',(-2.22748234787464,-19.3774008749346,-6.1));
#1054=CARTESIAN_POINT('',(-2.22748234787463,-19.3774008749346,-6.1));
#1055=CARTESIAN_POINT('',(-2.22748234787463,-19.3774008749347,8.9));
#1056=CARTESIAN_POINT('Origin',(20.7042171476915,-14.2242099770547,8.90000000000001));
#1057=CARTESIAN_POINT('',(20.7042171476915,-14.2242099770547,8.90000000000001));
#1058=CARTESIAN_POINT('',(20.7042171476915,-14.2242099770547,8.90000000000001));
#1059=CARTESIAN_POINT('',(20.7042171476915,-14.2242099770546,-6.09999999999999));
#1060=CARTESIAN_POINT('',(20.7042171476915,-14.2242099770546,-6.09999999999999));
#1061=CARTESIAN_POINT('',(20.7042171476915,-14.2242099770547,8.90000000000001));
#1062=CARTESIAN_POINT('Origin',(24.7,-10.2284271247461,8.90000000000001));
#1063=CARTESIAN_POINT('',(24.7,-10.2284271247461,8.90000000000001));
#1064=CARTESIAN_POINT('',(24.7,-10.2284271247461,8.90000000000001));
#1065=CARTESIAN_POINT('',(24.7,-10.2284271247461,-6.09999999999999));
#1066=CARTESIAN_POINT('',(24.7,-10.2284271247461,-6.09999999999999));
#1067=CARTESIAN_POINT('',(24.7,-10.2284271247461,8.90000000000001));
#1068=CARTESIAN_POINT('Origin',(24.7,10.2284271247463,8.90000000000001));
#1069=CARTESIAN_POINT('',(24.7,10.2284271247463,8.90000000000001));
#1070=CARTESIAN_POINT('',(24.7,10.2284271247463,8.90000000000001));
#1071=CARTESIAN_POINT('',(24.7,10.2284271247463,-6.09999999999999));
#1072=CARTESIAN_POINT('',(24.7,10.2284271247463,-6.09999999999999));
#1073=CARTESIAN_POINT('',(24.7,10.2284271247463,8.90000000000001));
#1074=CARTESIAN_POINT('Origin',(20.7042171476915,14.2242099770548,8.90000000000001));
#1075=CARTESIAN_POINT('',(20.7042171476915,14.2242099770548,8.90000000000001));
#1076=CARTESIAN_POINT('',(20.7042171476915,14.2242099770548,8.90000000000001));
#1077=CARTESIAN_POINT('',(20.7042171476915,14.2242099770548,-6.09999999999999));
#1078=CARTESIAN_POINT('',(20.7042171476915,14.2242099770548,-6.09999999999999));
#1079=CARTESIAN_POINT('',(20.7042171476915,14.2242099770548,8.90000000000001));
#1080=CARTESIAN_POINT('Origin',(-2.22748234787463,19.3774008749348,8.9));
#1081=CARTESIAN_POINT('',(-2.22748234787463,19.3774008749348,8.9));
#1082=CARTESIAN_POINT('',(-2.22748234787463,19.3774008749348,8.9));
#1083=CARTESIAN_POINT('',(-2.22748234787463,19.3774008749349,-6.1));
#1084=CARTESIAN_POINT('',(-2.22748234787463,19.3774008749349,-6.1));
#1085=CARTESIAN_POINT('',(-2.22748234787463,19.3774008749348,8.9));
#1086=CARTESIAN_POINT('Origin',(-14.1357904195533,20.6000000000001,8.90000000000001));
#1087=CARTESIAN_POINT('',(-14.1357904195533,20.6000000000001,8.90000000000001));
#1088=CARTESIAN_POINT('',(-14.1357904195533,20.6000000000001,8.90000000000001));
#1089=CARTESIAN_POINT('',(-14.1357904195533,20.6000000000001,-6.09999999999999));
#1090=CARTESIAN_POINT('',(-14.1357904195533,20.6000000000001,-6.09999999999999));
#1091=CARTESIAN_POINT('',(-14.1357904195533,20.6000000000001,8.90000000000001));
#1092=CARTESIAN_POINT('Origin',(-34.85,20.6000000000001,8.90000000000001));
#1093=CARTESIAN_POINT('',(-32.7755811441114,20.6000000000001,8.90000000000001));
#1094=CARTESIAN_POINT('',(-32.7755811441114,20.6000000000001,-6.09999999999999));
#1095=CARTESIAN_POINT('Origin',(-5.075,6.29535779436646E-14,8.89999999999993));
#1096=CARTESIAN_POINT('Origin',(-5.075,1.18464729174922E-13,-6.10000000000007));
#1097=UNCERTAINTY_MEASURE_WITH_UNIT(LENGTH_MEASURE(0.01),#1101,
'DISTANCE_ACCURACY_VALUE',
'Maximum model space distance between geometric entities at asserted c
onnectivities');
#1098=UNCERTAINTY_MEASURE_WITH_UNIT(LENGTH_MEASURE(0.01),#1101,
'DISTANCE_ACCURACY_VALUE',
'Maximum model space distance between geometric entities at asserted c
onnectivities');
#1099=(
GEOMETRIC_REPRESENTATION_CONTEXT(3)
GLOBAL_UNCERTAINTY_ASSIGNED_CONTEXT((#1097))
GLOBAL_UNIT_ASSIGNED_CONTEXT((#1101,#1103,#1104))
REPRESENTATION_CONTEXT('','3D')
);
#1100=(
GEOMETRIC_REPRESENTATION_CONTEXT(3)
GLOBAL_UNCERTAINTY_ASSIGNED_CONTEXT((#1098))
GLOBAL_UNIT_ASSIGNED_CONTEXT((#1101,#1103,#1104))
REPRESENTATION_CONTEXT('','3D')
);
#1101=(
LENGTH_UNIT()
NAMED_UNIT(*)
SI_UNIT(.MILLI.,.METRE.)
);
#1102=(
LENGTH_UNIT()
NAMED_UNIT(*)
SI_UNIT($,.METRE.)
);
#1103=(
NAMED_UNIT(*)
PLANE_ANGLE_UNIT()
SI_UNIT($,.RADIAN.)
);
#1104=(
NAMED_UNIT(*)
SI_UNIT($,.STERADIAN.)
SOLID_ANGLE_UNIT()
);
#1105=SHAPE_DEFINITION_REPRESENTATION(#1106,#1107);
#1106=PRODUCT_DEFINITION_SHAPE('',$,#1109);
#1107=SHAPE_REPRESENTATION('',(#685),#1099);
#1108=PRODUCT_DEFINITION_CONTEXT('part definition',#1113,'design');
#1109=PRODUCT_DEFINITION('J1-holder','J1-holder',#1110,#1108);
#1110=PRODUCT_DEFINITION_FORMATION('',$,#1115);
#1111=PRODUCT_RELATED_PRODUCT_CATEGORY('J1-holder','J1-holder',(#1115));
#1112=APPLICATION_PROTOCOL_DEFINITION('international standard',
'automotive_design',2009,#1113);
#1113=APPLICATION_CONTEXT(
'Core Data for Automotive Mechanical Design Process');
#1114=PRODUCT_CONTEXT('part definition',#1113,'mechanical');
#1115=PRODUCT('J1-holder','J1-holder',$,(#1114));
#1116=PRESENTATION_STYLE_ASSIGNMENT((#1117));
#1117=SURFACE_STYLE_USAGE(.BOTH.,#1118);
#1118=SURFACE_SIDE_STYLE('',(#1119));
#1119=SURFACE_STYLE_FILL_AREA(#1120);
#1120=FILL_AREA_STYLE('Nylon 6-6 (White)',(#1121));
#1121=FILL_AREA_STYLE_COLOUR('Nylon 6-6 (White)',#1122);
#1122=COLOUR_RGB('Nylon 6-6 (White)',0.972549019607843,0.968627450980392,
0.929411764705882);
ENDSEC;
END-ISO-10303-21;
